<?xml version="1.0" standalone="no"?>
<!DOCTYPE svg PUBLIC "-//W3C//DTD SVG 20010904//EN" "http://www.w3.org/TR/2001/REC-SVG-20010904/DTD/svg10.dtd">
<!-- Created using Krita: https://krita.org -->
<svg xmlns="http://www.w3.org/2000/svg" 
    xmlns:xlink="http://www.w3.org/1999/xlink"
    xmlns:krita="http://krita.org/namespaces/svg/krita"
    xmlns:sodipodi="http://sodipodi.sourceforge.net/DTD/sodipodi-0.dtd"
    width="474pt"
    height="434pt"
    viewBox="0 0 474 434">
<defs/>
<path id="shape0" transform="translate(173.500012956036, 0)" fill="#7aa85f" fill-rule="evenodd" stroke="#7aa85f" stroke-width="0.88" stroke-linecap="square" stroke-linejoin="bevel" d="M4.5 66L0 122.5L72 207L171 254L240 277L257 269L293 223.5L294 154.5L260 70L253 45L262.5 25L247.5 35L252.5 20L240 30L243.5 0L219.5 19.5L219.5 0L207 11L200.5 0L185 21.5L107 29.5L38.5 27L4.5 66"/><path id="shape1" transform="translate(231.000017249824, 29.0000021655623)" fill="#507e46" fill-rule="evenodd" stroke="#507e46" stroke-width="0.88" stroke-linecap="square" stroke-linejoin="bevel" d="M0 102.5L70.5 98.5L143 130.5L168.5 77L182 7.5L200.5 0L195.5 24L218 85.5L236 136.5L235 193L203.5 233.5L183 245L24.5 176L0 102.5"/><path id="shape2" transform="translate(248.194491186282, 34.6482338123299)" fill="#aad494" fill-rule="evenodd" stroke="#aad494" stroke-width="0.88" stroke-linecap="square" stroke-linejoin="bevel" d="M0 57.2757L17.6777 30.4056L59.397 14.1421L131.522 0L108.187 33.234L41.0122 44.5477L0 57.2757"/><path id="shape3" transform="translate(176.069596311636, 16.2634566874202)" fill="#aad494" fill-rule="evenodd" stroke="#aad494" stroke-width="0.88" stroke-linecap="square" stroke-linejoin="bevel" d="M0 77.7817L4.94975 45.9619L45.9619 13.435L106.066 7.07107L155.563 9.8995L185.262 0L155.563 16.9706L98.995 20.5061L48.0833 34.6482L0 77.7817"/><path id="shape4" transform="translate(335.250020900833, 36.0000022443848)" fill="#2f5028" fill-rule="evenodd" stroke="#2f5028" stroke-width="0.88" stroke-linecap="square" stroke-linejoin="bevel" d="M0 207.5L80 172.75L89.25 126.75L83.75 10.75L93.25 0L87.25 16.75L95.25 126.75L87.75 183.5L0 207.5"/><path id="shape5" transform="translate(316.076730469708, 77.4281923633849)" fill="#2f5028" fill-rule="evenodd" stroke="#2f5028" stroke-width="0.88" stroke-linecap="square" stroke-linejoin="bevel" d="M13.7886 163.342L0 76.014L53.3866 0L6.71751 81.3173L13.7886 163.342"/><path id="shape6" transform="translate(207.535836375805, 25.1022902601059)" fill="#2f5028" fill-rule="evenodd" stroke="#2f5028" stroke-width="0.88" stroke-linecap="square" stroke-linejoin="bevel" d="M19.4454 136.472L0 62.2254L54.0937 21.2132L111.369 10.253L150.614 0L99.3485 19.0919L44.5477 33.234L15.2028 62.5789L18.7383 133.29L19.4454 136.472"/><path id="shape7" transform="translate(53.0330109372397, 150.613751061761)" fill="#7ec9ae" fill-rule="evenodd" stroke="#7ec9ae" stroke-width="0.88" stroke-linecap="square" stroke-linejoin="bevel" d="M245.366 0L376.888 117.38L396.687 198.697L371.938 265.165L338.704 272.236L294.864 260.215L283.55 227.688L263.044 226.274L220.617 275.065L165.463 263.044L164.756 241.831L135.765 205.768L118.794 200.111L90.5097 255.973L40.3051 255.973L0 172.534L5.65685 130.815L248.902 4.94975L245.366 0"/><path id="shape8" transform="translate(323.000003658982, 194.000002197655)" fill="#197270" fill-rule="evenodd" stroke="#197270" stroke-width="0.88" stroke-linecap="square" stroke-linejoin="bevel" d="M0 2.5L30.5 0L61.5 28L65.5 57.5L23.5 60L0 2.5"/><path id="shape9" transform="translate(367.00000415742, 305.000003455076)" fill="#197270" fill-rule="evenodd" stroke="#197270" stroke-width="0.88" stroke-linecap="square" stroke-linejoin="bevel" d="M22 3.5L0 31L18 65L39.5 41L33 0L22 3.5"/><path id="shape10" transform="translate(414.000004689841, 343.000003885545)" fill="#197270" fill-rule="evenodd" stroke="#197270" stroke-width="0.88" stroke-linecap="square" stroke-linejoin="bevel" d="M1 3L0 11L5 12.5L10 4L3 0L1 3"/><path id="shape11" transform="translate(270.500003064256, 321.50000364199)" fill="#197270" fill-rule="evenodd" stroke="#197270" stroke-width="0.88" stroke-linecap="square" stroke-linejoin="bevel" d="M0 10L17.5 0L18.5 23.5L8.5 25L0 10"/><path id="shape12" transform="translate(222.000002514842, 341.500003868553)" fill="#197270" fill-rule="evenodd" stroke="#197270" stroke-width="0.88" stroke-linecap="square" stroke-linejoin="bevel" d="M4.5 22L40.5 0L32.5 48.5L6 50.5L0 37L4.5 22"/><path id="shape13" transform="translate(67.500000764648, 328.000003715623)" fill="#197270" fill-rule="evenodd" stroke="#197270" stroke-width="0.88" stroke-linecap="square" stroke-linejoin="bevel" d="M0 25L11 7L32.5 0L43.5 25L22.5 47.5L6.5 42.5L0 25"/><path id="shape14" transform="translate(210.500002384569, 407.000004610544)" fill="#ffffff" fill-rule="evenodd" stroke="#ffffff" stroke-width="0.88" stroke-linecap="square" stroke-linejoin="bevel" d="M6.5 0L0 16L14.5 9.5L6.5 0"/><path id="shape15" transform="translate(237, 416.000004712497)" fill="#ffffff" fill-rule="evenodd" stroke="#ffffff" stroke-width="0.88" stroke-linecap="square" stroke-linejoin="bevel" d="M0 3L13 0L16 12L0 13L0 3"/><path id="shape16" transform="translate(261.000002956639, 417.50000472949)" fill="#ffffff" fill-rule="evenodd" stroke="#ffffff" stroke-width="0.88" stroke-linecap="square" stroke-linejoin="bevel" d="M0 6.5L6.5 0L13.5 5.5L3 16.5L0 6.5"/><path id="shape17" transform="translate(345.500003913865, 408.500004627536)" fill="#ffffff" fill-rule="evenodd" stroke="#ffffff" stroke-width="0.88" stroke-linecap="square" stroke-linejoin="bevel" d="M7 0L0 12.5L18 8L7 0"/><path id="shape18" transform="translate(370.500004197068, 416.500004718161)" fill="#ffffff" fill-rule="evenodd" stroke="#ffffff" stroke-width="0.88" stroke-linecap="square" stroke-linejoin="bevel" d="M2.5 0.5L0 10.5L15 0L2.5 0.5"/><path id="shape19" transform="translate(397.500004502927, 410.500004650193)" fill="#ffffff" fill-rule="evenodd" stroke="#ffffff" stroke-width="0.88" stroke-linecap="square" stroke-linejoin="bevel" d="M0.5 6.5L0 15.5L17.5 7.5L6 0L0.5 6.5"/><path id="shape20" transform="translate(203.000002299608, 387.500004389646)" fill="#ffffff" fill-rule="evenodd" stroke="#ffffff" stroke-width="0.88" stroke-linecap="square" stroke-linejoin="bevel" d="M5 0L0 8L11 8L5 0"/><path id="shape21" transform="translate(85.5000009685541, 396.000004485935)" fill="#ffffff" fill-rule="evenodd" stroke="#ffffff" stroke-width="0.88" stroke-linecap="square" stroke-linejoin="bevel" d="M4 0L0 18L22.5 10L4 0"/><path id="shape22" transform="translate(108.500001229101, 401.50000454824)" fill="#ffffff" fill-rule="evenodd" stroke="#ffffff" stroke-width="0.88" stroke-linecap="square" stroke-linejoin="bevel" d="M11.5 0L0 13L18.5 11L11.5 0"/><path id="shape23" transform="translate(79.0000008949214, 392.000004440623)" fill="#ffffff" fill-rule="evenodd" stroke="#ffffff" stroke-width="0.88" stroke-linecap="square" stroke-linejoin="bevel" d="M3 0L0 14L15 10.5L3 0"/><path id="shape24" transform="translate(107.500001418333, 296.500003911961)" fill="#638f89" fill-rule="evenodd" stroke="#638f89" stroke-width="0.88" stroke-linecap="square" stroke-linejoin="bevel" d="M2.5 20.5L9 68L0 110.5L6 110.5L15.5 105L21 113.5L36.5 107.5L65.5 56L83.5 60.5L109.5 98L120 55L155 0L89 23.5L32.5 25L2.5 20.5"/><path id="shape25" transform="translate(319.000020994756, 350.500023067906)" fill="#638f89" fill-rule="evenodd" stroke="#638f89" stroke-width="0.88" stroke-linecap="square" stroke-linejoin="bevel" d="M0 28L17 0L16.5 30L0 28"/><path id="shape26" transform="translate(338.000022245227, 282.500018592535)" fill="#638f89" fill-rule="evenodd" stroke="#638f89" stroke-width="0.88" stroke-linecap="square" stroke-linejoin="bevel" d="M0.5 0L36 11.5L0 62L0.5 0"/><path id="shape27" transform="translate(335.500022080692, 332.000021850342)" fill="#638f89" fill-rule="evenodd" stroke="#638f89" stroke-width="0.88" stroke-linecap="square" stroke-linejoin="bevel" d="M13.5 0L52.5 57L111 17L89.5 80L76 87L21 79.5L0 47.5L1.5 17L13.5 0"/><path id="shape28" transform="translate(296.012581596568, 151.05568884698)" fill="#7ec9ae" fill-rule="evenodd" stroke="#7ec9ae" stroke-width="0.88" stroke-linecap="square" stroke-linejoin="bevel" d="M0 0L4.59619 1.41421L7.42462 6.01041L3.27037 11.5789L0 0"/><path id="shape29" transform="translate(333.400851054604, 344.184229588183)" fill="#638f89" fill-rule="evenodd" stroke="#638f89" stroke-width="0.88" stroke-linecap="square" stroke-linejoin="bevel" d="M105.801 9.28076L115.7 2.29809L116.319 6.7175L91.3936 73.3623L64.877 79.7263L15.9099 69.65L4.41942 38.1838L0 11.4905L6.36396 0L71.7713 57.0989L105.801 9.28076"/><path id="shape30" transform="translate(115.081632334583, 387.848081938671)" fill="#638f89" fill-rule="evenodd" stroke="#638f89" stroke-width="0.88" stroke-linecap="square" stroke-linejoin="bevel" d="M0 18.5616L6.71751 15.026L10.7834 22.0087L29.2565 18.2964L38.007 0L0.795495 8.39689L0 18.5616"/><path id="shape31" transform="translate(345.068109373358, 408.530943013233)" fill="#ffffff" fill-rule="evenodd" stroke="#ffffff" stroke-width="0.88" stroke-linecap="square" stroke-linejoin="bevel" d="M0 11.844L8.3085 0L16.0867 3.18198L17.1473 9.19239L0 11.844"/><path id="shape32" transform="translate(370.523953507458, 413.657467179128)" fill="#ffffff" fill-rule="evenodd" stroke="#ffffff" stroke-width="0.88" stroke-linecap="square" stroke-linejoin="bevel" d="M2.82843 0.353553L0 14.1421L12.1976 6.36396L8.3085 0L2.82843 0.353553"/><path id="shape33" transform="translate(397.040457813813, 415.071680742134)" fill="#ffffff" fill-rule="evenodd" stroke="#ffffff" stroke-width="0.88" stroke-linecap="square" stroke-linejoin="bevel" d="M0.176777 9.54594L6.89429 0L13.7886 6.01041L0 12.3744L0.176777 9.54594"/><path id="shape34" transform="translate(225.036726506057, 310.596644517786)" fill="#b6e0d1" fill-rule="evenodd" stroke="#b6e0d1" stroke-width="0.88" stroke-linecap="square" stroke-linejoin="bevel" d="M29.5217 0L3.0052 39.9515L0 53.033L23.3345 39.0676L29.5217 0"/><path id="shape35" transform="translate(217.788882211675, 377.948563448507)" fill="#b6e0d1" fill-rule="evenodd" stroke="#b6e0d1" stroke-width="0.88" stroke-linecap="square" stroke-linejoin="bevel" d="M27.2236 13.9654L25.6326 38.7141L19.2111 40.8354L7.95495 38.5373L0.176777 29.5217L0 11.3137L3.53553 0L10.6066 15.5563L27.2236 13.9654"/><path id="shape36" transform="translate(53.0000003258708, 288.00000177077)" fill="#b6e0d1" fill-rule="evenodd" stroke="#b6e0d1" stroke-width="0.88" stroke-linecap="square" stroke-linejoin="bevel" d="M5.25 0L0 35.75L14 64.75L23.75 47.75L32.5 42L5.25 0"/><path id="shape37" transform="translate(75.7500004657494, 365.500002247279)" fill="#b6e0d1" fill-rule="evenodd" stroke="#b6e0d1" stroke-width="0.88" stroke-linecap="square" stroke-linejoin="bevel" d="M24 0L24.5 36.25L12.25 26.75L0 6.5L15.25 10.75L24 0"/><path id="shape38" transform="translate(0, 57.9827586247154)" fill="#7ec9ae" fill-rule="evenodd" stroke="#7ec9ae" stroke-width="0.88" stroke-linecap="square" stroke-linejoin="bevel" d="M60.8112 0L40.3051 68.5894L19.0919 115.258L0 171.12L62.2254 234.759L138.593 263.751L276.479 231.224L306.884 138.593L282.136 12.7279L237 32.5269L113.844 20.5061L60.8112 0"/><path id="shape39" transform="translate(104.651808249486, 96.8736333120245)" fill="#197270" fill-rule="evenodd" stroke="#197270" stroke-width="0.88" stroke-linecap="square" stroke-linejoin="bevel" d="M0 23.3345L70.7107 0L84.8528 18.3848L24.0416 53.7401L0 23.3345"/><path id="shape40" transform="translate(77.7817493746182, 140.007148874313)" fill="#197270" fill-rule="evenodd" stroke="#197270" stroke-width="0.88" stroke-linecap="square" stroke-linejoin="bevel" d="M0 9.19239L10.6066 0L18.3848 13.435L9.19239 30.4056L0 9.19239"/><path id="shape41" transform="translate(117.379730874424, 163.341673686698)" fill="#197270" fill-rule="evenodd" stroke="#197270" stroke-width="0.88" stroke-linecap="square" stroke-linejoin="bevel" d="M0 12.0208L22.6274 0L17.6777 19.799L2.82843 29.6985L0 12.0208"/><path id="shape42" transform="translate(182.433557624105, 152.73507149925)" fill="#ffffff" fill-rule="evenodd" stroke="#ffffff" stroke-width="0.88" stroke-linecap="square" stroke-linejoin="bevel" d="M54.5664 0L15.5563 30.4056L0 81.3173L54.5664 86.9741L86.9741 71.4178L54.5664 0"/><path id="shape43" transform="translate(16.2634566874202, 152.73507149925)" fill="#ffffff" fill-rule="evenodd" stroke="#ffffff" stroke-width="0.88" stroke-linecap="square" stroke-linejoin="bevel" d="M28.2843 0L50.9117 29.6985L41.7193 74.9533L0 64.2649L15.5563 11.3137L28.2843 0"/><path id="shape44" transform="translate(209.303616498973, 155.563498749236)" fill="#c0415c" fill-rule="evenodd" stroke="#c0415c" stroke-width="0.88" stroke-linecap="square" stroke-linejoin="bevel" d="M2.12132 19.0919L0 61.4365L10.6066 82.7315L60.8112 61.4365L27.6964 0L2.12132 19.0919"/><path id="shape45" transform="translate(32.5269133748403, 156.97771237423)" fill="#c0415c" fill-rule="evenodd" stroke="#c0415c" stroke-width="0.88" stroke-linecap="square" stroke-linejoin="bevel" d="M19.0919 0L0 38.1838L0.707107 60.0223L22.6274 69.2965L32.5269 26.8701L19.0919 0"/><path id="shape46" transform="translate(226.981286811386, 175.362489499139)" fill="#ffffff" fill-rule="evenodd" stroke="#ffffff" stroke-width="0.88" stroke-linecap="square" stroke-linejoin="bevel" d="M10.0187 0L0 25.4558L4.24264 41.6375L18.3848 21.2132L10.0187 0"/><path id="shape47" transform="translate(43.8406223747848, 178.190916749125)" fill="#ffffff" fill-rule="evenodd" stroke="#ffffff" stroke-width="0.88" stroke-linecap="square" stroke-linejoin="bevel" d="M7.07107 0L0 26.8701L3.53553 38.8091L12.7279 16.2635L7.07107 0"/><path id="shape48" transform="translate(26.1629520623716, 246.780277561289)" fill="#df827f" fill-rule="evenodd" stroke="#df827f" stroke-width="0.88" stroke-linecap="square" stroke-linejoin="bevel" d="M77.7817 28.9914L146.371 18.3848L210.837 16.2635L226.274 7.77817L129.401 62.2254L45.9619 41.0122L0 0L77.7817 28.9914"/><path id="shape49" transform="translate(203.646761999, 262.336627436212)" fill="#ffffff" fill-rule="evenodd" stroke="#ffffff" stroke-width="0.88" stroke-linecap="square" stroke-linejoin="bevel" d="M0 0.707107L6.36396 19.0919L19.0919 0L0 0.707107"/><path id="shape50" transform="translate(42.4264087497917, 251.730025248764)" fill="#ffffff" fill-rule="evenodd" stroke="#ffffff" stroke-width="0.88" stroke-linecap="square" stroke-linejoin="bevel" d="M0 0L4.24264 14.1421L14.8492 5.65685L0 0"/><path id="shape51" transform="translate(26.8700588748681, 249.608704811275)" fill="#503439" fill-rule="evenodd" stroke="#503439" stroke-width="0.88" stroke-linecap="square" stroke-linejoin="bevel" d="M0 0L28.2843 24.7487L48.7904 15.5563L31.1127 7.07107L20.5061 16.9706L16.9706 3.53553L0 0"/><path id="shape52" transform="translate(101.250005674221, 252.500014150527)" fill="#000000" fill-rule="evenodd" stroke="#000000" stroke-width="0.88" stroke-linecap="square" stroke-linejoin="bevel" d="M0 4.125L6.75 0"/><path id="shape53" transform="translate(84.8750047565384, 249.250013968391)" fill="#000000" fill-rule="evenodd" stroke="#000000" stroke-width="0.88" stroke-linecap="square" stroke-linejoin="bevel" d="M0 0L1.375 5.75"/><path id="shape54" transform="translate(170.059184802168, 150.083417772392)" fill="#000000" fill-rule="evenodd" stroke="#000000" stroke-width="0.88" stroke-linecap="square" stroke-linejoin="bevel" d="M0 32.1734L7.42462 15.7331L23.1577 0"/><path id="shape55" transform="translate(40.7500003476735, 58.5000004991141)" fill="#b6e0d1" fill-rule="evenodd" stroke="#b6e0d1" stroke-width="0.88" stroke-linecap="square" stroke-linejoin="bevel" d="M20.75 0L60.25 15L27.5 13L13.75 53.25L0 65.75L20.75 0"/><path id="shape56" transform="translate(115.611956924319, 79.195958260084)" fill="#b6e0d1" fill-rule="evenodd" stroke="#b6e0d1" stroke-width="0.88" stroke-linecap="square" stroke-linejoin="bevel" d="M0 0L6.71751 19.4454L82.3779 6.71751L0 0"/><path id="shape57" transform="translate(240.125008590771, 70.5000025222253)" fill="#b6e0d1" fill-rule="evenodd" stroke="#b6e0d1" stroke-width="0.88" stroke-linecap="square" stroke-linejoin="bevel" d="M0 19L42 0L20.375 15.25L0 19"/><path id="shape58" transform="translate(170.854681141757, 150.790525622265)" fill="#b6e0d1" fill-rule="evenodd" stroke="#b6e0d1" stroke-width="0.88" stroke-linecap="square" stroke-linejoin="bevel" d="M22.8042 0L0 31.5546L11.9324 24.7487L23.5997 7.07107L22.8042 0"/><path id="shape59" transform="translate(0, 127.250004314124)" fill="#b6e0d1" fill-rule="evenodd" stroke="#b6e0d1" stroke-width="0.88" stroke-linecap="square" stroke-linejoin="bevel" d="M0 100.5L21.75 38.25L40.25 0L31.25 35.75L14.75 96L0 100.5"/><path id="shape60" transform="translate(24.1875017097327, 245.750017371238)" fill="#503439" fill-rule="evenodd" stroke="#503439" stroke-width="0.88" stroke-linecap="square" stroke-linejoin="bevel" d="M12.25 12.6875L0 0.875L3.4375 0L20.4375 6.3125L21.9375 18.6875L12.25 12.6875"/><path id="shape61" transform="translate(224.152850995068, 254.381666074056)" fill="#df827f" fill-rule="evenodd" stroke="#df827f" stroke-width="0.88" stroke-linecap="square" stroke-linejoin="bevel" d="M0 7.77817L29.3449 0L3.35876 15.2028L0 7.77817"/><path id="shape62" transform="translate(215.137236073238, 262.115642389148)" fill="#df827f" fill-rule="evenodd" stroke="#df827f" stroke-width="0.88" stroke-linecap="square" stroke-linejoin="bevel" d="M17.2357 4.46361L0 14.1421L8.13173 0L17.059 4.19845L17.0148 4.19845L17.2357 4.46361"/>
</svg>
