<?xml version="1.0" standalone="no"?>
<!DOCTYPE svg PUBLIC "-//W3C//DTD SVG 20010904//EN" "http://www.w3.org/TR/2001/REC-SVG-20010904/DTD/svg10.dtd">
<!-- Created using Krita: https://krita.org -->
<svg xmlns="http://www.w3.org/2000/svg" 
    xmlns:xlink="http://www.w3.org/1999/xlink"
    xmlns:krita="http://krita.org/namespaces/svg/krita"
    xmlns:sodipodi="http://sodipodi.sourceforge.net/DTD/sodipodi-0.dtd"
    width="474pt"
    height="434pt"
    viewBox="0 0 474 434">
<defs/>
<path id="shape0" transform="translate(156.000011207295, 166.500011961632)" fill="#000000" fill-rule="evenodd" stroke="#000000" stroke-width="2" stroke-linecap="square" stroke-linejoin="bevel" d="M42 0L0 50.5L23 138L50.5 192.5L120.5 228.5L140 188.5L112.5 111.5L106.5 18" sodipodi:nodetypes="cccccccc"/><path id="shape1" transform="translate(100.939491110453, 208.773273207435)" fill="#fdea98" fill-rule="evenodd" stroke="#fdea98" stroke-width="2" stroke-linecap="square" stroke-linejoin="bevel" d="M30.4056 88.7419L10.4298 84.3225L0 59.2202L9.19239 40.1283L21.5668 15.9099L55.1543 0L99.5253 8.22673L127.633 21.5668L124.628 46.4923L143.189 65.2306L142.482 85.7367L133.997 93.3381L146.018 105.359L145.664 122.506L144.25 127.986L149.73 144.603L148.316 150.083L155.917 150.967L185.085 176.246L242.361 191.803L280.014 181.373L295.394 170.413L273.12 194.985L204.884 213.723L136.061 203.116L89.2722 177.13L71.0642 155.21L63.9932 152.558L47.9065 158.038L29.1682 144.073L27.5772 126.926L31.2895 124.804L28.1075 107.303L36.9463 93.5149L30.4056 88.7419" sodipodi:nodetypes="ccccccccccccccccccccccccccccccccccc"/><path id="shape2" transform="translate(401.37502041903, 331.375016857941)" fill="#fdea98" fill-rule="evenodd" stroke="#fdea98" stroke-width="2" stroke-linecap="square" stroke-linejoin="bevel" d="M0 10.25L0.875 0L13.375 1.125L17.25 7.625L9.375 18.5L0 10.25" sodipodi:nodetypes="cccccc"/><path id="shape3" transform="translate(404.625020584366, 232.750011840621)" fill="#fdea98" fill-rule="evenodd" stroke="#fdea98" stroke-width="2" stroke-linecap="square" stroke-linejoin="bevel" d="M7 98.625L0 71.375L1.625 28.375L17 2.125L28.75 0L37.75 9.25L38.875 42L26.625 73.75L10.375 102L7 98.625" sodipodi:nodetypes="cccccccccc"/><path id="shape4" transform="translate(130.750002510333, 302.250005803045)" fill="#797150" fill-rule="evenodd" stroke="#797150" stroke-width="2" stroke-linecap="square" stroke-linejoin="bevel" d="M0 26.25L33 36.25L68.5 23.25L75.75 2.75L88 5.5L106.25 0L117.5 13.5L114.5 34.5L93.5 28L73.75 39.75L77.5 67.75L44.25 65.5L32 58.5L24 63.5L4.75 56.75L18.5 51L6.75 39.5L0 26.25" sodipodi:nodetypes="cccccccccccccccccc"/><path id="shape5" transform="translate(208.000003993493, 331.50000636463)" fill="#797150" fill-rule="evenodd" stroke="#797150" stroke-width="2" stroke-linecap="square" stroke-linejoin="bevel" d="M7.25 6.25L21.75 16L13 29L0 31.75L11 42L37.5 36.75L42.5 12L29 0.25L10.75 0L7.25 6.25" sodipodi:nodetypes="cccccccccc"/><path id="shape6" transform="translate(175.500009376619, 357.875019120556)" fill="#797150" fill-rule="evenodd" stroke="#797150" stroke-width="2" stroke-linecap="square" stroke-linejoin="bevel" d="M0 11.25L16.875 26.875L52 26.625L65.875 31.375L49 45.875L84.625 40.625L103 24.375L82 0.5L69.625 0L41 9L9.25 7.375L0 11.25" sodipodi:nodetypes="cccccccccccc"/><path id="shape7" transform="translate(234.750016859738, 380.000027291589)" fill="#797150" fill-rule="evenodd" stroke="#797150" stroke-width="2" stroke-linecap="square" stroke-linejoin="bevel" d="M0 23.625L4.75 30.875L34.25 39.125L54.375 40.5L70.125 38.75L93.75 18.375L55.625 7.625L41.25 0L0 23.625" sodipodi:nodetypes="ccccccccc"/><path id="shape8" transform="translate(298.500021438261, 379.375027246701)" fill="#797150" fill-rule="evenodd" stroke="#797150" stroke-width="2" stroke-linecap="square" stroke-linejoin="bevel" d="M0 40.375L28.125 41.875L65.125 30.125L83.25 18.125L97.875 2.5L97.625 0L43 18.625L21.375 18.875L1 40.625L0 40.375" sodipodi:nodetypes="cccccccccc"/><path id="shape9" transform="translate(131.168308518797, 293.272538858065)" fill="#797150" fill-rule="evenodd" stroke="#797150" stroke-width="2" stroke-linecap="square" stroke-linejoin="bevel" d="M0 4.41942L9.54594 12.9047L38.3605 19.799L74.0694 12.3744L63.4628 0.53033L28.1075 9.89949L3.53553 0L0 4.41942" sodipodi:nodetypes="cccccccc"/><path id="shape10" transform="translate(191.449161894686, 259.331413203605)" fill="#797150" fill-rule="evenodd" stroke="#797150" stroke-width="2" stroke-linecap="square" stroke-linejoin="bevel" d="M0 19.9758L23.3345 30.5824L45.5508 16.0867L38.7141 0L51.7956 12.0208L52.8562 37.4767L32.5269 46.4923L15.9099 47.0226L3.35876 36.5928L0 19.9758" sodipodi:nodetypes="cccccccccc"/><path id="shape11" transform="translate(107.750000637687, 254.750001507663)" fill="#797150" fill-rule="evenodd" stroke="#797150" stroke-width="2" stroke-linecap="square" stroke-linejoin="bevel" d="M0 32.5L14.75 27.25L17.25 3.5L17.25 0L27.25 17.75L26.5 37.5L20.5 44.5L5.5 42L0 32.5" sodipodi:nodetypes="ccccccccc"/><path id="shape12" transform="translate(130.250009687383, 207.875015460765)" fill="#797150" fill-rule="evenodd" stroke="#797150" stroke-width="2" stroke-linecap="square" stroke-linejoin="bevel" d="M0 17.875L29.875 26.5L56.625 23.375L78.125 42.75L82.75 47.125L97 47.875L98.875 21.625L60 6.625L26.5 0L0.5 17.125L0 17.875" sodipodi:nodetypes="ccccccccccc"/><path id="shape13" transform="translate(296.625003271434, 396.750004375699)" fill="#544f3b" fill-rule="evenodd" stroke="#544f3b" stroke-width="2" stroke-linecap="square" stroke-linejoin="bevel" d="M0 23.875L21.75 15.5L28.25 0L30.375 0.5L22.5 16.875L3.875 23.875" sodipodi:nodetypes="cccccc"/><path id="shape14" transform="translate(372.468507472442, 382.544779387928)" fill="#544f3b" fill-rule="evenodd" stroke="#544f3b" stroke-width="2" stroke-linecap="square" stroke-linejoin="bevel" d="M0 22.0087L7.15946 8.66206L10.6066 0.795495L12.7279 0L8.66206 8.13173L1.76777 21.6551" sodipodi:nodetypes="cccccc"/><path id="shape15" transform="translate(222.738642342324, 380.423458984668)" fill="#544f3b" fill-rule="evenodd" stroke="#544f3b" stroke-width="2" stroke-linecap="square" stroke-linejoin="bevel" d="M0 23.5113L24.572 22.3623L47.7297 6.62913L54.1821 0L58.7783 2.20971L37.4767 18.9151L24.2184 24.3952L0.0883884 24.8371" sodipodi:nodetypes="cccccccc"/><path id="shape16" transform="translate(168.91014021618, 364.513562664325)" fill="#544f3b" fill-rule="evenodd" stroke="#544f3b" stroke-width="2" stroke-linecap="square" stroke-linejoin="bevel" d="M0 0L22.8042 3.44715L38.8025 1.67938L40.6586 3.27037L15.9099 4.59619L1.06066 1.32583" sodipodi:nodetypes="cccccc"/><path id="shape17" transform="translate(234.250000070953, 358.125000108475)" fill="#544f3b" fill-rule="evenodd" stroke="#544f3b" stroke-width="2" stroke-linecap="square" stroke-linejoin="bevel" d="M2.75 12.875L13.125 0L23.75 0.875L0 14.125" sodipodi:nodetypes="cccc"/><path id="shape18" transform="translate(207.375000062813, 301.12500009121)" fill="#544f3b" fill-rule="evenodd" stroke="#544f3b" stroke-width="2" stroke-linecap="square" stroke-linejoin="bevel" d="M0 5L17 6.125L29.625 0L35.875 6.625L16.125 9.5" sodipodi:nodetypes="ccccc"/><path id="shape19" transform="translate(148.757586971425, 353.023055474671)" fill="#544f3b" fill-rule="evenodd" stroke="#544f3b" stroke-width="2" stroke-linecap="square" stroke-linejoin="bevel" d="M0 0L16.617 8.13173L10.0763 10.7834" sodipodi:nodetypes="ccc"/><path id="shape20" transform="translate(128.812507146351, 268.750014909903)" fill="#544f3b" fill-rule="evenodd" stroke="#544f3b" stroke-width="2" stroke-linecap="square" stroke-linejoin="bevel" d="M4.1875 0L6.625 2.5L5.75 22.5L0 30.8125" sodipodi:nodetypes="cccc"/><path id="shape21" transform="translate(225.875005377066, 270.562506440874)" fill="#544f3b" fill-rule="evenodd" stroke="#544f3b" stroke-width="2" stroke-linecap="square" stroke-linejoin="bevel" d="M0 34.6875L14.1875 21.5625L17.6875 0L19 27" sodipodi:nodetypes="cccc"/><path id="shape22" transform="translate(136.937502047275, 303.000004529981)" fill="#544f3b" fill-rule="evenodd" stroke="#544f3b" stroke-width="2" stroke-linecap="square" stroke-linejoin="bevel" d="M0 0.875L18.25 8.1875L33 10.5625L68 2.9375L65.125 0L30.0625 6.9375" sodipodi:nodetypes="cccccc"/><path id="shape23" transform="translate(194.365976554745, 294.333197784129)" fill="#544f3b" fill-rule="evenodd" stroke="#544f3b" stroke-width="2" stroke-linecap="square" stroke-linejoin="bevel" d="M0 0L9.72272 9.72272L3.8007 12.0208" sodipodi:nodetypes="ccc"/><path id="shape24" transform="translate(121.357203600645, 268.435416850079)" fill="#544f3b" fill-rule="evenodd" stroke="#544f3b" stroke-width="2" stroke-linecap="square" stroke-linejoin="bevel" d="M11.4905 0L9.45755 22.6274L0 30.1404L7.51301 31.5546L14.3189 24.4836" sodipodi:nodetypes="ccccc"/><path id="shape25" transform="translate(188.443951772899, 209.303601218679)" fill="#544f3b" fill-rule="evenodd" stroke="#544f3b" stroke-width="2" stroke-linecap="square" stroke-linejoin="bevel" d="M0 0L39.598 13.9654L39.2444 47.1994L23.6881 45.4316L9.01561 14.6725" sodipodi:nodetypes="ccccc"/><path id="shape26" transform="translate(230.516804633943, 329.334974718585)" fill="#544f3b" fill-rule="evenodd" stroke="#544f3b" stroke-width="2" stroke-linecap="square" stroke-linejoin="bevel" d="M0 0.707107L12.9047 6.54074L18.0312 0" sodipodi:nodetypes="ccc"/><path id="shape27" transform="translate(199.757674132157, 341.709366457928)" fill="#544f3b" fill-rule="evenodd" stroke="#544f3b" stroke-width="2" stroke-linecap="square" stroke-linejoin="bevel" d="M3.71231 25.6326L0 15.2028L5.48008 0L4.06586 16.7938L8.48528 24.7487" sodipodi:nodetypes="ccccc"/><path id="shape28" transform="translate(401.250008915455, 334.6250074351)" fill="#544f3b" fill-rule="evenodd" stroke="#544f3b" stroke-width="2" stroke-linecap="square" stroke-linejoin="bevel" d="M1 0.875L8.25 3.375L14.875 0L17.5 5.375L10.125 14.625L0 10" sodipodi:nodetypes="cccccc"/><path id="shape29" transform="translate(405.500009009886, 239.125005313167)" fill="#544f3b" fill-rule="evenodd" stroke="#544f3b" stroke-width="2" stroke-linecap="square" stroke-linejoin="bevel" d="M0 70.25L11.625 73.875L23.875 50.875L36.25 16.125L35.875 0L38.75 10.375L39 32.375L27.125 65.25L10.25 93.5L4.75 90.625L0 70.25" sodipodi:nodetypes="ccccccccccc"/><path id="shape30" transform="translate(404.199913589468, 232.196189153626)" fill="#faf2cb" fill-rule="evenodd" stroke="#faf2cb" stroke-width="2" stroke-linecap="square" stroke-linejoin="bevel" d="M1.14905 28.6378L16.7054 1.85616L30.052 0L15.6447 14.5841L6.0988 60.546L0 72.832" sodipodi:nodetypes="cccccc"/><path id="shape31" transform="translate(401.437521431854, 331.125017678026)" fill="#faf2cb" fill-rule="evenodd" stroke="#faf2cb" stroke-width="2" stroke-linecap="square" stroke-linejoin="bevel" d="M0 0.125L6.875 0L4.4375 3.875L0.0625 3" sodipodi:nodetypes="cccc"/><path id="shape32" transform="translate(100.40916180026, 256.85653537989)" fill="#faf2cb" fill-rule="evenodd" stroke="#faf2cb" stroke-width="2" stroke-linecap="square" stroke-linejoin="bevel" d="M3.97748 3.09359L0 12.9047L4.86136 28.6378L13.0815 13.1699L8.57367 0L4.86136 0.353553" sodipodi:nodetypes="cccccc"/><path id="shape33" transform="translate(200.937504876731, 265.00000643152)" fill="#faf2cb" fill-rule="evenodd" stroke="#faf2cb" stroke-width="2" stroke-linecap="square" stroke-linejoin="bevel" d="M8.625 0L0 8.625L10.1875 20.5625L15.75 3.3125" sodipodi:nodetypes="cccc"/><path id="shape34" transform="translate(210.099104400312, 345.33327761549)" fill="#faf2cb" fill-rule="evenodd" stroke="#faf2cb" stroke-width="2" stroke-linecap="square" stroke-linejoin="bevel" d="M0 2.2981L0.353553 9.98788L8.13173 7.51301L4.41942 0" sodipodi:nodetypes="cccc"/><path id="shape35" transform="translate(128.812499375516, 305.187498520448)" fill="#faf2cb" fill-rule="evenodd" stroke="#faf2cb" stroke-width="2" stroke-linecap="square" stroke-linejoin="bevel" d="M7.5 0L0 11.375L2.625 22.8125L8.3125 11.625" sodipodi:nodetypes="cccc"/><path id="shape36" transform="translate(127.500191027479, 334.903448043756)" fill="#faf2cb" fill-rule="evenodd" stroke="#faf2cb" stroke-width="2" stroke-linecap="square" stroke-linejoin="bevel" d="M2.82843 0L0 7.38043L3.22617 17.3683L6.8501 7.99915" sodipodi:nodetypes="cccc"/><path id="shape37" transform="translate(180.489012917219, 206.475188136447)" fill="#544f3b" fill-rule="evenodd" stroke="#544f3b" stroke-width="2" stroke-linecap="square" stroke-linejoin="bevel" d="M10.0763 3.71231L0 0L0.883884 7.6014L17.5009 10.5248L14.6725 7.24784" sodipodi:nodetypes="ccccc"/><path id="shape38" transform="translate(62.2253957544409, 7.77817446930511)" fill="#8dc668" fill-rule="evenodd" stroke="#8dc668" stroke-width="2" stroke-linecap="square" stroke-linejoin="bevel" d="M10.253 66.468L0 125.865L13.435 153.442L18.3848 183.848L56.5685 220.617L118.794 209.222L143.543 166.17L174.775 192.333L159.099 222.385L161.574 247.841L181.373 270.115L174.775 292.389L188.09 319.966L182.08 331.28L187.03 342.947L184.908 351.079L195.161 351.786L226.628 379.716L266.933 391.384L318.552 383.252L342.947 363.099L348.25 337.29L334.815 333.401L276.125 346.482L235.113 309.006L236.881 280.721L275.418 232.992L275.772 168.291L251.023 135.411L247.841 83.4386L209.657 29.3449L131.875 0L53.7401 20.8596L10.253 66.468" sodipodi:nodetypes="cccccccccccccccccccccccccccccccccc"/><path id="shape39" transform="translate(220.625008737156, 200.250007930269)" fill="#334c26" fill-rule="evenodd" stroke="#334c26" stroke-width="2" stroke-linecap="square" stroke-linejoin="bevel" d="M91.75 141.75L131.5 160.625L166.25 158.5L185.125 142.75L191 147.25L188.5 161.125L185.75 172.625L160.75 191.75L106.5 199.875L65.25 187L36.25 160L25.75 158.375L28 147.625L23.375 137.25L28.75 127.625L16.375 100.875L21.625 83L21.5 76.75L2.75 56L0 37.125L1.125 26.75L6.875 11.5L16.375 0L29 3.75L43.375 2.75L26.875 41.75L34.125 74.375L61.375 89.25L79.125 89.75L76.75 93L48 98.25L37 117L38.625 139.5L62.25 142.625L77.125 115.375L81.625 134L91.75 141.75" sodipodi:nodetypes="ccccccccccccccccccccccccccccccccccccc"/><path id="shape40" transform="translate(180.135460331426, 57.9827585757681)" fill="#334c26" fill-rule="evenodd" stroke="#334c26" stroke-width="2" stroke-linecap="square" stroke-linejoin="bevel" d="M13.9654 90.5097L56.8645 104.475L95.4594 88.7419L117.91 65.7609L122.683 34.2947L100.409 1.23744L111.723 0L133.113 41.7193L133.466 86.9741L123.39 113.137L93.1613 140.891L77.605 147.255L54.4472 141.952L26.3397 118.971L0 84.3225L13.9654 90.5097" sodipodi:nodetypes="cccccccccccccccc"/><path id="shape41" transform="translate(92.2499997419455, 144.249999596484)" fill="#334c26" fill-rule="evenodd" stroke="#334c26" stroke-width="2" stroke-linecap="square" stroke-linejoin="bevel" d="M88.75 0L88.5 36L55.5 65L14.75 66.5L0 62.75L24 84.5L88.25 72.75L108 50L110.25 36L125.25 21.25L88.75 0" sodipodi:nodetypes="ccccccccccc"/><path id="shape42" transform="translate(85.2063650926426, 139.300032558096)" fill="#c7ecae" fill-rule="evenodd" stroke="#c7ecae" stroke-width="2" stroke-linecap="square" stroke-linejoin="bevel" d="M3.53553 16.7938L16.9706 0.176777L39.9515 0L44.5477 24.0416L24.9255 44.3709L0 35.0018L2.47487 17.8544" sodipodi:nodetypes="ccccccc"/><path id="shape43" transform="translate(315.016064280256, 146.017547191634)" fill="#c7ecae" fill-rule="evenodd" stroke="#c7ecae" stroke-width="2" stroke-linecap="square" stroke-linejoin="bevel" d="M0 0L24.3952 30.7591L24.0416 95.2826L8.83883 118.971L11.1369 89.9793L2.82843 67.8822L5.83363 50.0278L17.1473 64.7003L16.2635 36.416L0.707107 9.72272L0 0" sodipodi:nodetypes="ccccccccccc"/><path id="shape44" transform="translate(107.375005465343, 6.37500032448485)" fill="#c7ecae" fill-rule="evenodd" stroke="#c7ecae" stroke-width="2" stroke-linecap="square" stroke-linejoin="bevel" d="M0 31.375L10.5 46.375L40.625 56.5L82 28.25L96.25 10L93.375 3.125L86.75 0L21.5 18.5L8.5 21.75L0 31.375" sodipodi:nodetypes="cccccccccc"/><path id="shape45" transform="translate(61.341515497123, 73.1855545124176)" fill="#c7ecae" fill-rule="evenodd" stroke="#c7ecae" stroke-width="2" stroke-linecap="square" stroke-linejoin="bevel" d="M13.6118 0L7.6014 45.2548L14.6725 87.3277L0 60.4576L8.3085 8.48528" sodipodi:nodetypes="ccccc"/><path id="shape46" transform="translate(31.28947578902, 14.8492427473315)" fill="#ef7c4a" fill-rule="evenodd" stroke="#ef7c4a" stroke-width="2" stroke-linecap="square" stroke-linejoin="bevel" d="M14.4957 10.9602L33.0572 12.7279L58.1595 30.4056L82.0244 44.0174L105.536 39.2444L187.207 0L205.711 16.617L190.742 43.8406L112.784 66.6448L102.884 91.04L84.8528 96.8736L76.8979 83.6154L75.4837 70.1803L13.0815 45.7852L0 29.5217L14.4957 10.9602" sodipodi:nodetypes="cccccccccccccccc"/><path id="shape47" transform="translate(40.3050854391624, 25.3674550899992)" fill="#f2bfa9" fill-rule="evenodd" stroke="#f2bfa9" stroke-width="2" stroke-linecap="square" stroke-linejoin="bevel" d="M3.97748 3.97748L0 7.77817L5.03814 13.3466L22.981 9.104L10.253 0" sodipodi:nodetypes="ccccc"/><path id="shape48" transform="translate(159.982913341369, 26.5165049737076)" fill="#f2bfa9" fill-rule="evenodd" stroke="#f2bfa9" stroke-width="2" stroke-linecap="square" stroke-linejoin="bevel" d="M0 23.5113L50.5581 0L53.033 1.76777L46.8458 6.01041" sodipodi:nodetypes="cccc"/><path id="shape49" transform="translate(30.0520380183571, 16.2634558687579)" fill="#83462a" fill-rule="evenodd" stroke="#83462a" stroke-width="2" stroke-linecap="square" stroke-linejoin="bevel" d="M3.71231 21.5668L33.0572 43.6638L96.8736 59.7505L143.366 41.189L190.212 20.3293L192.333 6.71751L192.156 0L206.948 15.2028L192.156 43.1335L114.905 66.468L104.829 89.449L88.0348 96.5201L80.6102 88.7419L81.3173 65.2306L42.6032 55.8614L13.6118 44.5477L0 28.2843" sodipodi:nodetypes="ccccccccccccccccc"/><path id="shape50" transform="translate(276.83229806441, 212.662359241051)" fill="#fced9e" fill-rule="evenodd" stroke="#fced9e" stroke-width="2" stroke-linecap="square" stroke-linejoin="bevel" d="M10.6066 10.0763L0 30.5824L4.06586 52.8562L20.3293 58.3363L42.4264 43.6638L48.4368 23.3345L40.8354 4.33764L27.5772 0L12.5511 8.83883L14.6725 19.2687L26.163 8.13173L40.4819 14.4957L39.4212 38.7141L20.3293 52.5027L7.24784 42.4264L10.4298 21.9203L14.4957 18.3848L14.4957 8.66206" sodipodi:nodetypes="cccccccccccccccccc"/><path id="shape51" transform="translate(266.844419932195, 303.43719563671)" fill="#fced9e" fill-rule="evenodd" stroke="#fced9e" stroke-width="2" stroke-linecap="square" stroke-linejoin="bevel" d="M7.07107 2.56326L0 12.9931L2.47487 25.1023L9.89949 30.3172L19.799 23.0694L21.0364 6.0988L10.8718 0L8.04334 0.707107L9.36916 5.3033L14.5841 4.50781L18.2964 10.3414L16.3518 22.4506L8.75045 26.6049L4.68458 17.7661L6.62913 8.04334L11.9324 3.88909L9.72272 0.795495" sodipodi:nodetypes="ccccccccccccccccc"/><path id="shape52" transform="translate(29.1681536977613, 36.504386294471)" fill="#83462a" fill-rule="evenodd" stroke="#83462a" stroke-width="2" stroke-linecap="square" stroke-linejoin="bevel" d="M0 7.86656L3.53553 0L8.48528 14.1421" sodipodi:nodetypes="ccc"/><path id="shape53" transform="translate(33.0572408574628, 24.6603481262891)" fill="#ef7c4a" fill-rule="evenodd" stroke="#ef7c4a" stroke-width="2" stroke-linecap="square" stroke-linejoin="bevel" d="M0 11.0485L12.286 0L2.91682 13.5234" sodipodi:nodetypes="ccc"/><path id="shape54" transform="translate(34.0295127343448, 36.3718038706049)" fill="#ef7c4a" fill-rule="evenodd" stroke="#ef7c4a" stroke-width="2" stroke-linecap="square" stroke-linejoin="bevel" d="M0 0L3.71231 2.07713" sodipodi:nodetypes="cc"/><path id="shape55" transform="translate(44.5477265806432, 24.616154469661)" fill="#ef7c4a" fill-rule="evenodd" stroke="#ef7c4a" stroke-width="2" stroke-linecap="square" stroke-linejoin="bevel" d="M0 0L19.4454 1.01647" sodipodi:nodetypes="cc"/><path id="shape56" transform="translate(56.5625003074296, 25.4375001382584)" fill="#ef7c4a" fill-rule="evenodd" stroke="#ef7c4a" stroke-width="2" stroke-linecap="square" stroke-linejoin="bevel" d="M0 0.53125L7.09375 0L17.8438 9.71875" sodipodi:nodetypes="ccc"/><path id="shape57" transform="translate(271.874997866852, 36.624999712638)" fill="#8dc668" fill-rule="evenodd" stroke="#8dc668" stroke-width="2" stroke-linecap="square" stroke-linejoin="bevel" d="M19.75 20.25L0 0L6.5 21.75" sodipodi:nodetypes="ccc"/><path id="shape58" transform="translate(80.4333945578587, 192.244651827849)" fill="#8dc668" fill-rule="evenodd" stroke="#8dc668" stroke-width="2" stroke-linecap="square" stroke-linejoin="bevel" d="M11.0485 14.2305L0 0L21.2132 14.0537" sodipodi:nodetypes="ccc"/><path id="shape59" transform="translate(295.128698347652, 344.626173961514)" fill="#677445" fill-rule="evenodd" stroke="#677445" stroke-width="2" stroke-linecap="square" stroke-linejoin="bevel" d="M1.67938 3.97748L0 14.4957L6.62913 24.6603L20.6829 27.5772L26.7817 19.0035L21.8319 3.88909L8.3085 0L2.20971 2.74004L5.65685 6.27557L11.5789 2.91682L20.7713 9.19239L22.539 20.5945L15.5563 24.4836L4.24264 17.6777L3.62392 6.98268L6.18718 6.01041L3.0052 2.2981" sodipodi:nodetypes="ccccccccccccccccc"/><path id="shape60" transform="translate(348.161707933933, 364.955494302922)" fill="#677445" fill-rule="evenodd" stroke="#677445" stroke-width="2" stroke-linecap="square" stroke-linejoin="bevel" d="M7.86656 3.62392L4.15425 8.75045L10.0763 12.9931L19.0035 12.8163L22.4506 8.13173L14.1421 2.38649L8.92722 3.35876L8.04334 0.441942L15.2912 0L23.8649 5.12652L24.3952 10.5182L19.0919 15.8215L6.36396 15.9099L0 8.75045L3.53553 1.59099L9.45755 0.176777L9.81111 3.18198" sodipodi:nodetypes="ccccccccccccccccc"/><path id="shape61" transform="translate(388.555183568817, 352.315960351525)" fill="#677445" fill-rule="evenodd" stroke="#677445" stroke-width="2" stroke-linecap="square" stroke-linejoin="bevel" d="M4.24264 1.76777L0 7.6014L0.795495 12.8163L9.28078 13.877L16.617 7.24784L14.5841 0L5.39169 1.06066L6.0988 3.97748L13.2583 0.972272L14.1421 5.3033L9.01561 10.0763L1.94454 9.98788L4.41942 4.06586L6.71751 3.44715L7.68979 2.20971L6.8059 1.32583" sodipodi:nodetypes="cccccccccccccccc"/><path id="shape62" transform="translate(217.500011812705, 50.0000027155643)" fill="#feea9f" fill-rule="evenodd" stroke="#feea9f" stroke-width="2" stroke-linecap="square" stroke-linejoin="bevel" d="M22.25 3.75L0 34.25L9.75 77.25L47.75 96.5L62 92.75L80 73.75L84.5 40.75L63.5 8.75L34.5 0L22.25 3.75" sodipodi:nodetypes="cccccccccc"/><path id="shape63" transform="translate(232.461355599148, 63.993164050868)" fill="#0e0707" fill-rule="evenodd" stroke="#0e0707" stroke-width="2" stroke-linecap="square" stroke-linejoin="bevel" d="M13.6118 2.82843L0 26.5165L4.53864 53.9169L30.7591 70.1803L53.9169 59.397L59.397 26.3397L39.9515 0L13.6118 2.82843" sodipodi:nodetypes="cccccccc"/><path id="shape64" transform="translate(245.719607819631, 66.998367887511)" fill="#757875" fill-rule="evenodd" stroke="#757875" stroke-width="2" stroke-linecap="square" stroke-linejoin="bevel" d="M8.83883 2.12132L0 13.9654L14.6725 24.9255L38.7141 28.461L41.7193 21.7435L25.8094 0" sodipodi:nodetypes="cccccc"/><path id="shape65" transform="translate(92.9845447994285, 160.601632985325)" fill="#7e9c6c" fill-rule="evenodd" stroke="#7e9c6c" stroke-width="2" stroke-linecap="square" stroke-linejoin="bevel" d="M0 16.617L12.6395 4.50781L28.0191 0L38.2722 0.795495L37.8302 2.2981L19.4454 4.24264L6.71751 12.286L1.94454 18.4732" sodipodi:nodetypes="cccccccc"/><path id="shape66" transform="translate(75.3125053557973, 125.00000888929)" fill="#4c6f3b" fill-rule="evenodd" stroke="#4c6f3b" stroke-width="2" stroke-linecap="square" stroke-linejoin="bevel" d="M0 35.0625L8.5 17.875L32.9375 4.1875L70.0625 0L104.823 15.8026L104.293 19.073L69.4676 1.92566L33.3168 6.1683L11.2197 19.7801L0.789864 38.872" sodipodi:nodetypes="cccccccccc"/><path id="shape67" transform="translate(87.2392996950928, 178.279298363731)" fill="#4c6f3b" fill-rule="evenodd" stroke="#4c6f3b" stroke-width="2" stroke-linecap="square" stroke-linejoin="bevel" d="M0 23.5113L0.441942 8.22012L5.65685 0L7.77817 1.5026L3.09359 9.54594L2.38649 25.4558" sodipodi:nodetypes="cccccc"/><path id="shape68" transform="translate(130.991532064972, 160.955182112223)" fill="#4c6f3b" fill-rule="evenodd" stroke="#4c6f3b" stroke-width="2" stroke-linecap="square" stroke-linejoin="bevel" d="M0.441942 0L0 2.91682L22.0971 9.54594L38.007 27.312L40.2167 25.8978L22.6274 7.24784L2.38649 0.795495" sodipodi:nodetypes="ccccccc"/><path id="shape69" transform="translate(167.125007018653, 143.250006015988)" fill="#283320" fill-rule="evenodd" stroke="#283320" stroke-width="2" stroke-linecap="square" stroke-linejoin="bevel" d="M14 1.75L15.875 0L33 20.25L43.625 38.25L38.5 34.375L35.75 40.625L33.625 52.375L12.125 75.375L0 78.125L16.25 66L27.75 39.625L24 19L15 2.125L14 1.75" sodipodi:nodetypes="cccccccccccccc"/><path id="shape70" transform="translate(162.250001674941, 187.750001938183)" fill="#283320" fill-rule="evenodd" stroke="#283320" stroke-width="2" stroke-linecap="square" stroke-linejoin="bevel" d="M7 2L9.375 0L13.375 12.25L9.625 27.625L2.875 33L0 33L6 27.625L10.25 20.375L10.25 7.375L8.5 3.125" sodipodi:nodetypes="cccccccccc"/>
</svg>
