<?xml version="1.0" standalone="no"?>
<!DOCTYPE svg PUBLIC "-//W3C//DTD SVG 20010904//EN" "http://www.w3.org/TR/2001/REC-SVG-20010904/DTD/svg10.dtd">
<!-- Created using Krita: https://krita.org -->
<svg xmlns="http://www.w3.org/2000/svg" 
    xmlns:xlink="http://www.w3.org/1999/xlink"
    xmlns:krita="http://krita.org/namespaces/svg/krita"
    xmlns:sodipodi="http://sodipodi.sourceforge.net/DTD/sodipodi-0.dtd"
    width="474pt"
    height="434pt"
    viewBox="0 0 474 434">
<defs/>
<path id="shape0" transform="translate(321.733584415353, 345.068108120203)" fill="#b0875a" fill-rule="evenodd" stroke="#b0875a" stroke-width="1" stroke-linecap="square" stroke-linejoin="bevel" d="M0 14.8492L10.9602 4.77297L31.2895 0L47.1994 11.1369L52.8562 35.7089L35.3553 52.5027L12.1976 53.033L0 14.8492"/><path id="shape1" transform="translate(321.749999386509, 352.999999326923)" fill="#896b4a" fill-rule="evenodd" stroke="#896b4a" stroke-width="1" stroke-linecap="square" stroke-linejoin="bevel" d="M0 6.5L8 0L23.25 11.5L27.5 33.75L23.25 46.75L8.75 43.75L4 20"/><path id="shape2" transform="translate(283.01948826867, 352.492729299018)" fill="#b0875a" fill-rule="evenodd" stroke="#b0875a" stroke-width="1" stroke-linecap="square" stroke-linejoin="bevel" d="M1.59099 13.6118L8.83883 5.3033L32.3501 0L54.2704 17.3241L55.5079 46.669L31.9966 63.1093L3.18198 59.9273L0 24.0416"/><path id="shape3" transform="translate(282.249999461825, 358.999999315483)" fill="#896b4a" fill-rule="evenodd" stroke="#896b4a" stroke-width="1" stroke-linecap="square" stroke-linejoin="bevel" d="M1 6.75L8.75 0L23.75 10.5L24 30L25.5 49.25L18.75 56.5L5.25 52.25L0 22"/><path id="shape4" transform="translate(231.400693406427, 354.96760302529)" fill="#b0875a" fill-rule="evenodd" stroke="#b0875a" stroke-width="1" stroke-linecap="square" stroke-linejoin="bevel" d="M24.9255 3.0052L37.2999 0L58.6899 9.19239L68.7661 28.1075L66.6448 57.0989L52.3259 73.5391L25.9862 74.5998L0 58.1595L16.9706 14.8492"/><path id="shape5" transform="translate(230.749999560021, 354.499999324063)" fill="#896b4a" fill-rule="evenodd" stroke="#896b4a" stroke-width="1" stroke-linecap="square" stroke-linejoin="bevel" d="M26.25 3.75L37.75 0L43.25 20.25L43.75 39.75L32.5 63.5L16.75 70.75L0 58.5L14.5 19.5L21.5 13.25"/><path id="shape6" transform="translate(189.327840059804, 344.537778036001)" fill="#b0875a" fill-rule="evenodd" stroke="#b0875a" stroke-width="1" stroke-linecap="square" stroke-linejoin="bevel" d="M50.0278 4.41942L53.033 0L65.5842 7.6014L76.5443 22.0971L79.0192 43.8406L67.7055 63.8164L33.7643 73.5391L10.0763 62.7557L0 43.6638L43.1335 1.94454"/><path id="shape7" transform="translate(186.999999643441, 345.499999341224)" fill="#896b4a" fill-rule="evenodd" stroke="#896b4a" stroke-width="1" stroke-linecap="square" stroke-linejoin="bevel" d="M50 0L57.75 0L62.75 4.25L50 26.25L31.75 49.25L7.75 55L0 40.5L25.75 7.25"/><path id="shape8" transform="translate(153.088618114802, 318.551604899391)" fill="#b0875a" fill-rule="evenodd" stroke="#b0875a" stroke-width="1" stroke-linecap="square" stroke-linejoin="bevel" d="M59.0434 0L76.014 3.18198L88.0348 31.1127L73.1856 62.579L31.1127 76.014L1.76777 54.0937L0 25.4558"/><path id="shape9" transform="translate(153.442175888868, 311.126992585724)" fill="#896b4a" fill-rule="evenodd" stroke="#896b4a" stroke-width="1" stroke-linecap="square" stroke-linejoin="bevel" d="M0.353553 28.9914L0 43.8406L30.4056 46.669L64.7003 25.1023L73.5391 15.2028L72.832 9.8995L55.8614 2.47487L24.0416 0"/><path id="shape10" transform="translate(123.036581865227, 278.600076177584)" fill="#b0875a" fill-rule="evenodd" stroke="#b0875a" stroke-width="1" stroke-linecap="square" stroke-linejoin="bevel" d="M6.71751 10.9602L0 39.598L8.83883 62.9325L55.1543 73.5391L98.6414 44.9013L95.813 10.9602L61.1647 0L20.5061 7.77817"/><path id="shape11" transform="translate(127.63277764028, 273.650332115171)" fill="#896b4a" fill-rule="evenodd" stroke="#896b4a" stroke-width="1" stroke-linecap="square" stroke-linejoin="bevel" d="M0 24.7487L24.0416 43.8406L74.9533 27.5772L89.449 13.435L85.9135 5.3033L6.36396 0"/><path id="shape12" transform="translate(97.2271839452227, 217)" fill="#b0875a" fill-rule="evenodd" stroke="#b0875a" stroke-width="1" stroke-linecap="square" stroke-linejoin="bevel" d="M17.6777 0L0 24.8305L6.36396 59.8323L55.8614 91.2986L120.562 65.1356L125.511 24.477L109.955 5.73864L17.6777 0"/><path id="shape13" transform="translate(111.546097339922, 199.75767035517)" fill="#896b4a" fill-rule="evenodd" stroke="#896b4a" stroke-width="1" stroke-linecap="square" stroke-linejoin="bevel" d="M4.06586 14.1421L0 22.8042L32.5269 31.9966L79.0192 37.2999L100.056 31.8198L103.414 17.2423L42.4264 0"/><path id="shape14" transform="translate(156.800932393837, 213.723029610088)" fill="#896b4a" fill-rule="evenodd" stroke="#896b4a" stroke-width="1" stroke-linecap="square" stroke-linejoin="bevel" d="M0 18.5616L36.416 27.9307L57.2757 16.4402L47.9065 0L6.36396 5.3033"/><path id="shape15" transform="translate(148.492427520657, 217)" fill="#896b4a" fill-rule="evenodd" stroke="#896b4a" stroke-width="1" stroke-linecap="square" stroke-linejoin="bevel" d="M0.176777 15.6381L44.5477 24.6537L33.4108 0L0 1.84955"/><path id="shape16" transform="translate(118.970720904057, 213.192703432828)" fill="#896b4a" fill-rule="evenodd" stroke="#896b4a" stroke-width="1" stroke-linecap="square" stroke-linejoin="bevel" d="M0 11.3137L54.4472 30.4056L83.7922 34.825L98.1111 20.3293L87.6812 6.54074L3.53553 0"/><path id="shape17" transform="translate(79.195960740836, 56.9220967824759)" fill="#b0875a" fill-rule="evenodd" stroke="#b0875a" stroke-width="1" stroke-linecap="square" stroke-linejoin="bevel" d="M70.7107 0L16.617 34.2947L0 100.409L34.6482 160.078L113.491 179.959L173.595 148.846L191.272 67.5287L142.128 3.53553L70.7107 0"/><path id="shape18" transform="translate(166.170088302578, 3.88908717303906)" fill="#f6f6f6" fill-rule="evenodd" stroke="#f6f6f6" stroke-width="1" stroke-linecap="square" stroke-linejoin="bevel" d="M0.707107 58.3363L56.215 0L62.9325 77.7817L50.9117 83.085L0 65.7609L0.707107 58.3363"/><path id="shape19" transform="translate(354.750006949784, 271.000005309067)" fill="#f6f6f6" fill-rule="evenodd" stroke="#f6f6f6" stroke-width="1" stroke-linecap="square" stroke-linejoin="bevel" d="M34.75 0L18.25 34L0 54.75L4 80L21 86.5L41.75 65L48.25 36L34.75 0"/><path id="shape20" transform="translate(183.750003599782, 118.000002311697)" fill="#000000" fill-rule="evenodd" stroke="#000000" stroke-width="1" stroke-linecap="square" stroke-linejoin="bevel" d="M11 0L2 7.5L0 14.5L4.5 23L16.5 22.75L25 11.75L19.5 2.75L11 0"/><path id="shape21" transform="translate(105.250002061916, 78.0000015280709)" fill="#000000" fill-rule="evenodd" stroke="#000000" stroke-width="1" stroke-linecap="square" stroke-linejoin="bevel" d="M14.5 0L18.75 4.25L11.25 14.75L1 16L0 8.5L14.5 0"/><path id="shape22" transform="translate(113.250002218641, 81.0000015868429)" fill="#ffffff" fill-rule="evenodd" stroke="#ffffff" stroke-width="1" stroke-linecap="square" stroke-linejoin="bevel" d="M4.75 0L0 3.75L0.5 5.25L6 2.75L4.75 0"/><path id="shape23" transform="translate(193.000003780996, 121.250002375367)" fill="#ffffff" fill-rule="evenodd" stroke="#ffffff" stroke-width="1" stroke-linecap="square" stroke-linejoin="bevel" d="M2.25 0.75L0 4.25L3.25 9L10.25 7L11 2L5.25 0"/><path id="shape24" transform="translate(69.6500159133146, 101.823373517942)" fill="#d48cad" fill-rule="evenodd" stroke="#d48cad" stroke-width="1" stroke-linecap="square" stroke-linejoin="bevel" d="M25.2791 0L44.0174 0.53033L72.6552 18.9151L82.0244 46.669L64.5235 65.7609L15.5563 52.5027L0 29.1682L1.59099 10.0763L25.2791 0"/><path id="shape25" transform="translate(69.296462533044, 122.152692883504)" fill="#ac7288" fill-rule="evenodd" stroke="#ac7288" stroke-width="1" stroke-linecap="square" stroke-linejoin="bevel" d="M0 4.77297L24.2184 18.0312L60.2809 18.0312L71.7713 9.36916L73.8927 0L83.2618 27.0468L64.7003 45.6084L14.6725 32.3501L0.176777 8.3085L0 4.77297"/><path id="shape26" transform="translate(80.7869473918395, 109.955101264167)" fill="#eecede" fill-rule="evenodd" stroke="#eecede" stroke-width="1" stroke-linecap="square" stroke-linejoin="bevel" d="M4.24264 0L0 2.2981L2.65165 8.48528L16.4402 7.42462L21.5668 0.883883L4.24264 0"/><path id="shape27" transform="translate(159.452585652282, 261.452742993043)" fill="#d48cad" fill-rule="evenodd" stroke="#d48cad" stroke-width="1" stroke-linecap="square" stroke-linejoin="bevel" d="M12.0208 0L0 10.0763L1.41421 21.7435L11.6673 30.5824L26.5165 26.3397L32.1734 11.6673L24.2184 0.176777L12.0208 0"/><path id="shape28" transform="translate(85.2063706035475, 229.986489948579)" fill="#d48cad" fill-rule="evenodd" stroke="#d48cad" stroke-width="1" stroke-linecap="square" stroke-linejoin="bevel" d="M15.9099 1.23744L7.77817 0L0 11.6673L1.41421 23.6881L11.844 29.5217L12.1976 13.435L15.9099 1.23744"/><path id="shape29" transform="translate(113.755806255304, 310.861826417953)" fill="#d48cad" fill-rule="evenodd" stroke="#d48cad" stroke-width="1" stroke-linecap="square" stroke-linejoin="bevel" d="M4.68458 0.883883L0 6.8059L1.41421 16.5286L5.48008 22.1855L10.6066 24.2184L14.3189 22.1855L8.13173 10.5182L6.18718 0"/><path id="shape30" transform="translate(171.915340455763, 321.645205099497)" fill="#d48cad" fill-rule="evenodd" stroke="#d48cad" stroke-width="1" stroke-linecap="square" stroke-linejoin="bevel" d="M8.13173 0L0 12.9047L0.353553 23.5113L10.253 29.7869L22.8042 26.4281L25.8094 15.9983L21.0364 4.15425L8.13173 0"/><path id="shape31" transform="translate(191.802719171725, 363.806447977337)" fill="#d48cad" fill-rule="evenodd" stroke="#d48cad" stroke-width="1" stroke-linecap="square" stroke-linejoin="bevel" d="M6.89429 0.883883L0.265165 8.48528L0 18.8267L1.94454 23.6881L14.3189 28.5494L26.6049 20.8597L24.6603 3.0052L14.5841 0L6.89429 0.883883"/><path id="shape32" transform="translate(147.608544247365, 362.657399429304)" fill="#d48cad" fill-rule="evenodd" stroke="#d48cad" stroke-width="1" stroke-linecap="square" stroke-linejoin="bevel" d="M3.8007 0L0 6.36396L2.74004 15.1144L11.3137 19.4454L16.7938 17.7661L7.86656 6.01041L3.8007 0"/><path id="shape33" transform="translate(184.908427883525, 392.002331579079)" fill="#d48cad" fill-rule="evenodd" stroke="#d48cad" stroke-width="1" stroke-linecap="square" stroke-linejoin="bevel" d="M1.85616 0L0 8.22012L5.65685 14.5841L10.1647 15.7331L12.1976 13.2583L1.85616 0"/><path id="shape34" transform="translate(221.059262971652, 394.653982074541)" fill="#d48cad" fill-rule="evenodd" stroke="#d48cad" stroke-width="1" stroke-linecap="square" stroke-linejoin="bevel" d="M8.04334 0L0 9.104L3.53553 18.3848L10.0763 23.3345L20.8597 19.2687L23.3345 9.8995L20.7713 2.20971L8.04334 0"/><path id="shape35" transform="translate(273.208389382398, 407.116739403211)" fill="#d48cad" fill-rule="evenodd" stroke="#d48cad" stroke-width="1" stroke-linecap="square" stroke-linejoin="bevel" d="M10.7834 0L2.82843 4.59619L0 11.9324L2.38649 19.8874L9.72272 24.3068L20.948 16.9706L22.2739 6.89429L14.0537 0.265165L10.7834 0"/><path id="shape36" transform="translate(317.225787607061, 395.095923823785)" fill="#d48cad" fill-rule="evenodd" stroke="#d48cad" stroke-width="1" stroke-linecap="square" stroke-linejoin="bevel" d="M6.27557 1.76777L0 7.51301L3.0052 14.8492L8.92722 19.4454L14.6725 16.7938L18.3848 7.24784L15.8215 0L6.27557 1.76777"/><path id="shape37" transform="translate(357.619263487927, 379.362797550712)" fill="#d48cad" fill-rule="evenodd" stroke="#d48cad" stroke-width="1" stroke-linecap="square" stroke-linejoin="bevel" d="M6.45235 0.707107L0 6.62913L0.883883 14.7609L5.83363 20.2409L12.1976 20.4177L19.0919 11.4021L17.1473 1.41421L6.89429 0"/><path id="shape38" transform="translate(167.250011697099, 266.125018612199)" fill="#eecede" fill-rule="evenodd" stroke="#eecede" stroke-width="1" stroke-linecap="square" stroke-linejoin="bevel" d="M3.125 1.25L0 4.125L4.625 9.875L11.875 5.125L13.125 0L3.125 1.25"/><path id="shape39" transform="translate(160.125008662954, 269.500014580273)" fill="#ac7288" fill-rule="evenodd" stroke="#ac7288" stroke-width="1" stroke-linecap="square" stroke-linejoin="bevel" d="M0.625 7.5L14.25 10.75L23.75 9.625L28.625 0L32.125 4.75L26.375 19L11.125 23L0.375 14.125L0 8L0.625 7.5"/><path id="shape40" transform="translate(85.825086022567, 246.603491249188)" fill="#ac7288" fill-rule="evenodd" stroke="#ac7288" stroke-width="1" stroke-linecap="square" stroke-linejoin="bevel" d="M0 1.14905L6.89429 3.44715L12.1976 0L11.2253 13.9654L0.176777 6.27557L0 1.14905"/><path id="shape41" transform="translate(86.3554161112749, 230.163258499242)" fill="#eecede" fill-rule="evenodd" stroke="#eecede" stroke-width="1" stroke-linecap="square" stroke-linejoin="bevel" d="M5.92202 0L0 8.22012L8.83883 6.0988L12.286 0.176777"/><path id="shape42" transform="translate(113.844194469784, 312.894758092419)" fill="#eecede" fill-rule="evenodd" stroke="#eecede" stroke-width="1" stroke-linecap="square" stroke-linejoin="bevel" d="M4.06586 0L4.59619 9.36917L0.53033 9.8995L0 3.53553"/><path id="shape43" transform="translate(175.892815989806, 328.274330947809)" fill="#eecede" fill-rule="evenodd" stroke="#eecede" stroke-width="1" stroke-linecap="square" stroke-linejoin="bevel" d="M3.0052 0.176777L0 4.24264L3.71231 6.01041L6.54074 3.0052L5.3033 0"/><path id="shape44" transform="translate(114.72807796722, 325.445903756013)" fill="#ac7288" fill-rule="evenodd" stroke="#ac7288" stroke-width="1" stroke-linecap="square" stroke-linejoin="bevel" d="M2.2981 1.76777L8.13173 2.2981L10.6066 0L13.7886 8.66206L9.01561 10.4298L3.18198 6.71751L0 2.47487"/><path id="shape45" transform="translate(171.296621803138, 326.683340652424)" fill="#ac7288" fill-rule="evenodd" stroke="#ac7288" stroke-width="1" stroke-linecap="square" stroke-linejoin="bevel" d="M3.0052 13.2583L16.617 14.3189L21.0364 6.18718L21.7435 0L26.5165 10.9602L23.5113 21.9203L10.9602 24.9255L0 18.208L1.41421 12.7279"/><path id="shape46" transform="translate(192.500011398282, 365.500021641933)" fill="#ac7288" fill-rule="evenodd" stroke="#ac7288" stroke-width="1" stroke-linecap="square" stroke-linejoin="bevel" d="M1.75 15L13.5 14.75L20 8.25L19.75 0L24.75 2L26.25 18.5L14.75 28L0 20.75L1.75 15"/><path id="shape47" transform="translate(153.187506644545, 371.437516111193)" fill="#ac7288" fill-rule="evenodd" stroke="#ac7288" stroke-width="1" stroke-linecap="square" stroke-linejoin="bevel" d="M0.25 7.5625L4.75 5.5625L4.875 0L11.3125 9.625L4.75 11.1875L0 8.0625"/><path id="shape48" transform="translate(147.625006403271, 364.812515823832)" fill="#eecede" fill-rule="evenodd" stroke="#eecede" stroke-width="1" stroke-linecap="square" stroke-linejoin="bevel" d="M1.6875 0L5.3125 5.375L1.5625 10.375L0 4.5625"/><path id="shape49" transform="translate(195.50000847986, 367.000015918715)" fill="#eecede" fill-rule="evenodd" stroke="#eecede" stroke-width="1" stroke-linecap="square" stroke-linejoin="bevel" d="M2.6875 1.9375L0 6.125L2.5625 8.625L9.4375 4.875L8.8125 1L4.0625 0"/><path id="shape50" transform="translate(222.738632326711, 395.449460726074)" fill="#ac7288" fill-rule="evenodd" stroke="#ac7288" stroke-width="1" stroke-linecap="square" stroke-linejoin="bevel" d="M0 13.7886L11.3137 10.253L12.1976 0L20.3293 3.0052L21.9203 10.0763L19.6222 19.0919L7.95495 23.1577L0 13.7886"/><path id="shape51" transform="translate(187.913623939122, 398.631441187884)" fill="#ac7288" fill-rule="evenodd" stroke="#ac7288" stroke-width="1" stroke-linecap="square" stroke-linejoin="bevel" d="M0 6.18718L4.06586 4.94975L4.77297 0L9.89949 6.18718L7.42462 9.54594L2.2981 9.01561L0 6.18718"/><path id="shape52" transform="translate(223.875007728205, 399.125013777866)" fill="#eecede" fill-rule="evenodd" stroke="#eecede" stroke-width="1" stroke-linecap="square" stroke-linejoin="bevel" d="M2.6875 1.4375L0 4.5625L1.3125 6.3125L4.625 3.8125L3.875 0"/><path id="shape53" transform="translate(185.041012425824, 395.582064061034)" fill="#eecede" fill-rule="evenodd" stroke="#eecede" stroke-width="1" stroke-linecap="square" stroke-linejoin="bevel" d="M0.839689 1.98874L0 4.552L3.7565 3.93328L3.53553 0.883884L1.72357 0"/><path id="shape54" transform="translate(276.125203565147, 407.647067491183)" fill="#ac7288" fill-rule="evenodd" stroke="#ac7288" stroke-width="1" stroke-linecap="square" stroke-linejoin="bevel" d="M0 17.6777L8.83883 12.0208L11.844 0L19.799 6.18718L17.6777 17.1473L6.71751 24.572L0 17.6777"/><path id="shape55" transform="translate(323.501358850332, 395.449475272236)" fill="#ac7288" fill-rule="evenodd" stroke="#ac7288" stroke-width="1" stroke-linecap="square" stroke-linejoin="bevel" d="M0 15.3796L5.83363 7.07107L4.24264 0.707107L10.4298 0L12.3744 7.77817L9.8995 15.5563L2.12132 19.6222L0 15.3796"/><path id="shape56" transform="translate(358.250025544678, 380.625027140107)" fill="#ac7288" fill-rule="evenodd" stroke="#ac7288" stroke-width="1" stroke-linecap="square" stroke-linejoin="bevel" d="M0.625 12.3125L8 11.25L13.1875 5.125L12.75 0L16.5 0.1875L18.6875 8.75L18.375 11.25L11.25 18.8125L4.5 19.1875L0 13.375"/><path id="shape57" transform="translate(126.625001568104, 63.3750007848259)" fill="#cfa372" fill-rule="evenodd" stroke="#cfa372" stroke-width="1" stroke-linecap="square" stroke-linejoin="bevel" d="M3.25 13.25L29.25 0L34.375 16.5L16.875 27L0 29L1.375 17.125"/><path id="shape58" transform="translate(198.500013410591, 137.250009272563)" fill="#cfa372" fill-rule="evenodd" stroke="#cfa372" stroke-width="1" stroke-linecap="square" stroke-linejoin="bevel" d="M4 94.75L54.75 63L70 0L55.25 36L28.75 48.75L16.5 67.5L0 92.75"/><path id="shape59" transform="translate(196.250014261549, 187.875013652935)" fill="#cfa372" fill-rule="evenodd" stroke="#cfa372" stroke-width="1" stroke-linecap="square" stroke-linejoin="bevel" d="M1.625 42.875L0 47.5L56.875 16.625L61 0L32.375 20.375"/><path id="shape60" transform="translate(146.500007877851, 82.0000044094458)" fill="#896b4a" fill-rule="evenodd" stroke="#896b4a" stroke-width="1" stroke-linecap="square" stroke-linejoin="bevel" d="M72.25 5L84.25 0L95.5 40.25L84.5 83.25L46.25 120.75L0 116.75L0.25 97.75L18.25 76.25L57 73.5L82.75 43.75L84 8"/><path id="shape61" transform="translate(98.0000038517292, 225.500008862908)" fill="#cfa372" fill-rule="evenodd" stroke="#cfa372" stroke-width="1" stroke-linecap="square" stroke-linejoin="bevel" d="M10.25 0L4.25 24.5L9 50.75L8.25 53.75L5.25 49L0 23.75L1.5 9.25"/><path id="shape62" transform="translate(97.125002527395, 222.75000579642)" fill="#cfa372" fill-rule="evenodd" stroke="#cfa372" stroke-width="1" stroke-linecap="square" stroke-linejoin="bevel" d="M13.375 0L9 26.125L14.625 59.25L5.625 53.625L0 27.5L3.125 8.75L13.375 0"/><path id="shape63" transform="translate(122.499999307736, 302.624998289825)" fill="#cfa372" fill-rule="evenodd" stroke="#cfa372" stroke-width="1" stroke-linecap="square" stroke-linejoin="bevel" d="M5 0L4.875 20.25L9.125 39.875L0 16.75"/><path id="shape64" transform="translate(123.374999302791, 301.374998296889)" fill="#cfa372" fill-rule="evenodd" stroke="#cfa372" stroke-width="1" stroke-linecap="square" stroke-linejoin="bevel" d="M3.75 0L0 16.75L0.875 17.125L3.75 0"/><path id="shape65" transform="translate(201.613816911182, 257.475251495955)" fill="#cfa372" fill-rule="evenodd" stroke="#cfa372" stroke-width="1" stroke-linecap="square" stroke-linejoin="bevel" d="M0 31.4663L13.877 19.5338L19.0919 0L16.3518 25.721L0 31.4663"/><path id="shape66" transform="translate(208.750010338275, 302.750014993594)" fill="#cfa372" fill-rule="evenodd" stroke="#cfa372" stroke-width="1" stroke-linecap="square" stroke-linejoin="bevel" d="M0 30L13.25 20.75L12 0L6 17.75"/><path id="shape67" transform="translate(233.999999873527, 340.124999816168)" fill="#cfa372" fill-rule="evenodd" stroke="#cfa372" stroke-width="1" stroke-linecap="square" stroke-linejoin="bevel" d="M3 0L8 10.5L0 25.25L3 10.5"/><path id="shape68" transform="translate(329.953696789061, 344.979715662391)" fill="#cfa372" fill-rule="evenodd" stroke="#cfa372" stroke-width="1" stroke-linecap="square" stroke-linejoin="bevel" d="M0 7.6014L4.24264 4.33103L23.4229 0L9.104 7.24784L6.45235 12.0208"/><path id="shape69" transform="translate(290.875005935824, 352.750007198493)" fill="#cfa372" fill-rule="evenodd" stroke="#cfa372" stroke-width="1" stroke-linecap="square" stroke-linejoin="bevel" d="M2.375 4.625L24.75 0L10 7.125L9.875 12.875L0 5.625"/><path id="shape70" transform="translate(249.78546336506, 349.841070063307)" fill="#cfa372" fill-rule="evenodd" stroke="#cfa372" stroke-width="1" stroke-linecap="square" stroke-linejoin="bevel" d="M1.41421 0L16.4402 15.5563L4.94975 8.13173L0 1.41421"/><path id="shape71" transform="translate(270.468336127772, 355.144370771695)" fill="#cfa372" fill-rule="evenodd" stroke="#cfa372" stroke-width="1" stroke-linecap="square" stroke-linejoin="bevel" d="M0.353553 0L19.799 9.19239L22.8042 16.4402L0 1.59099"/>
</svg>
