<?xml version="1.0" standalone="no"?>
<!DOCTYPE svg PUBLIC "-//W3C//DTD SVG 20010904//EN" "http://www.w3.org/TR/2001/REC-SVG-20010904/DTD/svg10.dtd">
<!-- Created using Krita: https://krita.org -->
<svg xmlns="http://www.w3.org/2000/svg" 
    xmlns:xlink="http://www.w3.org/1999/xlink"
    xmlns:krita="http://krita.org/namespaces/svg/krita"
    xmlns:sodipodi="http://sodipodi.sourceforge.net/DTD/sodipodi-0.dtd"
    width="474pt"
    height="434pt"
    viewBox="0 0 474 434">
<defs/>
<path id="shape0" transform="translate(142.128465887665, 9.89949513645429)" fill="#cd628f" fill-rule="evenodd" stroke="#cd628f" stroke-width="0.88" stroke-linecap="square" stroke-linejoin="bevel" d="M6.01041 133.29L0 107.834L13.7886 58.6899L25.8094 38.1838L28.6378 15.9099L39.9515 26.8701L49.1439 19.0919L47.0226 40.3051L62.2254 22.2739L56.9221 0L74.9533 15.2028L82.0244 6.01041L83.085 16.2635L91.2168 7.42462L94.8715 19.4454L103.945 9.54594L108.894 27.5772L140.714 49.4975L163.695 82.3779L154.856 131.875L136.118 189.858L75.3069 218.496L10.6066 160.867L6.01041 133.29"/><path id="shape1" transform="translate(197.282795933625, 89.0954562280886)" fill="#cd628f" fill-rule="evenodd" stroke="#cd628f" stroke-width="0.88" stroke-linecap="square" stroke-linejoin="bevel" d="M13.7886 0L13.7886 0L0 29.6985"/><path id="shape2" transform="translate(142.482021905916, 18.7500013411871)" fill="#ae4b74" fill-rule="evenodd" stroke="#ae4b74" stroke-width="0.88" stroke-linecap="square" stroke-linejoin="bevel" d="M50.2046 91.2051L84.8528 69.2848L103.591 26.8584L103.518 0L109.518 18.75L162.988 70.699L153.796 125.146L136.472 181.361L74.2462 210.353L8.83884 150.249L0 97.9226L0.707107 84.134L5.51798 71.375L19.393 85.75L50.2046 91.2051"/><path id="shape3" transform="translate(185.375004926428, 49.7500013221298)" fill="#ae4b74" fill-rule="evenodd" stroke="#ae4b74" stroke-width="0.88" stroke-linecap="square" stroke-linejoin="bevel" d="M4 0L0 13.875L0.125 48.375L5 73L9.25 44.125L13 25.25L5.5 7.25L4 0"/><path id="shape4" transform="translate(148.500009029396, 26.1250015885049)" fill="#d581a5" fill-rule="evenodd" stroke="#d581a5" stroke-width="0.88" stroke-linecap="square" stroke-linejoin="bevel" d="M21.625 0L20.5 17.125L0 63.875L20.625 42.75L27.375 20.625L21.625 0"/><path id="shape5" transform="translate(148.375001593379, 55.4375005953357)" fill="#d581a5" fill-rule="evenodd" stroke="#d581a5" stroke-width="0.88" stroke-linecap="square" stroke-linejoin="bevel" d="M0 34.4375L7.0625 12.5625L14.625 0L7.1875 22.5625L0 34.4375"/><path id="shape6" transform="translate(198.375002130322, 10.4375001120869)" fill="#d581a5" fill-rule="evenodd" stroke="#d581a5" stroke-width="0.88" stroke-linecap="square" stroke-linejoin="bevel" d="M0 0L4.5 17.125L6.875 28L6 43.8125L2.125 61.9375L10.6875 40.25L10.6875 19.9375L0 0"/><path id="shape7" transform="translate(216.437510838769, 15.2500007636904)" fill="#d581a5" fill-rule="evenodd" stroke="#d581a5" stroke-width="0.88" stroke-linecap="square" stroke-linejoin="bevel" d="M0 11.1875L1.3125 7.875L8.125 0L6.125 8.8125L1.0625 19L0 11.1875"/><path id="shape8" transform="translate(225.187511276952, 17.000000851327)" fill="#d581a5" fill-rule="evenodd" stroke="#d581a5" stroke-width="0.88" stroke-linecap="square" stroke-linejoin="bevel" d="M0.8125 7.8125L8.1875 0L6.1875 5.6875L1.4375 11L0 20.3125L0.125 11.75L0.8125 7.8125"/><path id="shape9" transform="translate(237, 18.9375009483532)" fill="#d581a5" fill-rule="evenodd" stroke="#d581a5" stroke-width="0.88" stroke-linecap="square" stroke-linejoin="bevel" d="M1.25001 7.8125L9.06251 0L8.12501 4.625L0 12.1875L1.25001 7.8125"/><path id="shape10" transform="translate(183.250013015391, 28.0000019887092)" fill="#79294a" fill-rule="evenodd" stroke="#79294a" stroke-width="0.88" stroke-linecap="square" stroke-linejoin="bevel" d="M7 158.25L5.25 89.75L0 58.25L0.5 35L6 12.5L7.75 1.25L8.5 20.5L3 33.75L3.5 73.25L6.75 85.25L12.25 57.25L18.25 32.5L20.5 0L22.25 25.5L17.5 46.25L8.75 91.75L7 158.25"/><path id="shape11" transform="translate(224.000001720072, 16.0000001228623)" fill="#79294a" fill-rule="evenodd" stroke="#79294a" stroke-width="0.88" stroke-linecap="square" stroke-linejoin="bevel" d="M0.75 0L1.125 12.125L3.5 39.375L19.75 80.5L1.125 38.25L0 14.625L0.75 0"/><path id="shape12" transform="translate(221.875002030725, 15.0000001372885)" fill="#79294a" fill-rule="evenodd" stroke="#79294a" stroke-width="0.88" stroke-linecap="square" stroke-linejoin="bevel" d="M2.5 0L4.125 11.125L6.375 41.875L23 82L21.75 85L2.625 40.5L0 13.625L2.5 0"/><path id="shape13" transform="translate(112.000001679815, 268.500004027056)" fill="#2c3931" fill-rule="evenodd" stroke="#2c3931" stroke-width="0.88" stroke-linecap="square" stroke-linejoin="bevel" d="M8.75 0L0 29.5L15.25 29L8.75 0"/><path id="shape14" transform="translate(72.5000010873801, 273.000004094549)" fill="#2c3931" fill-rule="evenodd" stroke="#2c3931" stroke-width="0.88" stroke-linecap="square" stroke-linejoin="bevel" d="M0 14L8.25 21.5L22.5 0L0 14"/><path id="shape15" transform="translate(59.250000888652, 226.000003389626)" fill="#436f52" fill-rule="evenodd" stroke="#436f52" stroke-width="0.88" stroke-linecap="square" stroke-linejoin="bevel" d="M115.75 0L63.75 19.5L0 54L6.75 68.25L29.75 49L6 81.75L18.75 86L30.5 66.25L24 89.75L40 90.75L51.75 82.75L65 41.25L60.75 87.75L83.5 85.25L81.25 55.75L90.5 81.75L112.5 74L115.75 0"/><path id="shape16" transform="translate(58.778252142807, 250.227416265093)" fill="#85b595" fill-rule="evenodd" stroke="#85b595" stroke-width="0.88" stroke-linecap="square" stroke-linejoin="bevel" d="M0 29.7869L7.95495 43.7522L27.4888 27.7539L6.36396 57.2757L19.2687 61.3415L31.0243 41.8961L30.052 48.7904L23.9532 65.6725L41.7193 65.4958L54.2704 41.189L59.7505 10.8718L55.4195 0L0 29.7869"/><path id="shape17" transform="translate(17.2500004878236, 106.50000301178)" fill="#85b595" fill-rule="evenodd" stroke="#85b595" stroke-width="0.88" stroke-linecap="square" stroke-linejoin="bevel" d="M27 3.25L54.5 0L73.5 38.75L66.75 5.5L90.5 6.25L109.75 50L108.25 9.75L131.25 15.5L135.5 36L135.75 16.75L144.5 19L154.5 62.5L158.25 27L168.25 30L174 60.75L179 29.75L202.75 46.5L196.75 85.75L208.25 65.25L219.75 80.5L214 93.5L231.5 88.25L235.25 97.5L211 107L240.25 104L241.5 117.75L199 125.25L173 149.75L168.25 146.25L184.75 129.25L165 145.25L158.25 140.25L166.25 130.25L143 146.5L133.25 138.25L150.75 118.25L121.75 136L100.75 124.25L112 110.5L93.5 122.75L79.25 113.5L88.5 99L64 117.5L38.75 104.5L55 89.25L32.25 102.5L23.5 90.25L47.5 74.75L12.75 81.5L0 62.5L21 59.25L2.25 49.5L6.5 30.5L32.75 45.5L15.75 18.5L27.75 15L45 39.5L27 3.25"/><path id="shape18" transform="translate(63.4628364923182, 163.164897165487)" fill="#436f52" fill-rule="evenodd" stroke="#436f52" stroke-width="0.88" stroke-linecap="square" stroke-linejoin="bevel" d="M135.588 53.8351L156.271 70.8875L144.25 75.6604L110.839 46.4923L69.4732 26.5165L0.176777 2.82843L0 0L54.8008 17.8544L74.9533 21.7435L117.203 43.8406L135.588 53.8351"/><path id="shape19" transform="translate(192.156276510167, 195.161480466627)" fill="#436f52" fill-rule="evenodd" stroke="#436f52" stroke-width="0.88" stroke-linecap="square" stroke-linejoin="bevel" d="M0 19.9758L0.707107 0L3.0052 1.41421L2.12132 21.8385L0.53033 21.8385L0 19.9758"/><path id="shape20" transform="translate(161.750683538917, 208.950063325683)" fill="#436f52" fill-rule="evenodd" stroke="#436f52" stroke-width="0.88" stroke-linecap="square" stroke-linejoin="bevel" d="M10.7834 0L0 8.04994L15.7331 2.65165L10.7834 0"/><path id="shape21" transform="translate(148.845984196468, 203.823538929367)" fill="#436f52" fill-rule="evenodd" stroke="#436f52" stroke-width="0.88" stroke-linecap="square" stroke-linejoin="bevel" d="M13.7886 0L0 10.9602L21.39 0.53033L13.7886 0"/><path id="shape22" transform="translate(158.215149472492, 181.903227717536)" fill="#436f52" fill-rule="evenodd" stroke="#436f52" stroke-width="0.88" stroke-linecap="square" stroke-linejoin="bevel" d="M0 13.435L0.53033 0L5.48008 18.208L0 13.435"/><path id="shape23" transform="translate(149.553091009753, 163.164897165487)" fill="#436f52" fill-rule="evenodd" stroke="#436f52" stroke-width="0.88" stroke-linecap="square" stroke-linejoin="bevel" d="M1.94454 27.9307L0 0L6.54074 33.9411L1.94454 27.9307"/><path id="shape24" transform="translate(132.936080897558, 173.77149936476)" fill="#436f52" fill-rule="evenodd" stroke="#436f52" stroke-width="0.88" stroke-linecap="square" stroke-linejoin="bevel" d="M1.94454 11.4905L0 0L7.24784 15.5563L1.94454 11.4905"/><path id="shape25" transform="translate(248.901581873225, 37.1231052509781)" fill="#85b595" fill-rule="evenodd" stroke="#85b595" stroke-width="0.88" stroke-linecap="square" stroke-linejoin="bevel" d="M50.9117 140.007L114.198 140.714L116.673 124.451L91.5703 124.804L126.219 117.38L95.813 106.066L128.34 101.116L131.168 79.196L110.309 76.3675L145.31 70.3571L148.139 46.3155L115.966 50.9117L140.361 38.1838L141.421 17.6777L115.966 28.9914L116.673 8.83883L109.602 7.07107L103.945 21.5668L103.591 0L79.196 2.47487L79.196 39.598L63.6396 12.7279L46.3155 28.9914L56.215 63.9932L30.052 41.7193L18.3848 54.0937L44.5477 79.9031L12.7279 61.5183L3.18198 82.3779L26.163 104.298L0.707107 91.5703L0 115.612L25.8094 111.369L2.82843 129.754L50.9117 140.007"/><path id="shape26" transform="translate(293.499999003981, 92.4999996860927)" fill="#436f52" fill-rule="evenodd" stroke="#436f52" stroke-width="0.88" stroke-linecap="square" stroke-linejoin="bevel" d="M0 64L14.25 40.75L31.5 21.25L49.25 0L25.25 33.5L0 64"/><path id="shape27" transform="translate(16.6170097018498, 107.480232965156)" fill="#aad9ba" fill-rule="evenodd" stroke="#aad9ba" stroke-width="0.88" stroke-linecap="square" stroke-linejoin="bevel" d="M27.0468 1.94454L45.6084 0L55.5079 45.9619L38.8909 58.1595L45.9619 69.1197L56.0382 84.676L32.8805 101.647L24.0416 89.6258L45.0781 74.423L12.7279 80.2566L0 60.6344L21.7435 58.5131L1.94454 47.9065L7.42462 29.1682L30.9359 41.3657L15.7331 15.7331L28.9914 13.435L42.2496 31.9966L27.0468 1.94454"/><path id="shape28" transform="translate(83.6153759577488, 111.369316814761)" fill="#aad9ba" fill-rule="evenodd" stroke="#aad9ba" stroke-width="0.88" stroke-linecap="square" stroke-linejoin="bevel" d="M0 0L6.01041 30.9359L10.0763 42.0729L14.1421 8.3085L14.1421 0.53033L0 0"/><path id="shape29" transform="translate(125.157896914511, 115.965509005536)" fill="#aad9ba" fill-rule="evenodd" stroke="#aad9ba" stroke-width="0.88" stroke-linecap="square" stroke-linejoin="bevel" d="M0 0.176777L0.883883 36.7696L6.54074 13.9654L4.24264 0L0 0.176777"/><path id="shape30" transform="translate(152.204730569766, 123.390130008939)" fill="#aad9ba" fill-rule="evenodd" stroke="#aad9ba" stroke-width="0.88" stroke-linecap="square" stroke-linejoin="bevel" d="M0.707107 0L0 15.3796L2.82843 2.2981L0.707107 0"/><path id="shape31" transform="translate(56.3917672551148, 194.719534895012)" fill="#aad9ba" fill-rule="evenodd" stroke="#aad9ba" stroke-width="0.88" stroke-linecap="square" stroke-linejoin="bevel" d="M0.972272 15.1144L17.1473 0L9.28078 14.2305L0 16.5286L0.972272 15.1144"/><path id="shape32" transform="translate(96.2549148436995, 206.298412530023)" fill="#aad9ba" fill-rule="evenodd" stroke="#aad9ba" stroke-width="0.88" stroke-linecap="square" stroke-linejoin="bevel" d="M0 12.5511L8.30851 0L7.68979 10.7016L0.353553 14.4957L0 12.5511"/><path id="shape33" transform="translate(118.440391084075, 218.849558450872)" fill="#aad9ba" fill-rule="evenodd" stroke="#aad9ba" stroke-width="0.88" stroke-linecap="square" stroke-linejoin="bevel" d="M0 11.0485L8.48528 0L4.68458 10.253L0 11.0485"/><path id="shape34" transform="translate(266.999998775732, 78.4999996400561)" fill="#aad9ba" fill-rule="evenodd" stroke="#aad9ba" stroke-width="0.88" stroke-linecap="square" stroke-linejoin="bevel" d="M11.125 0.5L0 12.625L4.875 10L12 2.5L11.875 0L11.125 0.5"/><path id="shape35" transform="translate(251.374998847377, 98.999999546058)" fill="#aad9ba" fill-rule="evenodd" stroke="#aad9ba" stroke-width="0.88" stroke-linecap="square" stroke-linejoin="bevel" d="M9.625 0L0 20.75L8.375 10L11.375 2.25L9.625 0"/><path id="shape36" transform="translate(294.937514167383, 49.1875023627315)" fill="#aad9ba" fill-rule="evenodd" stroke="#aad9ba" stroke-width="0.88" stroke-linecap="square" stroke-linejoin="bevel" d="M0 17.0625L17.625 0L9.0625 11.75L1.6875 24.8125L0 17.0625"/><path id="shape37" transform="translate(312.250005109031, 100.375001642335)" fill="#aad9ba" fill-rule="evenodd" stroke="#aad9ba" stroke-width="0.88" stroke-linecap="square" stroke-linejoin="bevel" d="M29 15.25L53.25 0L82.875 2L82.5 8L49.25 13.5L69 15.25L66 39.125L34.375 43.125L63.625 54L34.75 60.75L0 58.25L2.5 39.625L29 15.25"/><path id="shape38" transform="translate(280.500006023077, 88.2500018949611)" fill="#709e7f" fill-rule="evenodd" stroke="#709e7f" stroke-width="0.88" stroke-linecap="square" stroke-linejoin="bevel" d="M3.5 53L0 34.25L20 26.25L17.5 14L36 0L51 0L53.25 7.25L20.5 45.5L3.5 53"/><path id="shape39" transform="translate(329.500014593819, 39.2500017384139)" fill="#709e7f" fill-rule="evenodd" stroke="#709e7f" stroke-width="0.88" stroke-linecap="square" stroke-linejoin="bevel" d="M0.75 29.75L0.75 2.25L21 0L24 22L28.25 7.25L34 11.25L34.5 29.5L9.25 45L0 47.25L0.75 29.75"/><path id="shape40" transform="translate(194.45437133489, 157.684817482475)" fill="#709e7f" fill-rule="evenodd" stroke="#709e7f" stroke-width="0.88" stroke-linecap="square" stroke-linejoin="bevel" d="M0.707107 55.1543L0 32.8805L13.0815 8.48528L21.5668 0L20.1525 30.5824L30.5824 14.8492L42.5456 30.2288L37.8302 41.3657L53.9169 36.416L58.6899 46.1387L37.1231 55.5079L63.4628 52.3259L63.8164 66.8216L22.981 74.5998L0.707107 55.1543"/><path id="shape41" transform="translate(150.083414576669, 220.617316126834)" fill="#709e7f" fill-rule="evenodd" stroke="#709e7f" stroke-width="0.88" stroke-linecap="square" stroke-linejoin="bevel" d="M39.9515 3.35876L57.806 18.9151L41.0122 35.7089L35.1786 32.5269L45.4316 21.2132L32.8805 30.5824L25.1023 26.8701L31.1127 18.208L10.4298 32.5269L0 23.6881L14.1421 7.24784L29.1682 0L38.7141 2.12132L57.0989 18.3848L56.8337 18.0754"/><path id="shape42" transform="translate(198.500004261284, 238.736923646532)" fill="#709e7f" fill-rule="evenodd" stroke="#709e7f" stroke-width="0.88" stroke-linecap="square" stroke-linejoin="bevel" d="M8.5055 0L0 1.76308"/><path id="shape43" transform="translate(117.733280295237, 127.986328729357)" fill="#86bcbe" fill-rule="evenodd" stroke="#86bcbe" stroke-width="0.88" stroke-linecap="square" stroke-linejoin="bevel" d="M126.219 10.6066L124.451 47.3762L127.633 74.2462L104.652 99.3485L63.2861 124.451L26.5165 154.856L0 235.82L4.24264 276.832L58.6899 276.125L78.1353 239.356L119.267 254.558L142.482 288.146L194.808 281.429L192.333 230.163L219.91 216.728L246.427 269.408L278.954 277.186L295.571 270.468L298.046 210.364L281.782 160.513L339.765 104.298L319.966 54.0937L317.845 44.5477L310.066 41.3657L290.974 0L253.498 11.6673L188.444 15.9099L165.817 7.42462L126.219 10.6066"/><path id="shape44" transform="translate(303.500008358962, 175.250004826715)" fill="#ffffff" fill-rule="evenodd" stroke="#ffffff" stroke-width="0.88" stroke-linecap="square" stroke-linejoin="bevel" d="M6.25 0L0 25.5L5.75 47.5L61.25 30.25L34.5 7.5L6.25 0"/><path id="shape45" transform="translate(434.750011973835, 183.25000504705)" fill="#ffffff" fill-rule="evenodd" stroke="#ffffff" stroke-width="0.88" stroke-linecap="square" stroke-linejoin="bevel" d="M2.75 0L17.5 33.75L10.25 33.75L0 28L2.75 0"/><path id="shape46" transform="translate(323.67811708544, 177.572183840701)" fill="#cb2e63" fill-rule="evenodd" stroke="#cb2e63" stroke-width="0.88" stroke-linecap="square" stroke-linejoin="bevel" d="M0.265165 0.707107L0 21.9203L5.65685 38.4489L40.9238 27.8423L22.3623 9.63433L0.441942 0L0.265165 0.707107"/><path id="shape47" transform="translate(325.000010612074, 177.625005799907)" fill="#cb2e63" fill-rule="evenodd" stroke="#cb2e63" stroke-width="0.88" stroke-linecap="square" stroke-linejoin="bevel" d="M0 0L13.5 4.625L19.3125 8.375L16.5 14.25L0 0"/><path id="shape48" transform="translate(325.875010640645, 202.375006608057)" fill="#cb2e63" fill-rule="evenodd" stroke="#cb2e63" stroke-width="0.88" stroke-linecap="square" stroke-linejoin="bevel" d="M38.3125 3.1875L4 14.625L0 0L38.3125 3.1875"/><path id="shape49" transform="translate(434.250023275716, 182.062509758515)" fill="#cb2e63" fill-rule="evenodd" stroke="#cb2e63" stroke-width="0.88" stroke-linecap="square" stroke-linejoin="bevel" d="M3.4375 0L0 29.6875L7.5625 33.4375L8.6875 34L10.9375 17.375L3.4375 0"/><path id="shape50" transform="translate(337.750018966397, 182.87501026937)" fill="#000000" fill-rule="evenodd" stroke="#000000" stroke-width="0.88" stroke-linecap="square" stroke-linejoin="bevel" d="M1.0625 0L9.6875 5.4375L9.375 20.125L7 23.875L3.1875 24.25L0 15.4375L1.0625 0"/><path id="shape51" transform="translate(435.750032483888, 193.937514457473)" fill="#000000" fill-rule="evenodd" stroke="#000000" stroke-width="0.88" stroke-linecap="square" stroke-linejoin="bevel" d="M1.25 0L0 18.1875L4.3125 12.875L4.875 5.6875L1.25 0"/><path id="shape52" transform="translate(434.34032623811, 195.028882752216)" fill="#000000" fill-rule="evenodd" stroke="#000000" stroke-width="0.88" stroke-linecap="square" stroke-linejoin="bevel" d="M2.78423 0L0 16.7938L4.02167 11.3137L3.0052 0.397748L2.78423 0"/><path id="shape53" transform="translate(434.812496653705, 195.687498493999)" fill="#000000" fill-rule="evenodd" stroke="#000000" stroke-width="0.88" stroke-linecap="square" stroke-linejoin="bevel" d="M1.5625 0L0 13.25L3.125 5.25L1.5625 0"/><path id="shape54" transform="translate(310.066333544938, 236.704002632082)" fill="none" stroke="#3a5f60" stroke-width="1.88" stroke-linecap="square" stroke-linejoin="miter" stroke-miterlimit="2" d="M0 12.7279L15.5563 0"/><path id="shape55" transform="translate(326.506566737457, 232.284585107211)" fill="none" stroke="#3a5f60" stroke-width="1.88" stroke-linecap="square" stroke-linejoin="miter" stroke-miterlimit="2" d="M0 4.06586L15.3796 0"/><path id="shape56" transform="translate(342.416469826992, 227.158060778361)" fill="none" stroke="#3a5f60" stroke-width="1.88" stroke-linecap="square" stroke-linejoin="miter" stroke-miterlimit="2" d="M0 4.94975L24.7487 0"/><path id="shape57" transform="translate(367.872314770248, 225.743847170402)" fill="none" stroke="#3a5f60" stroke-width="1.88" stroke-linecap="square" stroke-linejoin="miter" stroke-miterlimit="2" d="M0 1.76777L31.8198 0"/><path id="shape58" transform="translate(400.045674351308, 225.743847170402)" fill="none" stroke="#3a5f60" stroke-width="1.88" stroke-linecap="square" stroke-linejoin="miter" stroke-miterlimit="2" d="M0 0L25.2791 13.435"/><path id="shape59" transform="translate(425.324742593569, 236.350449230092)" fill="none" stroke="#3a5f60" stroke-width="1.88" stroke-linecap="square" stroke-linejoin="miter" stroke-miterlimit="2" d="M0 2.82843L12.7279 0"/><path id="shape60" transform="translate(438.936548570171, 227.86516758234)" fill="none" stroke="#3a5f60" stroke-width="1.88" stroke-linecap="square" stroke-linejoin="miter" stroke-miterlimit="2" d="M0 8.48528L7.6014 0"/><path id="shape61" transform="translate(446.537946712949, 227.86516758234)" fill="none" stroke="#3a5f60" stroke-width="1.88" stroke-linecap="square" stroke-linejoin="miter" stroke-miterlimit="2" d="M0 0L4.94975 10.6066"/><path id="shape62" transform="translate(415.248470636864, 217)" fill="none" stroke="#3a5f60" stroke-width="1.88" stroke-linecap="square" stroke-linejoin="miter" stroke-miterlimit="2" d="M0 0L3.35876 6.44575"/><path id="shape63" transform="translate(436.815228158233, 219.026332532599)" fill="none" stroke="#3a5f60" stroke-width="1.88" stroke-linecap="square" stroke-linejoin="miter" stroke-miterlimit="2" d="M1.41421 0L0 5.3033"/><path id="shape64" transform="translate(430.274490221424, 188.797516662482)" fill="none" stroke="#3a5f60" stroke-width="1.88" stroke-linecap="square" stroke-linejoin="miter" stroke-miterlimit="2" d="M0.707107 0L0 10.7834"/><path id="shape65" transform="translate(348.957207763801, 169.528856254045)" fill="none" stroke="#3a5f60" stroke-width="1.88" stroke-linecap="square" stroke-linejoin="miter" stroke-miterlimit="2" d="M0 0L15.5563 13.7886"/><path id="shape66" transform="translate(364.513557451346, 183.670992333632)" fill="none" stroke="#3a5f60" stroke-width="1.88" stroke-linecap="square" stroke-linejoin="miter" stroke-miterlimit="2" d="M0 0L1.76777 7.07107"/><path id="shape67" transform="translate(324.03167156927, 233.522006624662)" fill="#ffffff" fill-rule="evenodd" stroke="#ffffff" stroke-width="1.88" stroke-linecap="square" stroke-linejoin="bevel" d="M0 7.6014L12.4628 20.7713L18.4732 0L9.28078 1.59099L0 7.6014"/><path id="shape68" transform="translate(440.93751590323, 229.875008290869)" fill="#ffffff" fill-rule="evenodd" stroke="#ffffff" stroke-width="1.88" stroke-linecap="square" stroke-linejoin="bevel" d="M0 5.6875L5.0625 0L8.75 8.25L3.125 17.5625L0 5.6875"/><path id="shape69" transform="translate(253.321010455806, 310.950214509255)" fill="#376178" fill-rule="evenodd" stroke="#376178" stroke-width="1.88" stroke-linecap="square" stroke-linejoin="bevel" d="M2.82843 0L0 27.4004L18.7383 46.4923L35.0018 40.6586L37.6534 25.1023L2.82843 0"/><path id="shape70" transform="translate(256.149437648613, 362.392234078438)" fill="#376178" fill-rule="evenodd" stroke="#376178" stroke-width="1.88" stroke-linecap="square" stroke-linejoin="bevel" d="M3.88909 0L0 19.6222L7.24784 23.3345L23.1577 11.1369L3.88909 0"/><path id="shape71" transform="translate(159.275806294962, 289.913787262751)" fill="#376178" fill-rule="evenodd" stroke="#376178" stroke-width="1.88" stroke-linecap="square" stroke-linejoin="bevel" d="M7.42462 0L0 19.799L13.9654 13.6118L7.42462 0"/><path id="shape72" transform="translate(120.119761330722, 324.738780816094)" fill="#376178" fill-rule="evenodd" stroke="#376178" stroke-width="1.88" stroke-linecap="square" stroke-linejoin="bevel" d="M8.75045 0.53033L18.6499 0L32.7037 28.0191L17.4125 46.5807L9.89949 46.4923L0 33.8527L8.75045 0.53033"/><path id="shape73" transform="translate(179.958674442496, 241.211798896647)" fill="#376178" fill-rule="evenodd" stroke="#376178" stroke-width="1.88" stroke-linecap="square" stroke-linejoin="bevel" d="M21.39 0L13.6118 5.12652L0 35.5321L0.883883 50.293L6.45235 57.5408L29.0798 47.3762L33.9411 5.12652L21.39 0"/><path id="shape74" transform="translate(374.766610897304, 347.6313869479)" fill="#376178" fill-rule="evenodd" stroke="#376178" stroke-width="1.88" stroke-linecap="square" stroke-linejoin="bevel" d="M1.85616 0L0 21.0364L13.0815 12.6395L1.85616 0"/><path id="shape75" transform="translate(385.815154850645, 317.844512449695)" fill="#376178" fill-rule="evenodd" stroke="#376178" stroke-width="1.88" stroke-linecap="square" stroke-linejoin="bevel" d="M7.42462 0L24.8371 7.68979L29.0798 24.9255L28.8146 37.2999L18.2964 44.0174L0 20.0642L3.0052 0.353553L7.42462 0"/><path id="shape76" transform="translate(368.625011225205, 167.375005096829)" fill="#376178" fill-rule="evenodd" stroke="#376178" stroke-width="1.88" stroke-linecap="square" stroke-linejoin="bevel" d="M0 2L13.625 0L17.625 22.625L0 2"/><path id="shape77" transform="translate(357.125010875012, 139.125004236573)" fill="#376178" fill-rule="evenodd" stroke="#376178" stroke-width="1.88" stroke-linecap="square" stroke-linejoin="bevel" d="M0 0.125L46.375 36L47.125 11.75L17.75 0L0 0.125"/><path id="shape78" transform="translate(248.375007098074, 145.12500414739)" fill="#000000" fill-rule="evenodd" stroke="#000000" stroke-width="1.88" stroke-linecap="square" stroke-linejoin="bevel" d="M2.75 0L28.25 26.125L0.75 51L3.25 45.375L0 26L2.75 2.25L2.75 0"/><path id="shape79" transform="translate(150.967297508945, 246.249936100656)" fill="#608485" fill-rule="evenodd" stroke="#608485" stroke-width="1.88" stroke-linecap="square" stroke-linejoin="bevel" d="M26.3397 8.83883L0 38.1838L10.9602 42.4264L28.2843 24.7487L22.2739 48.26L29.3449 45.0781L28.2843 28.2843L41.8961 0L26.3397 8.83883"/><path id="shape80" transform="translate(227.511606433269, 212.132033970414)" fill="#608485" fill-rule="evenodd" stroke="#608485" stroke-width="1.88" stroke-linecap="square" stroke-linejoin="bevel" d="M0 10.0763L15.026 19.6222L15.9099 4.86797L9.48839 0L0 10.0763"/><path id="shape81" transform="translate(205.591296256327, 223.092189058886)" fill="#608485" fill-rule="evenodd" stroke="#608485" stroke-width="1.88" stroke-linecap="square" stroke-linejoin="bevel" d="M21.9203 0L36.9463 17.6777L21.9203 37.1231L0 15.3796L12.3744 6.71751L21.9203 0"/><path id="shape82" transform="translate(213.015917445291, 251.199683559966)" fill="#608485" fill-rule="evenodd" stroke="#608485" stroke-width="1.88" stroke-linecap="square" stroke-linejoin="bevel" d="M0.883883 0L9.54594 14.3189L0 22.4506L1.06066 1.76777L0.883883 0"/><path id="shape83" transform="translate(179.074795303556, 240.239532889963)" fill="#213e4e" fill-rule="evenodd" stroke="#213e4e" stroke-width="1.88" stroke-linecap="square" stroke-linejoin="bevel" d="M3.71231 50.0278L21.39 39.598L19.2687 12.1976L30.052 31.2895L32.8805 5.65685L23.6881 0L16.0867 4.59619L3.71231 27.2236L0 40.3051L1.94454 51.7956L3.71231 50.0278"/><path id="shape84" transform="translate(120.250001791045, 345.00000513855)" fill="#50889b" fill-rule="evenodd" stroke="#50889b" stroke-width="1.88" stroke-linecap="square" stroke-linejoin="bevel" d="M0 38.25L12 47L38.75 26L50.75 0L64.25 14.25L77.75 23.5L55.75 60.5L1 59.5L0 38.25"/><path id="shape85" transform="translate(171.296614649418, 310.773424719997)" fill="#50889b" fill-rule="evenodd" stroke="#50889b" stroke-width="1.88" stroke-linecap="square" stroke-linejoin="bevel" d="M9.36916 31.9966L30.2288 19.799L47.9065 0L51.2652 26.163L58.5131 54.9776L65.7034 72.3017L47.3762 68.4126L26.8701 57.2756L4.94975 43.1335L0 33.9411L9.36916 31.9966"/><path id="shape86" transform="translate(240.946635770131, 305.470129575045)" fill="#50889b" fill-rule="evenodd" stroke="#50889b" stroke-width="1.88" stroke-linecap="square" stroke-linejoin="bevel" d="M0 85.0296L25.1023 99.8788L44.7245 79.7263L50.5581 50.3814L51.0885 0L63.4628 27.9307L68.9429 57.9828L72.3017 103.945L18.9151 111.016L0 85.0296"/><path id="shape87" transform="translate(337.000024474791, 292.250015849755)" fill="#50889b" fill-rule="evenodd" stroke="#50889b" stroke-width="1.88" stroke-linecap="square" stroke-linejoin="bevel" d="M20.25 11.75L38.25 7.75L55.5 0L57.5 25L51.2016 24.8874L48.4616 46.4541L62.25 65.25L69.5 108.25L57.75 113.5L26.25 105.75L0 52.75L14.75 39.5L24.75 28L20.25 11.75"/><path id="shape88" transform="translate(292.56542767602, 298.399058560194)" fill="#50889b" fill-rule="evenodd" stroke="#50889b" stroke-width="1.88" stroke-linecap="square" stroke-linejoin="bevel" d="M0 7.24784L5.3033 4.24264L6.01041 0L27.5772 6.36396L51.2652 7.24784L64.5235 5.48008L69.8268 20.1525L43.8406 47.5529L25.4558 57.2756L17.1473 60.2809L0 7.24784"/><path id="shape89" transform="translate(336.750003124722, 320.500002973937)" fill="#406e7d" fill-rule="evenodd" stroke="#406e7d" stroke-width="1.88" stroke-linecap="square" stroke-linejoin="bevel" d="M0 24.5L14.25 12.625L24.125 0L8 27.125L10.75 49.25L0 24.5"/><path id="shape90" transform="translate(303.125008387768, 329.125009107214)" fill="#406e7d" fill-rule="evenodd" stroke="#406e7d" stroke-width="1.88" stroke-linecap="square" stroke-linejoin="bevel" d="M0 0L12.25 20.625L24 17.875L37.75 11.75L20 24.5L7 29.375L0 0"/><path id="shape91" transform="translate(293.979638070485, 308.828880161838)" fill="#406e7d" fill-rule="evenodd" stroke="#406e7d" stroke-width="1.88" stroke-linecap="square" stroke-linejoin="bevel" d="M10.4298 25.3675L4.06586 7.95495L0 0L8.13173 10.9602L13.6118 29.5217L10.4298 25.3675"/><path id="shape92" transform="translate(178.375011497136, 353.25002276868)" fill="#406e7d" fill-rule="evenodd" stroke="#406e7d" stroke-width="1.88" stroke-linecap="square" stroke-linejoin="bevel" d="M16.875 13.625L8 6.75L0 0L7.125 10.625L9.5 17.5L4.25 31.375L2.625 45.5L20.25 16.125L16.875 13.625"/><path id="shape93" transform="translate(379.500026400115, 392.750027321858)" fill="#ffffff" fill-rule="evenodd" stroke="#ffffff" stroke-width="1.88" stroke-linecap="square" stroke-linejoin="bevel" d="M0 6.75L8 0L18 13.5L6 13.25L0 6.75"/><path id="shape94" transform="translate(394.750027460989, 388.500027026204)" fill="#ffffff" fill-rule="evenodd" stroke="#ffffff" stroke-width="1.88" stroke-linecap="square" stroke-linejoin="bevel" d="M0 12.75L7.25 0L19.25 17.5L0 12.75"/><path id="shape95" transform="translate(410.750028574037, 389.50002709577)" fill="#ffffff" fill-rule="evenodd" stroke="#ffffff" stroke-width="1.88" stroke-linecap="square" stroke-linejoin="bevel" d="M5.5 1L15 10L0 10.25L3.75 0L5.5 1"/><path id="shape96" transform="translate(270.750018834864, 401.500027930556)" fill="#ffffff" fill-rule="evenodd" stroke="#ffffff" stroke-width="1.88" stroke-linecap="square" stroke-linejoin="bevel" d="M0 14L6.5 0L14.75 10.75L15 19.5L0 14"/><path id="shape97" transform="translate(287.250019982695, 398.750027739251)" fill="#ffffff" fill-rule="evenodd" stroke="#ffffff" stroke-width="1.88" stroke-linecap="square" stroke-linejoin="bevel" d="M0 12.5L0.25 8L9.75 0L24.75 19.5L0.75 14.25L0 12.5"/><path id="shape98" transform="translate(308.00002142618, 396.250027565337)" fill="#ffffff" fill-rule="evenodd" stroke="#ffffff" stroke-width="1.88" stroke-linecap="square" stroke-linejoin="bevel" d="M0 12L1 5L5.5 0L14.5 16.75L0 12"/><path id="shape99" transform="translate(139.000009669607, 396.500027582728)" fill="#ffffff" fill-rule="evenodd" stroke="#ffffff" stroke-width="1.88" stroke-linecap="square" stroke-linejoin="bevel" d="M0 8.25L5 0L11.5 10.75L9.75 17.75L0 8.25"/><path id="shape100" transform="translate(152.500010608742, 394.500027443597)" fill="#ffffff" fill-rule="evenodd" stroke="#ffffff" stroke-width="1.88" stroke-linecap="square" stroke-linejoin="bevel" d="M0 11.75L9.5 0L19 10L18.5 18L0 11.75"/><path id="shape101" transform="translate(177.250012330488, 394.250027426206)" fill="#ffffff" fill-rule="evenodd" stroke="#ffffff" stroke-width="1.88" stroke-linecap="square" stroke-linejoin="bevel" d="M0 9.25L6.5 0L10.25 13.75L0.5 11.25L0 9.25"/><path id="shape102" transform="translate(242.891180537807, 136.825162835708)" fill="#bde4e6" fill-rule="evenodd" stroke="#bde4e6" stroke-width="1.88" stroke-linecap="square" stroke-linejoin="bevel" d="M0.53033 1.67938L0 20.1525L3.53553 5.65685L20.6829 0L0.53033 1.67938"/><path id="shape103" transform="translate(312.875023364309, 141.25001054801)" fill="#bde4e6" fill-rule="evenodd" stroke="#bde4e6" stroke-width="1.88" stroke-linecap="square" stroke-linejoin="bevel" d="M0 2.25L38 0L24.5 6.375L0 2.25"/><path id="shape104" transform="translate(377.12500330905, 127.875001122028)" fill="#bde4e6" fill-rule="evenodd" stroke="#bde4e6" stroke-width="1.88" stroke-linecap="square" stroke-linejoin="bevel" d="M0 10L31.625 0L18.25 18.125L0 10"/><path id="shape105" transform="translate(220.794098705768, 312.541206174378)" fill="#bde4e6" fill-rule="evenodd" stroke="#bde4e6" stroke-width="1.88" stroke-linecap="square" stroke-linejoin="bevel" d="M0 0L10.9602 33.5876L20.3293 76.1908L9.01561 50.5581L2.47487 22.2739L0 0"/><path id="shape106" transform="translate(239.002091269264, 380.777000439345)" fill="#bde4e6" fill-rule="evenodd" stroke="#bde4e6" stroke-width="1.88" stroke-linecap="square" stroke-linejoin="bevel" d="M0 6.01041L9.19239 21.5668L1.06066 0L0 6.01041"/><path id="shape107" transform="translate(131.375008737165, 283.500018854321)" fill="#bde4e6" fill-rule="evenodd" stroke="#bde4e6" stroke-width="1.88" stroke-linecap="square" stroke-linejoin="bevel" d="M12.5 0L10.625 22.375L0 38.875L12.5 0"/><path id="shape108" transform="translate(117.202951058278, 358.856697810412)" fill="#bde4e6" fill-rule="evenodd" stroke="#bde4e6" stroke-width="1.88" stroke-linecap="square" stroke-linejoin="bevel" d="M1.94454 0L0 3.88909L2.47487 24.2184L4.24264 23.8649L1.94454 0"/><path id="shape109" transform="translate(119.412653810224, 323.147788549356)" fill="#5b869e" fill-rule="evenodd" stroke="#5b869e" stroke-width="1.88" stroke-linecap="square" stroke-linejoin="bevel" d="M9.28078 1.67938L0 35.5321L1.67938 38.007L6.89429 18.2964L13.1699 0.176777L10.3414 0L9.28078 1.67938"/><path id="shape110" transform="translate(119.437508858862, 383.937528477231)" fill="#81b5c7" fill-rule="evenodd" stroke="#81b5c7" stroke-width="1.88" stroke-linecap="square" stroke-linejoin="bevel" d="M2.8125 0L7.75 21.8125L1 21.75L0 0.375L2.8125 0"/><path id="shape111" transform="translate(298.750022040075, 248.901592560897)" fill="#6ea1b2" fill-rule="evenodd" stroke="#6ea1b2" stroke-width="1.88" stroke-linecap="square" stroke-linejoin="bevel" d="M22.0997 25.2791L34.6508 14.1421L73.8953 0L110.665 0.707107L128.873 9.01561L130.464 11.3137L102.003 39.4212L94.2246 42.6032L80.4375 48.4109L57.125 54.5984L41.8125 55.4109L20.1875 55.2234L0 48.3484L3.36136 26.163L30.585 14.1421L42.2522 12.3744L22.0997 25.2791"/><path id="shape112" transform="translate(329.031263852573, 261.687511017328)" fill="#6ea1b2" fill-rule="evenodd" stroke="#6ea1b2" stroke-width="1.88" stroke-linecap="square" stroke-linejoin="bevel" d="M0 5.3125L4.78125 0.90625L11.3125 0L16.1563 3.34375L1.46875 9.125L0.3125 5.3125L0 5.3125"/>
</svg>
