<?xml version="1.0" standalone="no"?>
<!DOCTYPE svg PUBLIC "-//W3C//DTD SVG 20010904//EN" "http://www.w3.org/TR/2001/REC-SVG-20010904/DTD/svg10.dtd">
<!-- Created using Krita: https://krita.org -->
<svg xmlns="http://www.w3.org/2000/svg" 
    xmlns:xlink="http://www.w3.org/1999/xlink"
    xmlns:krita="http://krita.org/namespaces/svg/krita"
    xmlns:sodipodi="http://sodipodi.sourceforge.net/DTD/sodipodi-0.dtd"
    width="480pt"
    height="480pt"
    viewBox="0 0 480 480">
<defs/>
<path id="shape0" transform="translate(45.8205213324074, 15.6000008088232)" fill="#536674" fill-rule="evenodd" stroke="#536674" stroke-width="0.96" stroke-linecap="square" stroke-linejoin="bevel" d="M115.06 3.40703L43.4446 48.2093L11.54 140.529L40.0505 206.714L96.7322 244.05L67.8823 370.311L35.2988 390.675L8.48528 399.839L0 420.883L20.7041 435.817L78.404 414.434L143.232 451.09L164.614 436.835L161.56 412.737L114.382 382.869L124.903 309.556L186.676 304.804L219.599 277.651L199.234 254.911L131.013 274.936L137.801 248.123L201.95 216.897L235.212 169.719L306.488 218.933L327.532 215.878L400.166 115.752L393.717 103.873L350.419 132.12L251.059 127.8L246.379 140.88L310.339 180.36L350.419 132.24L393.619 103.92L250.219 97.92L228.499 44.88L156.979 0L115.06 3.40703" sodipodi:nodetypes="ccccccccccccccccccccccccccccccccccccc"/><path id="shape1" transform="translate(96.3927990199485, 57.0210923779977)" fill="#dadfe7" fill-rule="evenodd" stroke="#dadfe7" stroke-width="0.96" stroke-linecap="square" stroke-linejoin="bevel" d="M56.6817 0L0 48.8752L5.09117 136.104L58.0393 168.348L115.06 147.644L143.607 76.7069L119.133 2.03647L56.6817 0" sodipodi:nodetypes="cccccccc"/><path id="shape2" transform="translate(138.819207039292, 109.969249586138)" fill="#0f141c" fill-rule="evenodd" stroke="#0f141c" stroke-width="0.96" stroke-linecap="square" stroke-linejoin="bevel" d="M19.007 0L2.71529 8.14587L0 29.1894L11.54 40.7294L29.5288 31.2258L33.2623 12.2188L19.007 0" sodipodi:nodetypes="ccccccc"/><path id="shape3" transform="translate(147.813603198526, 130.418776186071)" fill="#00659c" fill-rule="evenodd" stroke="#00659c" stroke-width="0.96" stroke-linecap="square" stroke-linejoin="bevel" d="M7.89131 0.933381L0 7.04278L2.63044 14.9341L11.1157 15.6978L19.0919 6.78823L13.9159 0L7.89131 0.933381" sodipodi:nodetypes="ccccccc"/><path id="shape4" transform="translate(144.674049054815, 114.042182949954)" fill="#ffffff" fill-rule="evenodd" stroke="#ffffff" stroke-width="0.96" stroke-linecap="square" stroke-linejoin="bevel" d="M5.60029 1.27279L0 7.38219L3.22441 16.2917L11.2006 13.4916L14.5098 5.51543L9.24896 0L5.60029 1.27279" sodipodi:nodetypes="ccccccc"/><path id="shape5" transform="translate(95.7600016211634, 56.1600009507575)" fill="#f8fafc" fill-rule="evenodd" stroke="#f8fafc" stroke-width="0.96" stroke-linecap="square" stroke-linejoin="bevel" d="M56.4 0L106.32 2.4L58.56 28.08L21.6 65.52L23.76 115.2L36.72 156.24L5.52 136.8L0 49.44L56.4 0" sodipodi:nodetypes="ccccccccc"/><path id="shape6" transform="translate(56.6816785939066, 18.158501824994)" fill="#959b90" fill-rule="evenodd" stroke="#959b90" stroke-width="0.96" stroke-linecap="square" stroke-linejoin="bevel" d="M104.878 0L141.534 5.60029L121.509 12.0491L162.917 20.8738L112.685 22.7406L133.049 26.3044L110.139 29.1894L127.958 32.7532L108.781 37.6746L94.6957 37.5049L72.2946 50.9117L38.3535 87.2287L43.6143 176.154L60.0758 201.61L48.1964 198.895L51.9299 210.265L38.5232 200.422L40.8991 212.471L29.0197 204.156L0 137.971L32.0744 45.3114L104.878 0" sodipodi:nodetypes="cccccccccccccccccccccc"/><path id="shape7" transform="translate(275.039982014099, 119.999992152748)" fill="#959b90" fill-rule="evenodd" stroke="#959b90" stroke-width="0.96" stroke-linecap="square" stroke-linejoin="bevel" d="M8.64 0L64.32 0.48L48.48 6.24L0 13.44L8.64 0" sodipodi:nodetypes="ccccc"/><path id="shape8" transform="translate(391.19997441796, 128.159991619135)" fill="#959b90" fill-rule="evenodd" stroke="#959b90" stroke-width="0.96" stroke-linecap="square" stroke-linejoin="bevel" d="M0 0L39.36 3.36L14.4 33.6L16.8 13.92L2.4 2.4L0 0" sodipodi:nodetypes="cccccc"/><path id="shape9" transform="translate(161.759989421905, 182.879988040789)" fill="#959b90" fill-rule="evenodd" stroke="#959b90" stroke-width="0.96" stroke-linecap="square" stroke-linejoin="bevel" d="M0 46.08L45.6 33.12L71.52 0L50.88 39.36L10.56 49.92L0 46.08" sodipodi:nodetypes="cccccc"/><path id="shape10" transform="translate(52.3199965785983, 410.87997313101)" fill="#959b90" fill-rule="evenodd" stroke="#959b90" stroke-width="0.96" stroke-linecap="square" stroke-linejoin="bevel" d="M0.96 14.88L36 0L0 24.48L0.96 14.88" sodipodi:nodetypes="cccc"/><path id="shape11" transform="translate(152.159990049685, 416.639972754342)" fill="#959b90" fill-rule="evenodd" stroke="#959b90" stroke-width="0.96" stroke-linecap="square" stroke-linejoin="bevel" d="M0 0L38.88 23.04L25.92 31.68L0 0" sodipodi:nodetypes="cccc"/><path id="shape12" transform="translate(113.759992560805, 340.799977713805)" fill="#959b90" fill-rule="evenodd" stroke="#959b90" stroke-width="0.96" stroke-linecap="square" stroke-linejoin="bevel" d="M13.92 0L0 58.08L7.68 78.72L17.76 53.76L13.92 0" sodipodi:nodetypes="ccccc"/><path id="shape13" transform="translate(210.480011182482, 270.720014382942)" fill="#0a2a40" fill-rule="evenodd" stroke="#0a2a40" stroke-width="0.96" stroke-linecap="square" stroke-linejoin="bevel" d="M34.8 0L56.16 22.8L22.56 48.96L0 44.88L19.92 24.48L13.92 21.12L34.8 0" sodipodi:nodetypes="ccccccc"/><path id="shape14" transform="translate(152.904764951649, 325.665087616221)" fill="#0a2a40" fill-rule="evenodd" stroke="#0a2a40" stroke-width="0.96" stroke-linecap="square" stroke-linejoin="bevel" d="M17.8191 0L7.97616 73.9917L0 82.3072L9.33381 19.3464L17.8191 0" sodipodi:nodetypes="ccccc"/><path id="shape15" transform="translate(184.470023991337, 429.015842364397)" fill="#0a2a40" fill-rule="evenodd" stroke="#0a2a40" stroke-width="0.96" stroke-linecap="square" stroke-linejoin="bevel" d="M6.78823 35.9776L26.4741 23.2497L23.2497 0L0 20.3647L4.58205 37.5049L6.78823 35.9776" sodipodi:nodetypes="cccccc"/><path id="shape16" transform="translate(58.5484398186578, 422.736706052975)" fill="#0a2a40" fill-rule="evenodd" stroke="#0a2a40" stroke-width="0.96" stroke-linecap="square" stroke-linejoin="bevel" d="M8.65499 28.5105L65.8458 8.31558L61.2637 0L0 23.4194L8.65499 28.5105" sodipodi:nodetypes="ccccc"/><path id="shape17" transform="translate(283.679999305789, 131.039999679324)" fill="#0a2a40" fill-rule="evenodd" stroke="#0a2a40" stroke-width="0.96" stroke-linecap="square" stroke-linejoin="bevel" d="M0 55.2L78.24 94.8L152.88 4.08L162.96 0L90.24 100.08L67.44 103.44L0 55.2" sodipodi:nodetypes="ccccccc"/><path id="shape18" transform="translate(287.039999297567, 138.479999661117)" fill="#0a2a40" fill-rule="evenodd" stroke="#0a2a40" stroke-width="0.96" stroke-linecap="square" stroke-linejoin="bevel" d="M6 17.52L0 8.16L8.64 0L83.04 7.92L10.32 5.76L6 17.52" sodipodi:nodetypes="cccccc"/><path id="shape19" transform="translate(175.984743337294, 186.16708142817)" fill="#0a2a40" fill-rule="evenodd" stroke="#0a2a40" stroke-width="0.96" stroke-linecap="square" stroke-linejoin="bevel" d="M0.848528 104.539L0 94.6957L5.60029 72.8037L70.0884 43.7841L104.708 0L71.6158 46.8388L7.63675 78.0646L0.848528 104.539" sodipodi:nodetypes="cccccccc"/><path id="shape20" transform="translate(181.920008930754, 177.72000872457)" fill="#0a2a40" fill-rule="evenodd" stroke="#0a2a40" stroke-width="0.96" stroke-linecap="square" stroke-linejoin="bevel" d="M99.12 8.52L91.8 0L59.64 45.72L0 81L63.72 55.92L99.12 8.52" sodipodi:nodetypes="cccccc"/><path id="shape21" transform="translate(198.959999806313, 19.1999999813089)" fill="#0a2a40" fill-rule="evenodd" stroke="#0a2a40" stroke-width="0.96" stroke-linecap="square" stroke-linejoin="bevel" d="M9.36 0.24L0 0L15.6 14.16L69.36 46.8L82.08 96.48L97.44 93.84L75.84 40.8L9.36 0.24" sodipodi:nodetypes="cccccccc"/>
</svg>
