<?xml version="1.0" standalone="no"?>
<!DOCTYPE svg PUBLIC "-//W3C//DTD SVG 20010904//EN" "http://www.w3.org/TR/2001/REC-SVG-20010904/DTD/svg10.dtd">
<!-- Created using Krita: https://krita.org -->
<svg xmlns="http://www.w3.org/2000/svg" 
    xmlns:xlink="http://www.w3.org/1999/xlink"
    xmlns:krita="http://krita.org/namespaces/svg/krita"
    xmlns:sodipodi="http://sodipodi.sourceforge.net/DTD/sodipodi-0.dtd"
    width="480pt"
    height="480pt"
    viewBox="0 0 480 480">
<defs/>
<path id="shape0" transform="translate(329.907743338271, 220.956729334583)" fill="#4c5b6b" fill-rule="evenodd" stroke="#4c5b6b" stroke-width="0.96" stroke-linecap="square" stroke-linejoin="bevel" d="M36.317 28.5105L57.3605 34.2805L71.6158 19.0433L74.6705 36.317L112.006 0L116.418 19.0433L91.9805 63.8093L89.6046 98.4293L52.2693 124.564L3.39411 103.86L0 33.2623L36.317 28.5105" sodipodi:nodetypes="cccccccccccc"/><path id="shape1" transform="translate(397.365724687816, 240)" fill="#517b9c" fill-rule="evenodd" stroke="#517b9c" stroke-width="0.96" stroke-linecap="square" stroke-linejoin="bevel" d="M4.24264 0L0 3.78213L5.43058 4.2064L4.24264 0" sodipodi:nodetypes="cccc"/><path id="shape2" transform="translate(424.773183383986, 220.617314582174)" fill="#517b9c" fill-rule="evenodd" stroke="#517b9c" stroke-width="0.96" stroke-linecap="square" stroke-linejoin="bevel" d="M17.0554 0L0 16.4614L19.7707 23.1648L21.9769 19.3827L17.0554 0" sodipodi:nodetypes="ccccc"/><path id="shape3" transform="translate(337.374780341252, 250.146089649399)" fill="#36404a" fill-rule="evenodd" stroke="#36404a" stroke-width="0.96" stroke-linecap="square" stroke-linejoin="bevel" d="M32.5835 0L36.9958 6.78822L22.7406 26.8135L32.9229 85.871L0 15.2735L32.5835 0" sodipodi:nodetypes="cccccc"/><path id="shape4" transform="translate(333.960020070863, 394.680023720111)" fill="#977948" fill-rule="evenodd" stroke="#977948" stroke-width="0.96" stroke-linecap="square" stroke-linejoin="bevel" d="M0 18L5.88 41.88L31.2 73.8L54.84 83.88L63.84 63L51.96 24.72L36.72 0L0 18" sodipodi:nodetypes="cccccccc"/><path id="shape5" transform="translate(366.055035893047, 452.350346858098)" fill="#c5a64f" fill-rule="evenodd" stroke="#c5a64f" stroke-width="0.96" stroke-linecap="square" stroke-linejoin="bevel" d="M0 16.9706L22.486 26.4741L32.0744 5.34573L30.6319 0L17.8191 0.848528L1.78191 5.76999L0.509117 16.6312L0 16.9706" sodipodi:nodetypes="cccccccc"/><path id="shape6" transform="translate(378.104142313226, 432.91906061088)" fill="#6c552f" fill-rule="evenodd" stroke="#6c552f" stroke-width="0.96" stroke-linecap="square" stroke-linejoin="bevel" d="M0.509117 0L12.9825 26.3044L15.5281 30.9713L17.4797 31.6501L14.425 36.8261L10.946 26.9832L1.10309 5.34573L0 3.0547L0.509117 0" sodipodi:nodetypes="ccccccccc"/><path id="shape7" transform="translate(360.369904040456, 440.640666748784)" fill="#6c552f" fill-rule="evenodd" stroke="#6c552f" stroke-width="0.96" stroke-linecap="square" stroke-linejoin="bevel" d="M0 0L3.64867 14.2553L15.1038 29.953L14.6795 32.3289L19.8556 34.7048L20.195 31.5652L10.1823 18.3282L0 0" sodipodi:nodetypes="cccccccc"/><path id="shape8" transform="translate(72.4800009125066, 0)" fill="#4a83ad" fill-rule="evenodd" stroke="#4a83ad" stroke-width="0.96" stroke-linecap="square" stroke-linejoin="bevel" d="M96.96 10.08L30.72 54.24L0 125.28L18.24 207.36L100.32 253.44L80.64 268.8L78.24 310.56L104.16 314.4L135.84 300.48L143.04 287.04L188.16 301.92L228.96 286.56L242.4 246.72L231.84 228L272.64 164.16L272.64 95.52L231.36 33.6L158.88 0L96.96 10.08" sodipodi:nodetypes="ccccccccccccccccccc"/><path id="shape9" transform="translate(72.0000017278234, 29.7600021280594)" fill="#fbf7f6" fill-rule="evenodd" stroke="#fbf7f6" stroke-width="0.96" stroke-linecap="square" stroke-linejoin="bevel" d="M88.32 112.8L105.6 46.56L159.84 0L218.88 30.24L242.88 113.76L217.44 183.84L168 215.52L99.6 223.68L18.36 177.84L0 95.28L21.48 45.72L29.1446 95.4827L22.0169 129.763L39.3269 162.686L68.8557 170.153L92.9539 148.77L88.32 112.8" sodipodi:nodetypes="ccccccccccccccccc"/><path id="shape10" transform="translate(212.160013834453, 81.6000053209436)" fill="#2a314d" fill-rule="evenodd" stroke="#2a314d" stroke-width="0.96" stroke-linecap="square" stroke-linejoin="bevel" d="M15.6 0L1.92 13.92L0 49.2L16.08 72.24L32.16 76.8L45.84 61.92L46.8 30L35.52 4.56L15.6 0" sodipodi:nodetypes="ccccccccc"/><path id="shape11" transform="translate(240, 124.200001880697)" fill="#524b5c" fill-rule="evenodd" stroke="#524b5c" stroke-width="0.96" stroke-linecap="square" stroke-linejoin="bevel" d="M0 13.32L7.32 31.44L18 20.28L16.2 5.76L4.8 0L0 13.32" sodipodi:nodetypes="cccccc"/><path id="shape12" transform="translate(226.132756495611, 99.2777955346585)" fill="#131613" fill-rule="evenodd" stroke="#131613" stroke-width="0.96" stroke-linecap="square" stroke-linejoin="bevel" d="M9.75807 0L18.4131 6.36396L21.9769 20.9586L22.4011 30.3773L17.4797 41.7476L9.67322 41.0688L0 25.4558L1.4425 6.61852L9.75807 0" sodipodi:nodetypes="ccccccccc"/><path id="shape13" transform="translate(221.550704394011, 86.6347258469114)" fill="#fdfdfb" fill-rule="evenodd" stroke="#fdfdfb" stroke-width="0.96" stroke-linecap="square" stroke-linejoin="bevel" d="M7.29734 0L0 11.7097L2.03647 21.8072L7.21249 29.1045L12.7279 26.2195L17.5645 16.9706L14.5098 3.0547L7.29734 0" sodipodi:nodetypes="cccccccc"/><path id="shape14" transform="translate(71.2763616919141, 121.509226122406)" fill="#fbf7f6" fill-rule="evenodd" stroke="#fbf7f6" stroke-width="0.96" stroke-linecap="square" stroke-linejoin="bevel" d="M0 3.39411L1.52735 56.8514L18.8373 86.2105L14.425 0L0 3.39411" sodipodi:nodetypes="ccccc"/><path id="shape15" transform="translate(71.1915108199452, 127.533779216183)" fill="#2a314d" fill-rule="evenodd" stroke="#2a314d" stroke-width="0.96" stroke-linecap="square" stroke-linejoin="bevel" d="M0 8.31558L7.80646 0L15.1038 8.90955L21.2981 36.5716L22.1466 71.5309L11.7097 68.8156L1.27279 49.9783L0 8.31558" sodipodi:nodetypes="cccccccc"/><path id="shape16" transform="translate(80.4404692145761, 179.718263498388)" fill="#524b5c" fill-rule="evenodd" stroke="#524b5c" stroke-width="0.96" stroke-linecap="square" stroke-linejoin="bevel" d="M12.6431 1.35765L7.46705 0L0.254558 8.14587L0 13.1522L2.29103 16.9706L12.8976 19.5161L12.6431 1.35765" sodipodi:nodetypes="ccccccc"/><path id="shape17" transform="translate(73.0800017166711, 127.80000300206)" fill="#131613" fill-rule="evenodd" stroke="#131613" stroke-width="0.96" stroke-linecap="square" stroke-linejoin="bevel" d="M20.04 52.2L19.68 36.24L13.92 8.76L6.48 0L0 5.4L0.12 22.8L8.28 40.44L15.12 51.72L20.04 52.2" sodipodi:nodetypes="ccccccccc"/><path id="shape18" transform="translate(73.20000171949, 132.840003120451)" fill="#fdfdfb" fill-rule="evenodd" stroke="#fdfdfb" stroke-width="0.96" stroke-linecap="square" stroke-linejoin="bevel" d="M3.6 0L1.08 7.08L0 13.68L5.52 23.04L10.2 20.28L11.64 5.16L3.6 0" sodipodi:nodetypes="ccccccc"/><path id="shape19" transform="translate(94.6108844082647, 110.05409603365)" fill="#ecca61" fill-rule="evenodd" stroke="#ecca61" stroke-width="0.96" stroke-linecap="square" stroke-linejoin="bevel" d="M7.12764 15.1887L26.8135 0L56.8514 16.122L65.5912 31.8198L69.749 68.2217L46.2448 89.0955L16.9706 81.7981L0 49.554L7.12764 15.1887" sodipodi:nodetypes="ccccccccc"/><path id="shape20" transform="translate(95.1600004473601, 55.8000002623234)" fill="#b6d0d0" fill-rule="evenodd" stroke="#b6d0d0" stroke-width="0.96" stroke-linecap="square" stroke-linejoin="bevel" d="M0 28.2L14.4 38.04L40.68 0L59.4 22.8L94.32 9.72L81.72 19.92L65.16 84.72L56.52 69.48L26.04 53.88L6.6 68.4L0 28.2" sodipodi:nodetypes="ccccccccccc"/><path id="shape21" transform="translate(118.793936105383, 140.160008296058)" fill="#cbc3bd" fill-rule="evenodd" stroke="#cbc3bd" stroke-width="0.96" stroke-linecap="square" stroke-linejoin="bevel" d="M0 82.8332L80.4405 83.1726L156.808 54.3226L195.161 0.356248L195.786 0L196.806 4.08L171.063 73.4994L121.206 105.743L52.6088 113.55L0 82.8332" sodipodi:nodetypes="cccccccccc"/><path id="shape22" transform="translate(109.460130554043, 14.9340953314042)" fill="#71a0c3" fill-rule="evenodd" stroke="#71a0c3" stroke-width="0.96" stroke-linecap="square" stroke-linejoin="bevel" d="M1.01823 34.4502L0 51.2511L8.48528 64.8276L26.6438 40.0505L44.972 62.4517L68.7308 53.7967L77.0464 27.1529L64.6578 2.37588L52.7785 0L1.01823 34.4502" sodipodi:nodetypes="cccccccccc"/><path id="shape23" transform="translate(118.920008056204, 56.2800038126735)" fill="#d5e8e8" fill-rule="evenodd" stroke="#d5e8e8" stroke-width="0.96" stroke-linecap="square" stroke-linejoin="bevel" d="M0 24.12L31.44 32.04L49.92 24.72L59.64 12.6L35.88 21.84L17.04 0L0 24.12" sodipodi:nodetypes="ccccccc"/><path id="shape24" transform="translate(100.126318618165, 120.490993591351)" fill="#ead8a1" fill-rule="evenodd" stroke="#ead8a1" stroke-width="0.96" stroke-linecap="square" stroke-linejoin="bevel" d="M14.9341 0L3.22441 7.80646L0 30.8864L19.3464 38.1838L34.4502 21.0435L36.8261 6.1094L14.9341 0" sodipodi:nodetypes="ccccccc"/><path id="shape25" transform="translate(100.440004848092, 147.84000713602)" fill="#947d36" fill-rule="evenodd" stroke="#947d36" stroke-width="0.96" stroke-linecap="square" stroke-linejoin="bevel" d="M0 22.92L16.08 21.84L45 10.92L60.96 0L61.2 3.72L44.16 13.68L14.4 23.64L1.68 26.04L0 22.92" sodipodi:nodetypes="ccccccccc"/><path id="shape26" transform="translate(201.949693305357, 89.3400014390419)" fill="#325773" fill-rule="evenodd" stroke="#325773" stroke-width="0.96" stroke-linecap="square" stroke-linejoin="bevel" d="M114.37 48.9L133.09 24.42L139.45 0L143.41 6.42L143.741 74.935L103.181 138.405L61.9426 161.315L15.7826 165.049L0 161.485L38.0503 157.412L88.2469 124.659L114.28 54.93L112.78 50.34L114.37 48.9" sodipodi:nodetypes="cccccccccccccc"/><path id="shape27" transform="translate(184.560007310434, 228.254074685039)" fill="#325773" fill-rule="evenodd" stroke="#325773" stroke-width="0.96" stroke-linecap="square" stroke-linejoin="bevel" d="M0 24.8259L17.52 36.7659L55.44 33.0926L79.8414 28.0014L120.656 0L37.415 21.9769L17.5594 22.5708L0 24.8259" sodipodi:nodetypes="cccccccc"/><path id="shape28" transform="translate(228.932901422501, 280.693120053979)" fill="#71a0c3" fill-rule="evenodd" stroke="#71a0c3" stroke-width="0.96" stroke-linecap="square" stroke-linejoin="bevel" d="M0 0L11.0671 0.509117L16.122 11.54L1.35765 9.67322L0 0" sodipodi:nodetypes="ccccc"/><path id="shape29" transform="translate(159.014179861293, 275.771656643117)" fill="#71a0c3" fill-rule="evenodd" stroke="#71a0c3" stroke-width="0.96" stroke-linecap="square" stroke-linejoin="bevel" d="M0 8.82469L14.0856 0L35.1291 8.14587L22.2314 22.5708L4.75176 22.9103L0 8.82469" sodipodi:nodetypes="cccccc"/><path id="shape30" transform="translate(74.4000035173374, 164.279999122016)" fill="#b5d7d9" fill-rule="evenodd" stroke="#b5d7d9" stroke-width="0.96" stroke-linecap="square" stroke-linejoin="bevel" d="M230.88 63.84L238.92 51.48L267.84 27.36L339 1.32L363.24 0L369.6 7.08L357 31.68L299.04 86.28L267.048 111.322L288.431 150.694L300.649 173.095L309.474 190.405L299.292 234.868L289.109 251.159L263.654 257.269L202.22 249.462L150.63 266.433L104.13 197.872L100.2 165.84L102 156.96L47.28 141.96L5.28 119.4L0 104.28L32.4 90.12L92.5903 87.1389L96.9178 89.939L78.2502 104.534L76.2137 146.027L102.688 150.439L134.338 136.269L141.296 123.116L186.438 137.881L227.337 122.523L240.998 81.9629L230.88 63.84" sodipodi:nodetypes="ccccccccccccccccccccccccccccccccccc"/><path id="shape31" transform="translate(262.0254919198, 295.966617816147)" fill="#f8f8f8" fill-rule="evenodd" stroke="#f8f8f8" stroke-width="0.96" stroke-linecap="square" stroke-linejoin="bevel" d="M8.82469 1.69706L0 25.6256L5.43058 48.6207L23.6739 62.1123L37.5898 48.7904L34.5351 18.3282L21.892 5.09117L14.425 0L8.82469 1.69706" sodipodi:nodetypes="ccccccccc"/><path id="shape32" transform="translate(177.512088437895, 316.246440539214)" fill="#f8f8f8" fill-rule="evenodd" stroke="#f8f8f8" stroke-width="0.96" stroke-linecap="square" stroke-linejoin="bevel" d="M8.40043 0L0 19.601L7.72161 47.263L23.8436 54.7301L31.735 39.3717L27.8317 14.0007L15.5281 0.169706L8.65499 0.848528L8.14587 1.01823" sodipodi:nodetypes="ccccccccc"/><path id="shape33" transform="translate(202.798220807401, 331.559999074376)" fill="#9aaba3" fill-rule="evenodd" stroke="#9aaba3" stroke-width="0.96" stroke-linecap="square" stroke-linejoin="bevel" d="M0 73.697L22.4011 64.0238L71.7855 63.1753L107.593 61.1388L139.328 48.2412L158.335 22.955L169.562 0L181.802 23.52L171.482 66.6L160.922 84.36L135.842 90.48L83.8818 84.36L73.8018 82.2L22.4418 99.6L0 73.697" sodipodi:nodetypes="ccccccccccccccc"/><path id="shape34" transform="translate(304.961024606704, 212.216895531822)" fill="#9aaba3" fill-rule="evenodd" stroke="#9aaba3" stroke-width="0.96" stroke-linecap="square" stroke-linejoin="bevel" d="M12.5582 0L14.6795 24.8619L19.0919 35.3836L11.0309 51.6754L5.34573 48.2813L9.92778 33.7714L0 15.7826L8.73984 2.54558L12.5582 0" sodipodi:nodetypes="ccccccccc"/><path id="shape35" transform="translate(351.60002440173, 195.120013541711)" fill="#9aaba3" fill-rule="evenodd" stroke="#9aaba3" stroke-width="0.96" stroke-linecap="square" stroke-linejoin="bevel" d="M0 72.96L22.56 47.52L80.52 0" sodipodi:nodetypes="ccc"/><path id="shape36" transform="translate(351.840019503773, 195.120010816212)" fill="#9aaba3" fill-rule="evenodd" stroke="#9aaba3" stroke-width="0.96" stroke-linecap="square" stroke-linejoin="bevel" d="M0 73.2L23.16 54.36L80.52 0L25.56 46.8" sodipodi:nodetypes="cccc"/><path id="shape37" transform="translate(335.160019073055, 165.600009423851)" fill="#ddf3f4" fill-rule="evenodd" stroke="#ddf3f4" stroke-width="0.96" stroke-linecap="square" stroke-linejoin="bevel" d="M0 31.68L57.72 13.68L77.52 0L6.24 26.04" sodipodi:nodetypes="cccc"/><path id="shape38" transform="translate(73.9200029559903, 252.360010091636)" fill="#ddf3f4" fill-rule="evenodd" stroke="#ddf3f4" stroke-width="0.96" stroke-linecap="square" stroke-linejoin="bevel" d="M0 15.96L32.64 1.56L70.56 0L19.08 12.6L7.44 22.32L6.6 32.16" sodipodi:nodetypes="cccccc"/><path id="shape39" transform="translate(126.720008975014, 344.160024375323)" fill="#edcf5b" fill-rule="evenodd" stroke="#edcf5b" stroke-width="0.96" stroke-linecap="square" stroke-linejoin="bevel" d="M5.28 0L0 24.96L27.36 74.4L74.4 110.4L99.84 108L99.84 80.16L58.56 23.04L23.04 0L5.28 0" sodipodi:nodetypes="ccccccccc"/><path id="shape40" transform="translate(133.049212433175, 362.491221629161)" fill="#c5a65b" fill-rule="evenodd" stroke="#c5a65b" stroke-width="0.96" stroke-linecap="square" stroke-linejoin="bevel" d="M0 18.3282L8.48528 6.78823L16.2917 0L38.3535 15.9523L70.2581 54.9846L67.8823 69.5793L50.9117 79.0828L19.007 54.9846" sodipodi:nodetypes="cccccccc"/><path id="shape41" transform="translate(183.366928261964, 416.88186883435)" fill="#c5a65b" fill-rule="evenodd" stroke="#c5a65b" stroke-width="0.96" stroke-linecap="square" stroke-linejoin="bevel" d="M19.7707 0L32.1592 18.5828L35.4685 36.1473L17.4797 38.0989L0 24.3528L2.96985 2.20617" sodipodi:nodetypes="cccccc"/><path id="shape42" transform="translate(144.674048327958, 343.993309044892)" fill="#816c39" fill-rule="evenodd" stroke="#816c39" stroke-width="0.96" stroke-linecap="square" stroke-linejoin="bevel" d="M3.0547 0L0 4.92146L8.65499 25.371L29.1045 44.1235L29.5288 43.0204L9.92778 21.5526L2.96985 4.92146L6.19426 0.763675L6.1094 0.0848528L3.0547 0" sodipodi:nodetypes="cccccccccc"/><path id="shape43" transform="translate(127.533779845701, 358.163729027747)" fill="#816c39" fill-rule="evenodd" stroke="#816c39" stroke-width="0.96" stroke-linecap="square" stroke-linejoin="bevel" d="M1.35765 0L10.2672 18.5828L28.3408 38.7777L26.8135 39.4566L13.4067 25.2861L2.80014 7.72161L0 5.9397L1.35765 0" sodipodi:nodetypes="cccccccc"/>
</svg>
