<?xml version="1.0" standalone="no"?>
<!DOCTYPE svg PUBLIC "-//W3C//DTD SVG 20010904//EN" "http://www.w3.org/TR/2001/REC-SVG-20010904/DTD/svg10.dtd">
<!-- Created using Krita: https://krita.org -->
<svg xmlns="http://www.w3.org/2000/svg" 
    xmlns:xlink="http://www.w3.org/1999/xlink"
    xmlns:krita="http://krita.org/namespaces/svg/krita"
    xmlns:sodipodi="http://sodipodi.sourceforge.net/DTD/sodipodi-0.dtd"
    width="480pt"
    height="480pt"
    viewBox="0 0 480 480">
<defs/>
<path id="shape0" transform="translate(56.4000031688749, 9.3600001603961)" fill="#fe7405" fill-rule="evenodd" stroke="#fe7405" stroke-width="7.2" stroke-linecap="square" stroke-linejoin="bevel" d="M65.28 29.52L111.36 0L163.2 15.12L193.44 76.32L192.72 177.84L266.88 158.4L258.96 178.56L276.24 189.36L234.48 230.64L213.6 230.64L243.12 329.76L288.48 345.6L339.6 309.6L356.16 244.08L365.52 266.4L343.92 365.04L287.76 406.08L238.08 405.36L228.24 422.4L238.32 442.08L226.8 452.64L178.56 456.48L168.96 431.04L173.76 414.72L164.64 395.04L133.92 389.76L118.08 411.84L127.68 437.52L37.92 446.88L17.28 426.72L59.76 407.04L43.68 374.88L75.6 329.76L66 286.32L66.72 248.88L32.16 226.56L0 184.08L7.92 174L5.28 156.24L51.12 174.72L32.64 143.52L22.56 125.52L44.64 79.44L65.28 29.52" sodipodi:nodetypes="cccccccccccccccccccccccccccccccccccccccccccc"/><path id="shape1" transform="translate(296.880019191381, 296.400019160352)" fill="#fce285" fill-rule="evenodd" stroke="#fce285" stroke-width="7.2" stroke-linecap="square" stroke-linejoin="bevel" d="M0 121.92L48 122.16L107.28 79.2L124.32 0L100.32 75.36L43.44 110.64L0.24 109.2L0 121.92" sodipodi:nodetypes="cccccccc"/><path id="shape2" transform="translate(118.878789868985, 187.015595090586)" fill="#fce285" fill-rule="evenodd" stroke="#fce285" stroke-width="7.2" stroke-linecap="square" stroke-linejoin="bevel" d="M73.228 215.866L29.7833 185.997L9.07925 151.717L0 110.309L0.593968 73.9917L15.1887 17.31L47.7721 0L83.7497 18.6676L121.121 76.3675L127.194 177.512L99.8718 220.448L73.228 215.866" sodipodi:nodetypes="cccccccccccc"/><path id="shape3" transform="translate(84.2588426220959, 446.580351178339)" fill="#ffffff" fill-rule="evenodd" stroke="#ffffff" stroke-width="0.96" stroke-linecap="square" stroke-linejoin="bevel" d="M15.1038 0L0 8.9944L21.6375 10.0975L23.3345 0.59397L15.1038 0" sodipodi:nodetypes="ccccc"/><path id="shape4" transform="translate(72.6340073358652, 438.349628384439)" fill="#ffffff" fill-rule="evenodd" stroke="#ffffff" stroke-width="0.96" stroke-linecap="square" stroke-linejoin="bevel" d="M14.7644 0L24.0133 1.35764L25.1164 8.14587L12.9825 15.1038L0 11.9642L14.7644 0" sodipodi:nodetypes="cccccc"/><path id="shape5" transform="translate(67.2034273481369, 430.882580901312)" fill="#ffffff" fill-rule="evenodd" stroke="#ffffff" stroke-width="0.96" stroke-linecap="square" stroke-linejoin="bevel" d="M0.678822 8.82469L12.9825 0L21.5526 2.46073L19.9404 6.27911L8.73984 15.4432L0 12.4734L0.678822 8.82469" sodipodi:nodetypes="ccccccc"/><path id="shape6" transform="translate(231.360004304407, 450.720008385557)" fill="#ffffff" fill-rule="evenodd" stroke="#ffffff" stroke-width="0.96" stroke-linecap="square" stroke-linejoin="bevel" d="M4.32 0L0 13.32L17.64 22.8L11.64 2.16L4.32 0" sodipodi:nodetypes="ccccc"/><path id="shape7" transform="translate(250.560004661619, 449.160008356533)" fill="#ffffff" fill-rule="evenodd" stroke="#ffffff" stroke-width="0.96" stroke-linecap="square" stroke-linejoin="bevel" d="M5.88 1.44L0 10.92L9.72 22.56L15.72 11.64L9 0L5.88 1.44" sodipodi:nodetypes="cccccc"/><path id="shape8" transform="translate(269.280005009901, 447.720008329742)" fill="#ffffff" fill-rule="evenodd" stroke="#ffffff" stroke-width="0.96" stroke-linecap="square" stroke-linejoin="bevel" d="M6.72 0L14.76 1.92L16.8 11.4L4.08 24.36L0 10.2L6.72 0" sodipodi:nodetypes="cccccc"/><path id="shape9" transform="translate(138.64950041139, 364.357989453187)" fill="#d0b659" fill-rule="evenodd" stroke="#d0b659" stroke-width="0.96" stroke-linecap="square" stroke-linejoin="bevel" d="M0 0L44.1235 17.4797L99.1081 11.3703L108.272 5.26087L82.1375 45.8205L50.5723 41.7476L6.44881 11.0309L0 0" sodipodi:nodetypes="cccccccc"/><path id="shape10" transform="translate(292.920006197461, 402.720008520556)" fill="#d0b659" fill-rule="evenodd" stroke="#d0b659" stroke-width="0.96" stroke-linecap="square" stroke-linejoin="bevel" d="M4.56 0L22.2 9.24L52.68 12.36L71.76 6.48L53.52 19.08L4.08 19.2L0 15.48L0 2.4L4.56 0" sodipodi:nodetypes="ccccccccc"/><path id="shape11" transform="translate(128.467156456428, 183.791189487862)" fill="#d0b659" fill-rule="evenodd" stroke="#d0b659" stroke-width="0.96" stroke-linecap="square" stroke-linejoin="bevel" d="M0 24.777L11.8794 44.2932L42.2567 48.5358L67.7125 23.4194L72.9734 17.1403L39.8808 0L35.6382 0.169706L3.39411 18.6676L0 24.777" sodipodi:nodetypes="ccccccccc"/><path id="shape12" transform="translate(106.235719128209, 382.177059866977)" fill="#dd6300" fill-rule="evenodd" stroke="#dd6300" stroke-width="0.96" stroke-linecap="square" stroke-linejoin="bevel" d="M82.986 24.777L47.3479 0L42.9355 6.27911L44.8023 23.2497L31.2258 40.8991L35.2988 54.3058L19.5161 65.5064L1.18794 73.9917L0 76.5372L77.7252 67.8822L81.6284 62.9608L72.4643 39.3717L82.986 24.777" sodipodi:nodetypes="ccccccccccccc"/><path id="shape13" transform="translate(240, 420.360848420748)" fill="#dd6300" fill-rule="evenodd" stroke="#dd6300" stroke-width="0.96" stroke-linecap="square" stroke-linejoin="bevel" d="M52.7422 4.58205L29.832 7.29734L0 0L11.6735 14.0856L32.8867 17.8191L50.1966 14.425L49.0087 11.2006" sodipodi:nodetypes="ccccccc"/><path id="shape14" transform="translate(281.711352931901, 439.537592827484)" fill="#dd6300" fill-rule="evenodd" stroke="#dd6300" stroke-width="0.96" stroke-linecap="square" stroke-linejoin="bevel" d="M3.39411 10.1823L7.97616 3.0547L10.6915 0L15.4432 9.84293L15.2735 15.1038L2.885 26.6438L0 25.6256L5.43058 19.6859" sodipodi:nodetypes="cccccccc"/><path id="shape15" transform="translate(120.600005528467, 417.84001915435)" fill="#dd6300" fill-rule="evenodd" stroke="#dd6300" stroke-width="0.96" stroke-linecap="square" stroke-linejoin="bevel" d="M0 0L14.64 6.48L13.92 8.52" sodipodi:nodetypes="ccc"/><path id="shape16" transform="translate(120.120005506463, 419.280019220362)" fill="#dd6300" fill-rule="evenodd" stroke="#dd6300" stroke-width="0.96" stroke-linecap="square" stroke-linejoin="bevel" d="M0 0L4.8 11.4L13.2 11.4" sodipodi:nodetypes="ccc"/><path id="shape17" transform="translate(293.040007178561, 361.200008848267)" fill="#dd6300" fill-rule="evenodd" stroke="#dd6300" stroke-width="0.96" stroke-linecap="square" stroke-linejoin="bevel" d="M0 0L12.24 16.8L12.24 40.8L4.56 40.8L6.96 18L0 0" sodipodi:nodetypes="cccccc"/><path id="shape18" transform="translate(83.1557567074066, 234.36346941414)" fill="#dd6300" fill-rule="evenodd" stroke="#dd6300" stroke-width="0.96" stroke-linecap="square" stroke-linejoin="bevel" d="M0 0L20.0253 2.71529L39.3717 0.169706L33.2623 23.4194L2.71529 3.90323" sodipodi:nodetypes="ccccc"/><path id="shape19" transform="translate(253.540199732938, 229.781412609369)" fill="#dd6300" fill-rule="evenodd" stroke="#dd6300" stroke-width="0.96" stroke-linecap="square" stroke-linejoin="bevel" d="M38.6929 13.7462L21.5526 13.7462L4.24264 15.2735L0 0L36.1473 6.95793L40.3899 6.78822" sodipodi:nodetypes="cccccc"/><path id="shape20" transform="translate(303.120001521865, 187.560000941676)" fill="#dd6300" fill-rule="evenodd" stroke="#dd6300" stroke-width="0.96" stroke-linecap="square" stroke-linejoin="bevel" d="M6 0L12.48 7.8L9.6 15.48L0.84 17.4L0 12.36L4.68 6.6" sodipodi:nodetypes="cccccc"/><path id="shape21" transform="translate(66.8400038527345, 194.280011198523)" fill="#dd6300" fill-rule="evenodd" stroke="#dd6300" stroke-width="0.96" stroke-linecap="square" stroke-linejoin="bevel" d="M0.48 0L0 4.56L7.2 7.8L8.76 5.64" sodipodi:nodetypes="cccc"/><path id="shape22" transform="translate(96.9019097674815, 346.53887871313)" fill="#ff923a" fill-rule="evenodd" stroke="#ff923a" stroke-width="0.96" stroke-linecap="square" stroke-linejoin="bevel" d="M26.1347 0L15.1038 24.4376L0.169706 39.7111L0 36.317" sodipodi:nodetypes="cccc"/><path id="shape23" transform="translate(96.732210768178, 378.273855793454)" fill="#ff923a" fill-rule="evenodd" stroke="#ff923a" stroke-width="0.96" stroke-linecap="square" stroke-linejoin="bevel" d="M8.82469 0L11.0309 29.8682L0 7.63675" sodipodi:nodetypes="ccc"/><path id="shape24" transform="translate(116.280003877253, 414.240013812464)" fill="#ff923a" fill-rule="evenodd" stroke="#ff923a" stroke-width="0.96" stroke-linecap="square" stroke-linejoin="bevel" d="M0 0L18.84 7.68L18.96 9.6" sodipodi:nodetypes="ccc"/><path id="shape25" transform="translate(251.164334507334, 387.607662172129)" fill="#ff923a" fill-rule="evenodd" stroke="#ff923a" stroke-width="0.96" stroke-linecap="square" stroke-linejoin="bevel" d="M5.76999 6.78823L0.509117 14.5947L4.41235 25.2861L8.48528 22.7406L11.3703 0L0 0.848528L0.848528 14.0856" sodipodi:nodetypes="ccccccc"/><path id="shape26" transform="translate(331.095681437073, 265.759014418481)" fill="#ff923a" fill-rule="evenodd" stroke="#ff923a" stroke-width="0.96" stroke-linecap="square" stroke-linejoin="bevel" d="M1.69706 81.289L13.237 85.5316L61.7728 51.0814L74.6705 0L64.9973 55.4937L12.7279 95.714L0 89.2652" sodipodi:nodetypes="ccccccc"/><path id="shape27" transform="translate(315.000013291094, 341.040014389825)" fill="#ff923a" fill-rule="evenodd" stroke="#ff923a" stroke-width="0.96" stroke-linecap="square" stroke-linejoin="bevel" d="M16.2 14.16L0 0L18.48 5.76" sodipodi:nodetypes="ccc"/><path id="shape28" transform="translate(377.040024512166, 131.040008519187)" fill="#db2204" fill-rule="evenodd" stroke="#db2204" stroke-width="0.96" stroke-linecap="square" stroke-linejoin="bevel" d="M48.24 140.4L57.12 128.16L57.84 112.08L65.76 96L66.72 70.8L60.96 77.52L57.12 28.08L41.52 43.44L39.12 19.68L32.4 10.56L34.8 0L26.4 9.84L22.56 28.32L18 31.92L11.76 24.72L6.48 33.84L0 42.96L6.24 62.4L10.56 78.48L2.64 88.32L5.28 102.24L2.88 120.72L13.44 128.4L20.16 143.28L48.24 140.4" sodipodi:nodetypes="ccccccccccccccccccccccccc"/><path id="shape29" transform="translate(378.240024590181, 174.000011312107)" fill="#ffeb01" fill-rule="evenodd" stroke="#ffeb01" stroke-width="0.96" stroke-linecap="square" stroke-linejoin="bevel" d="M5.28 21.36L10.32 17.28L11.04 0L14.64 23.52L18 25.68L15.84 42.24L22.56 26.88L28.08 14.88L25.44 2.64L32.16 19.2L27.36 40.56L33.12 58.32L43.44 42.72L41.76 57.84L48 66L50.88 79.44L43.68 94.32L42.72 99.12L18.96 100.8L12 85.92L12.72 73.92L9.6 83.28L1.2 77.76L3.12 60L0 45.6L9.12 35.04" sodipodi:nodetypes="cccccccccccccccccccccccccc"/><path id="shape30" transform="translate(302.160007191228, 336.480008008024)" fill="#dd6300" fill-rule="evenodd" stroke="#dd6300" stroke-width="0.96" stroke-linecap="square" stroke-linejoin="bevel" d="M0.36 0L15.84 5.16L28.32 18.96L0 8.4L0.36 0" sodipodi:nodetypes="ccccc"/><path id="shape31" transform="translate(190.24001486518, 60.5849110676799)" fill="#000000" fill-rule="evenodd" stroke="#000000" stroke-width="0.96" stroke-linecap="square" stroke-linejoin="bevel" d="M17.1403 0.169706L5.60029 15.1038L0 48.8752L1.01823 56.3423L17.9888 65.167L33.6017 53.627L34.7897 16.8009L21.0435 0" sodipodi:nodetypes="cccccccc"/><path id="shape32" transform="translate(100.126323613252, 41.0687632447578)" fill="#000000" fill-rule="evenodd" stroke="#000000" stroke-width="0.96" stroke-linecap="square" stroke-linejoin="bevel" d="M15.2735 5.9397L21.2132 0L28.0014 4.75176L14.7644 49.554L4.92146 55.1543L0 43.2749L15.2735 5.9397" sodipodi:nodetypes="ccccccc"/><path id="shape33" transform="translate(191.597659931122, 98.2595616475817)" fill="#145c1c" fill-rule="evenodd" stroke="#145c1c" stroke-width="0.96" stroke-linecap="square" stroke-linejoin="bevel" d="M0 8.9944L9.33381 16.122L23.4194 11.54L27.8317 0L29.8682 8.14587L25.965 21.5526L18.3282 26.9832L13.237 26.1347L0 19.6859L0 8.9944" sodipodi:nodetypes="cccccccccc"/><path id="shape34" transform="translate(98.9383841805529, 75.5190067930464)" fill="#145c1c" fill-rule="evenodd" stroke="#145c1c" stroke-width="0.96" stroke-linecap="square" stroke-linejoin="bevel" d="M5.76999 6.44881L9.67322 11.8794L18.6676 6.78823L14.2553 16.8009L9.50352 19.007L5.9397 16.6312L3.0547 14.5947L0 8.14587L4.41235 0L5.76999 6.44881" sodipodi:nodetypes="cccccccccc"/><path id="shape35" transform="translate(193.680003618627, 64.4400012039669)" fill="#ffffff" fill-rule="evenodd" stroke="#ffffff" stroke-width="0.96" stroke-linecap="square" stroke-linejoin="bevel" d="M10.68 0L15.72 0.24L16.68 12.96L13.68 22.32L0 23.4L2.52 10.8" sodipodi:nodetypes="cccccc"/><path id="shape36" transform="translate(112.920002109745, 41.6400007779823)" fill="#ffffff" fill-rule="evenodd" stroke="#ffffff" stroke-width="0.96" stroke-linecap="square" stroke-linejoin="bevel" d="M9.72 0L2.4 8.04L0 13.8L2.16 22.68L13.32 2.64" sodipodi:nodetypes="ccccc"/><path id="shape37" transform="translate(96.7322069615483, 151.377418613511)" fill="#b45858" fill-rule="evenodd" stroke="#b45858" stroke-width="0.96" stroke-linecap="square" stroke-linejoin="bevel" d="M0 7.46705L22.0617 16.9706L50.5723 20.8738L85.1922 13.0673L115.909 9.50352L128.128 0L94.6957 33.7714L54.4755 44.8023L21.0435 34.9594L0 7.46705" sodipodi:nodetypes="cccccccccc"/><path id="shape38" transform="translate(113.702768076262, 175.475615210231)" fill="#d77d75" fill-rule="evenodd" stroke="#d77d75" stroke-width="0.96" stroke-linecap="square" stroke-linejoin="bevel" d="M5.26087 11.2006L37.3352 21.2981L67.7974 12.3885L63.1305 4.24264L14.425 0L2.29103 3.73352L0 6.36396" sodipodi:nodetypes="ccccccc"/><path id="shape39" transform="translate(183.960906090064, 162.747701974512)" fill="#ffffff" fill-rule="evenodd" stroke="#ffffff" stroke-width="0.96" stroke-linecap="square" stroke-linejoin="bevel" d="M0 1.27279L3.56382 10.352L9.50352 0L0 1.27279" sodipodi:nodetypes="cccc"/><path id="shape40" transform="translate(183.282083558366, 177.512092038936)" fill="#ffffff" fill-rule="evenodd" stroke="#ffffff" stroke-width="0.96" stroke-linecap="square" stroke-linejoin="bevel" d="M0 9.84293L3.81838 0L8.31558 7.12764L0 9.84293" sodipodi:nodetypes="cccc"/><path id="shape41" transform="translate(114.120007709902, 166.440011244621)" fill="#ffffff" fill-rule="evenodd" stroke="#ffffff" stroke-width="0.96" stroke-linecap="square" stroke-linejoin="bevel" d="M0 0L6.06 1.98L3.24 7.92" sodipodi:nodetypes="ccc"/><path id="shape42" transform="translate(112.980007632884, 177.180011970211)" fill="#ffffff" fill-rule="evenodd" stroke="#ffffff" stroke-width="0.96" stroke-linecap="square" stroke-linejoin="bevel" d="M0 4.62L4.86 0L5.04 9.18" sodipodi:nodetypes="ccc"/><path id="shape43" transform="translate(106.32000158805, 141.60000211501)" fill="#dd6300" fill-rule="evenodd" stroke="#dd6300" stroke-width="0.96" stroke-linecap="square" stroke-linejoin="bevel" d="M0 0L2.64 4.08" sodipodi:nodetypes="cc"/><path id="shape44" transform="translate(131.280001960865, 148.560002218968)" fill="#dd6300" fill-rule="evenodd" stroke="#dd6300" stroke-width="0.96" stroke-linecap="square" stroke-linejoin="bevel" d="M5.04 0L0 4.32" sodipodi:nodetypes="cc"/><path id="shape45" transform="translate(190.680009374793, 50.5200024838185)" fill="#dd6300" fill-rule="evenodd" stroke="#dd6300" stroke-width="0.96" stroke-linecap="square" stroke-linejoin="bevel" d="M16.68 0L5.4 4.8L0 17.88" sodipodi:nodetypes="ccc"/><path id="shape46" transform="translate(104.640001830346, 140.520002457953)" fill="#dd6300" fill-rule="evenodd" stroke="#dd6300" stroke-width="0.96" stroke-linecap="square" stroke-linejoin="bevel" d="M1.2 0L0 1.56L6.84 8.52L7.68 7.2" sodipodi:nodetypes="cccc"/><path id="shape47" transform="translate(127.800002235457, 147.360002577598)" fill="#dd6300" fill-rule="evenodd" stroke="#dd6300" stroke-width="0.96" stroke-linecap="square" stroke-linejoin="bevel" d="M8.04 0L0 7.56L1.68 8.88L10.56 0.84" sodipodi:nodetypes="cccc"/><path id="shape48" transform="translate(121.509231428333, 186.336782274175)" fill="#fe7405" fill-rule="evenodd" stroke="#fe7405" stroke-width="0.96" stroke-linecap="square" stroke-linejoin="bevel" d="M0 10.8612L22.0617 20.0253L58.7181 16.8009L84.5134 0L59.2273 2.03647L29.5288 10.5217L4.75176 3.56382" sodipodi:nodetypes="ccccccc"/><path id="shape49" transform="translate(75.3492961931691, 113.872472400037)" fill="#ff923a" fill-rule="evenodd" stroke="#ff923a" stroke-width="0.96" stroke-linecap="square" stroke-linejoin="bevel" d="M10.1823 0L5.60029 26.4741L36.1473 71.9552L58.3787 86.3802L61.094 90.1137L27.4923 74.1614L0 21.0435" sodipodi:nodetypes="ccccccc"/><path id="shape50" transform="translate(125.280002979628, 6.24000014841059)" fill="#ff923a" fill-rule="evenodd" stroke="#ff923a" stroke-width="0.96" stroke-linecap="square" stroke-linejoin="bevel" d="M40.56 0L0 26.64L35.28 11.52L64.8 6.24" sodipodi:nodetypes="cccc"/><path id="shape51" transform="translate(217.200003648872, 56.1600009434652)" fill="#dd6300" fill-rule="evenodd" stroke="#dd6300" stroke-width="0.96" stroke-linecap="square" stroke-linejoin="bevel" d="M0 125.04L35.04 89.76L36.72 29.76L22.8 0L29.76 35.04L16.56 95.28L0 125.04" sodipodi:nodetypes="ccccccc"/><path id="shape52" transform="translate(115.399825257291, 230.629944889203)" fill="#fce285" fill-rule="evenodd" stroke="#fce285" stroke-width="0.96" stroke-linecap="square" stroke-linejoin="bevel" d="M8.65499 0L17.1403 57.6999L29.3591 105.557L24.0982 134.237L7.12764 100.126L0 69.2399" sodipodi:nodetypes="cccccc"/><path id="shape53" transform="translate(114.042180130909, 234.872585269611)" fill="#fcecb1" fill-rule="evenodd" stroke="#fcecb1" stroke-width="0.96" stroke-linecap="square" stroke-linejoin="bevel" d="M9.50352 0L2.03647 27.1529L0 67.8823L11.2006 106.575L22.0617 122.527L30.8864 84.5134" sodipodi:nodetypes="cccccc"/>
</svg>
