<?xml version="1.0" standalone="no"?>
<!DOCTYPE svg PUBLIC "-//W3C//DTD SVG 20010904//EN" "http://www.w3.org/TR/2001/REC-SVG-20010904/DTD/svg10.dtd">
<!-- Created using Krita: https://krita.org -->
<svg xmlns="http://www.w3.org/2000/svg" 
    xmlns:xlink="http://www.w3.org/1999/xlink"
    xmlns:krita="http://krita.org/namespaces/svg/krita"
    xmlns:sodipodi="http://sodipodi.sourceforge.net/DTD/sodipodi-0.dtd"
    width="474pt"
    height="434pt"
    viewBox="0 0 474 434">
<defs/>
<path id="shape0" transform="translate(58.1595319626649, 288.499562805681)" fill="#d7905a" fill-rule="evenodd" stroke="#d7905a" stroke-width="2" stroke-linecap="square" stroke-linejoin="bevel" d="M181.726 68.5894L107.657 79.9031L31.2895 85.3831L1.94454 60.6344L0 43.1335L29.8753 7.6014L75.8372 0L142.128 20.8596L226.804 36.0624L282.312 48.26L302.642 47.5529L341.886 37.1231L363.453 12.9047L366.988 3.0052L374.413 3.53553L356.735 32.7037L336.936 56.215L295.571 74.7765L236.174 78.8424L186.323 66.468L181.726 68.5894" sodipodi:nodetypes="ccccccccccccccccccccc"/><path id="shape1" transform="translate(60.2808535401318, 339.234480772765)" fill="#fbe9af" fill-rule="evenodd" stroke="#fbe9af" stroke-width="2" stroke-linecap="square" stroke-linejoin="bevel" d="M173.595 18.208L133.113 15.9099L102.177 0L62.4022 7.77817L17.8544 17.5009L0 8.66206L27.7539 34.2947L119.855 28.6378L174.125 19.4454" sodipodi:nodetypes="ccccccccc"/><path id="shape2" transform="translate(246.426715058486, 311.657316103379)" fill="#fbe9af" fill-rule="evenodd" stroke="#fbe9af" stroke-width="2" stroke-linecap="square" stroke-linejoin="bevel" d="M0 44.5477L41.8961 54.2704L108.541 52.8562L150.967 32.1734L175.009 0L144.25 25.4558L87.5045 41.0122L43.8406 41.3657L10.0763 23.8649L0 44.5477" sodipodi:nodetypes="cccccccccc"/><path id="shape3" transform="translate(184.50001130308, 344.500021105209)" fill="#fbe9af" fill-rule="evenodd" stroke="#fbe9af" stroke-width="2" stroke-linecap="square" stroke-linejoin="bevel" d="M11.75 0L0 13.75L30.75 15.75L40.5 0.5L11.75 0" sodipodi:nodetypes="ccccc"/><path id="shape4" transform="translate(57.8059803150223, 321.026483951317)" fill="#6c442a" fill-rule="evenodd" stroke="#6c442a" stroke-width="2" stroke-linecap="square" stroke-linejoin="bevel" d="M79.5495 0L38.5373 16.617L8.83883 17.1473L1.76777 9.19239L0 24.2184L20.3293 34.4715L82.9083 19.6222L84.676 9.54594" sodipodi:nodetypes="cccccccc"/><path id="shape5" transform="translate(107.657009210546, 287.438911291212)" fill="#6c442a" fill-rule="evenodd" stroke="#6c442a" stroke-width="2" stroke-linecap="square" stroke-linejoin="bevel" d="M0 2.2981L6.89429 10.0763L5.48008 17.6777L6.01041 20.5061L40.3051 15.2028L62.4022 9.36917L40.4819 5.12652L11.1369 0L0 2.2981" sodipodi:nodetypes="ccccccccc"/><path id="shape6" transform="translate(268.170242692391, 323.854900865168)" fill="#6c442a" fill-rule="evenodd" stroke="#6c442a" stroke-width="2" stroke-linecap="square" stroke-linejoin="bevel" d="M0 21.5668L16.2635 27.4004L45.2548 31.1127L91.2168 20.3293L123.213 11.844L137.709 0L105.359 15.2028L44.1942 20.6829L1.59099 14.3189" sodipodi:nodetypes="ccccccccc"/><path id="shape7" transform="translate(58.601474429364, 338.085429400177)" fill="#8d8363" fill-rule="evenodd" stroke="#8d8363" stroke-width="2" stroke-linecap="square" stroke-linejoin="bevel" d="M0 9.45755L1.94454 12.6395L29.8753 36.7696L110.751 31.3779L176.953 21.6551L176.246 17.5893L161.309 17.4125L168.203 6.01041L136.737 5.3033L129.931 13.3466L104.475 0L30.7591 15.9983L19.6222 18.5616L0.707107 8.83883" sodipodi:nodetypes="cccccccccccccc"/><path id="shape8" transform="translate(244.835714974281, 310.066313404252)" fill="#8d8363" fill-rule="evenodd" stroke="#8d8363" stroke-width="2" stroke-linecap="square" stroke-linejoin="bevel" d="M0.707107 44.9013L10.253 24.9255L24.7487 30.4056L22.0971 35.8857L41.189 42.0729L68.9429 45.6084L147.785 26.5165L172.004 3.88909L177.837 0L153.972 34.2947L111.193 56.0382L45.0781 57.9828L0 46.8458" sodipodi:nodetypes="ccccccccccccc"/><path id="shape9" transform="translate(401.500010853405, 205.250005548347)" fill="#f2684a" fill-rule="evenodd" stroke="#f2684a" stroke-width="2" stroke-linecap="square" stroke-linejoin="bevel" d="M19 1L16 6.25L13 4L12.5 33.25L12.25 46.75L4.25 51.5L5.25 57.5L8.25 63.5L7 67.25L0 67.5L4.75 85.25L2.75 95L16 99L24.75 103L41.75 91.25L48.25 89.25L47.75 80.25L51.25 76.25L44.25 60.25L38.75 64.75L34.75 58.25L36.25 48L41.25 46.75L42 35.75L33.5 34.5L34.25 27.25L37 20.5L32 11.75L28.25 16.75L25 11.75L28.25 0L22.25 3.5L19 1" sodipodi:nodetypes="ccccccccccccccccccccccccccccccccc"/><path id="shape10" transform="translate(402.000010866921, 257.250006954019)" fill="#fff69c" fill-rule="evenodd" stroke="#fff69c" stroke-width="2" stroke-linecap="square" stroke-linejoin="bevel" d="M18.5 43.5L25.25 36.75L24.75 42.5L26.5 39.5L29.5 44L36.75 41.25L41.5 31.75L41 15.5L33 24.25L28.75 9L23.75 0L22.25 9.5L17.25 10L19.75 22.5L18.5 29.25L12 25.5L9.75 17L4.75 18L2.25 13.25L0 20L4 32.25L3.5 44.5L17.25 48L18.5 43.5" sodipodi:nodetypes="cccccccccccccccccccccccc"/><path id="shape11" transform="translate(406.250010981808, 241.500006528263)" fill="#fff69c" fill-rule="evenodd" stroke="#fff69c" stroke-width="2" stroke-linecap="square" stroke-linejoin="bevel" d="M6 19.25L2.75 24L0 15.75L7.25 9.75L10.25 0.25L12 3.75L16.25 0L15 16.25L12.25 26L12 36L11.75 25.5L9 33.25L6.75 24.75L6 19.25" sodipodi:nodetypes="cccccccccccccc"/><path id="shape12" transform="translate(423.500011448113, 217)" fill="#fff69c" fill-rule="evenodd" stroke="#fff69c" stroke-width="2" stroke-linecap="square" stroke-linejoin="bevel" d="M4.25 4.25001L1 9.00001L0 11.75L1.75 18.75L0.75 21L1.75 21.75L4 29.75L5 32.5L8 31.25L8.75 37.5L14 36.25L18 35.5L20.75 23.25L11.75 20.25L12.25 12.25L17 8.50001L11 0L4.25 4.25001" sodipodi:nodetypes="cccccccccccccccccc"/><path id="shape13" transform="translate(424.875025731048, 241.250014610451)" fill="#f8994f" fill-rule="evenodd" stroke="#f8994f" stroke-width="2" stroke-linecap="square" stroke-linejoin="bevel" d="M3.625 19.5L0 9.125L2.25 8.625L5.625 0L7.625 14.25L17.75 9.875L8.25 18.5L3.875 22L3.625 16.25L2.375 17.5L3 15.875" sodipodi:nodetypes="ccccccccccc"/><path id="shape14" transform="translate(415.250025148144, 271.375016434865)" fill="#f8994f" fill-rule="evenodd" stroke="#f8994f" stroke-width="2" stroke-linecap="square" stroke-linejoin="bevel" d="M4.875 5.375L0 0L0 7.625L1.375 15.5L9 8.25L7 0.75L4.875 5.375" sodipodi:nodetypes="ccccccc"/><path id="shape15" transform="translate(438.500026556198, 275.250016669541)" fill="#f8994f" fill-rule="evenodd" stroke="#f8994f" stroke-width="2" stroke-linecap="square" stroke-linejoin="bevel" d="M2.875 7L7.25 0L11.25 4.875L10.875 7.5L8.25 14.75L0 15.5L1.625 12.375L3.375 10.875L2.875 7" sodipodi:nodetypes="ccccccccc"/><path id="shape16" transform="translate(416.875025246557, 284.500017229734)" fill="#f8994f" fill-rule="evenodd" stroke="#f8994f" stroke-width="2" stroke-linecap="square" stroke-linejoin="bevel" d="M8.5 24.5L0.625 19.375L0 14L10.5 7.25L10 13.625L13.875 13.875L19.625 11L14.25 0L22.375 13.25L14.875 19.875L10.375 24.875L8.5 24.5" sodipodi:nodetypes="cccccccccccc"/><path id="shape17" transform="translate(403.000024406266, 289.625017540111)" fill="#f8994f" fill-rule="evenodd" stroke="#f8994f" stroke-width="2" stroke-linecap="square" stroke-linejoin="bevel" d="M4.25 14L0 10.375L2.125 1.625L3.375 0L8.875 3.5L7.25 9.875L11.875 5.75L4.25 14" sodipodi:nodetypes="cccccccc"/><path id="shape18" transform="translate(412.875025004311, 225.750013671749)" fill="#f8994f" fill-rule="evenodd" stroke="#f8994f" stroke-width="2" stroke-linecap="square" stroke-linejoin="bevel" d="M4.125 25.625L0.25 18.625L0.375 5.5L0 1.125L2.625 12.375L6.125 0L7.375 14.125L7.125 21.25L4.125 25.625" sodipodi:nodetypes="ccccccccc"/><path id="shape19" transform="translate(7.42462104095297, 86.620578811118)" fill="#419eae" fill-rule="evenodd" stroke="#419eae" stroke-width="2" stroke-linecap="square" stroke-linejoin="bevel" d="M83.085 7.77817L33.5876 37.8302L6.36396 80.9637L0 121.622L6.01041 141.068L20.1525 106.066L53.033 80.6102L89.449 96.1665L108.894 135.057L140.361 108.187L181.019 121.976L189.858 148.846L246.073 175.716L282.489 167.584L293.096 148.492L310.066 116.319L343.3 119.501L368.403 149.907L399.869 106.066L443.709 140.007L454.316 177.837L462.094 136.825L446.538 70.3571L382.545 18.7383L357.089 37.1231L330.572 86.6206L280.368 104.652L233.699 133.997L206.122 97.5807L156.624 70.0036L140.714 64.7003L122.683 0L67.8822 10.9602L83.085 7.77817" sodipodi:nodetypes="cccccccccccccccccccccccccccccccccc"/><path id="shape20" transform="translate(289.499999820543, 106.249999934137)" fill="#1c464e" fill-rule="evenodd" stroke="#1c464e" stroke-width="2" stroke-linecap="square" stroke-linejoin="bevel" d="M3.25 83L0 117.25L8 134.25L29.75 98L64 100.5L66.75 75.75L82.5 35.25L83.5 53.5L91 32.5L84.75 130.5L118 87.5L106.75 23.75L112.75 37.75L115.75 13.25L93 0L71.5 28L53.25 64.75L20.25 75.75L6 82L3.25 83" sodipodi:nodetypes="cccccccccccccccccccc"/><path id="shape21" transform="translate(432.572581631255, 165.816543347003)" fill="#1c464e" fill-rule="evenodd" stroke="#1c464e" stroke-width="2" stroke-linecap="square" stroke-linejoin="bevel" d="M0 46.669L17.8544 51.1835L17.1473 37.1231L21.9203 51.1835L19.799 27.4004L23.6881 35.7089L23.1577 0L34.825 43.6638L32.8805 76.8979L27.9307 102.354L19.0919 63.1093L0 46.669" sodipodi:nodetypes="cccccccccccc"/><path id="shape22" transform="translate(147.000008019721, 157.250008578919)" fill="#1c464e" fill-rule="evenodd" stroke="#1c464e" stroke-width="2" stroke-linecap="square" stroke-linejoin="bevel" d="M8.75 0L37 11L52.25 21.75L66.75 38.75L61.5 62.25L53 83.5L48.75 78.75L40.75 48.5L25.5 48.5L0 38.5L15.75 36L6.5 13.75L17 23L8.75 0" sodipodi:nodetypes="cccccccccccccc"/><path id="shape23" transform="translate(113.500004394642, 140.125005425544)" fill="#1c464e" fill-rule="evenodd" stroke="#1c464e" stroke-width="2" stroke-linecap="square" stroke-linejoin="bevel" d="M13.375 0L7 66.375L2.5 66.375L0 55.125L13.375 0" sodipodi:nodetypes="ccccc"/><path id="shape24" transform="translate(111.375004312364, 90.3750034992582)" fill="#1c464e" fill-rule="evenodd" stroke="#1c464e" stroke-width="2" stroke-linecap="square" stroke-linejoin="bevel" d="M7.375 1L0.375 54.75L3.5 53.5L0 80.125L21.125 4.625L12.5 0" sodipodi:nodetypes="cccccc"/><path id="shape25" transform="translate(10.2530482239755, 118.086831269235)" fill="#1c464e" fill-rule="evenodd" stroke="#1c464e" stroke-width="2" stroke-linecap="square" stroke-linejoin="bevel" d="M46.1387 1.23744L32.3501 15.026L10.6066 55.3311L11.4905 69.65L28.1075 68.5894L18.208 73.8927L4.77297 108.718L0 70.3571L1.23744 57.4524L22.8042 16.9706L35.7089 0L46.1387 1.23744" sodipodi:nodetypes="cccccccccccc"/><path id="shape26" transform="translate(354.250008425985, 146.75000349051)" fill="#b4dfe6" fill-rule="evenodd" stroke="#b4dfe6" stroke-width="2" stroke-linecap="square" stroke-linejoin="bevel" d="M0.25 61.375L3.25 35L16.875 0L18 14.5L19.125 13.625L23.875 2.375L19.625 89.25L0 63.75L0.25 61.375" sodipodi:nodetypes="ccccccccc"/><path id="shape27" transform="translate(414.99999884748, 133.624999628903)" fill="#b4dfe6" fill-rule="evenodd" stroke="#b4dfe6" stroke-width="2" stroke-linecap="square" stroke-linejoin="bevel" d="M6.75 5.875L37.375 30.5L39.75 45.625L40.125 62.875L37.375 59.625L36.5 60.625L37.375 74.125L34.125 68.125L34 81.75L16.125 51.875L17.125 31.125L0 0L6.75 5.875" sodipodi:nodetypes="ccccccccccccc"/><path id="shape28" transform="translate(60.8750024533374, 95.5000038487675)" fill="#b4dfe6" fill-rule="evenodd" stroke="#b4dfe6" stroke-width="2" stroke-linecap="square" stroke-linejoin="bevel" d="M55.625 0L50 50.375L52.875 50.375L48.625 74L36.125 89.125L0 52.875L20.375 26.75L55.625 0" sodipodi:nodetypes="cccccccc"/><path id="shape29" transform="translate(118.086828601926, 40.4818645687857)" fill="#d7905a" fill-rule="evenodd" stroke="#d7905a" stroke-width="2" stroke-linecap="square" stroke-linejoin="bevel" d="M54.1821 7.77817L65.1422 8.3085L77.605 0L97.7575 12.1976L120.031 12.1976L141.51 31.0243L171.208 48.1717L168.38 54.2704L161.309 54.1821L137.797 43.8406L138.416 56.8337L143.808 59.8389L142.57 65.4074L139.654 65.0538L162.988 153.973L169.706 139.477L187.383 138.77L223.092 120.031L255.973 63.4628L246.427 39.0676L252.084 36.2392L267.286 60.2809L297.338 75.1301L316.077 102L338.351 113.314L352.493 176.518L351.432 214.784L340.825 235.643L344.538 216.728L346.659 166.7L334.992 123.92L288.676 82.3779L268.347 67.8822L243.422 96.3433L228.219 131.168L184.732 147.432L177.837 158.392L193.394 164.579L210.541 161.751L238.472 189.328L250.846 193.57L254.205 200.111L261.453 203.824L260.039 213.193L247.487 207.713L242.184 209.48L247.311 220.264L243.952 226.628L234.583 222.032L229.633 210.011L224.506 213.193L221.501 219.203L212.309 214.253L216.021 203.47L221.678 194.454L202.056 174.655L180.489 179.252L176.423 187.737L193.04 239.002L201.172 250.316L236.174 286.555L238.118 296.101L236.174 326.33L242.184 332.34L239.356 342.24L205.945 342.947L193.57 334.992L189.858 313.955L161.22 303.702L118.913 317.137L59.397 308.299L51.6188 316.253L50.3814 341.709L39.4212 353.2L1.59099 349.311L0 335.522L7.95495 312.011L19.6222 268.17L42.0729 237.941L57.2756 230.517L86.0902 183.317L84.8528 176.518L52.8562 176.518L40.8354 191.449L50.7349 204.354L48.7904 219.733L41.8961 221.324L38.8909 218.496L37.2999 208.596L30.9359 207.006L23.8649 216.728L24.7487 220.264L18.7383 221.324L16.617 208.95L18.3848 201.525L13.9654 199.581L6.71751 207.359L2.2981 206.829L0.883883 199.934L17.6777 186.853L27.0468 185.792L51.442 162.635L84.4993 160.16L92.4542 150.791L108.541 153.972L113.667 117.38L104.121 64.3467L76.3675 55.8614L59.7505 39.7748L57.2756 24.3952L51.9723 18.9151L54.1821 7.77817" sodipodi:nodetypes="cccccccccccccccccccccccccccccccccccccccccccccccccccccccccccccccccccccccccccccccccccccccccccccccccccccccccccccccc"/><path id="shape30" transform="translate(178.809629613578, 221.324425384281)" fill="#fbe9af" fill-rule="evenodd" stroke="#fbe9af" stroke-width="2" stroke-linecap="square" stroke-linejoin="bevel" d="M0 127.986L19.7106 103.149L18.5616 64.0816L41.8961 16.8822L77.163 0L110.397 15.2028L131.08 53.475L131.168 89.6258L107.392 119.943L100.763 123.479L58.1904 137.179L0 127.986" sodipodi:nodetypes="cccccccccccc"/><path id="shape31" transform="translate(5.83363121724499, 63.8163899825891)" fill="#d7905a" fill-rule="evenodd" stroke="#d7905a" stroke-width="2" stroke-linecap="square" stroke-linejoin="bevel" d="M221.855 131.168L213.9 114.905L203.116 115.082L149.2 83.6154L131.699 29.6985L147.255 5.3033L141.952 0L124.451 15.2028L80.9637 22.2739L53.9169 44.9013L32.3501 55.8614L0.53033 116.849L0 158.038L9.54594 179.252L11.3137 175.716L6.36396 115.258L38.007 61.5183L114.021 28.1075L141.952 94.0452L181.373 108.364L207.006 133.466L225.037 137.709" sodipodi:nodetypes="cccccccccccccccccccccc"/><path id="shape32" transform="translate(123.000008524277, 296.50002054836)" fill="#6c442a" fill-rule="evenodd" stroke="#6c442a" stroke-width="2" stroke-linecap="square" stroke-linejoin="bevel" d="M13.5 17.5L19.5 39.75L38.5 41.5L58 28.25L73.25 0L74.75 25.75L55.5 51.75L47 61.5L46.5 87L33.5 98.25L9 96L12.75 75.75L0 63L13.5 17.5" sodipodi:nodetypes="cccccccccccccc"/><path id="shape33" transform="translate(281.500019508814, 323.250022402217)" fill="#6c442a" fill-rule="evenodd" stroke="#6c442a" stroke-width="2" stroke-linecap="square" stroke-linejoin="bevel" d="M24 0L23.5 15L45.25 33.25L47 29.5L53.25 34.25L50.5 16.5L66.5 24L74.75 9L73.5 44.5L80.25 49.75L77 59.25L47.75 59.5L35.75 38.75L25 32L0 21.5L8.25 16.25L24 0" sodipodi:nodetypes="ccccccccccccccccc"/><path id="shape34" transform="translate(311.834096900723, 278.776854202063)" fill="#6c442a" fill-rule="evenodd" stroke="#6c442a" stroke-width="2" stroke-linecap="square" stroke-linejoin="bevel" d="M0.353553 26.8701L10.4298 22.2739L22.8042 36.416L31.4663 36.2392L8.83883 12.7279L0 0L0.353553 26.8701" sodipodi:nodetypes="ccccccc"/><path id="shape35" transform="translate(202.497702202901, 216.021119242205)" fill="#6c442a" fill-rule="evenodd" stroke="#6c442a" stroke-width="2" stroke-linecap="square" stroke-linejoin="bevel" d="M2.82843 0L22.3623 2.20971L5.56847 18.1196L2.2981 9.01561L0 0.978881L4.50781 0.978881L2.82843 0" sodipodi:nodetypes="ccccccc"/><path id="shape36" transform="translate(133.500003250534, 254.312506192146)" fill="#6c442a" fill-rule="evenodd" stroke="#6c442a" stroke-width="2" stroke-linecap="square" stroke-linejoin="bevel" d="M1.25 0.4375L6.125 1.5625L10.0625 0L8.4375 6.25L1.6875 6.5L0 0.5625L1.25 0.4375" sodipodi:nodetypes="ccccccc"/><path id="shape37" transform="translate(155.500003786203, 254.062506186059)" fill="#6c442a" fill-rule="evenodd" stroke="#6c442a" stroke-width="2" stroke-linecap="square" stroke-linejoin="bevel" d="M1.9375 0.375L7.1875 3.5625L12.1875 2.4375L11.8125 5.6875L3.625 7.875L0 2.375L1.5 0" sodipodi:nodetypes="ccccccc"/><path id="shape38" transform="translate(119.125005091463, 242.687510372586)" fill="#6c442a" fill-rule="evenodd" stroke="#6c442a" stroke-width="2" stroke-linecap="square" stroke-linejoin="bevel" d="M1.25 0L5.5625 1.4375L10.3125 1L6.1875 5.75L0.8125 4.4375L0 0.25" sodipodi:nodetypes="cccccc"/><path id="shape39" transform="translate(329.500020985117, 251.625016025432)" fill="#6c442a" fill-rule="evenodd" stroke="#6c442a" stroke-width="2" stroke-linecap="square" stroke-linejoin="bevel" d="M3.125 0L5.875 8L0 3L3.125 0" sodipodi:nodetypes="cccc"/><path id="shape40" transform="translate(352.250022434013, 259.125016503091)" fill="#6c442a" fill-rule="evenodd" stroke="#6c442a" stroke-width="2" stroke-linecap="square" stroke-linejoin="bevel" d="M0 0.625L6.25 3.875L12.75 0L8.125 7.125L1.875 6L1.25 3.625" sodipodi:nodetypes="cccccc"/><path id="shape41" transform="translate(374.250023835144, 247.625015770681)" fill="#6c442a" fill-rule="evenodd" stroke="#6c442a" stroke-width="2" stroke-linecap="square" stroke-linejoin="bevel" d="M0.625 3.875L5.5 0L5.25 5.75L0 5.25" sodipodi:nodetypes="cccc"/><path id="shape42" transform="translate(174.625008802231, 55.7500028101611)" fill="#6c442a" fill-rule="evenodd" stroke="#6c442a" stroke-width="2" stroke-linecap="square" stroke-linejoin="bevel" d="M0 7.75L8.875 6.25L23.125 0L41.25 9.125L56.875 10L65.125 10.375L66.625 1.875L78.25 14.75L97.625 26.5L114.25 36.5L111 40.375L102.875 38.625L82.25 28.375L83.375 42L88.375 46.75L83.5 50.5L105.625 136.25L118.875 143.25L115.75 150.75L132.75 157.375L145.75 156.625L144.75 161.25L124.375 164.25L120.75 173L135.5 217.375L133.5 216.625L115 178.75L108.75 176.125L101.5 138.75L101.25 147.25L74.625 101.375L57.25 59.375L51.125 47.5L21.125 35.375L7.25 17.875L1 18L1.25 10L0 7.75" sodipodi:nodetypes="cccccccccccccccccccccccccccccccccccccc"/><path id="shape43" transform="translate(280.000005960806, 125.125002663735)" fill="#6c442a" fill-rule="evenodd" stroke="#6c442a" stroke-width="2" stroke-linecap="square" stroke-linejoin="bevel" d="M0 68L5 60.25L14.125 59.25L17.75 55.125L27.375 54L57.5 40.125L64.875 39.5L83.375 6.5L92.375 0L82.75 10.75L67 48.125L25.5 62.25L17.125 71.375L14.5 75.125L1.375 71.875L0 68" sodipodi:nodetypes="cccccccccccccccc"/><path id="shape44" transform="translate(369.999998740861, 84.2499997132906)" fill="#6c442a" fill-rule="evenodd" stroke="#6c442a" stroke-width="2" stroke-linecap="square" stroke-linejoin="bevel" d="M7.25 1.875L14.125 14L38.375 27L26 24.75L27.25 32.5L17.125 25.625L8.625 32.75L9 23.625L0 26L4.25 19.625L10.75 16.75L6.25 0L6.5 1.125" sodipodi:nodetypes="ccccccccccccc"/><path id="shape45" transform="translate(394.212023430656, 108.010558886157)" fill="#6c442a" fill-rule="evenodd" stroke="#6c442a" stroke-width="2" stroke-linecap="square" stroke-linejoin="bevel" d="M13.2583 4.06586L16.0867 10.4298L26.3397 13.435L41.7193 36.0624L56.3918 42.6032L63.6396 46.1387L68.7661 76.8979L66.8216 88.2116L57.9828 55.5079L0.883883 7.24784L0 0L13.2583 4.06586" sodipodi:nodetypes="cccccccccccc"/><path id="shape46" transform="translate(462.750023957832, 210.000010872274)" fill="#6c442a" fill-rule="evenodd" stroke="#6c442a" stroke-width="2" stroke-linecap="square" stroke-linejoin="bevel" d="M2 0L8 14.5L7.75 43.75L1 59.5L0 38.5L2 0" sodipodi:nodetypes="cccccc"/><path id="shape47" transform="translate(179.42834257166, 233.522010381441)" fill="#aea27c" fill-rule="evenodd" stroke="#aea27c" stroke-width="2" stroke-linecap="square" stroke-linejoin="bevel" d="M17.1473 54.9776L41.7193 70.3571L81.8476 69.65L103.414 28.461L104.475 0L113.314 9.01561L131.522 43.1335L132.052 79.3727L107.48 107.127L74.423 121.446L45.2548 124.628L0 116.319L19.799 88.7419L17.1473 54.9776" sodipodi:nodetypes="cccccccccccccc"/><path id="shape48" transform="translate(228.749041783032, 184.554868331905)" fill="#eed2bc" fill-rule="evenodd" stroke="#eed2bc" stroke-width="2" stroke-linecap="square" stroke-linejoin="bevel" d="M0.618718 47.7297L2.65165 38.1838L5.65685 43.4871L11.4905 12.6395L12.6395 14.4957L13.0815 0L15.2912 16.3518L17.5893 11.6673L15.9983 40.2167L0 48.3484" sodipodi:nodetypes="cccccccccc"/><path id="shape49" transform="translate(202.687512423525, 191.500011737799)" fill="#eed2bc" fill-rule="evenodd" stroke="#eed2bc" stroke-width="2" stroke-linecap="square" stroke-linejoin="bevel" d="M0 7.1875L9.1875 0L18.75 2.5625L6.3125 9.5" sodipodi:nodetypes="cccc"/><path id="shape50" transform="translate(127.93750176351, 226.187503117803)" fill="#eed2bc" fill-rule="evenodd" stroke="#eed2bc" stroke-width="2" stroke-linecap="square" stroke-linejoin="bevel" d="M0 7.5L13 4.9375L17.3125 0L7.3125 1.375" sodipodi:nodetypes="cccc"/><path id="shape51" transform="translate(142.923962928674, 292.12349875032)" fill="#eed2bc" fill-rule="evenodd" stroke="#eed2bc" stroke-width="2" stroke-linecap="square" stroke-linejoin="bevel" d="M16.4402 0L3.18198 23.8649L0 30.8475L3.44715 39.3328L16.1751 24.9255L12.286 18.4732L15.9983 7.51301L15.8215 3.27037" sodipodi:nodetypes="cccccccc"/><path id="shape52" transform="translate(60.8125033859601, 290.562516178138)" fill="#eed2bc" fill-rule="evenodd" stroke="#eed2bc" stroke-width="2" stroke-linecap="square" stroke-linejoin="bevel" d="M3.3125 33.5L19.75 11.6875L28 4.625L42.4375 0L27.4375 9.625L9.1875 28.6875L0 38.1875L3.4375 32.75" sodipodi:nodetypes="cccccccc"/><path id="shape53" transform="translate(336.317659793352, 332.605349225331)" fill="#eed2bc" fill-rule="evenodd" stroke="#eed2bc" stroke-width="2" stroke-linecap="square" stroke-linejoin="bevel" d="M0 4.33103L5.3033 0L7.42462 4.94975L15.5563 1.32583L7.24784 9.89949L0 4.33103" sodipodi:nodetypes="cccccc"/><path id="shape54" transform="translate(357.000021701793, 329.125020007291)" fill="#eed2bc" fill-rule="evenodd" stroke="#eed2bc" stroke-width="2" stroke-linecap="square" stroke-linejoin="bevel" d="M1.3125 7.3125L0.375 10.1875L0 6.875L33 0L16.75 9.3125L0.1875 10.125L0.875 9.6875" sodipodi:nodetypes="ccccccc"/><path id="shape55" transform="translate(401.194708437229, 306.000458385038)" fill="#eed2bc" fill-rule="evenodd" stroke="#eed2bc" stroke-width="2" stroke-linecap="square" stroke-linejoin="bevel" d="M0 17.4125L15.9983 0L19.0035 1.14905L0.618718 17.8544" sodipodi:nodetypes="cccc"/><path id="shape56" transform="translate(170.500008971489, 40.437502127769)" fill="#eed2bc" fill-rule="evenodd" stroke="#eed2bc" stroke-width="2" stroke-linecap="square" stroke-linejoin="bevel" d="M2.375 6.8125L11.875 7.9375L10.5625 9.8125L24.5625 0L26.625 1.25L10.4375 12.625L6.125 14.9375L0 9.6875L0.9375 6.9375" sodipodi:nodetypes="ccccccccc"/><path id="shape57" transform="translate(220.531262731129, 51.7500029874947)" fill="#eed2bc" fill-rule="evenodd" stroke="#eed2bc" stroke-width="2" stroke-linecap="square" stroke-linejoin="bevel" d="M0 0.125L17.2813 0L23.5625 5.03125" sodipodi:nodetypes="ccc"/><path id="shape58" transform="translate(271.970943838709, 77.6933570471971)" fill="#eed2bc" fill-rule="evenodd" stroke="#eed2bc" stroke-width="2" stroke-linecap="square" stroke-linejoin="bevel" d="M0 0L0 3.62392L15.9983 13.2583L17.6777 10.253" sodipodi:nodetypes="cccc"/><path id="shape59" transform="translate(363.541272299979, 76.0139786476981)" fill="#eed2bc" fill-rule="evenodd" stroke="#eed2bc" stroke-width="2" stroke-linecap="square" stroke-linejoin="bevel" d="M0 4.50781L6.98268 0L8.48528 22.7158" sodipodi:nodetypes="ccc"/><path id="shape60" transform="translate(338.374998963981, 127.749999608862)" fill="#eed2bc" fill-rule="evenodd" stroke="#eed2bc" stroke-width="2" stroke-linecap="square" stroke-linejoin="bevel" d="M0 34.75L6.625 34.125L22.875 4.5L21.625 0" sodipodi:nodetypes="cccc"/><path id="shape61" transform="translate(223.003800210721, 56.7895131333288)" fill="#ffffff" fill-rule="evenodd" stroke="#ffffff" stroke-width="2" stroke-linecap="square" stroke-linejoin="bevel" d="M0 0L17.5451 0.53033L19.7106 8.44109L18.6941 10.6508L0.265165 0.309359L0.574524 0.53033" sodipodi:nodetypes="cccccc"/><path id="shape62" transform="translate(172.687508605967, 63.6250031707834)" fill="#ffffff" fill-rule="evenodd" stroke="#ffffff" stroke-width="2" stroke-linecap="square" stroke-linejoin="bevel" d="M0.375 0.375L0 5.125L3.125 7.9375L3.4375 1.4375L0.9375 0" sodipodi:nodetypes="ccccc"/><path id="shape63" transform="translate(222.750012239256, 56.3750030975894)" fill="#2b91b2" fill-rule="evenodd" stroke="#2b91b2" stroke-width="2" stroke-linecap="square" stroke-linejoin="bevel" d="M0.8125 0.5L10.875 0L11.125 4.5625L9.375 7.5L0 1.0625" sodipodi:nodetypes="ccccc"/><path id="shape64" transform="translate(228.812512572367, 57.0625031353649)" fill="#ffffff" fill-rule="evenodd" stroke="#ffffff" stroke-width="2" stroke-linecap="square" stroke-linejoin="bevel" d="M0.8125 0.4375L2.625 0L2.625 2.875L0 1.375" sodipodi:nodetypes="cccc"/><path id="shape65" transform="translate(222.606052535583, 56.3475713684472)" fill="#000d14" fill-rule="evenodd" stroke="#000d14" stroke-width="2" stroke-linecap="square" stroke-linejoin="bevel" d="M4.28683 0.220971L0 0.618718L2.82843 3.40295L4.64039 4.86136L4.77297 2.60746L5.3033 0" sodipodi:nodetypes="cccccc"/><path id="shape66" transform="translate(195.062503444343, 59.0000010418007)" fill="#777777" fill-rule="evenodd" stroke="#777777" stroke-width="2" stroke-linecap="square" stroke-linejoin="bevel" d="M1.625 0.5L5.1875 0.375L8.625 2.875L2.375 10.8125L0 0" sodipodi:nodetypes="ccccc"/><path id="shape67" transform="translate(177.500006398799, 58.6250021134061)" fill="#412f20" fill-rule="evenodd" stroke="#412f20" stroke-width="2" stroke-linecap="square" stroke-linejoin="bevel" d="M0 8.125L4.125 8.5L14.25 1L18.5 0L34.125 8.375L50.5 14.25L61 15.625L65.625 28.25L60.75 20.625L53.75 15.625L46.125 14L28 6.125L18.75 1.5L13.625 2.5L3.75 9.75L0 8.125" sodipodi:nodetypes="cccccccccccccccc"/><path id="shape68" transform="translate(234.468754739309, 74.687501509656)" fill="#5c4246" fill-rule="evenodd" stroke="#5c4246" stroke-width="2" stroke-linecap="square" stroke-linejoin="bevel" d="M0 0L3.46875 3.125" sodipodi:nodetypes="cc"/><path id="shape69" transform="translate(174.687509956636, 52.687503003021)" fill="#d7905a" fill-rule="evenodd" stroke="#d7905a" stroke-width="2" stroke-linecap="square" stroke-linejoin="bevel" d="M0 8.3125L20.75 0L30.1875 0.6875L46.5625 9.25L57.6875 12.4375L63.4375 20.125L55.3125 19.375L30.75 9.5L21.0625 4.625L15.8125 6.5L4.8125 12.25L2.625 11.8125L0 8.3125" sodipodi:nodetypes="ccccccccccccc"/><path id="shape0" transform="translate(113.844188473477, 385.549961274307)" fill="#ffffff" fill-rule="evenodd" stroke="#ffffff" stroke-width="2" stroke-linecap="square" stroke-linejoin="bevel" d="M4.94975 4.06586L8.48528 0L15.3796 5.12652L7.77817 13.0815L4.94975 22.2739L0 7.77817L4.94975 4.06586" sodipodi:nodetypes="ccccccc"/><path id="shape1" transform="translate(131.875417407263, 386.080310479173)" fill="#777777" fill-rule="evenodd" stroke="#777777" stroke-width="2" stroke-linecap="square" stroke-linejoin="bevel" d="M0 5.3033L10.253 0L19.4454 8.3085L4.24264 24.0416" sodipodi:nodetypes="cccc"/><path id="shape2" transform="translate(150.436970795685, 384.489320188736)" fill="#777777" fill-rule="evenodd" stroke="#777777" stroke-width="2" stroke-linecap="square" stroke-linejoin="bevel" d="M0 6.36396L7.24784 0L17.6777 12.3744L6.01041 27.2236" sodipodi:nodetypes="cccc"/><path id="shape3" transform="translate(347.54299011083, 374.059494951433)" fill="#777777" fill-rule="evenodd" stroke="#777777" stroke-width="2" stroke-linecap="square" stroke-linejoin="bevel" d="M0 8.13173L3.71231 0L19.9758 11.844L7.07107 27.9307L5.3033 17.1473" sodipodi:nodetypes="ccccc"/><path id="shape4" transform="translate(332.693747400093, 371.054291069498)" fill="#777777" fill-rule="evenodd" stroke="#777777" stroke-width="2" stroke-linecap="square" stroke-linejoin="bevel" d="M0 10.6066L8.48528 0L15.5563 12.5511L8.3085 28.8146" sodipodi:nodetypes="cccc"/><path id="shape5" transform="translate(354.750002141286, 260.500001572389)" fill="#777777" fill-rule="evenodd" stroke="#777777" stroke-width="2" stroke-linecap="square" stroke-linejoin="bevel" d="M0 5.375L6.375 6.875L11.5 0L7.5 12.25" sodipodi:nodetypes="cccc"/><path id="shape6" transform="translate(375.500002266534, 250.875001514292)" fill="#777777" fill-rule="evenodd" stroke="#777777" stroke-width="2" stroke-linecap="square" stroke-linejoin="bevel" d="M0 3.125L5.25 0L4.5 4.75" sodipodi:nodetypes="ccc"/><path id="shape7" transform="translate(329.750001990385, 256.37500154749)" fill="#777777" fill-rule="evenodd" stroke="#777777" stroke-width="2" stroke-linecap="square" stroke-linejoin="bevel" d="M0 0L6.75 4.5L1.75 7.75" sodipodi:nodetypes="ccc"/><path id="shape8" transform="translate(134.35028728039, 260.392069952651)" fill="#777777" fill-rule="evenodd" stroke="#777777" stroke-width="2" stroke-linecap="square" stroke-linejoin="bevel" d="M0 0L4.59619 2.47487L9.54594 0.707107L4.41942 7.42462" sodipodi:nodetypes="cccc"/><path id="shape9" transform="translate(156.800927391718, 260.568846646441)" fill="#777777" fill-rule="evenodd" stroke="#777777" stroke-width="2" stroke-linecap="square" stroke-linejoin="bevel" d="M0 0L3.35876 2.2981L10.0763 0.353553L5.12652 9.72272" sodipodi:nodetypes="cccc"/><path id="shape10" transform="translate(116.142287820021, 243.067953961232)" fill="#777777" fill-rule="evenodd" stroke="#777777" stroke-width="2" stroke-linecap="square" stroke-linejoin="bevel" d="M2.12132 0L3.18198 6.18718L10.253 7.6014L0 8.48528" sodipodi:nodetypes="cccc"/><path id="shape11" transform="translate(314.132185667515, 370.700727824862)" fill="#ffffff" fill-rule="evenodd" stroke="#ffffff" stroke-width="2" stroke-linecap="square" stroke-linejoin="bevel" d="M13.7886 10.0763L7.6014 0L0 6.18718L0.883883 26.163" sodipodi:nodetypes="cccc"/><path id="shape12" transform="translate(133.593759109863, 259.968767727475)" fill="#ffffff" fill-rule="evenodd" stroke="#ffffff" stroke-width="2" stroke-linecap="square" stroke-linejoin="bevel" d="M0 0L4.8125 7.875" sodipodi:nodetypes="cc"/><path id="shape13" transform="translate(156.281260656942, 260.031267731736)" fill="#ffffff" fill-rule="evenodd" stroke="#ffffff" stroke-width="2" stroke-linecap="square" stroke-linejoin="bevel" d="M0 0L5.84375 9.46875" sodipodi:nodetypes="cc"/><path id="shape14" transform="translate(116.218757925048, 243.656266615112)" fill="#ffffff" fill-rule="evenodd" stroke="#ffffff" stroke-width="2" stroke-linecap="square" stroke-linejoin="bevel" d="M2.9375 0L0 8.5" sodipodi:nodetypes="cc"/><path id="shape15" transform="translate(117.625008020942, 242.718766551183)" fill="#ffffff" fill-rule="evenodd" stroke="#ffffff" stroke-width="2" stroke-linecap="square" stroke-linejoin="bevel" d="M0.375 0L0 2.875" sodipodi:nodetypes="cc"/><path id="shape16" transform="translate(329.997885826649, 255.884258595995)" fill="#ffffff" fill-rule="evenodd" stroke="#ffffff" stroke-width="2" stroke-linecap="square" stroke-linejoin="bevel" d="M0 0L1.98874 8.13173" sodipodi:nodetypes="cc"/><path id="shape17" transform="translate(355.276952478965, 265.916335746477)" fill="#ffffff" fill-rule="evenodd" stroke="#ffffff" stroke-width="2" stroke-linecap="square" stroke-linejoin="bevel" d="M0 0L7.51301 6.40816" sodipodi:nodetypes="cc"/><path id="shape18" transform="translate(378.523087197703, 254.823598456737)" fill="#ffffff" fill-rule="evenodd" stroke="#ffffff" stroke-width="2" stroke-linecap="square" stroke-linejoin="bevel" d="M1.23744 0.220971L0 0L0.441942 0.574524" sodipodi:nodetypes="ccc"/><path id="shape19" transform="translate(379.583747336961, 256.193617803279)" fill="#ffffff" fill-rule="evenodd" stroke="#ffffff" stroke-width="2" stroke-linecap="square" stroke-linejoin="bevel" d="M0 0L0.839689 0.486136" sodipodi:nodetypes="cc"/>
</svg>
