<?xml version="1.0" standalone="no"?>
<!DOCTYPE svg PUBLIC "-//W3C//DTD SVG 20010904//EN" "http://www.w3.org/TR/2001/REC-SVG-20010904/DTD/svg10.dtd">
<!-- Created using Krita: https://krita.org -->
<svg xmlns="http://www.w3.org/2000/svg" 
    xmlns:xlink="http://www.w3.org/1999/xlink"
    xmlns:krita="http://krita.org/namespaces/svg/krita"
    xmlns:sodipodi="http://sodipodi.sourceforge.net/DTD/sodipodi-0.dtd"
    width="480pt"
    height="480pt"
    viewBox="0 0 480 480">
<defs/>
<path id="shape0" transform="translate(67.2882835918498, 306.403520870327)" fill="#e4efde" fill-rule="evenodd" stroke="#e4efde" stroke-width="0.96" stroke-linecap="square" stroke-linejoin="bevel" d="M42.2567 6.53367L65.7609 0L23.6739 30.2925L11.6248 58.6333L0 56.4271L11.3703 19.6859L42.2567 6.53367" sodipodi:nodetypes="ccccccc"/><path id="shape1" transform="translate(70.4400049026507, 369.6000257243)" fill="#e4efde" fill-rule="evenodd" stroke="#e4efde" stroke-width="0.96" stroke-linecap="square" stroke-linejoin="bevel" d="M0 0L6 33.48L18.6 38.16L32.88 9.12L0 0" sodipodi:nodetypes="ccccc"/><path id="shape2" transform="translate(103.920007232871, 402.840028037817)" fill="#e4efde" fill-rule="evenodd" stroke="#e4efde" stroke-width="0.96" stroke-linecap="square" stroke-linejoin="bevel" d="M2.88 0L0 15.36L23.88 14.76L33.84 5.52L2.88 0" sodipodi:nodetypes="ccccc"/><path id="shape3" transform="translate(123.375988265195, 316.331282154502)" fill="#7183ab" fill-rule="evenodd" stroke="#7183ab" stroke-width="0.96" stroke-linecap="square" stroke-linejoin="bevel" d="M145.777 20.3647L138.31 31.9047L85.1922 76.0281L73.1431 83.4952L12.8976 72.4643L0 41.2385L30.8864 10.1823L64.4881 0L99.6172 2.37588L136.443 6.61852L145.777 20.3647" sodipodi:nodetypes="ccccccccccc"/><path id="shape4" transform="translate(72.4643012231612, 306.658061616516)" fill="#99b3cc" fill-rule="evenodd" stroke="#99b3cc" stroke-width="0.96" stroke-linecap="square" stroke-linejoin="bevel" d="M60.2455 0L113.024 5.76999L124.055 93.3381L88.756 107.933L66.6943 111.666L20.3647 96.3928L0 58.3787L18.6676 24.0982L60.2455 0" sodipodi:nodetypes="ccccccccc"/><path id="shape5" transform="translate(4.31999998286095, 306.870019005807)" fill="#e4efde" fill-rule="evenodd" stroke="#e4efde" stroke-width="0.96" stroke-linecap="square" stroke-linejoin="bevel" d="M126.96 0L65.76 3.68998L7.68 33.45L0 77.13L29.28 107.85L103.92 120.57L140.396 111.836L109.722 106.363L74.4234 83.6226L69.5019 50.6997L88.6787 20.3224L126.96 0" sodipodi:nodetypes="cccccccccccc"/><path id="shape6" transform="translate(186.167071804677, 312.343204791712)" fill="#7183ab" fill-rule="evenodd" stroke="#7183ab" stroke-width="0.96" stroke-linecap="square" stroke-linejoin="bevel" d="M1.10309 7.04278L0.254558 4.24264L0 0L46.1599 7.12764L1.10309 7.04278" sodipodi:nodetypes="ccccc"/><path id="shape7" transform="translate(225.480002562489, 318.60000362076)" fill="#7183ab" fill-rule="evenodd" stroke="#7183ab" stroke-width="0.96" stroke-linecap="square" stroke-linejoin="bevel" d="M0 0L17.1 1.44L29.34 3.36L7.74 5.76L0.48 0.12L0 0" sodipodi:nodetypes="cccccc"/><path id="shape8" transform="translate(134.880003392303, 304.320007653808)" fill="#54596c" fill-rule="evenodd" stroke="#54596c" stroke-width="0.96" stroke-linecap="square" stroke-linejoin="bevel" d="M137.04 0L183.12 18.48L171.84 22.32L60 61.2L0 75.36L14.4 62.16L111.84 28.08L137.04 0" sodipodi:nodetypes="cccccccc"/><path id="shape9" transform="translate(39.9600023727876, 366.600021768367)" fill="#7183ab" fill-rule="evenodd" stroke="#7183ab" stroke-width="0.96" stroke-linecap="square" stroke-linejoin="bevel" d="M94.92 13.32L34.2 15.6L0 5.16L42.36 9.48L88.32 3.72L108.12 0L94.92 13.32" sodipodi:nodetypes="ccccccc"/><path id="shape10" transform="translate(307.200005793368, 317.040005978937)" fill="#7183ab" fill-rule="evenodd" stroke="#7183ab" stroke-width="0.96" stroke-linecap="square" stroke-linejoin="bevel" d="M34.08 8.76L30.12 20.28L2.16 57.12L0 81.84L17.04 96.24L46.56 85.44L68.64 40.08L73.68 0L34.08 8.76" sodipodi:nodetypes="ccccccccc"/><path id="shape11" transform="translate(169.440003195404, 262.080004942467)" fill="#7183ab" fill-rule="evenodd" stroke="#7183ab" stroke-width="0.96" stroke-linecap="square" stroke-linejoin="bevel" d="M57.84 0L16.8 25.44L0 54.48L22.08 74.16L62.16 51.6L81.12 10.32L57.84 0" sodipodi:nodetypes="ccccccc"/><path id="shape12" transform="translate(323.7600171875, 317.040016830754)" fill="#54596c" fill-rule="evenodd" stroke="#54596c" stroke-width="0.96" stroke-linecap="square" stroke-linejoin="bevel" d="M17.4 8.64L58.8 0L52.68 41.16L36.48 72.96L34.68 41.04L17.88 34.32L0 37.32L17.4 8.64" sodipodi:nodetypes="cccccccc"/><path id="shape13" transform="translate(194.160013878383, 260.280018604581)" fill="#54596c" fill-rule="evenodd" stroke="#54596c" stroke-width="0.96" stroke-linecap="square" stroke-linejoin="bevel" d="M32.76 0L64.08 13.44L48.84 29.04L37.68 54.12L21.12 60.48L26.64 39.24L20.28 24.36L7.32 21.12L0 20.64L33.12 0.84L32.76 0" sodipodi:nodetypes="ccccccccccc"/><path id="shape14" transform="translate(168.480011525496, 287.520019668867)" fill="#a1abc3" fill-rule="evenodd" stroke="#a1abc3" stroke-width="0.96" stroke-linecap="square" stroke-linejoin="bevel" d="M17.4 0L3 19.08L0 32.16L15.12 47.28L28.56 50.52L48.48 34.92L20.16 42.84L9 29.76L17.4 0" sodipodi:nodetypes="ccccccccc"/><path id="shape15" transform="translate(306.720000768924, 354.720000889257)" fill="#a1abc3" fill-rule="evenodd" stroke="#a1abc3" stroke-width="0.96" stroke-linecap="square" stroke-linejoin="bevel" d="M17.04 0L13.2 23.76L17.76 59.28L0 44.16L1.68 18.48L17.04 0" sodipodi:nodetypes="cccccc"/><path id="shape16" transform="translate(208.319987906797, 56.1599967398509)" fill="#7183ab" fill-rule="evenodd" stroke="#7183ab" stroke-width="0.96" stroke-linecap="square" stroke-linejoin="bevel" d="M158.88 2.4L214.08 28.32L258.24 110.88L252 209.76L204.48 262.08L131.04 275.04L37.92 237.6L0 183.84L1.92 104.16L52.8 31.2L126.24 0L158.88 2.4" sodipodi:nodetypes="cccccccccccc"/><path id="shape17" transform="translate(207.600012553812, 205.680012437707)" fill="#54596c" fill-rule="evenodd" stroke="#54596c" stroke-width="0.96" stroke-linecap="square" stroke-linejoin="bevel" d="M1.2 0L82.32 57.6L181.44 74.64L223.44 52.56L255.36 20.88L252.96 60.24L206.64 112.32L131.04 126.24L37.92 88.32L0 34.32L1.2 0" sodipodi:nodetypes="ccccccccccc"/><path id="shape18" transform="translate(227.74494477751, 134.0674414115)" fill="#e4efde" fill-rule="evenodd" stroke="#e4efde" stroke-width="0.96" stroke-linecap="square" stroke-linejoin="bevel" d="M12.2551 45.1417L42.7658 11.2006L106.236 0L170.045 47.1782L178.53 120.83L146.626 159.863L87.5681 173.779L26.8135 140.856L0 71.9552L12.2551 45.1417" sodipodi:nodetypes="cccccccccc"/><path id="shape19" transform="translate(232.836113438706, 222.653776116314)" fill="#b5c7e0" fill-rule="evenodd" stroke="#b5c7e0" stroke-width="0.96" stroke-linecap="square" stroke-linejoin="bevel" d="M0 0L67.2034 47.857L153.074 57.3605L141.874 71.6158L82.8163 85.871L20.0253 51.2511L0 0" sodipodi:nodetypes="ccccccc"/><path id="shape20" transform="translate(247.091385422789, 162.238574494633)" fill="#111822" fill-rule="evenodd" stroke="#111822" stroke-width="0.96" stroke-linecap="square" stroke-linejoin="bevel" d="M57.3605 71.7855L67.8822 74.6705L68.2217 82.3072L60.4152 84.3437L43.1052 66.3549L56.6817 42.9355L84.5134 46.3296L92.9987 77.7614L68.5611 99.2778L41.5779 96.2231L22.0617 58.3787L52.6087 21.7223L103.52 32.9229L112.175 86.2105L75.3493 122.697L20.5344 112.006L0 48.5358L33.0926 3.22441L100.635 0L139.837 52.2693L133.219 103.011L90.7925 134.407L87.2287 123.546L124.903 92.4896L127.619 45.1417L91.641 12.8976L36.1473 10.6915L12.2188 50.4026L24.777 105.557L71.2764 110.309L104.708 82.4769L96.3928 36.8261L54.4755 30.7167L34.1108 58.0393L50.2329 88.4166L72.8037 88.2469L82.1375 59.2273L60.4152 56.3423L57.3605 71.7855" sodipodi:nodetypes="ccccccccccccccccccccccccccccccccccccccc"/><path id="shape21" transform="translate(377.280002552831, 87.3600005911136)" fill="#e4efde" fill-rule="evenodd" stroke="#e4efde" stroke-width="0.96" stroke-linecap="square" stroke-linejoin="bevel" d="M10.08 2.16L0 31.68L24 63.6L52.56 68.64L62.4 34.56L38.88 0L10.08 2.16" sodipodi:nodetypes="ccccccc"/><path id="shape22" transform="translate(267.360001809068, 66.7200004514549)" fill="#e4efde" fill-rule="evenodd" stroke="#e4efde" stroke-width="0.96" stroke-linecap="square" stroke-linejoin="bevel" d="M34.08 1.68L8.16 17.52L0 44.64L25.92 50.88L56.88 30.48L62.16 3.6L48 0L34.08 1.68" sodipodi:nodetypes="cccccccc"/><path id="shape23" transform="translate(379.200002565823, 87.8400005943615)" fill="#111822" fill-rule="evenodd" stroke="#111822" stroke-width="0.96" stroke-linecap="square" stroke-linejoin="bevel" d="M29.76 0L46.08 25.68L38.16 50.88L18 53.28L8.4 44.4L0 25.2L4.08 12.24L9.84 24.96L24.24 17.04L22.8 4.08L12.48 0.24L29.76 0" sodipodi:nodetypes="cccccccccccc"/><path id="shape24" transform="translate(284.520011663884, 66.4800027253445)" fill="#111822" fill-rule="evenodd" stroke="#111822" stroke-width="0.96" stroke-linecap="square" stroke-linejoin="bevel" d="M44.16 9.96L45.24 5.52L39.36 1.56L32.76 0L10.68 9L0 30.84L10.56 44.88L19.92 44.4L34.8 34.8L41.16 26.52L42.24 19.68L34.08 27.12L28.2 19.2L33 8.16L39.36 5.76L44.16 9.96" sodipodi:nodetypes="cccccccccccccccc"/><path id="shape25" transform="translate(308.280002873706, 112.800001051492)" fill="#e66c83" fill-rule="evenodd" stroke="#e66c83" stroke-width="0.96" stroke-linecap="square" stroke-linejoin="bevel" d="M5.52 5.76L30 0L53.76 18.12L54.6 34.8L39.72 42.36L9.72 36.48L0 21.12L5.52 5.76" sodipodi:nodetypes="cccccccc"/><path id="shape26" transform="translate(307.560002866994, 116.760001088406)" fill="#a8475a" fill-rule="evenodd" stroke="#a8475a" stroke-width="0.96" stroke-linecap="square" stroke-linejoin="bevel" d="M13.2 0L12.24 16.2L37.2 32.16L49.32 25.68L55.08 18.72L56.04 31.32L40.8 39.36L9.6 33.12L0 16.92L6 1.44L13.2 0" sodipodi:nodetypes="ccccccccccc"/><path id="shape27" transform="translate(331.20000308736, 126.84000118237)" fill="#a8475a" fill-rule="evenodd" stroke="#a8475a" stroke-width="0.96" stroke-linecap="square" stroke-linejoin="bevel" d="M0 1.32L7.44 0L13.08 6L11.76 6.72L6.72 1.08" sodipodi:nodetypes="ccccc"/><path id="shape28" transform="translate(255.360001248787, 56.2800002752261)" fill="#7183ab" fill-rule="evenodd" stroke="#7183ab" stroke-width="0.96" stroke-linecap="square" stroke-linejoin="bevel" d="M0 38.64L10.68 23.76L78.48 0L52.8678 10.8174L46.2069 11.581L35.94 17.82L6.66549 31.9669L0 38.64" sodipodi:nodetypes="cccccccc"/>
</svg>
