<?xml version="1.0" standalone="no"?>
<!DOCTYPE svg PUBLIC "-//W3C//DTD SVG 20010904//EN" "http://www.w3.org/TR/2001/REC-SVG-20010904/DTD/svg10.dtd">
<!-- Created using Krita: https://krita.org -->
<svg xmlns="http://www.w3.org/2000/svg" 
    xmlns:xlink="http://www.w3.org/1999/xlink"
    xmlns:krita="http://krita.org/namespaces/svg/krita"
    xmlns:sodipodi="http://sodipodi.sourceforge.net/DTD/sodipodi-0.dtd"
    width="480pt"
    height="480pt"
    viewBox="0 0 480 480">
<defs/>
<path id="shape0" transform="translate(210.720008109457, 301.440011600772)" fill="#7fb0bf" fill-rule="evenodd" stroke="#7fb0bf" stroke-width="0.96" stroke-linecap="square" stroke-linejoin="bevel" d="M0 103.68L11.76 109.68L73.68 106.56L126.72 122.4L196.56 129.6L244.32 108.96L262.56 60.48L249.12 17.76L207.84 0L153.36 22.08L104.16 77.28L0 103.68" sodipodi:nodetypes="cccccccccccc"/><path id="shape1" transform="translate(382.007382657667, 347.726844542674)" fill="#9ed6de" fill-rule="evenodd" stroke="#9ed6de" stroke-width="0.96" stroke-linecap="square" stroke-linejoin="bevel" d="M34.2805 0.509117L40.5596 2.03647L23.2497 3.73352L5.09117 20.0253L6.27911 47.6873L11.2006 56.3423L0 46.669L3.22441 13.7462L24.4376 0L34.2805 0.509117" sodipodi:nodetypes="cccccccccc"/><path id="shape2" transform="translate(388.201612723986, 350.357258784118)" fill="#5d8a98" fill-rule="evenodd" stroke="#5d8a98" stroke-width="0.96" stroke-linecap="square" stroke-linejoin="bevel" d="M0 17.1403L17.2251 1.6122L34.7897 0L43.3598 11.9642L41.8324 23.5891L41.5779 11.1157L33.3472 1.52735L17.9039 5.00632L1.35764 20.6192L3.30926 44.4629L19.5161 64.1487L46.5842 69.4945L36.5716 73.7371L14.7644 64.6578L5.60029 52.7784L0.678822 45.4811L0 17.1403" sodipodi:nodetypes="ccccccccccccccccc"/><path id="shape3" transform="translate(316.840401253661, 353.411963369442)" fill="#5d8a98" fill-rule="evenodd" stroke="#5d8a98" stroke-width="0.96" stroke-linecap="square" stroke-linejoin="bevel" d="M20.4495 0L14.5947 24.0982L15.0189 61.7728L29.6136 71.7855L19.5161 70.8521L0 65.2518L1.86676 16.3766L4.32749 16.3766L20.4495 0" sodipodi:nodetypes="ccccccccc"/><path id="shape4" transform="translate(354.175651987926, 300.888083840246)" fill="#9ed6de" fill-rule="evenodd" stroke="#9ed6de" stroke-width="0.96" stroke-linecap="square" stroke-linejoin="bevel" d="M0 34.4502L25.2861 20.8738L63.979 8.14587L82.6466 7.97616L63.979 0L8.82469 22.5708L0 34.4502" sodipodi:nodetypes="ccccccc"/><path id="shape5" transform="translate(211.020001352948, 397.980002551635)" fill="#5d8a98" fill-rule="evenodd" stroke="#5d8a98" stroke-width="0.96" stroke-linecap="square" stroke-linejoin="bevel" d="M0 6.9L26.76 0L28.98 10.32L22.98 12.66L11.16 13.74L0 6.9" sodipodi:nodetypes="cccccc"/><path id="shape6" transform="translate(15.3600005084014, 174.720005783066)" fill="#9fd9de" fill-rule="evenodd" stroke="#9fd9de" stroke-width="0.96" stroke-linecap="square" stroke-linejoin="bevel" d="M128.64 0L81.6 14.4L30.24 46.56L5.76 49.92L13.92 65.28L0 88.32L40.32 95.04L96.96 95.04L136.32 9.12L128.64 0" sodipodi:nodetypes="cccccccccc"/><path id="shape7" transform="translate(57.1200018906178, 314.400010406342)" fill="#9fd9de" fill-rule="evenodd" stroke="#9fd9de" stroke-width="0.96" stroke-linecap="square" stroke-linejoin="bevel" d="M57.12 0L30.72 26.88L14.88 79.2L18.72 96.96L0 110.4L15.84 112.8L12.48 124.8L32.64 120.48L32.64 135.84L92.16 112.8L94.08 103.68L108 76.32L57.12 0" sodipodi:nodetypes="ccccccccccccc"/><path id="shape8" transform="translate(104.368960918599, 171.911800667547)" fill="#99cbdb" fill-rule="evenodd" stroke="#99cbdb" stroke-width="0.96" stroke-linecap="square" stroke-linejoin="bevel" d="M38.0141 1.35765L6.27911 12.7279L8.14587 39.0323L0 71.2764L3.0547 73.9917L49.3843 14.5947L50.4026 0L38.0141 1.35765" sodipodi:nodetypes="cccccccc"/><path id="shape9" transform="translate(23.2496705846894, 233.514939595128)" fill="#99cbdb" fill-rule="evenodd" stroke="#99cbdb" stroke-width="0.96" stroke-linecap="square" stroke-linejoin="bevel" d="M9.33381 2.03647L16.4614 0L24.9467 15.9523L55.324 28.0014L76.1978 32.0744L76.3675 35.9776L33.0926 36.4867L0 31.2258L9.84293 13.237L9.33381 2.03647" sodipodi:nodetypes="cccccccccc"/><path id="shape10" transform="translate(69.8400043999878, 359.520022650109)" fill="#99cbdb" fill-rule="evenodd" stroke="#99cbdb" stroke-width="0.96" stroke-linecap="square" stroke-linejoin="bevel" d="M6 46.08L36.48 42.72L60.24 16.8L63.12 0L98.4 36L89.04 44.4L81.84 58.56L79.44 68.4L19.2 90.96L19.2 76.08L0 79.92L11.04 62.64L6 46.08" sodipodi:nodetypes="ccccccccccccc"/><path id="shape11" transform="translate(73.6522426726409, 327.871273833046)" fill="#b7ecec" fill-rule="evenodd" stroke="#b7ecec" stroke-width="0.96" stroke-linecap="square" stroke-linejoin="bevel" d="M0 59.397L22.4011 36.4867L26.9832 0L13.0673 14.2553L0 59.397" sodipodi:nodetypes="ccccc"/><path id="shape12" transform="translate(20.7040857966415, 222.144658260686)" fill="#b7ecec" fill-rule="evenodd" stroke="#b7ecec" stroke-width="0.96" stroke-linecap="square" stroke-linejoin="bevel" d="M0 2.37588L14.9341 0L5.43058 4.75176L8.31558 17.8553L0 2.37588" sodipodi:nodetypes="ccccc"/><path id="shape13" transform="translate(95.3745608080124, 165.293277983993)" fill="#f3eed4" fill-rule="evenodd" stroke="#f3eed4" stroke-width="0.96" stroke-linecap="square" stroke-linejoin="bevel" d="M55.6634 13.237L24.0982 44.1235L0 109.29L12.5582 171.742L67.5428 234.533L110.648 240.982L178.87 226.048L214.508 213.49L193.464 154.772L183.621 0L55.6634 13.237" sodipodi:nodetypes="ccccccccccc"/><path id="shape14" transform="translate(138.649499728237, 165.293283641741)" fill="#bbb69e" fill-rule="evenodd" stroke="#bbb69e" stroke-width="0.96" stroke-linecap="square" stroke-linejoin="bevel" d="M11.54 12.8976L0 25.1164L23.08 51.0814L78.0646 72.1249L115.57 68.5611L144.589 60.7546L140.347 0L11.54 12.8976" sodipodi:nodetypes="cccccccc"/><path id="shape15" transform="translate(105.896313019386, 267.116661366207)" fill="#bbb69e" fill-rule="evenodd" stroke="#bbb69e" stroke-width="0.96" stroke-linecap="square" stroke-linejoin="bevel" d="M179.209 0L150.02 12.8976L134.104 56.3423L95.3746 73.3128L36.6564 86.8893L0 63.4699L2.71529 71.6158L55.324 132.37L99.1081 140.177L167.669 125.243L204.665 109.969L183.282 52.6087L179.209 0" sodipodi:nodetypes="ccccccccccccc"/><path id="shape16" transform="translate(119.13335368173, 210.095572447267)" fill="#fffae4" fill-rule="evenodd" stroke="#fffae4" stroke-width="0.96" stroke-linecap="square" stroke-linejoin="bevel" d="M0 0L10.8612 9.33381L36.1473 19.8556L60.9243 24.2679L49.8935 24.4376L24.0982 17.1403L1.52735 3.73352" sodipodi:nodetypes="ccccccc"/><path id="shape17" transform="translate(165.802402488675, 237.248473571308)" fill="#fffae4" fill-rule="evenodd" stroke="#fffae4" stroke-width="0.96" stroke-linecap="square" stroke-linejoin="bevel" d="M8.14587 0.169706L10.8612 0L2.71529 50.4026L2.37588 71.2764L0 71.4461" sodipodi:nodetypes="ccccc"/><path id="shape18" transform="translate(164.614461186183, 310.221891802415)" fill="#fffae4" fill-rule="evenodd" stroke="#fffae4" stroke-width="0.96" stroke-linecap="square" stroke-linejoin="bevel" d="M0.509117 0L3.56382 0.509117L1.69706 32.4138L4.24264 44.972L0 37.8444" sodipodi:nodetypes="ccccc"/><path id="shape19" transform="translate(101.040005137973, 257.160013076813)" fill="#fffae4" fill-rule="evenodd" stroke="#fffae4" stroke-width="0.96" stroke-linecap="square" stroke-linejoin="bevel" d="M0.84 0L0 2.76L15.96 43.92L16.32 40.56" sodipodi:nodetypes="cccc"/><path id="shape20" transform="translate(118.793939484459, 296.815143083313)" fill="#fffae4" fill-rule="evenodd" stroke="#fffae4" stroke-width="0.96" stroke-linecap="square" stroke-linejoin="bevel" d="M0 0L0.678823 2.20617L47.857 11.8794L48.5358 8.48528" sodipodi:nodetypes="cccc"/><path id="shape21" transform="translate(107.16910791986, 298.93647442729)" fill="#fffae4" fill-rule="evenodd" stroke="#fffae4" stroke-width="0.96" stroke-linecap="square" stroke-linejoin="bevel" d="M9.58837 0.848528L0 23.8436L0.509117 25.6256L10.6915 0L9.58837 0.848528" sodipodi:nodetypes="ccccc"/><path id="shape22" transform="translate(170.160012651989, 306.480022787855)" fill="#fffae4" fill-rule="evenodd" stroke="#fffae4" stroke-width="0.96" stroke-linecap="square" stroke-linejoin="bevel" d="M0.36 0L0 2.76L29.4 5.76L60.84 6.24L62.28 4.44L19.92 3.6L1.08 0.48L0.36 0" sodipodi:nodetypes="cccccccc"/><path id="shape23" transform="translate(171.720002649753, 235.296859564095)" fill="#bbb69e" fill-rule="evenodd" stroke="#bbb69e" stroke-width="0.96" stroke-linecap="square" stroke-linejoin="bevel" d="M7.06488 0L6.21635 0.933381L5.28 2.30314L0 38.5431L6.96 2.54314L7.06488 0" sodipodi:nodetypes="cccccc"/><path id="shape24" transform="translate(180.960003254745, 237.480004271313)" fill="#bbb69e" fill-rule="evenodd" stroke="#bbb69e" stroke-width="0.96" stroke-linecap="square" stroke-linejoin="bevel" d="M10.62 0.3L29.7 0L28.86 1.8L5.1 1.74L0 0L10.62 0.3" sodipodi:nodetypes="cccccc"/><path id="shape25" transform="translate(168.840008134766, 309.960014933974)" fill="#bbb69e" fill-rule="evenodd" stroke="#bbb69e" stroke-width="0.96" stroke-linecap="square" stroke-linejoin="bevel" d="M1.68 0.12L24.36 2.04L40.56 2.88L62.4 3L62.52 3.96L20.88 2.88L0 1.44L0.6 0L1.68 0.12" sodipodi:nodetypes="ccccccccc"/><path id="shape26" transform="translate(171.911808197616, 366.733877112585)" fill="#bbb69e" fill-rule="evenodd" stroke="#bbb69e" stroke-width="0.96" stroke-linecap="square" stroke-linejoin="bevel" d="M0.848528 0L20.3647 12.0491L52.2693 23.08L51.9299 23.9285L19.5161 13.9159L0 2.03647L0.848528 0" sodipodi:nodetypes="ccccccc"/><path id="shape27" transform="translate(171.402691292786, 366.903582747528)" fill="#bbb69e" fill-rule="evenodd" stroke="#bbb69e" stroke-width="0.96" stroke-linecap="square" stroke-linejoin="bevel" d="M0 0L0.509117 2.885L30.547 18.1585L52.6087 23.5891L52.439 22.4011L27.1529 15.4432L0 0" sodipodi:nodetypes="ccccccc"/><path id="shape28" transform="translate(170.893574387956, 364.018586953491)" fill="#bbb69e" fill-rule="evenodd" stroke="#bbb69e" stroke-width="0.96" stroke-linecap="square" stroke-linejoin="bevel" d="M1.52735 3.56382L0 5.26087L19.007 11.7097L8.65499 0L0.339411 4.24264L1.52735 3.56382" sodipodi:nodetypes="cccccc"/><path id="shape29" transform="translate(171.48001047132, 365.280022305598)" fill="#a49f89" fill-rule="evenodd" stroke="#a49f89" stroke-width="0.96" stroke-linecap="square" stroke-linejoin="bevel" d="M0.6 2.64L14.28 12.12L41.4 21.84L51.6 24.84L52.92 23.76L31.08 16.8L8.28 7.32L0 0L0.6 2.64" sodipodi:nodetypes="ccccccccc"/><path id="shape30" transform="translate(143.400006485662, 367.08001660221)" fill="#a49f89" fill-rule="evenodd" stroke="#a49f89" stroke-width="0.96" stroke-linecap="square" stroke-linejoin="bevel" d="M1.32 11.16L28.56 0L28.8 0.96L9.12 9.24L0 13.2L1.32 11.16" sodipodi:nodetypes="cccccc"/><path id="shape31" transform="translate(117.775704707443, 212.132032974502)" fill="#bbb69e" fill-rule="evenodd" stroke="#bbb69e" stroke-width="0.96" stroke-linecap="square" stroke-linejoin="bevel" d="M27.7469 16.4614L51.7602 23.08L61.1789 22.8254L59.3121 24.8619L55.6634 25.2861L28.0863 17.9039L2.37588 3.13955L0 0.0848528L1.35765 0L7.29734 4.83661L27.7469 16.4614" sodipodi:nodetypes="ccccccccccc"/><path id="shape32" transform="translate(168.77225431539, 277.977830637112)" fill="#bbb69e" fill-rule="evenodd" stroke="#bbb69e" stroke-width="0.96" stroke-linecap="square" stroke-linejoin="bevel" d="M1.27279 4.07294L0 32.5835L1.52735 30.6319L1.78191 17.2251L1.95161 0L1.27279 4.07294" sodipodi:nodetypes="cccccc"/><path id="shape33" transform="translate(107.423658370337, 299.784980270457)" fill="#bbb69e" fill-rule="evenodd" stroke="#bbb69e" stroke-width="0.96" stroke-linecap="square" stroke-linejoin="bevel" d="M11.1157 0L0 26.7286L0.59397 27.068L11.1157 0" sodipodi:nodetypes="cccc"/><path id="shape34" transform="translate(102.240003486852, 255.720008721223)" fill="#bbb69e" fill-rule="evenodd" stroke="#bbb69e" stroke-width="0.96" stroke-linecap="square" stroke-linejoin="bevel" d="M0 1.56L15.6 43.92L16.2 42.72L0.36 0L0 1.56" sodipodi:nodetypes="ccccc"/><path id="shape35" transform="translate(119.133351686375, 299.700141136949)" fill="#bbb69e" fill-rule="evenodd" stroke="#bbb69e" stroke-width="0.96" stroke-linecap="square" stroke-linejoin="bevel" d="M0 0L49.2146 9.67322" sodipodi:nodetypes="cc"/><path id="shape36" transform="translate(231.48000245294, 300.120003180302)" fill="#bbb69e" fill-rule="evenodd" stroke="#bbb69e" stroke-width="0.96" stroke-linecap="square" stroke-linejoin="bevel" d="M0 13.2L5.16 0.12L8.52 0L0 13.2" sodipodi:nodetypes="cccc"/><path id="shape37" transform="translate(232.560002464384, 313.440003321451)" fill="#bbb69e" fill-rule="evenodd" stroke="#bbb69e" stroke-width="0.96" stroke-linecap="square" stroke-linejoin="bevel" d="M0 0L18 25.08" sodipodi:nodetypes="cc"/><path id="shape38" transform="translate(170.214739808373, 359.775920631856)" fill="#a49f89" fill-rule="evenodd" stroke="#a49f89" stroke-width="0.96" stroke-linecap="square" stroke-linejoin="bevel" d="M0 0L1.52735 7.29734" sodipodi:nodetypes="cc"/><path id="shape39" transform="translate(240, 323.160020428443)" fill="#a49f89" fill-rule="evenodd" stroke="#a49f89" stroke-width="0.96" stroke-linecap="square" stroke-linejoin="bevel" d="M0 0L12.96 14.88" sodipodi:nodetypes="cc"/><path id="shape40" transform="translate(287.76000010504, 157.680007253904)" fill="#be7152" fill-rule="evenodd" stroke="#be7152" stroke-width="0.96" stroke-linecap="square" stroke-linejoin="bevel" d="M3.60001 0L22.32 17.04L47.52 57.36L59.52 92.64L58.8 146.16L44.88 196.32L27.36 218.16L8.4 165.36L0 10.56L3.60001 0" sodipodi:nodetypes="cccccccccc"/><path id="shape41" transform="translate(266.607546119958, 147.983310131511)" fill="#d5d6da" fill-rule="evenodd" stroke="#d5d6da" stroke-width="0.96" stroke-linecap="square" stroke-linejoin="bevel" d="M0 24.0982L25.1164 0L29.0197 4.41235L28.5105 14.0856L24.777 27.3226L28.6803 49.2146L40.5596 78.404L45.9902 105.048L39.8808 139.498L38.8626 172.421L50.5723 202.798L47.5176 215.356L19.6859 187.016L13.5765 157.996L17.8191 117.097L0 24.0982" sodipodi:nodetypes="cccccccccccccccc"/><path id="shape42" transform="translate(265.7590225659, 152.735070440172)" fill="#b4b4b4" fill-rule="evenodd" stroke="#b4b4b4" stroke-width="0.96" stroke-linecap="square" stroke-linejoin="bevel" d="M20.3647 0L25.6256 7.97616L19.1767 47.6873L3.73352 38.1838L0 15.6129L20.3647 0" sodipodi:nodetypes="cccccc"/><path id="shape43" transform="translate(281.520010873028, 240)" fill="#b4b4b4" fill-rule="evenodd" stroke="#b4b4b4" stroke-width="0.96" stroke-linecap="square" stroke-linejoin="bevel" d="M17.8407 0L21.9136 16.9343L15.1254 47.1419L14.1072 77.0101L29.7201 119.437L9.69484 115.024L0 71.64L1.92 30.96L15.96 0L17.8407 0" sodipodi:nodetypes="cccccccccc"/><path id="shape44" transform="translate(305.880015303284, 289.560014486788)" fill="#8d6358" fill-rule="evenodd" stroke="#8d6358" stroke-width="0.96" stroke-linecap="square" stroke-linejoin="bevel" d="M1.32 0L13.68 28.32L31.92 36.96L34.8 37.08L27.48 64.8L16.2 78.6L9.12 70.44L12.36 61.44L0 30.72L1.32 0" sodipodi:nodetypes="cccccccccc"/><path id="shape45" transform="translate(325.440017113484, 230.16001210312)" fill="#cd815d" fill-rule="evenodd" stroke="#cd815d" stroke-width="0.96" stroke-linecap="square" stroke-linejoin="bevel" d="M15.12 0L0 27.84L12 68.16L21.84 72.72L22.8 19.44L15.12 0" sodipodi:nodetypes="cccccc"/><path id="shape46" transform="translate(305.820004259551, 287.141916242051)" fill="#5c4038" fill-rule="evenodd" stroke="#5c4038" stroke-width="0.96" stroke-linecap="square" stroke-linejoin="bevel" d="M0 33.6781L13.86 29.8981L32.573 10.1823L42.0765 0L42.0765 2.54558L31.0457 12.7279L14.2448 31.2258L0.420016 35.3881L0 33.6781" sodipodi:nodetypes="ccccccccc"/><path id="shape47" transform="translate(297.48002055709, 200.640013865048)" fill="#5c4038" fill-rule="evenodd" stroke="#5c4038" stroke-width="0.96" stroke-linecap="square" stroke-linejoin="bevel" d="M0 0L29.4 14.76L44.76 31.56L45 33.36L28.2 15.12L0.36 1.2L0 0" sodipodi:nodetypes="ccccccc"/><path id="shape48" transform="translate(297.833365852766, 202.204248098901)" fill="#5c4038" fill-rule="evenodd" stroke="#5c4038" stroke-width="0.96" stroke-linecap="square" stroke-linejoin="bevel" d="M0 0L0.848528 1.78191L26.8135 15.1038L44.4629 33.6866L45.566 34.1108L44.7174 30.1227" sodipodi:nodetypes="cccccc"/><path id="shape49" transform="translate(298.342482717472, 201.610278423411)" fill="#5c4038" fill-rule="evenodd" stroke="#5c4038" stroke-width="0.96" stroke-linecap="square" stroke-linejoin="bevel" d="M0 0L0.763675 2.63044L19.4313 12.4734L27.4923 17.7342L39.6263 28.256L40.1354 27.2378L28.5105 14.0007L1.78191 0.59397" sodipodi:nodetypes="cccccccc"/><path id="shape50" transform="translate(305.979236469933, 288.838968647713)" fill="#5c4038" fill-rule="evenodd" stroke="#5c4038" stroke-width="0.96" stroke-linecap="square" stroke-linejoin="bevel" d="M0 33.6866L0.848528 35.3836L16.0372 30.2076L38.0989 7.29734L41.9173 1.18794L41.5779 0L14.3401 28.5954L0.424264 32.9229" sodipodi:nodetypes="cccccccc"/><path id="shape51" transform="translate(279.840006565038, 276.720006491843)" fill="#b4b4b4" fill-rule="evenodd" stroke="#b4b4b4" stroke-width="0.96" stroke-linecap="square" stroke-linejoin="bevel" d="M2.88 0L0 29.16L5.52 56.28L8.52 54.72L4.68 21.12L2.88 0" sodipodi:nodetypes="cccccc"/><path id="shape52" transform="translate(223.200007361546, 332.160010955247)" fill="#9cdae2" fill-rule="evenodd" stroke="#9cdae2" stroke-width="0.96" stroke-linecap="square" stroke-linejoin="bevel" d="M31.92 4.32L5.04 37.68L0 57.36L16.8 90.24L26.4 135.36L45.12 129.84L68.64 142.32L85.44 131.52L105.36 134.88L106.56 125.52L99.36 111.6L97.92 36.24L69.6 0L31.92 4.32" sodipodi:nodetypes="cccccccccccccc"/><path id="shape53" transform="translate(190.800006292934, 183.36000604755)" fill="#9cdae2" fill-rule="evenodd" stroke="#9cdae2" stroke-width="0.96" stroke-linecap="square" stroke-linejoin="bevel" d="M69.12 0L97.2 4.08L117.36 39.12L111.12 68.16L79.44 105.84L52.8 120L11.28 107.52L0 108L14.88 82.32L29.52 28.8L69.12 0" sodipodi:nodetypes="ccccccccccc"/><path id="shape54" transform="translate(256.934328814387, 182.77296706281)" fill="#99cbdb" fill-rule="evenodd" stroke="#99cbdb" stroke-width="0.96" stroke-linecap="square" stroke-linejoin="bevel" d="M0 2.71529L27.662 26.8135L23.08 73.822L8.48528 109.46L14.2553 106.236L45.8205 69.0702L51.7602 39.5414L31.0561 3.56382L2.71529 0L0 2.71529" sodipodi:nodetypes="cccccccccc"/><path id="shape55" transform="translate(237.360001361222, 405.600002326053)" fill="#99cbdb" fill-rule="evenodd" stroke="#99cbdb" stroke-width="0.96" stroke-linecap="square" stroke-linejoin="bevel" d="M0 12.48L53.52 20.64L79.44 6.72L84.48 0L85.44 37.68L93.36 54L91.68 62.4L70.8 58.56L54.24 68.64L30.72 56.64L11.04 62.88L2.64 16.38L0 12.48" sodipodi:nodetypes="ccccccccccccc"/><path id="shape56" transform="translate(226.560008385174, 210.120007776716)" fill="#b7ecec" fill-rule="evenodd" stroke="#b7ecec" stroke-width="0.96" stroke-linecap="square" stroke-linejoin="bevel" d="M13.44 0L0 10.68L0.36 27.6L15.84 29.88L13.44 0" sodipodi:nodetypes="ccccc"/><path id="shape57" transform="translate(258.360001379027, 395.160002109214)" fill="#b7ecec" fill-rule="evenodd" stroke="#b7ecec" stroke-width="0.96" stroke-linecap="square" stroke-linejoin="bevel" d="M7.08 0L0 6.72L6 13.2L31.2 11.76L7.08 0" sodipodi:nodetypes="ccccc"/><path id="shape58" transform="translate(90.720002651712, 3.60000010522667)" fill="#9fd9de" fill-rule="evenodd" stroke="#9fd9de" stroke-width="0.96" stroke-linecap="square" stroke-linejoin="bevel" d="M27.12 36.48L66.48 9.36L118.8 0L191.52 33.12L215.28 110.64L198.48 152.4L152.88 187.2L80.4 189.84L14.64 149.04L0 115.2L12.48 92.16L21.6 79.92L24.48 48.96L22.8 41.76L27.12 36.48" sodipodi:nodetypes="ccccccccccccccc"/><path id="shape59" transform="translate(102.840006526039, 51.1200032439818)" fill="#ffffff" fill-rule="evenodd" stroke="#ffffff" stroke-width="0.96" stroke-linecap="square" stroke-linejoin="bevel" d="M18.84 0L16.2 28.44L7.2 54.12L1.56 50.64L0 36.84L4.56 16.68L18.84 0" sodipodi:nodetypes="ccccccc"/><path id="shape60" transform="translate(102.332491371912, 60.4800038379503)" fill="#cc6e90" fill-rule="evenodd" stroke="#cc6e90" stroke-width="0.96" stroke-linecap="square" stroke-linejoin="bevel" d="M11.1875 0L12.6275 9.24L17.6675 12.84L17.5475 17.16L7.94752 45.6L0.867515 41.28L0 22.6758L4.32749 7.23254L11.1875 0" sodipodi:nodetypes="ccccccccc"/><path id="shape61" transform="translate(111.666300701025, 69.8338643441823)" fill="#000000" fill-rule="evenodd" stroke="#000000" stroke-width="0.96" stroke-linecap="square" stroke-linejoin="bevel" d="M3.90323 0L0 10.0126L4.58205 20.1101L8.65499 8.06102L8.65499 2.80014L3.90323 0" sodipodi:nodetypes="cccccc"/><path id="shape62" transform="translate(201.101175218386, 47.0084603675045)" fill="#ffffff" fill-rule="evenodd" stroke="#ffffff" stroke-width="0.96" stroke-linecap="square" stroke-linejoin="bevel" d="M33.2623 0L45.8205 17.4797L45.6508 49.0449L40.8991 66.0155L1.86676 61.4334L0 32.9229L14.2553 5.60029L33.2623 0" sodipodi:nodetypes="cccccccc"/><path id="shape63" transform="translate(202.2600000226, 79.74000000891)" fill="#cc6e90" fill-rule="evenodd" stroke="#cc6e90" stroke-width="0.96" stroke-linecap="square" stroke-linejoin="bevel" d="M0 19.5L0.6 29.16L30.24 32.28L38.34 16.2L40.26 0L28.32 3.54L24.06 17.34L16.8 21.3L11.76 19.98L9.3 12.36L0 19.5" sodipodi:nodetypes="ccccccccccc"/><path id="shape64" transform="translate(200.520000022406, 46.3200000051757)" fill="#73344b" fill-rule="evenodd" stroke="#73344b" stroke-width="0.96" stroke-linecap="square" stroke-linejoin="bevel" d="M1.68 52.56L11.88 44.7L29.76 36.72L42.36 33.12L42.12 11.34L34.08 0L30.54 1.32L38.04 7.26L37.98 18.18L27.84 25.62L18.66 19.8L16.74 9.18L21.72 3.96L14.58 5.64L0 33.24L1.68 52.56" sodipodi:nodetypes="cccccccccccccccc"/><path id="shape65" transform="translate(210.519831187356, 63.3850519536297)" fill="#000000" fill-rule="evenodd" stroke="#000000" stroke-width="0.96" stroke-linecap="square" stroke-linejoin="bevel" d="M7.72161 0L0 13.9159L1.18794 29.1045L3.90323 36.317L9.50352 37.5049L16.2069 33.1775L20.6192 17.5645L19.601 6.61852L17.31 7.89131L8.9944 2.63044L7.72161 0" sodipodi:nodetypes="ccccccccccc"/><path id="shape66" transform="translate(208.319999018456, 35.8799998309437)" fill="#497377" fill-rule="evenodd" stroke="#497377" stroke-width="0.96" stroke-linecap="square" stroke-linejoin="bevel" d="M12.96 0L4.2 4.08L0 9.96" sodipodi:nodetypes="ccc"/><path id="shape67" transform="translate(127.919999397278, 41.6399998038042)" fill="#497377" fill-rule="evenodd" stroke="#497377" stroke-width="0.96" stroke-linecap="square" stroke-linejoin="bevel" d="M3.84 0L0 4.92L0 10.08" sodipodi:nodetypes="ccc"/><path id="shape68" transform="translate(129.315692125606, 115.314977426968)" fill="#497377" fill-rule="evenodd" stroke="#497377" stroke-width="0.96" stroke-linecap="square" stroke-linejoin="bevel" d="M0 3.90323L5.00632 0" sodipodi:nodetypes="cc"/><path id="shape69" transform="translate(106.490284526008, 111.157189425554)" fill="#497377" fill-rule="evenodd" stroke="#497377" stroke-width="0.96" stroke-linecap="square" stroke-linejoin="bevel" d="M0.0848528 4.83661L0 0" sodipodi:nodetypes="cc"/><path id="shape70" transform="translate(91.8955972022528, 122.951727004676)" fill="#497377" fill-rule="evenodd" stroke="#497377" stroke-width="0.96" stroke-linecap="square" stroke-linejoin="bevel" d="M0 0L11.2006 0.933381L24.9467 14.3401L55.8332 2.96985L132.286 12.3885L153.414 11.9642L165.633 5.43058L166.481 7.21249L153.244 13.6613L119.218 13.1522L56.7665 5.00632L26.2195 16.3766L19.4313 12.4734L10.2672 1.78191L0.763675 2.29103L0 0" sodipodi:nodetypes="cccccccccccccccc"/><path id="shape71" transform="translate(216.544382950574, 24.777021873655)" fill="#71a9ae" fill-rule="evenodd" stroke="#71a9ae" stroke-width="0.96" stroke-linecap="square" stroke-linejoin="bevel" d="M0 166.651L66.5246 112.685L64.4881 47.857L41.7476 0L67.5428 13.9159L89.2652 87.5681L73.3128 133.389L23.4556 168.009L0 166.651" sodipodi:nodetypes="ccccccccc"/><path id="shape72" transform="translate(102.900004210872, 99.0600040537319)" fill="#71a9ae" fill-rule="evenodd" stroke="#71a9ae" stroke-width="0.96" stroke-linecap="square" stroke-linejoin="bevel" d="M0 3.12L7.44 7.62L10.32 0L9.12 9.42L7.08 9.84L0 3.12" sodipodi:nodetypes="cccccc"/><path id="shape73" transform="translate(111.960001035493, 52.0800004816761)" fill="#71a9ae" fill-rule="evenodd" stroke="#71a9ae" stroke-width="0.96" stroke-linecap="square" stroke-linejoin="bevel" d="M9.96 0L8.76 26.4L1.44 46.56L0 51.84L10.32 26.64L9.96 0" sodipodi:nodetypes="cccccc"/>
</svg>
