<?xml version="1.0" standalone="no"?>
<!DOCTYPE svg PUBLIC "-//W3C//DTD SVG 20010904//EN" "http://www.w3.org/TR/2001/REC-SVG-20010904/DTD/svg10.dtd">
<!-- Created using Krita: https://krita.org -->
<svg xmlns="http://www.w3.org/2000/svg" 
    xmlns:xlink="http://www.w3.org/1999/xlink"
    xmlns:krita="http://krita.org/namespaces/svg/krita"
    xmlns:sodipodi="http://sodipodi.sourceforge.net/DTD/sodipodi-0.dtd"
    width="474pt"
    height="434pt"
    viewBox="0 0 474 434">
<defs/>
<path id="shape0" transform="translate(260.215306333789, 125.157905492067)" fill="#aee1ee" fill-rule="evenodd" stroke="#aee1ee" stroke-width="2" stroke-linecap="square" stroke-linejoin="bevel" d="M0 245.72L65.4074 198.343L67.5287 102.53L73.1856 60.8112L86.9741 23.3345L134.35 0L169.352 25.1023L165.817 58.6899L154.503 62.9325L168.291 91.8421L168.999 108.894L184.201 127.279L181.373 174.655L144.603 214.253L98.6414 236.174L36.7696 250.316L0 245.72"/><path id="shape1" transform="translate(320.672938647753, 270.468355088789)" fill="#9ed5e4" fill-rule="evenodd" stroke="#9ed5e4" stroke-width="2" stroke-linecap="square" stroke-linejoin="bevel" d="M12.7279 33.234L35.3553 3.53553L60.4576 2.12132L67.8823 0L36.7696 25.1023L73.8927 18.3848L46.669 33.234L37.1231 44.9013L62.9325 33.9411L26.8701 85.5599L0 76.7211L12.7279 33.234"/><path id="shape2" transform="translate(337.375002959722, 123.375001082344)" fill="#e2ecf0" fill-rule="evenodd" stroke="#e2ecf0" stroke-width="2" stroke-linecap="square" stroke-linejoin="bevel" d="M9.375 25L0 53.5L3.25 57.625L23.25 35.5L17.875 54.375L35.625 28.875L52.125 14.625L57.5 0L9.375 25"/><path id="shape3" transform="translate(382.000012329193, 155.125005006717)" fill="#9ed5e4" fill-rule="evenodd" stroke="#9ed5e4" stroke-width="2" stroke-linecap="square" stroke-linejoin="bevel" d="M8.375 0L0 8.25L0.75 23.5L15.75 35L1.5 17.5L3.375 8.125L10 1.75L16.875 2.375L8.375 0"/><path id="shape4" transform="translate(390.676503526961, 230.870368147607)" fill="#9ed5e4" fill-rule="evenodd" stroke="#9ed5e4" stroke-width="2" stroke-linecap="square" stroke-linejoin="bevel" d="M9.54594 0L0 13.7886L4.41942 31.3779L19.357 37.3883L5.21491 28.2843L3.18198 13.435L9.54594 0"/><path id="shape5" transform="translate(374.875014015089, 150.125005612578)" fill="#6ba2b0" fill-rule="evenodd" stroke="#6ba2b0" stroke-width="2" stroke-linecap="square" stroke-linejoin="bevel" d="M40.75 38.25L22.375 39.875L5.75 26.5L5.5 13.125L13.875 5L21.625 4.125L26.125 9.625L25.625 21.125L28 8.125L20.125 0L6.375 5.75L0 28.875L23.25 41.5L42.75 42.25L40.75 38.25"/><path id="shape6" transform="translate(386.500021558186, 223.500012466377)" fill="#6ba2b0" fill-rule="evenodd" stroke="#6ba2b0" stroke-width="2" stroke-linecap="square" stroke-linejoin="bevel" d="M42.75 6.375L16.25 0L0 25.125L11.125 47.5L27.875 48.75L38.875 31.75L23.5 18.25L17.5 29.625L24.75 22.875L36.25 33L27.25 44L10.625 43.625L6.875 36.5L3.75 21.625L16.875 1.625L43.625 10.875L42.75 6.375"/><path id="shape7" transform="translate(357.796021534722, 335.345381843561)" fill="#6ba2b0" fill-rule="evenodd" stroke="#6ba2b0" stroke-width="2" stroke-linecap="square" stroke-linejoin="bevel" d="M2.2981 5.48008L14.4957 0L0 8.66206L2.2981 5.48008"/><path id="shape8" transform="translate(374.059477059028, 287.969228794497)" fill="#6ba2b0" fill-rule="evenodd" stroke="#6ba2b0" stroke-width="2" stroke-linecap="square" stroke-linejoin="bevel" d="M0 30.9359L18.5616 13.9654L25.2791 0L11.3137 29.1682L1.06066 33.234L1.06066 29.6985L0 30.9359"/><path id="shape9" transform="translate(394.919126535855, 190.211718958182)" fill="#6ba2b0" fill-rule="evenodd" stroke="#6ba2b0" stroke-width="2" stroke-linecap="square" stroke-linejoin="bevel" d="M1.06066 2.82843L6.18718 15.026L4.24264 23.6881L8.13173 11.6673L2.12132 0L0 1.41421L1.06066 2.82843"/><path id="shape10" transform="translate(366.104525987357, 186.145855077106)" fill="#6ba2b0" fill-rule="evenodd" stroke="#6ba2b0" stroke-width="2" stroke-linecap="square" stroke-linejoin="bevel" d="M19.799 0L23.8649 20.3293L18.0312 56.5685L0 85.5599L19.799 54.8008L25.9862 16.7938L19.799 0"/><path id="shape11" transform="translate(346.924259027742, 342.23967667654)" fill="#4b737d" fill-rule="evenodd" stroke="#4b737d" stroke-width="2" stroke-linecap="square" stroke-linejoin="bevel" d="M10.695 0L0 0.353553L0.0883883 2.91682L10.695 0.972272L10.695 0"/><path id="shape12" transform="translate(337.201540940341, 319.347094998021)" fill="#4b737d" fill-rule="evenodd" stroke="#4b737d" stroke-width="2" stroke-linecap="square" stroke-linejoin="bevel" d="M35.9741 0L0 14.4957L5.39169 17.5009L37.565 2.56326L35.1786 0.707107L35.9741 0"/><path id="shape13" transform="translate(355.625013537885, 271.750010344942)" fill="#4b737d" fill-rule="evenodd" stroke="#4b737d" stroke-width="2" stroke-linecap="square" stroke-linejoin="bevel" d="M9.625 0.125L0 10.625L8.5 3.5L11.125 0"/><path id="shape14" transform="translate(357.354085758515, 185.261974709336)" fill="#aee1ee" fill-rule="evenodd" stroke="#aee1ee" stroke-width="1" stroke-linecap="square" stroke-linejoin="bevel" d="M26.5165 0L33.8527 4.77297L36.6812 7.95495L49.4091 8.48528L57.364 25.1023L37.0347 43.3103L28.2843 60.546L12.1976 86.9741L0 87.7696L22.2739 50.8233L28.5494 29.2565L26.5165 0"/><path id="shape15" transform="translate(351.375003191075, 272.500002474758)" fill="#9ed5e4" fill-rule="evenodd" stroke="#9ed5e4" stroke-width="1" stroke-linecap="square" stroke-linejoin="bevel" d="M5.125 0.625L24.875 0L0 17.75L0.5 8.375L5.125 0.625"/><path id="shape16" transform="translate(379.750011403488, 219.12500658009)" fill="#e2ecf0" fill-rule="evenodd" stroke="#e2ecf0" stroke-width="1" stroke-linecap="square" stroke-linejoin="bevel" d="M23.25 3.5L30 4.375L23.125 0L0 29.375L14.25 47.375L5.625 29L23.25 3.5"/><path id="shape17" transform="translate(402.124999338794, 241.249999603318)" fill="#e2ecf0" fill-rule="evenodd" stroke="#e2ecf0" stroke-width="1" stroke-linecap="square" stroke-linejoin="bevel" d="M6.75 0L0 11.25"/><path id="shape18" transform="translate(402.750000366926, 241.000000219563)" fill="#e2ecf0" fill-rule="evenodd" stroke="#e2ecf0" stroke-width="1" stroke-linecap="square" stroke-linejoin="bevel" d="M7.125 0L0 11.75L1.625 4.75L7.125 0"/><path id="shape19" transform="translate(380.069902709855, 148.669203804181)" fill="#e2ecf0" fill-rule="evenodd" stroke="#e2ecf0" stroke-width="1" stroke-linecap="square" stroke-linejoin="bevel" d="M14.0537 0L0 5.48008"/><path id="shape20" transform="translate(373.705941548202, 154.767999917432)" fill="#e2ecf0" fill-rule="evenodd" stroke="#e2ecf0" stroke-width="1" stroke-linecap="square" stroke-linejoin="bevel" d="M6.01041 0L0 24.2184"/><path id="shape21" transform="translate(373.705941548202, 154.060893121692)" fill="#e2ecf0" fill-rule="evenodd" stroke="#e2ecf0" stroke-width="1" stroke-linecap="square" stroke-linejoin="bevel" d="M0 26.0746L0.353553 15.2912L5.48008 0"/><path id="shape22" transform="translate(379.362795914116, 148.492427105246)" fill="#e2ecf0" fill-rule="evenodd" stroke="#e2ecf0" stroke-width="1" stroke-linecap="square" stroke-linejoin="bevel" d="M0 5.03814L7.15946 1.06066L15.026 0"/><path id="shape23" transform="translate(398.375016034694, 160.875006475259)" fill="#e2ecf0" fill-rule="evenodd" stroke="#e2ecf0" stroke-width="1" stroke-linecap="square" stroke-linejoin="bevel" d="M0.5 0L0 9.625"/><path id="shape24" transform="translate(106.000005244142, 308.250015250063)" fill="#9cb6de" fill-rule="evenodd" stroke="#9cb6de" stroke-width="2" stroke-linecap="square" stroke-linejoin="bevel" d="M46.5 0L27.75 18.25L9.75 49.75L13.25 79L0 88.5L20.5 90L24.5 104.75L45.5 94.25L55.25 105.25L101.75 44L46.5 0"/><path id="shape25" transform="translate(45.5000022510231, 187.750009288562)" fill="#9cb6de" fill-rule="evenodd" stroke="#9cb6de" stroke-width="2" stroke-linecap="square" stroke-linejoin="bevel" d="M99.5 0L42.25 11.25L13 22.25L0 50.75L18.5 64.5L68.25 72.75L125 69L99.5 0"/><path id="shape26" transform="translate(88.5000029768236, 6.50000021863676)" fill="#aee1ee" fill-rule="evenodd" stroke="#aee1ee" stroke-width="2" stroke-linecap="square" stroke-linejoin="bevel" d="M24.5 0L44.5 38.25L51 81.75L51.5 118L26.25 132.75L16.75 124L0 104.5L2.5 89L17.25 94L4.75 61.25L7.25 30.5L10.5 29.75L11 47.75L14.75 22.25L23.5 1.5L24.5 0"/><path id="shape27" transform="translate(92.1006556309105, 5.48007739838431)" fill="#e6eff2" fill-rule="evenodd" stroke="#e6eff2" stroke-width="2" stroke-linecap="square" stroke-linejoin="bevel" d="M42.9567 49.6742L41.3657 36.416L19.9758 0L7.77817 38.8909L7.42462 30.2288L2.12132 30.2288L0.353553 39.9515L1.06066 55.6847L0 63.9932L5.12652 73.8927L5.65685 44.5477L13.2583 57.0989L23.1577 18.3848L42.9567 49.6742"/><path id="shape28" transform="translate(94.3103674873983, 61.6066786679631)" fill="#e6eff2" fill-rule="evenodd" stroke="#e6eff2" stroke-width="2" stroke-linecap="square" stroke-linejoin="bevel" d="M0 12.8163L11.1369 39.7748L18.4732 43.3103L12.9931 31.5546L2.91682 0L0 12.8163"/><path id="shape29" transform="translate(113.490637240949, 30.0520378986937)" fill="#628b96" fill-rule="evenodd" stroke="#628b96" stroke-width="2" stroke-linecap="square" stroke-linejoin="bevel" d="M0 0L13.0815 47.3762L14.8492 100.056L18.0312 98.9949L14.8492 41.7193L0 0"/><path id="shape30" transform="translate(105.712466614507, 333.224079545728)" fill="#3c5071" fill-rule="evenodd" stroke="#3c5071" stroke-width="2" stroke-linecap="square" stroke-linejoin="bevel" d="M14.3189 15.7331L32.8805 31.8198L62.7557 35.7089L79.7263 23.1577L79.7263 0L102.354 19.2687L55.3311 81.4941L46.1387 70.1803L24.572 80.787L20.1525 66.1145L0 64.3467L12.3744 52.8562L8.83884 22.6274L14.3189 15.7331"/><path id="shape31" transform="translate(133.64318521834, 324.738797944564)" fill="#d0ddf2" fill-rule="evenodd" stroke="#d0ddf2" stroke-width="2" stroke-linecap="square" stroke-linejoin="bevel" d="M12.3744 0L0.176777 7.6014L0 18.208L12.0208 26.8701L12.3744 0"/><path id="shape32" transform="translate(124.804350217127, 396.156584754365)" fill="#9cb6de" fill-rule="evenodd" stroke="#9cb6de" stroke-width="2" stroke-linecap="square" stroke-linejoin="bevel" d="M1.06066 3.71231L4.77297 0L6.18718 18.7383L0 4.77297L1.06066 3.71231"/><path id="shape33" transform="translate(44.750002785673, 204.000012698934)" fill="#3c5071" fill-rule="evenodd" stroke="#3c5071" stroke-width="2" stroke-linecap="square" stroke-linejoin="bevel" d="M5 25.25L38.75 33.75L84.75 30L96.5 13L107.25 0L127.25 54.25L62.25 57.75L19 48.5L0 35.25L5 25.25"/><path id="shape34" transform="translate(81.0521158846463, 200.287998467403)" fill="#d0ddf2" fill-rule="evenodd" stroke="#d0ddf2" stroke-width="2" stroke-linecap="square" stroke-linejoin="bevel" d="M0 5.56847L15.3796 0.441942L30.2288 0L14.4957 7.51301L0 5.56847"/><path id="shape35" transform="translate(52.3259008548959, 230.87035985302)" fill="#ffffff" fill-rule="evenodd" stroke="#ffffff" stroke-width="2" stroke-linecap="square" stroke-linejoin="bevel" d="M1.94454 10.253L22.4506 0L27.0468 10.0763L18.5616 20.1525L0 12.7279L1.94454 10.253"/><path id="shape36" transform="translate(46.845823400498, 210.18748687997)" fill="#ffffff" fill-rule="evenodd" stroke="#ffffff" stroke-width="2" stroke-linecap="square" stroke-linejoin="bevel" d="M2.47487 3.0052L0.176777 8.66206L0 22.6274L6.89429 25.9862L18.0312 6.81251L9.89949 0L2.47487 3.0052"/><path id="shape37" transform="translate(33.5875714946967, 220.970865096689)" fill="#ffffff" fill-rule="evenodd" stroke="#ffffff" stroke-width="2" stroke-linecap="square" stroke-linejoin="bevel" d="M8.83883 0.176777L0 12.3744L12.3744 19.4454L10.6066 0L8.83883 0.176777"/><path id="shape38" transform="translate(135.057399922037, 176.423148065698)" fill="#ffeece" fill-rule="evenodd" stroke="#ffeece" stroke-width="2" stroke-linecap="square" stroke-linejoin="bevel" d="M22.981 19.4454L0 57.9828L6.36396 126.926L37.1231 171.473L93.6917 195.161L146.018 194.454L186.323 158.038L175.362 83.7922L154.856 2.12132L70.3571 0L22.981 19.4454"/><path id="shape39" transform="translate(160.513242310533, 176.776698579882)" fill="#cec1a8" fill-rule="evenodd" stroke="#cec1a8" stroke-width="2" stroke-linecap="square" stroke-linejoin="bevel" d="M0 150.614L62.9325 158.038L125.511 137.179L127.633 86.9741L119.147 31.1127L100.056 0L128.34 1.41421L149.2 74.5998L162.988 158.038L119.855 195.515L68.2358 194.808L12.7279 172.181L0 150.614"/><path id="shape40" transform="translate(159.099028721894, 176.776698579882)" fill="#cec1a8" fill-rule="evenodd" stroke="#cec1a8" stroke-width="2" stroke-linecap="square" stroke-linejoin="bevel" d="M125.158 46.3155L67.5287 40.2233L0 36.0624L19.799 15.5563L63.9932 0L107.834 0.353553L136.118 26.8701L125.158 46.3155"/><path id="shape41" transform="translate(138.062594678763, 240.062744652702)" fill="#fbf5ea" fill-rule="evenodd" stroke="#fbf5ea" stroke-width="2" stroke-linecap="square" stroke-linejoin="bevel" d="M0 30.2288L6.54074 12.3744L6.01041 26.8701L18.7383 0L16.7938 24.2184L23.6881 22.4506L23.6881 33.0572L19.4454 52.6795L22.4506 70.0036L12.7279 45.9619L12.1976 67.7055L7.95495 53.5633L5.65685 61.3415L2.65165 63.8164L0 30.2288"/><path id="shape42" transform="translate(158.215140217813, 286.201465935909)" fill="#cec1a8" fill-rule="evenodd" stroke="#cec1a8" stroke-width="2" stroke-linecap="square" stroke-linejoin="bevel" d="M125.688 1.41421L96.1665 12.1976L38.1838 18.9151L0 9.54594L0.883883 8.48528L38.1838 17.6777L95.4594 11.4905L127.279 0L125.688 1.41421"/><path id="shape43" transform="translate(190.388498340317, 243.244729541576)" fill="#cec1a8" fill-rule="evenodd" stroke="#cec1a8" stroke-width="2" stroke-linecap="square" stroke-linejoin="bevel" d="M0 1.23744L1.23744 32.8805L14.3189 76.8979L20.8596 88.9187L21.9203 88.9187L13.2583 70.5339L3.0052 32.3501L1.59099 0L0 1.23744"/><path id="shape44" transform="translate(191.625935191183, 209.480381182243)" fill="#cec1a8" fill-rule="evenodd" stroke="#cec1a8" stroke-width="2" stroke-linecap="square" stroke-linejoin="bevel" d="M0 33.234L23.8649 21.0364L45.3741 0L38.1838 7.51962L21.39 24.9255L0 33.234"/><path id="shape45" transform="translate(154.679606358197, 219.203099296187)" fill="#cec1a8" fill-rule="evenodd" stroke="#cec1a8" stroke-width="2" stroke-linecap="square" stroke-linejoin="bevel" d="M32.1734 22.8042L0 0.883883L4.94975 0L35.3553 24.2184L32.1734 22.8042"/><path id="shape46" transform="translate(138.250000908196, 283.062501859502)" fill="#e6decf" fill-rule="evenodd" stroke="#e6decf" stroke-width="2" stroke-linecap="square" stroke-linejoin="bevel" d="M17.625 10.4375L0 0L1.0625 4.6875L18.3125 12.9375L17.625 10.4375"/><path id="shape47" transform="translate(157.375009314981, 294.312517420272)" fill="#e6decf" fill-rule="evenodd" stroke="#e6decf" stroke-width="2" stroke-linecap="square" stroke-linejoin="bevel" d="M0 0L0.125 1.4375"/><path id="shape48" transform="translate(212.220429104265, 333.84279913653)" fill="#a49b89" fill-rule="evenodd" stroke="#a49b89" stroke-width="2" stroke-linecap="square" stroke-linejoin="bevel" d="M0 0L1.85616 5.12652"/><path id="shape49" transform="translate(190.300118226357, 339.234488505693)" fill="#a49b89" fill-rule="evenodd" stroke="#a49b89" stroke-width="2" stroke-linecap="square" stroke-linejoin="bevel" d="M0 17.5893L22.8042 0"/><path id="shape50" transform="translate(214.341749511804, 338.438993352866)" fill="#a49b89" fill-rule="evenodd" stroke="#a49b89" stroke-width="2" stroke-linecap="square" stroke-linejoin="bevel" d="M0 0L24.2184 8.75045L53.9169 14.9376"/><path id="shape51" transform="translate(286.643410989858, 282.135605266613)" fill="#a49b89" fill-rule="evenodd" stroke="#a49b89" stroke-width="2" stroke-linecap="square" stroke-linejoin="bevel" d="M0 3.88909L9.28078 0"/><path id="shape52" transform="translate(202.81250047056, 299.937500695907)" fill="#a49b89" fill-rule="evenodd" stroke="#a49b89" stroke-width="1" stroke-linecap="square" stroke-linejoin="bevel" d="M0 5.3125L49.5625 0"/><path id="shape53" transform="translate(253.851326670325, 287.96922781752)" fill="#a49b89" fill-rule="evenodd" stroke="#a49b89" stroke-width="1" stroke-linecap="square" stroke-linejoin="bevel" d="M0 12.3744L31.9966 0"/><path id="shape54" transform="translate(194.100805490262, 235.996880992259)" fill="#a49b89" fill-rule="evenodd" stroke="#a49b89" stroke-width="1" stroke-linecap="square" stroke-linejoin="bevel" d="M0 6.89429L19.2687 0"/><path id="shape55" transform="translate(214.96045489632, 219.203095453484)" fill="#a49b89" fill-rule="evenodd" stroke="#a49b89" stroke-width="1" stroke-linecap="square" stroke-linejoin="bevel" d="M0 15.9099L15.026 0"/><path id="shape56" transform="translate(213.192687997501, 234.936220852968)" fill="#a49b89" fill-rule="evenodd" stroke="#a49b89" stroke-width="1" stroke-linecap="square" stroke-linejoin="bevel" d="M0 1.06066L1.76777 0"/><path id="shape57" transform="translate(162.281006866174, 297.780344298552)" fill="#a49b89" fill-rule="evenodd" stroke="#a49b89" stroke-width="1" stroke-linecap="square" stroke-linejoin="bevel" d="M0 0L31.7314 8.48528"/><path id="shape58" transform="translate(194.719530569816, 306.088849007386)" fill="#a49b89" fill-rule="evenodd" stroke="#a49b89" stroke-width="1" stroke-linecap="square" stroke-linejoin="bevel" d="M0 0.441942L4.59619 0"/><path id="shape59" transform="translate(161.13196130614, 218.407611841729)" fill="#a49b89" fill-rule="evenodd" stroke="#a49b89" stroke-width="1" stroke-linecap="square" stroke-linejoin="bevel" d="M0 0L29.1682 23.5997"/><path id="shape60" transform="translate(154.50283792835, 220.970878043979)" fill="#fbf5ea" fill-rule="evenodd" stroke="#fbf5ea" stroke-width="1" stroke-linecap="square" stroke-linejoin="bevel" d="M0 0L34.3831 23.2461L34.1179 23.6881"/><path id="shape61" transform="translate(189.327848308081, 245.719616384904)" fill="#fbf5ea" fill-rule="evenodd" stroke="#fbf5ea" stroke-width="1" stroke-linecap="square" stroke-linejoin="bevel" d="M0 0L0.883884 31.2895"/><path id="shape62" transform="translate(190.47689687391, 278.600083037848)" fill="#fbf5ea" fill-rule="evenodd" stroke="#fbf5ea" stroke-width="1" stroke-linecap="square" stroke-linejoin="bevel" d="M0 0L7.77817 24.0416"/><path id="shape63" transform="translate(159.364197245317, 293.537714393621)" fill="#fbf5ea" fill-rule="evenodd" stroke="#fbf5ea" stroke-width="1" stroke-linecap="square" stroke-linejoin="bevel" d="M0 0L38.8025 9.54594"/><path id="shape64" transform="translate(202.144159234632, 297.161636793543)" fill="#fbf5ea" fill-rule="evenodd" stroke="#fbf5ea" stroke-width="1" stroke-linecap="square" stroke-linejoin="bevel" d="M0 4.68458L50.4697 0"/><path id="shape65" transform="translate(252.702296131094, 284.964044325515)" fill="#fbf5ea" fill-rule="evenodd" stroke="#fbf5ea" stroke-width="1" stroke-linecap="square" stroke-linejoin="bevel" d="M0 11.7557L32.7921 0"/><path id="shape66" transform="translate(192.863369646748, 230.6935814748)" fill="#fbf5ea" fill-rule="evenodd" stroke="#fbf5ea" stroke-width="1" stroke-linecap="square" stroke-linejoin="bevel" d="M0 9.72272L19.799 0.176777L20.7713 0"/><path id="shape67" transform="translate(213.634630814019, 218.230824774437)" fill="#fbf5ea" fill-rule="evenodd" stroke="#fbf5ea" stroke-width="1" stroke-linecap="square" stroke-linejoin="bevel" d="M0 12.1976L12.7279 0"/><path id="shape68" transform="translate(199.375001990991, 309.250003088221)" fill="#fbf5ea" fill-rule="evenodd" stroke="#fbf5ea" stroke-width="1" stroke-linecap="square" stroke-linejoin="bevel" d="M0 0L10.5 22.625"/><path id="shape69" transform="translate(199.625001993488, 307.87500307449)" fill="#fbf5ea" fill-rule="evenodd" stroke="#fbf5ea" stroke-width="1" stroke-linecap="square" stroke-linejoin="bevel" d="M0 0L9.875 24.125"/><path id="shape70" transform="translate(198.375001981005, 308.125003076986)" fill="#fbf5ea" fill-rule="evenodd" stroke="#fbf5ea" stroke-width="1" stroke-linecap="square" stroke-linejoin="bevel" d="M0 0L11 24.375"/><path id="shape71" transform="translate(188.875002368773, 246.750003094611)" fill="#fbf5ea" fill-rule="evenodd" stroke="#fbf5ea" stroke-width="1" stroke-linecap="square" stroke-linejoin="bevel" d="M0 0L0 31.875"/><path id="shape72" transform="translate(190.250002386017, 279.875003510048)" fill="#fbf5ea" fill-rule="evenodd" stroke="#fbf5ea" stroke-width="1" stroke-linecap="square" stroke-linejoin="bevel" d="M0 0L7.5 22.125"/><path id="shape73" transform="translate(256.679757681746, 146.371101487938)" fill="#a2948c" fill-rule="evenodd" stroke="#a2948c" stroke-width="2" stroke-linecap="square" stroke-linejoin="bevel" d="M37.8302 97.9343L42.78 125.511L49.4975 154.856L76.014 196.222L83.7922 177.837L86.267 119.147L70.0036 61.5183L34.2947 25.4558L23.6881 23.3345L16.617 0L0 4.94975L7.07107 59.7505L37.8302 97.9343"/><path id="shape74" transform="translate(262.062507332734, 146.062504086955)" fill="#ffffff" fill-rule="evenodd" stroke="#ffffff" stroke-width="1" stroke-linecap="square" stroke-linejoin="bevel" d="M11.5625 0L19.4375 23.375L20.6875 36.125L0 37.5L7.8125 16.5625L6.8125 1.25L11.5625 0"/><path id="shape75" transform="translate(295.375018375103, 245.808005894718)" fill="#ffffff" fill-rule="evenodd" stroke="#ffffff" stroke-width="1" stroke-linecap="square" stroke-linejoin="bevel" d="M18.5804 0L20.9669 31.0243L31.3967 53.6517L43.1524 73.0972L42.3569 78.8424L12.1281 57.0989L3 25.317L0 7.44201L18.5804 0"/><path id="shape76" transform="translate(334.749998763983, 317.874998826291)" fill="#ffffff" fill-rule="evenodd" stroke="#ffffff" stroke-width="1" stroke-linecap="square" stroke-linejoin="bevel" d="M3.1875 0L7.1875 3L6.875 10.375L4.5 9.5L0 4.3125L3.1875 0"/><path id="shape77" transform="translate(334.625021671899, 273.500017713155)" fill="#7b6b61" fill-rule="evenodd" stroke="#7b6b61" stroke-width="1" stroke-linecap="square" stroke-linejoin="bevel" d="M0 35.5L5.375 16.625L9.25 0L9.375 3.875L3.875 24.75L0 38.25L0 35.5"/><path id="shape78" transform="translate(251.000007801355, 183.500005703381)" fill="#9cb6de" fill-rule="evenodd" stroke="#9cb6de" stroke-width="2" stroke-linecap="square" stroke-linejoin="bevel" d="M10 4.25L51.75 0L110.5 14.75L114 41.75L78.25 64.25L28.5 71L0 38.5L10 4.25"/><path id="shape79" transform="translate(270.250008399666, 303.250009425342)" fill="#9cb6de" fill-rule="evenodd" stroke="#9cb6de" stroke-width="2" stroke-linecap="square" stroke-linejoin="bevel" d="M37.25 0L2 33L0 58L27.75 102.5L23.75 116.75L45.75 113L64 122L80.5 108.75L108.75 114.75L74.5 25.5L37.25 0"/><path id="shape80" transform="translate(250.000016830016, 186.750012572022)" fill="#3c5071" fill-rule="evenodd" stroke="#3c5071" stroke-width="1" stroke-linecap="square" stroke-linejoin="bevel" d="M26.375 0.25L17.5 30.25L36.875 45.375L72.25 51L111.625 41.625L79.875 61.375L28.125 68.25L0 35L10.625 0L26.375 0.25"/><path id="shape81" transform="translate(270.000013900532, 301.750015535132)" fill="#3c5071" fill-rule="evenodd" stroke="#3c5071" stroke-width="1" stroke-linecap="square" stroke-linejoin="bevel" d="M2.5 46.25L36 29L64.5 50L76.5 76.75L65.75 98L27 103.75L23.25 118L45.75 115.25L64.5 124L81.5 111L109.75 117.25L76 26.25L37 0L0 35.25L2.5 46.25"/><path id="shape82" transform="translate(299.000010658406, 358.000012761569)" fill="#d0ddf2" fill-rule="evenodd" stroke="#d0ddf2" stroke-width="1" stroke-linecap="square" stroke-linejoin="bevel" d="M0 13L3.5 26L8.5 19L16.5 32L9.5 0L5 12L0 13"/><path id="shape83" transform="translate(279.87500554439, 182.625003617845)" fill="#d0ddf2" fill-rule="evenodd" stroke="#d0ddf2" stroke-width="1" stroke-linecap="square" stroke-linejoin="bevel" d="M0 3L23 0L76.375 13.75"/><path id="shape84" transform="translate(335.787322985767, 218.230824019968)" fill="#ffffff" fill-rule="evenodd" stroke="#ffffff" stroke-width="1" stroke-linecap="square" stroke-linejoin="bevel" d="M6.18718 0L0 10.8718L3.97748 19.4454L23.6881 17.3241L6.18718 0"/><path id="shape85" transform="translate(348.073302952869, 198.696999755726)" fill="#ffffff" fill-rule="evenodd" stroke="#ffffff" stroke-width="1" stroke-linecap="square" stroke-linejoin="bevel" d="M6.54074 1.06066L1.14905 5.39169L0 14.9376L10.8718 25.1907L12.9931 34.4715L18.6499 21.1248L19.6222 7.42462L10.3414 0L6.54074 1.06066"/><path id="shape86" transform="translate(366.72324376624, 207.270669229172)" fill="#ffffff" fill-rule="evenodd" stroke="#ffffff" stroke-width="1" stroke-linecap="square" stroke-linejoin="bevel" d="M2.91682 0L15.6447 13.7886L0 19.4454L2.12132 9.72933L2.91682 0"/><path id="shape87" transform="translate(353.000014387397, 407.75001661887)" fill="#93b0da" fill-rule="evenodd" stroke="#93b0da" stroke-width="1" stroke-linecap="square" stroke-linejoin="bevel" d="M0 5.125L7.75 0L25 10.875L0 5.125"/><path id="shape88" transform="translate(317.125012925222, 412.250016802279)" fill="#93b0da" fill-rule="evenodd" stroke="#93b0da" stroke-width="1" stroke-linecap="square" stroke-linejoin="bevel" d="M0 4.875L14.125 0L16.625 14L0 4.875"/><path id="shape89" transform="translate(293.625011967421, 410.375016725859)" fill="#93b0da" fill-rule="evenodd" stroke="#93b0da" stroke-width="1" stroke-linecap="square" stroke-linejoin="bevel" d="M3.375 0L5.875 2.75L0 9.875L3.375 0"/><path id="shape90" transform="translate(131.000009690274, 73.8750054646486)" fill="#85bdcb" fill-rule="evenodd" stroke="#85bdcb" stroke-width="1" stroke-linecap="square" stroke-linejoin="bevel" d="M7.625 0L0 32.875L12.4375 26.4375"/><path id="shape91" transform="translate(106.500003582279, 67.7500022788678)" fill="#9cb6de" fill-rule="evenodd" stroke="#9cb6de" stroke-width="2" stroke-linecap="square" stroke-linejoin="bevel" d="M65.75 2.25L17.25 31L0 72.25L6.5 104L4 132.25L41.25 153.75L98 158L145.25 135.5L165.75 80.75L146 18.25L102 0L65.75 2.25"/><path id="shape92" transform="translate(198.697014171839, 137.709051636889)" fill="#ffffff" fill-rule="evenodd" stroke="#ffffff" stroke-width="1" stroke-linecap="square" stroke-linejoin="bevel" d="M0.707107 19.0919L23.8649 0L34.825 27.2236L31.1127 50.9117L11.844 54.9776L0 35.8857L0.707107 19.0919"/><path id="shape93" transform="translate(115.611963761907, 147.608547004881)" fill="#ffffff" fill-rule="evenodd" stroke="#ffffff" stroke-width="1" stroke-linecap="square" stroke-linejoin="bevel" d="M3.35876 0L20.1525 21.0364L22.8042 47.3762L6.36396 35.5321L0 12.0208L3.35876 0"/><path id="shape94" transform="translate(198.16668406284, 147.254993598881)" fill="#7b524d" fill-rule="evenodd" stroke="#7b524d" stroke-width="1" stroke-linecap="square" stroke-linejoin="bevel" d="M1.41421 8.48528L12.5511 0L19.6222 17.3241L19.0919 38.8909L13.2583 46.1387L0 25.9862L1.41421 8.48528"/><path id="shape95" transform="translate(124.627575614899, 155.740275342874)" fill="#7b524d" fill-rule="evenodd" stroke="#7b524d" stroke-width="1" stroke-linecap="square" stroke-linejoin="bevel" d="M0.53033 0L11.4905 13.0815L13.435 36.5928L6.71751 32.5269L0 18.0312L0.53033 0"/><path id="shape96" transform="translate(204.87500217682, 161.500001715956)" fill="#000000" fill-rule="evenodd" stroke="#000000" stroke-width="1" stroke-linecap="square" stroke-linejoin="bevel" d="M2.75 0.75L0 8L0.5 14.375L5.75 20.125L10.5 9.5L5.25 0L2.75 0.75"/><path id="shape97" transform="translate(131.500001397202, 164.000001742518)" fill="#000000" fill-rule="evenodd" stroke="#000000" stroke-width="1" stroke-linecap="square" stroke-linejoin="bevel" d="M0 3.625L0.25 12.5L4.375 20L6.625 20L4.875 4.125L0.625 0L0 3.625"/><path id="shape98" transform="translate(201.125002136976, 148.000001572517)" fill="#ffffff" fill-rule="evenodd" stroke="#ffffff" stroke-width="1" stroke-linecap="square" stroke-linejoin="bevel" d="M0.625 5.625L0 12L5.25 15.125L9.125 13.25L12 8.75L9.75 1.125L7.25 0L0.625 5.625"/><path id="shape99" transform="translate(125.000001328139, 156.50000166283)" fill="#ffffff" fill-rule="evenodd" stroke="#ffffff" stroke-width="1" stroke-linecap="square" stroke-linejoin="bevel" d="M0.375 0L0 8.25L3.75 12.125L7.75 11L8.5 7.5L0.375 0"/><path id="shape100" transform="translate(206.000002188773, 180.875001921817)" fill="#a2807d" fill-rule="evenodd" stroke="#a2807d" stroke-width="1" stroke-linecap="square" stroke-linejoin="bevel" d="M0 3.75L3.625 0L9.75 1.25L12.125 5.125L5.5 12.875L0 3.75"/><path id="shape101" transform="translate(202.375006389458, 176.812505582389)" fill="#a2807d" fill-rule="evenodd" stroke="#a2807d" stroke-width="1" stroke-linecap="square" stroke-linejoin="bevel" d="M0 2.9375L0.3125 0.8125L2.5625 0L5.1875 2.3125L5.4375 4L3.5625 6.5L1.8125 5.9375L0 2.9375"/><path id="shape102" transform="translate(128.562504387542, 179.06250611099)" fill="#a2807d" fill-rule="evenodd" stroke="#a2807d" stroke-width="1" stroke-linecap="square" stroke-linejoin="bevel" d="M0.875 2.5625L2.875 0L6 2.75L6.25 6.0625L2.25 7.0625L0 3.8125L0.875 2.5625"/><path id="shape103" transform="translate(115.788733721859, 192.863371741294)" fill="#3c5071" fill-rule="evenodd" stroke="#3c5071" stroke-width="1" stroke-linecap="square" stroke-linejoin="bevel" d="M0 3.18198L15.9099 12.5511L25.9862 15.7331L38.3605 24.1366L54.9776 19.6222L104.475 15.5563L126.219 6.54074L130.284 0L125.335 6.36396L103.768 14.4957L56.5685 18.3848L38.7141 24.1366L26.163 13.9654L15.9099 10.9602L0 3.18198"/><path id="shape104" transform="translate(159.010638012776, 202.497705218049)" fill="#3c5071" fill-rule="evenodd" stroke="#3c5071" stroke-width="1" stroke-linecap="square" stroke-linejoin="bevel" d="M0 3.62392L3.8007 0"/><path id="shape105" transform="translate(143.365900420635, 201.525433390289)" fill="#3c5071" fill-rule="evenodd" stroke="#3c5071" stroke-width="1" stroke-linecap="square" stroke-linejoin="bevel" d="M0 0L3.53553 3.18198"/><path id="shape106" transform="translate(140.18391989342, 161.220346712231)" fill="#3c5071" fill-rule="evenodd" stroke="#3c5071" stroke-width="1" stroke-linecap="square" stroke-linejoin="bevel" d="M0 0L2.91682 10.5182"/><path id="shape107" transform="translate(176.688307608416, 162.546171931904)" fill="#3c5071" fill-rule="evenodd" stroke="#3c5071" stroke-width="1" stroke-linecap="square" stroke-linejoin="bevel" d="M0 0L0.53033 6.18718L3.97748 10.253"/><path id="shape108" transform="translate(185.000010188868, 133.750007366277)" fill="#3c5071" fill-rule="evenodd" stroke="#3c5071" stroke-width="1" stroke-linecap="square" stroke-linejoin="bevel" d="M0 35L41 0"/><path id="shape109" transform="translate(184.289708923985, 131.168310812083)" fill="#3c5071" fill-rule="evenodd" stroke="#3c5071" stroke-width="1" stroke-linecap="square" stroke-linejoin="bevel" d="M0.353553 37.4767L0 36.1508L41.4541 0L42.2496 2.82843"/><path id="shape110" transform="translate(115.500000873774, 140.750001064793)" fill="#3c5071" fill-rule="evenodd" stroke="#3c5071" stroke-width="1" stroke-linecap="square" stroke-linejoin="bevel" d="M0 0L20.75 25.625"/><path id="shape111" transform="translate(115.435179393271, 138.946479330951)" fill="#3c5071" fill-rule="evenodd" stroke="#3c5071" stroke-width="1" stroke-linecap="square" stroke-linejoin="bevel" d="M0 1.41421L0.441942 0L20.6829 26.8701"/><path id="shape112" transform="translate(121.625006781419, 201.000011207113)" fill="#ffffff" fill-rule="evenodd" stroke="#ffffff" stroke-width="1" stroke-linecap="square" stroke-linejoin="bevel" d="M0 0L4.875 11.375L8.5 4.375L0.75 0.5"/><path id="shape113" transform="translate(222.075728531037, 204.088699374394)" fill="#ffffff" fill-rule="evenodd" stroke="#ffffff" stroke-width="1" stroke-linecap="square" stroke-linejoin="bevel" d="M0 4.81717L11.7557 0L7.6014 12.9113L0 4.81717"/><path id="shape114" transform="translate(117.500002829819, 98.0000023601897)" fill="#d0ddf2" fill-rule="evenodd" stroke="#d0ddf2" stroke-width="1" stroke-linecap="square" stroke-linejoin="bevel" d="M3.25 11.25L16.25 0L28 2.75L8.25 29.75L0 17.25L3.25 11.25"/><path id="shape115" transform="translate(251.376467087034, 116.672621854741)" fill="#3c5071" fill-rule="evenodd" stroke="#3c5071" stroke-width="1" stroke-linecap="square" stroke-linejoin="bevel" d="M10.4298 0L22.8042 31.1127L0 88.0348"/><path id="shape116" transform="translate(233.750007862514, 15.2500005129555)" fill="#aee1ee" fill-rule="evenodd" stroke="#aee1ee" stroke-width="2" stroke-linecap="square" stroke-linejoin="bevel" d="M59.5 9.25L18.75 49.5L0 97.25L16.75 128L46 129.5L52.5 103.25L78 68L79.25 34.75L66.75 50.75L85.75 8L80.75 0L59.5 9.25"/><path id="shape117" transform="translate(243.244729574247, 14.4956888263723)" fill="#e6eff2" fill-rule="evenodd" stroke="#e6eff2" stroke-width="1" stroke-linecap="square" stroke-linejoin="bevel" d="M9.01561 48.6136L48.26 10.4298L70.7107 0L74.423 5.12652L23.1577 47.5529L7.24784 96.3433L1.76777 77.2514L0 71.5946L9.01561 48.6136"/><path id="shape118" transform="translate(290.355723600161, 49.6742516478815)" fill="#e6eff2" fill-rule="evenodd" stroke="#e6eff2" stroke-width="1" stroke-linecap="square" stroke-linejoin="bevel" d="M3.09359 22.6274L15.468 8.04334L22.2739 0L22.1855 34.7366L0 64.2583L5.92202 40.4819L3.09359 22.6274"/><path id="shape119" transform="translate(249.962253102999, 32.1733593102869)" fill="#628b96" fill-rule="evenodd" stroke="#628b96" stroke-width="1" stroke-linecap="square" stroke-linejoin="bevel" d="M0 87.1509L2.2981 74.9533L16.9706 30.9359L53.9169 0L19.4454 33.7643L2.65165 83.4386L0 87.1509"/><path id="shape120" transform="translate(260.875003082027, 37.7500004459858)" fill="#85bdcb" fill-rule="evenodd" stroke="#85bdcb" stroke-width="1" stroke-linecap="square" stroke-linejoin="bevel" d="M38.375 0L9.375 28L0 58.125"/><path id="shape121" transform="translate(258.25001844324, 105.875007561193)" fill="#85bdcb" fill-rule="evenodd" stroke="#85bdcb" stroke-width="1" stroke-linecap="square" stroke-linejoin="bevel" d="M0 38.5L21.625 39.125L33.25 0"/>
</svg>
