<?xml version="1.0" standalone="no"?>
<!DOCTYPE svg PUBLIC "-//W3C//DTD SVG 20010904//EN" "http://www.w3.org/TR/2001/REC-SVG-20010904/DTD/svg10.dtd">
<!-- Created using Krita: https://krita.org -->
<svg xmlns="http://www.w3.org/2000/svg" 
    xmlns:xlink="http://www.w3.org/1999/xlink"
    xmlns:krita="http://krita.org/namespaces/svg/krita"
    xmlns:sodipodi="http://sodipodi.sourceforge.net/DTD/sodipodi-0.dtd"
    width="474pt"
    height="434pt"
    viewBox="0 0 474 434">
<defs/>
<path id="shape0" transform="translate(66.0000033125422, 150.5000075536)" fill="#ffffff" fill-rule="evenodd" stroke="#ffffff" stroke-width="1" stroke-linecap="square" stroke-linejoin="bevel" d="M209 13.5L247.5 5L280.5 0L276.5 51L270 107L250.5 142L209 201L171 223.5L37 234.5L0 207L25 125.5L134 10L209 13.5"/><path id="shape1" transform="translate(299.250021287838, 151.250010759517)" fill="#c6ccdd" fill-rule="evenodd" stroke="#c6ccdd" stroke-width="1" stroke-linecap="square" stroke-linejoin="bevel" d="M2.5 24.5L0 40L3.25 51.25L12 38.75L34.5 42.25L48.25 26.25L50.5 5.75L35.25 0L2.5 24.5"/><path id="shape2" transform="translate(244.000017357502, 200.750014280814)" fill="#c6ccdd" fill-rule="evenodd" stroke="#c6ccdd" stroke-width="1" stroke-linecap="square" stroke-linejoin="bevel" d="M62.5 16.25L72 11L77 16.25L88.5 0L96.75 11.5L88.25 50L70.5 69.75L71 93L53.75 102.75L48.5 89.25L23.75 86.75L0 89L62.5 16.25"/><path id="shape3" transform="translate(115.250008198574, 312.000022194838)" fill="#c6ccdd" fill-rule="evenodd" stroke="#c6ccdd" stroke-width="1" stroke-linecap="square" stroke-linejoin="bevel" d="M14.75 14.25L0 53.5L36.5 64.75L79.25 71.5L139.25 54L97.75 0L14.75 14.25"/><path id="shape4" transform="translate(287.438899547223, 116.319062670402)" fill="#000000" fill-rule="evenodd" stroke="#000000" stroke-width="1" stroke-linecap="square" stroke-linejoin="bevel" d="M8.83883 0L0 22.6274L32.8805 25.4558L26.8701 7.77817L8.83883 0"/><path id="shape5" transform="translate(286.378239401293, 165.816536147168)" fill="#000000" fill-rule="evenodd" stroke="#000000" stroke-width="1" stroke-linecap="square" stroke-linejoin="bevel" d="M0 4.94975L24.7487 0L15.9099 9.54594L9.19239 34.2947L1.06066 12.7279L0 4.94975"/><path id="shape6" transform="translate(75.5000000653505, 87.5000000757373)" fill="#a38973" fill-rule="evenodd" stroke="#a38973" stroke-width="1" stroke-linecap="square" stroke-linejoin="bevel" d="M86.5 262.5L140.5 242L189 192.5L222 150.5L232 129.5L213.5 88.5L227 32L237 44L254 51L221.5 12.5L213.5 14L170.5 0L120 7L88 26L75.5 20.5L30.5 53L13.5 90.5L26 102L3.5 155.5L0 217L15.5 256.5L47.5 244L86.5 262.5"/><path id="shape7" transform="translate(74.7500026232849, 98.50000345677)" fill="#79614c" fill-rule="evenodd" stroke="#79614c" stroke-width="1" stroke-linecap="square" stroke-linejoin="bevel" d="M18.25 109.5L59 115.25L123.5 88L144.25 62.75L199.25 75.75L217.75 6.5L222.5 0L254 38.75L246 38.75L227.75 23.5L214.5 77L233.5 118.5L224.25 139.25L141.75 231.75L84 252.75L47.5 233.25L16.25 245.25L0 203L5.75 137.75L18.25 109.5"/><path id="shape8" transform="translate(143.36589565198, 107.391839221428)" fill="#79614c" fill-rule="evenodd" stroke="#79614c" stroke-width="1" stroke-linecap="square" stroke-linejoin="bevel" d="M7.86656 0L20.8596 6.45235L9.63433 16.617L0 22.2739L7.6014 10.3414L5.48008 2.20971L7.86656 0"/><path id="shape9" transform="translate(123.75000105578, 113.750000970465)" fill="#b9a696" fill-rule="evenodd" stroke="#b9a696" stroke-width="1" stroke-linecap="square" stroke-linejoin="bevel" d="M29.25 10.75L14.5 22.5L2 46.25L20.25 31.5L0 74.5L10 66.75L6.5 82.25L33 42L33.25 51.25L54.5 29.25L65.25 36.25L78.5 28.25L88 14.25L88.75 4L61.5 0L34 8L25.25 13"/><path id="shape10" transform="translate(216.000001842816, 99.250000846757)" fill="#b9a696" fill-rule="evenodd" stroke="#b9a696" stroke-width="1" stroke-linecap="square" stroke-linejoin="bevel" d="M8.75 23.75L81 0L75.25 7.5L73.75 13.25L53.75 22.25L57.5 26.5L48.25 33L58.25 36L21 51.5L26.75 35L0 50.25L8.75 23.75"/><path id="shape11" transform="translate(177.250001512218, 87.7500007486441)" fill="#b9a696" fill-rule="evenodd" stroke="#b9a696" stroke-width="1" stroke-linecap="square" stroke-linejoin="bevel" d="M13.75 8.5L0 18.25L43.75 11.25L37.75 19.25L74.5 20.25L90.25 7.5L70 0L15.25 6.75"/><path id="shape12" transform="translate(224.500014302301, 98.2500062592476)" fill="#79614c" fill-rule="evenodd" stroke="#79614c" stroke-width="1" stroke-linecap="square" stroke-linejoin="bevel" d="M0 24L64.5 3.25L56.75 0L0 24"/><path id="shape13" transform="translate(97.0000061796134, 128.000008154541)" fill="#79614c" fill-rule="evenodd" stroke="#79614c" stroke-width="1" stroke-linecap="square" stroke-linejoin="bevel" d="M3 56.25L24.75 24.5L48.25 1.25L46 0L15.75 33L0 58.25"/><path id="shape14" transform="translate(97.2713747087925, 182.698711061403)" fill="#79614c" fill-rule="evenodd" stroke="#79614c" stroke-width="1" stroke-linecap="square" stroke-linejoin="bevel" d="M3.13779 0.0883883L1.85616 5.21491L0 2.43068L2.2981 0"/><path id="shape15" transform="translate(141.125000050935, 122.000000044032)" fill="#79614c" fill-rule="evenodd" stroke="#79614c" stroke-width="1" stroke-linecap="square" stroke-linejoin="bevel" d="M0.875 6.125L7.875 0L5.375 4.5L0 9.125"/><path id="shape16" transform="translate(212.662372069443, 120.031380411597)" fill="#79614c" fill-rule="evenodd" stroke="#79614c" stroke-width="1" stroke-linecap="square" stroke-linejoin="bevel" d="M10.9602 3.0052L4.94975 0L10.253 4.59619L0.353553 29.5217L0 43.3103L2.65165 45.0781L4.06586 44.371L2.65165 31.8198L3.35876 28.1075"/><path id="shape17" transform="translate(212.220423593647, 162.988113747058)" fill="#79614c" fill-rule="evenodd" stroke="#79614c" stroke-width="1" stroke-linecap="square" stroke-linejoin="bevel" d="M0.883883 0L0 1.06066L0.972272 6.54074L6.18718 6.27557L5.12652 1.85616"/><path id="shape18" transform="translate(215.062505449079, 162.937504128378)" fill="#5c4a3a" fill-rule="evenodd" stroke="#5c4a3a" stroke-width="1" stroke-linecap="square" stroke-linejoin="bevel" d="M1.8125 0L17.0625 26.75L15.4375 27.6875L0 0.4375"/><path id="shape19" transform="translate(215.137240494808, 161.043571151002)" fill="#5c4a3a" fill-rule="evenodd" stroke="#5c4a3a" stroke-width="1" stroke-linecap="square" stroke-linejoin="bevel" d="M0 2.47487L0 0L1.59099 0L2.47487 1.32583"/><path id="shape20" transform="translate(230.870359233376, 189.858166781505)" fill="#5c4a3a" fill-rule="evenodd" stroke="#5c4a3a" stroke-width="1" stroke-linecap="square" stroke-linejoin="bevel" d="M0.883883 0L39.0676 17.1473L62.7557 39.7748L67.3519 50.2046L66.1145 50.0278L61.5183 40.1283L38.5373 18.5616L0 0.883883"/><path id="shape21" transform="translate(273.000017656653, 172.625011164761)" fill="#5c4a3a" fill-rule="evenodd" stroke="#5c4a3a" stroke-width="1" stroke-linecap="square" stroke-linejoin="bevel" d="M0 1.375L3 0L24.625 61.625L24 64.75L21.875 59.125"/><path id="shape22" transform="translate(273.374999665012, 101.374999875777)" fill="#5c4a3a" fill-rule="evenodd" stroke="#5c4a3a" stroke-width="1" stroke-linecap="square" stroke-linejoin="bevel" d="M23 0L25.25 5.875L7.625 70.125L0 72.125L18.375 5.125"/><path id="shape23" transform="translate(275.125004722949, 172.375002959086)" fill="#5c4a3a" fill-rule="evenodd" stroke="#5c4a3a" stroke-width="1" stroke-linecap="square" stroke-linejoin="bevel" d="M6.375 0L7.875 21.5L0 0"/><path id="shape24" transform="translate(276.125207519148, 165.109439067147)" fill="#5c4a3a" fill-rule="evenodd" stroke="#5c4a3a" stroke-width="1" stroke-linecap="square" stroke-linejoin="bevel" d="M0 2.2981L0 14.8492L3.88909 11.1369L5.48008 7.77817L5.48008 0"/><path id="shape25" transform="translate(296.875020718028, 98.6250068827471)" fill="#5c4a3a" fill-rule="evenodd" stroke="#5c4a3a" stroke-width="1" stroke-linecap="square" stroke-linejoin="bevel" d="M0 3L1.375 0L32.625 39.875L20.125 39.625L5.125 22.25"/><path id="shape26" transform="translate(291.3750203342, 98.7500068914705)" fill="#5c4a3a" fill-rule="evenodd" stroke="#5c4a3a" stroke-width="1" stroke-linecap="square" stroke-linejoin="bevel" d="M5.375 0L0 9.125L2.5 14.5L6.625 6.375"/><path id="shape27" transform="translate(293.979640389252, 106.066015774835)" fill="#5c4a3a" fill-rule="evenodd" stroke="#5c4a3a" stroke-width="1" stroke-linecap="square" stroke-linejoin="bevel" d="M9.54594 15.026L6.01041 27.312L0 10.0763L3.35876 0L9.72272 8.66206"/><path id="shape28" transform="translate(277.716199250671, 115.435186575868)" fill="#5c4a3a" fill-rule="evenodd" stroke="#5c4a3a" stroke-width="1" stroke-linecap="square" stroke-linejoin="bevel" d="M21.9203 19.0919L12.1976 61.5183L31.4663 101.565L20.3293 124.628L0 61.3415L18.208 0L21.7435 5.12652L21.9203 12.9047"/><path id="shape29" transform="translate(156.750006374889, 189.000007686469)" fill="#5c4a3a" fill-rule="evenodd" stroke="#5c4a3a" stroke-width="1" stroke-linecap="square" stroke-linejoin="bevel" d="M0 72.75L74 0L76.5 2.25L0 72.75"/><path id="shape30" transform="translate(155.625009191382, 261.500015444475)" fill="#5c4a3a" fill-rule="evenodd" stroke="#5c4a3a" stroke-width="1" stroke-linecap="square" stroke-linejoin="bevel" d="M1.125 0L0 2.25L21.125 85.375L22.75 84.375"/><path id="shape31" transform="translate(151.125008925607, 250.000014765272)" fill="#5c4a3a" fill-rule="evenodd" stroke="#5c4a3a" stroke-width="1" stroke-linecap="square" stroke-linejoin="bevel" d="M0 8.5L6.75 8.375L15.125 0"/><path id="shape32" transform="translate(87.5000051678453, 255.500015090108)" fill="#5c4a3a" fill-rule="evenodd" stroke="#5c4a3a" stroke-width="1" stroke-linecap="square" stroke-linejoin="bevel" d="M63.75 6.5L28 1.375L0 8.125L1.75 5.25L28.75 0L69.5 5.75L68.875 7.75"/><path id="shape33" transform="translate(82.5000048725399, 232.125013709555)" fill="#5c4a3a" fill-rule="evenodd" stroke="#5c4a3a" stroke-width="1" stroke-linecap="square" stroke-linejoin="bevel" d="M0 0L0.875 18.25L4.875 31.875L6.5 29.375L2.25 16.125"/><path id="shape34" transform="translate(76.7500045329386, 262.500015503536)" fill="#5c4a3a" fill-rule="evenodd" stroke="#5c4a3a" stroke-width="1" stroke-linecap="square" stroke-linejoin="bevel" d="M9.75 0.5L2.125 20L0 46.5L1.5 51.25L3.375 20L12.125 0"/><path id="shape35" transform="translate(79.3727370036334, 266.048929154718)" fill="#a38973" fill-rule="evenodd" stroke="#a38973" stroke-width="1" stroke-linecap="square" stroke-linejoin="bevel" d="M8.66206 0L1.06066 16.4402L0 49.3207"/><path id="shape36" transform="translate(89.1250040801247, 258.125011816911)" fill="#a38973" fill-rule="evenodd" stroke="#a38973" stroke-width="1" stroke-linecap="square" stroke-linejoin="bevel" d="M0 6L25.125 0L34.25 0.625"/><path id="shape37" transform="translate(81.7500037424987, 260.875011942805)" fill="#a38973" fill-rule="evenodd" stroke="#a38973" stroke-width="1" stroke-linecap="square" stroke-linejoin="bevel" d="M19.375 0L7.125 2.5L0 18.125"/><path id="shape38" transform="translate(290.090558134562, 131.521861823348)" fill="#7b899e" fill-rule="evenodd" stroke="#7b899e" stroke-width="1" stroke-linecap="square" stroke-linejoin="bevel" d="M9.98788 2.2981L19.9758 0L29.5217 5.56847L38.9793 7.15946L42.78 7.42462L45.4316 27.7539L39.2444 27.4004L25.9862 41.1006L0.795495 46.7574L0 44.9897L9.98788 2.2981"/><path id="shape39" transform="translate(328.804665812874, 109.601555270958)" fill="#ffffff" fill-rule="evenodd" stroke="#ffffff" stroke-width="1" stroke-linecap="square" stroke-linejoin="bevel" d="M6.36396 12.9047L0 20.8597L1.23744 39.598L11.3137 57.4524L17.6777 60.6344L67.3519 48.7904L71.241 21.9203L56.0382 0L6.36396 12.9047"/><path id="shape40" transform="translate(384.666103660653, 118.617167075505)" fill="#000000" fill-rule="evenodd" stroke="#000000" stroke-width="1" stroke-linecap="square" stroke-linejoin="bevel" d="M2.2981 0L0 18.3848L7.77817 33.9411L11.1369 13.7886L2.2981 0"/><path id="shape41" transform="translate(310.773442203781, 137.709050896897)" fill="#969eaa" fill-rule="evenodd" stroke="#969eaa" stroke-width="1" stroke-linecap="square" stroke-linejoin="bevel" d="M7.95495 1.41421L1.41421 7.42462L0 11.1369L10.0763 13.6118L18.7383 9.8995L18.0312 0L7.95495 1.41421"/><path id="shape42" transform="translate(328.981442514924, 130.991536219)" fill="#cccccc" fill-rule="evenodd" stroke="#cccccc" stroke-width="1" stroke-linecap="square" stroke-linejoin="bevel" d="M55.3311 0.353553L52.3259 6.36396L11.6673 13.9654L0.353553 0L0 18.5616L11.4905 36.7696L20.3293 26.8701L42.9567 20.8597L61.3415 18.5616L55.6847 7.42462"/><path id="shape43" transform="translate(336.759606738862, 148.845978411613)" fill="#cccccc" fill-rule="evenodd" stroke="#cccccc" stroke-width="1" stroke-linecap="square" stroke-linejoin="bevel" d="M0 13.435L7.6014 22.7158L21.4784 19.2687L29.6101 0"/><path id="shape44" transform="translate(393.328137145164, 127.721159140396)" fill="#cccccc" fill-rule="evenodd" stroke="#cccccc" stroke-width="1" stroke-linecap="square" stroke-linejoin="bevel" d="M0.53033 0L6.71751 2.56326L3.71231 30.7591L0 23.2461L3.09359 4.06586"/><path id="shape45" transform="translate(83.4386000430535, 91.3935513183446)" fill="#ffffff" fill-rule="evenodd" stroke="#ffffff" stroke-width="1" stroke-linecap="square" stroke-linejoin="bevel" d="M22.0971 48.6136L50.1162 26.163L26.7817 0L12.6395 0L1.23744 12.1092L0 26.0746L20.948 50.6465L22.0971 48.6136"/><path id="shape46" transform="translate(91.6587163608543, 99.7904443311519)" fill="#cccccc" fill-rule="evenodd" stroke="#cccccc" stroke-width="1" stroke-linecap="square" stroke-linejoin="bevel" d="M21.3016 34.6482L33.3224 25.0139L12.7279 0L6.0988 0.618718L0 5.92202L0.53033 10.6066L19.9758 35.7089L21.3016 34.6482"/><path id="shape47" transform="translate(225.375015346532, 81.7500055666289)" fill="#cccccc" fill-rule="evenodd" stroke="#cccccc" stroke-width="1" stroke-linecap="square" stroke-linejoin="bevel" d="M0 7.625L17 0L51.875 2.25L87.75 21.125L105.625 42.75L105.5 46.875L102.875 49.125L103 53.75L72.75 15.625L63.625 19.375L23.125 5.625L1.625 7.125L2.5 6.125"/><path id="shape48" transform="translate(224.125008162654, 81.750002977343)" fill="#ffffff" fill-rule="evenodd" stroke="#ffffff" stroke-width="1" stroke-linecap="square" stroke-linejoin="bevel" d="M0 8.125L18.75 0L53.875 2.375L65.875 9.125L67.125 14.875L62.375 17L56.75 17.5L23.75 6L0 8.125"/><path id="shape49" transform="translate(237, 11.7556502733398)" fill="#84add8" fill-rule="evenodd" stroke="#84add8" stroke-width="1" stroke-linecap="square" stroke-linejoin="bevel" d="M3.50001 70.1194L10.125 47.9944L0 24.3694L0 13.1194L36 8.99435L47.2569 3.71231L70.5915 5.39169L82.5239 0L100.555 9.36916L100.909 16.9706L102.323 20.3293L124.243 16.4402L135.999 31.5546L136.794 42.6916L132.552 48.5252L123.359 44.1942L100.113 54.2704L78.8116 64.0816L53.2673 62.2254L50.4389 56.5685L40.9814 58.1595L38.2413 71.9481L3.50001 70.1194"/><path id="shape50" transform="translate(275.860033857845, 55.6846591895041)" fill="#ccbaa1" fill-rule="evenodd" stroke="#ccbaa1" stroke-width="1" stroke-linecap="square" stroke-linejoin="bevel" d="M0 28.1959L5.56847 29.6985L36.9463 47.0226L47.0226 59.2202L79.2843 42.338L92.631 14.8492L92.9845 3.8007L83.7922 0L40.0399 20.5945L14.7609 19.0035L10.4298 12.9047L2.47487 14.9376L0 28.1959"/><path id="shape51" transform="translate(328.362714200384, 75.8372029028074)" fill="#eadecd" fill-rule="evenodd" stroke="#eadecd" stroke-width="1" stroke-linecap="square" stroke-linejoin="bevel" d="M0 36.3276L27.312 21.5668L37.565 0L24.0416 18.9151"/><path id="shape52" transform="translate(291.283798189886, 55.0659403041417)" fill="#ac987d" fill-rule="evenodd" stroke="#ac987d" stroke-width="1" stroke-linecap="square" stroke-linejoin="bevel" d="M0 19.2687L7.24784 22.0087L28.1517 22.4506L68.4568 2.82843L77.9585 5.56847L68.3242 0L26.8701 19.7548L0.309359 19.4454L0 19.2687"/><path id="shape53" transform="translate(287.880853588722, 30.8475338969801)" fill="#ffffff" fill-rule="evenodd" stroke="#ffffff" stroke-width="1" stroke-linecap="square" stroke-linejoin="bevel" d="M1.32583 1.41421L0 17.4125L29.5217 5.65685L12.9931 0L1.32583 1.41421"/><path id="shape54" transform="translate(287.937520818491, 34.5625024989419)" fill="#7a6a5b" fill-rule="evenodd" stroke="#7a6a5b" stroke-width="1" stroke-linecap="square" stroke-linejoin="bevel" d="M0.9375 4.125L5.0625 0L11.3125 1.75L11.625 9.8125L0 14.375L0.9375 4.125"/><path id="shape55" transform="translate(291.937521107699, 37.2500026932539)" fill="#000000" fill-rule="evenodd" stroke="#000000" stroke-width="1" stroke-linecap="square" stroke-linejoin="bevel" d="M0.5625 9.875L0 2.8125L1.875 0L3.1875 8.9375"/><path id="shape56" transform="translate(291.187521053473, 37.0000026751783)" fill="#ffffff" fill-rule="evenodd" stroke="#ffffff" stroke-width="1" stroke-linecap="square" stroke-linejoin="bevel" d="M0.5 0L0 2.0625L1.5 0.4375"/><path id="shape57" transform="translate(241.375002161677, 28.1250002518785)" fill="#080708" fill-rule="evenodd" stroke="#080708" stroke-width="1" stroke-linecap="square" stroke-linejoin="bevel" d="M0 0L6.875 0.25L22 9.5L9.25 28.25L10.625 23.125L2.375 1.25L0 0"/><path id="shape58" transform="translate(249.875002237801, 44.7500004007667)" fill="#373737" fill-rule="evenodd" stroke="#373737" stroke-width="1" stroke-linecap="square" stroke-linejoin="bevel" d="M2.5 0L6.5 2.5L2.25 8.875L0 0L2.5 0"/><path id="shape59" transform="translate(342.750021105228, 45.0000027709271)" fill="#4e7196" fill-rule="evenodd" stroke="#4e7196" stroke-width="1" stroke-linecap="square" stroke-linejoin="bevel" d="M0 0.75L5.375 0L11.875 3.875L30.375 1L30.25 2.125L10.75 5.25L5.25 1.625L0 0.75"/><path id="shape60" transform="translate(322.74999860391, 27.3749998815865)" fill="#4e7196" fill-rule="evenodd" stroke="#4e7196" stroke-width="1" stroke-linecap="square" stroke-linejoin="bevel" d="M0 0L0 7.5L1.25 7.25L0.875 0.5L0.875 0.5"/><path id="shape61" transform="translate(330.124998572009, 25.3749998902377)" fill="#4e7196" fill-rule="evenodd" stroke="#4e7196" stroke-width="1" stroke-linecap="square" stroke-linejoin="bevel" d="M1.875 0L2.25 6.625L0 8.375L1.75 8.375L3.125 5.875"/><path id="shape62" transform="translate(332.968771353781, 27.0000017315501)" fill="#ffffff" fill-rule="evenodd" stroke="#ffffff" stroke-width="1" stroke-linecap="square" stroke-linejoin="bevel" d="M4.46875 0L6.09375 4.53125L0.03125 6.28125L0 5.15625L4.46875 0"/><path id="shape63" transform="translate(333.156273068453, 30.2187520924111)" fill="#7a6a5b" fill-rule="evenodd" stroke="#7a6a5b" stroke-width="1" stroke-linecap="square" stroke-linejoin="bevel" d="M1.46875 0L0 3.5L3.84375 2.21875"/><path id="shape64" transform="translate(334.99183999015, 30.2288151125676)" fill="#7a6a5b" fill-rule="evenodd" stroke="#7a6a5b" stroke-width="1" stroke-linecap="square" stroke-linejoin="bevel" d="M0 0L2.03293 2.38649"/><path id="shape65" transform="translate(253.674552832127, 69.4732399045478)" fill="#4f7298" fill-rule="evenodd" stroke="#4f7298" stroke-width="1" stroke-linecap="square" stroke-linejoin="bevel" d="M0 13.1257L23.4671 0L20.9922 14.4957"/><path id="shape66" transform="translate(287.375000814918, 31.8750000903889)" fill="#6e8fb2" fill-rule="evenodd" stroke="#6e8fb2" stroke-width="1" stroke-linecap="square" stroke-linejoin="bevel" d="M2.75 31.125L24.875 33.125L47.875 24.5L56 18.125L62.75 6.875L75 0L81.625 3.75L85.875 13L86.5 24.875L82.5 27.875L71.875 22.875L31 42.5L3.375 42.125L0 36L2.75 31.125"/><path id="shape67" transform="translate(343.937501854187, 45.2500002439454)" fill="#3e5a78" fill-rule="evenodd" stroke="#3e5a78" stroke-width="1" stroke-linecap="square" stroke-linejoin="bevel" d="M0 0L5.125 0.625L10.5625 4.4375L16.9375 1.625L29.625 1.1875L29.625 2L16.4375 2.625L9.8125 5.0625L3.9375 0.9375"/><path id="shape68" transform="translate(310.250018577718, 237.375014213975)" fill="#ccbaa1" fill-rule="evenodd" stroke="#ccbaa1" stroke-width="1" stroke-linecap="square" stroke-linejoin="bevel" d="M23 0L38.375 7.5L31.5 34L25.5 45.75L23.25 45.75L24.125 52.125L18.625 58.5L0 50.375L2.125 31L18.5 18.125L21.625 11.875L23 0"/><path id="shape69" transform="translate(309.937503041937, 237.312502329146)" fill="#ac9f8d" fill-rule="evenodd" stroke="#ac9f8d" stroke-width="1" stroke-linecap="square" stroke-linejoin="bevel" d="M23.625 0L30.4375 3.875L26.625 18.0625L13 31.5625L7.3125 42.875L10.5625 55.5625L0 50.125L2.875 30L20.5625 14.625L23.625 0"/><path id="shape70" transform="translate(321.733589008658, 259.066249830872)" fill="#756f66" fill-rule="evenodd" stroke="#756f66" stroke-width="1" stroke-linecap="square" stroke-linejoin="bevel" d="M11.844 23.6881L8.04334 12.7279L0 0.883883L1.14905 0L10.9602 16.9706L12.9047 24.7487"/><path id="shape71" transform="translate(324.650404513406, 258.447531390471)" fill="#756f66" fill-rule="evenodd" stroke="#756f66" stroke-width="1" stroke-linecap="square" stroke-linejoin="bevel" d="M0 0.176777L7.15946 10.5182L10.7834 20.2409L11.3137 19.357L5.83363 7.24784L0.707107 0"/><path id="shape72" transform="translate(153.500011047707, 364.500026233807)" fill="#b2a491" fill-rule="evenodd" stroke="#b2a491" stroke-width="1" stroke-linecap="square" stroke-linejoin="bevel" d="M6.875 10.875L7.375 21.5L0 32.5L38.5 32.375L85.875 15.5L81.625 0L26.125 7.875L6.875 10.875"/><path id="shape73" transform="translate(159.250011461547, 382.000027493317)" fill="#cebca2" fill-rule="evenodd" stroke="#cebca2" stroke-width="1" stroke-linecap="square" stroke-linejoin="bevel" d="M0 15.25L37.25 14.25L74.75 0L21.5 12.125L0 15.25"/><path id="shape74" transform="translate(332.516978527547, 163.960392123498)" fill="#84add8" fill-rule="evenodd" stroke="#84add8" stroke-width="1" stroke-linecap="square" stroke-linejoin="bevel" d="M9.19239 5.48008L12.9047 8.48528L43.1335 0L65.319 19.0035L71.8597 31.2895L72.6552 28.1075L90.1561 45.52L94.0452 67.9706L77.6934 81.936L50.3814 87.5929L44.9013 83.3502L11.0485 78.6656L0.0883884 71.9481L0 30.7591L9.19239 5.48008"/><path id="shape75" transform="translate(237, 288.676347015906)" fill="#84add8" fill-rule="evenodd" stroke="#84add8" stroke-width="1" stroke-linecap="square" stroke-linejoin="bevel" d="M73.0663 0L91.9814 7.77817L108.952 25.2791L121.15 55.1543L113.902 89.449L99.9364 107.127L96.9312 111.9L96.7544 121.092L83.8497 133.82L42.8375 139.83L19.6798 140.007L9.24994 108.718L1.82532 92.631L0 75.8372L14.1997 61.1647L36.12 28.9914L73.0663 0"/><path id="shape76" transform="translate(54.0052829344739, 273.561948743366)" fill="#84add8" fill-rule="evenodd" stroke="#84add8" stroke-width="1" stroke-linecap="square" stroke-linejoin="bevel" d="M22.8042 0L20.5945 31.643L25.8094 44.1942L24.0416 71.1526L34.825 93.6917L14.4073 121.269L3.8007 100.056L0 71.7713L0.353553 47.1994L8.83884 17.4125L22.8042 0"/><path id="shape77" transform="translate(78.4004644998975, 179.781899428175)" fill="#84add8" fill-rule="evenodd" stroke="#84add8" stroke-width="1" stroke-linecap="square" stroke-linejoin="bevel" d="M10.7834 0L21.6551 10.1647L9.45755 35.1786L0 22.3623L1.59099 11.4021L10.7834 0"/><path id="shape78" transform="translate(77.9999995439046, 187.999998900693)" fill="#6e8fb2" fill-rule="evenodd" stroke="#6e8fb2" stroke-width="1" stroke-linecap="square" stroke-linejoin="bevel" d="M0.8125 10.125L8.9375 9.8125L19.9375 1.8125L20.625 0L22.5 2.1875L9.875 27.75L0 13.6875L0.8125 10.125"/><path id="shape79" transform="translate(82.7499995161295, 179.937498947838)" fill="#a5c3e2" fill-rule="evenodd" stroke="#a5c3e2" stroke-width="1" stroke-linecap="square" stroke-linejoin="bevel" d="M3.875 1.5625L0 7.1875L2.5625 10L5.625 0L3.875 1.5625"/><path id="shape80" transform="translate(374.23625726249, 177.660575601702)" fill="#a5c3e2" fill-rule="evenodd" stroke="#a5c3e2" stroke-width="1" stroke-linecap="square" stroke-linejoin="bevel" d="M0 0L16.7938 5.48008L24.9255 16.2635L29.5217 26.3397L16.0867 17.1473L0.707107 7.6014L0 0"/><path id="shape81" transform="translate(332.340181225074, 193.216924510109)" fill="#6e8fb2" fill-rule="evenodd" stroke="#6e8fb2" stroke-width="1" stroke-linecap="square" stroke-linejoin="bevel" d="M71.4178 23.7831L65.2306 40.8354L44.7245 54.4472L10.4298 50.3814L0.176777 42.78L0 0L7.24784 12.7279L31.1127 32.7037L63.2861 30.7591L71.4178 23.7831"/><path id="shape82" transform="translate(332.693734609356, 167.937857533947)" fill="#6e8fb2" fill-rule="evenodd" stroke="#6e8fb2" stroke-width="1" stroke-linecap="square" stroke-linejoin="bevel" d="M16.7938 3.35876L27.2236 35.3553L47.0226 53.7401L63.9932 55.6847L13.2583 65.9377L0 23.5113L8.48528 0L13.2583 4.41942L16.7938 3.35876"/><path id="shape83" transform="translate(379.186004642438, 193.39370120225)" fill="#6e8fb2" fill-rule="evenodd" stroke="#6e8fb2" stroke-width="1" stroke-linecap="square" stroke-linejoin="bevel" d="M25.6326 0L25.6326 23.6063L19.799 42.4264L0 54.624L4.24264 59.397L30.2288 53.033L47.3762 38.8909L45.7852 26.5165L32.8805 26.6933L30.5824 17.1473L25.6326 0"/><path id="shape84" transform="translate(415.248449839201, 201.702205732877)" fill="#a5c3e2" fill-rule="evenodd" stroke="#a5c3e2" stroke-width="1" stroke-linecap="square" stroke-linejoin="bevel" d="M0 0L7.24784 6.36396L8.83883 15.2978L2.65165 9.19239"/><path id="shape85" transform="translate(293.375015221397, 290.25001505926)" fill="#a5c3e2" fill-rule="evenodd" stroke="#a5c3e2" stroke-width="1" stroke-linecap="square" stroke-linejoin="bevel" d="M15.625 0L0 15.25L11.75 26.75L39.375 31.5L47.75 21.125L35.5 6.875L15.625 0"/><path id="shape86" transform="translate(237, 338.250013921627)" fill="#6e8fb2" fill-rule="evenodd" stroke="#6e8fb2" stroke-width="1" stroke-linecap="square" stroke-linejoin="bevel" d="M112.375 41.5L96.25 63.625L97 71L84.125 84.625L19.125 90.5L1.29498 41.7315L0 26.3519L22.25 0L31.25 37.25L60 50.5L94.5 46.25L112.375 41.5"/><path id="shape87" transform="translate(55.8750018049158, 345.625011164636)" fill="#6e8fb2" fill-rule="evenodd" stroke="#6e8fb2" stroke-width="1" stroke-linecap="square" stroke-linejoin="bevel" d="M0 12.375L12.625 12.375L20.875 6.25L23.75 0L34.375 24.5L38.25 42.375L13.5 51.75L7.875 41.125L0.5 24L0 12.375"/><path id="shape88" transform="translate(58.0000018735591, 280.250009052844)" fill="#a5c3e2" fill-rule="evenodd" stroke="#a5c3e2" stroke-width="1" stroke-linecap="square" stroke-linejoin="bevel" d="M14.5 0L3.75 13L0.25 26.875L0 34.625L8.625 35L13 19.875L14.5 0"/><path id="shape89" transform="translate(49.5000025093868, 354.500017971265)" fill="#84add8" fill-rule="evenodd" stroke="#84add8" stroke-width="1" stroke-linecap="square" stroke-linejoin="bevel" d="M28.75 21.25L44.75 8L70 0L112.25 18L108 37.25L61 73L0 72.25L28.75 21.25"/><path id="shape90" transform="translate(70.0000035486278, 361.000018300781)" fill="#6e8fb2" fill-rule="evenodd" stroke="#6e8fb2" stroke-width="1" stroke-linecap="square" stroke-linejoin="bevel" d="M59.75 0L60.25 16.5L34.25 42.25L0 61L33.25 53.5L69.25 33.75L78 21L91.25 11L59.75 0"/><path id="shape91" transform="translate(129.87500008176, 357.625000225135)" fill="#6e8fb2" fill-rule="evenodd" stroke="#6e8fb2" stroke-width="1" stroke-linecap="square" stroke-linejoin="bevel" d="M0.25 6.375L0 0L17.75 7.125L31.875 13.75L28.875 33.125L22.25 38.625L17.25 43L20.875 33.25L8.875 38.125L0.25 6.375"/><path id="shape92" transform="translate(67.7054767451994, 422.319540324494)" fill="#6e8fb2" fill-rule="evenodd" stroke="#6e8fb2" stroke-width="1" stroke-linecap="square" stroke-linejoin="bevel" d="M0 4.41942L27.2236 0L24.9255 5.83363L0 4.41942"/><path id="shape93" transform="translate(83.085044316308, 365.220641611686)" fill="#a5c3e2" fill-rule="evenodd" stroke="#a5c3e2" stroke-width="1" stroke-linecap="square" stroke-linejoin="bevel" d="M13.6118 9.01561L17.3241 0L18.9151 13.2583L0 28.461L8.48528 16.0867"/><path id="shape94" transform="translate(239.709204300664, 409.061282265292)" fill="#ffffff" fill-rule="evenodd" stroke="#ffffff" stroke-width="1" stroke-linecap="square" stroke-linejoin="bevel" d="M0 19.6222L12.9047 2.12132L29.1682 0L43.8406 10.7834L43.4871 16.617L13.0815 22.6274L0 19.6222"/><path id="shape95" transform="translate(325.622680178335, 407.823845369934)" fill="#ffffff" fill-rule="evenodd" stroke="#ffffff" stroke-width="1" stroke-linecap="square" stroke-linejoin="bevel" d="M10.0763 0.176777L28.461 13.0815L27.5772 16.2635L0 13.7886L5.12652 0L10.0763 0.176777"/><path id="shape96" transform="translate(332.516971452469, 399.338563801769)" fill="#ffffff" fill-rule="evenodd" stroke="#ffffff" stroke-width="1" stroke-linecap="square" stroke-linejoin="bevel" d="M0 3.71231L6.54074 0L28.1075 15.2028L31.1127 21.0364L22.981 21.9203L0.176777 9.54594L1.41421 3.18198L3.0052 3.18198L0 3.71231"/><path id="shape97" transform="translate(50.9116895390866, 373.705943352879)" fill="#ffffff" fill-rule="evenodd" stroke="#ffffff" stroke-width="1" stroke-linecap="square" stroke-linejoin="bevel" d="M0.176777 21.1248L8.39689 5.65685L15.8215 0L26.6933 0.265165L26.9584 2.56326L15.2912 23.2461L0 23.5997L0.176777 21.1248"/><path id="shape98" transform="translate(76.4117248532689, 205.723874604955)" fill="#ffffff" fill-rule="evenodd" stroke="#ffffff" stroke-width="1" stroke-linecap="square" stroke-linejoin="bevel" d="M2.43068 0.53033L8.08753 6.98268L0.0883883 12.1976L0 3.8007L2.34229 0L2.43068 0.53033"/><path id="shape99" transform="translate(73.6274919638786, 194.98469060302)" fill="#ffffff" fill-rule="evenodd" stroke="#ffffff" stroke-width="1" stroke-linecap="square" stroke-linejoin="bevel" d="M4.50781 0L0 3.66812L4.68458 6.49654L4.50781 0"/><path id="shape100" transform="translate(424.187520206046, 222.000010574904)" fill="#ffffff" fill-rule="evenodd" stroke="#ffffff" stroke-width="1" stroke-linecap="square" stroke-linejoin="bevel" d="M1 0L8.875 10L12.75 18.9375L3.1875 15.4375L0 9.5625L1 0"/><path id="shape101" transform="translate(412.937519670156, 233.000011098886)" fill="#ffffff" fill-rule="evenodd" stroke="#ffffff" stroke-width="1" stroke-linecap="square" stroke-linejoin="bevel" d="M0.5 9.5L12.0625 0L13 21.9375L0 10.25L0.5 9.5"/><path id="shape102" transform="translate(398.250018970521, 246.750011753863)" fill="#ffffff" fill-rule="evenodd" stroke="#ffffff" stroke-width="1" stroke-linecap="square" stroke-linejoin="bevel" d="M0.625 1.5625L7.875 0L6.3125 9.125L0 4.5L0.625 1.5625"/>
</svg>
