<?xml version="1.0" standalone="no"?>
<!DOCTYPE svg PUBLIC "-//W3C//DTD SVG 20010904//EN" "http://www.w3.org/TR/2001/REC-SVG-20010904/DTD/svg10.dtd">
<!-- Created using Krita: https://krita.org -->
<svg xmlns="http://www.w3.org/2000/svg" 
    xmlns:xlink="http://www.w3.org/1999/xlink"
    xmlns:krita="http://krita.org/namespaces/svg/krita"
    xmlns:sodipodi="http://sodipodi.sourceforge.net/DTD/sodipodi-0.dtd"
    width="480pt"
    height="480pt"
    viewBox="0 0 480 480">
<defs/>
<path id="shape0" transform="translate(247.200008010601, 41.7600013532471)" fill="#7e75a0" fill-rule="evenodd" stroke="#7e75a0" stroke-width="0.96" stroke-linecap="square" stroke-linejoin="bevel" d="M0 12.24L7.2 5.04L20.88 0L16.8 18L0 12.24" sodipodi:nodetypes="ccccc"/><path id="shape1" transform="translate(264.720008578343, 18.2400005910735)" fill="#716892" fill-rule="evenodd" stroke="#716892" stroke-width="0.96" stroke-linecap="square" stroke-linejoin="bevel" d="M0 38.16L10.56 8.4L23.28 0L86.16 0L96 6.96L106.8 17.52L142.08 27.84L110.4 68.88L66.96 54L1.2 36.72" sodipodi:nodetypes="cccccccccc"/><path id="shape2" transform="translate(333.120010794868, 24.2400007855055)" fill="#72657f" fill-rule="evenodd" stroke="#72657f" stroke-width="0.96" stroke-linecap="square" stroke-linejoin="bevel" d="M39.6 55.2L45.6 13.44L38.88 11.76L27.12 0L16.56 30.96L0 47.52L39.6 55.2" sodipodi:nodetypes="ccccccc"/><path id="shape3" transform="translate(263.722544967466, 40.4747921330377)" fill="#423f54" fill-rule="evenodd" stroke="#423f54" stroke-width="0.96" stroke-linecap="square" stroke-linejoin="bevel" d="M2.54558 1.6122L0 12.4734L2.96985 12.4734L6.1094 0L2.54558 1.6122" sodipodi:nodetypes="ccccc"/><path id="shape4" transform="translate(342.840011985917, 47.2800016529406)" fill="#423f54" fill-rule="evenodd" stroke="#423f54" stroke-width="0.96" stroke-linecap="square" stroke-linejoin="bevel" d="M0 19.08L18.6 0L19.2 0.96L2.4 20.4L0 19.08" sodipodi:nodetypes="ccccc"/><path id="shape5" transform="translate(273.360006437707, 17.5200004126011)" fill="#8f85b2" fill-rule="evenodd" stroke="#8f85b2" stroke-width="0.96" stroke-linecap="square" stroke-linejoin="bevel" d="M0 15.36L24.24 22.32L42.48 8.64L48.24 0.48L14.4 0L1.92 8.4L0 15.36" sodipodi:nodetypes="ccccccc"/><path id="shape6" transform="translate(247.68001038825, 42.7200017917718)" fill="#8f85b2" fill-rule="evenodd" stroke="#8f85b2" stroke-width="0.96" stroke-linecap="square" stroke-linejoin="bevel" d="M0 11.28L13.44 4.2L17.88 0L6 4.08L0 11.28" sodipodi:nodetypes="ccccc"/><path id="shape7" transform="translate(405.935854292414, 95.0351498343444)" fill="#716892" fill-rule="evenodd" stroke="#716892" stroke-width="0.96" stroke-linecap="square" stroke-linejoin="bevel" d="M12.2188 45.8205L29.5288 31.5652L45.8205 4.07293L35.2988 0L15.9523 12.5582L0 16.9706L9.50351 49.2146L12.2188 45.8205" sodipodi:nodetypes="cccccccc"/><path id="shape8" transform="translate(405.480014174794, 98.760003452458)" fill="#695c6e" fill-rule="evenodd" stroke="#695c6e" stroke-width="0.96" stroke-linecap="square" stroke-linejoin="bevel" d="M14.64 9.12L28.8 12.24L31.32 12.12L46.56 0L35.64 18.36L24.48 27.24L22.32 34.68L10.2 45.72L0 13.2L14.64 9.12" sodipodi:nodetypes="cccccccccc"/><path id="shape9" transform="translate(429.960029747476, 118.32000818616)" fill="#877eb7" fill-rule="evenodd" stroke="#877eb7" stroke-width="0.96" stroke-linecap="square" stroke-linejoin="bevel" d="M0 12.9L1.5 7.32L10.8 0L5.94 8.1L0.42 12.72L0.12 12.42L0 12.9" sodipodi:nodetypes="ccccccc"/><path id="shape10" transform="translate(426.480008154919, 94.560001808125)" fill="#877eb7" fill-rule="evenodd" stroke="#877eb7" stroke-width="0.96" stroke-linecap="square" stroke-linejoin="bevel" d="M14.76 0L0 9.96L16.2 3.24L23.88 3.48L14.76 0" sodipodi:nodetypes="ccccc"/><path id="shape11" transform="translate(414.166592325217, 118.369677585265)" fill="#423f54" fill-rule="evenodd" stroke="#423f54" stroke-width="0.96" stroke-linecap="square" stroke-linejoin="bevel" d="M0 3.13955L7.38219 0L7.97616 1.01823L0.339411 4.32749L0 3.13955" sodipodi:nodetypes="ccccc"/><path id="shape12" transform="translate(431.561419497246, 98.3444131335642)" fill="#423f54" fill-rule="evenodd" stroke="#423f54" stroke-width="0.96" stroke-linecap="square" stroke-linejoin="bevel" d="M1.18794 14.425L19.8556 0L21.0435 0.59397L17.9888 4.75176L0.254558 16.4614L0 15.6978" sodipodi:nodetypes="cccccc"/><path id="shape13" transform="translate(410.687621436357, 99.1929399708888)" fill="#3e3432" fill-rule="evenodd" stroke="#3e3432" stroke-width="0.96" stroke-linecap="square" stroke-linejoin="bevel" d="M6.27911 0L19.5161 1.95161L10.6915 8.06102L0 10.4369L6.27911 0" sodipodi:nodetypes="ccccc"/><path id="shape14" transform="translate(382.559998432828, 156.959999357007)" fill="#7b7297" fill-rule="evenodd" stroke="#7b7297" stroke-width="0.96" stroke-linecap="square" stroke-linejoin="bevel" d="M26.64 0L34.56 29.28L37.2 72L97.44 129.6L85.2 141.6L22.08 129.6L10.32 152.64L0 105.6L2.64 28.8L26.64 0" sodipodi:nodetypes="cccccccccc"/><path id="shape15" transform="translate(381.960024583158, 159.120010241052)" fill="#6e627b" fill-rule="evenodd" stroke="#6e627b" stroke-width="0.96" stroke-linecap="square" stroke-linejoin="bevel" d="M27.12 0L35.28 25.08L37.08 55.08L30 75.12L21.12 54L16.32 92.4L10.44 110.64L4.8 123.12L0 102.84L2.16 33.72L27.12 0" sodipodi:nodetypes="ccccccccccc"/><path id="shape16" transform="translate(404.75999937618, 229.07999964694)" fill="#6e627b" fill-rule="evenodd" stroke="#6e627b" stroke-width="0.96" stroke-linecap="square" stroke-linejoin="bevel" d="M15.84 0L49.92 33L33.48 26.52L34.44 34.44L19.32 34.92L28.2 39.84L22.2 45.36L15.48 50.28L15.84 55.08L0 58.32L11.76 21L15.84 0" sodipodi:nodetypes="cccccccccccc"/><path id="shape17" transform="translate(457.017264448464, 282.899286979424)" fill="#b4aed2" fill-rule="evenodd" stroke="#b4aed2" stroke-width="0.96" stroke-linecap="square" stroke-linejoin="bevel" d="M20.8738 1.35765L8.31558 0L0 6.61852L2.54558 13.5765L11.54 15.4432L22.9827 4.07294L20.8738 1.35765" sodipodi:nodetypes="ccccccc"/><path id="shape18" transform="translate(360.240025840563, 197.040014133979)" fill="#695c6e" fill-rule="evenodd" stroke="#695c6e" stroke-width="0.96" stroke-linecap="square" stroke-linejoin="bevel" d="M0 18.72L24.48 0L21.6 66.48L33.36 118.08L24.24 123.6L9.6 51.36L0 18.72" sodipodi:nodetypes="ccccccc"/><path id="shape19" transform="translate(384.213549440928, 314.88879902281)" fill="#9e95c4" fill-rule="evenodd" stroke="#9e95c4" stroke-width="0.96" stroke-linecap="square" stroke-linejoin="bevel" d="M0 5.68514L9.67322 0L15.7826 22.8254L7.04278 30.9713L0 5.68514" sodipodi:nodetypes="ccccc"/><path id="shape20" transform="translate(342.805381689429, 337.883918288937)" fill="#afa9cd" fill-rule="evenodd" stroke="#afa9cd" stroke-width="0.96" stroke-linecap="square" stroke-linejoin="bevel" d="M48.0267 7.80646L51.5905 21.7223L31.2258 43.6143L0 33.6017L16.9706 52.439L42.4264 51.9299L65.8458 24.9467L57.6999 0L48.0267 7.80646" sodipodi:nodetypes="ccccccccc"/><path id="shape21" transform="translate(297.960018177217, 363.840022196263)" fill="#877eb7" fill-rule="evenodd" stroke="#877eb7" stroke-width="0.96" stroke-linecap="square" stroke-linejoin="bevel" d="M44.16 7.92L21.72 0L0 14.88L20.76 11.4L61.32 26.4L44.16 7.92" sodipodi:nodetypes="cccccc"/><path id="shape22" transform="translate(233.160014224056, 363.480022174301)" fill="#746889" fill-rule="evenodd" stroke="#746889" stroke-width="0.96" stroke-linecap="square" stroke-linejoin="bevel" d="M85.68 0.24L75.12 0L48.36 11.4L24.12 17.52L0.6 18L0 32.04L42.24 24.6L64.8 15.12L85.08 0.96L85.68 0.24" sodipodi:nodetypes="cccccccccc"/><path id="shape23" transform="translate(81.967816270994, 352.478580527649)" fill="#73688a" fill-rule="evenodd" stroke="#73688a" stroke-width="0.96" stroke-linecap="square" stroke-linejoin="bevel" d="M17.4797 0L44.972 17.8191L40.5596 29.5288L12.0491 6.78822L0 13.9159L1.69706 5.76999L17.4797 0" sodipodi:nodetypes="ccccccc"/><path id="shape24" transform="translate(46.159931239843, 314.040267497534)" fill="#b0a8cf" fill-rule="evenodd" stroke="#b0a8cf" stroke-width="0.96" stroke-linecap="square" stroke-linejoin="bevel" d="M35.4685 52.6087L18.4979 61.2637L0 35.4685L0.424264 24.6073L18.2434 0L24.4376 5.17602L8.06102 29.0197L20.3647 52.5239L37.0807 44.1235L35.4685 52.6087" sodipodi:nodetypes="cccccccccc"/><path id="shape25" transform="translate(64.3184358041015, 289.008697030039)" fill="#756a8b" fill-rule="evenodd" stroke="#756a8b" stroke-width="0.96" stroke-linecap="square" stroke-linejoin="bevel" d="M0 24.9467L10.8612 0L21.892 11.2006L6.27911 30.3773L0 24.9467" sodipodi:nodetypes="ccccc"/><path id="shape26" transform="translate(54.2400029672437, 249.467272604103)" fill="#3c3230" fill-rule="evenodd" stroke="#3c3230" stroke-width="0.96" stroke-linecap="square" stroke-linejoin="bevel" d="M316.397 0L317.33 7.63675L330.12 71.6527L339.84 109.813L319.92 131.893L287.64 122.053L265.8 114.253L252.84 113.653L227.16 125.293L203.76 131.653L179.52 131.893L73.32 120.853L45 102.613L12.84 116.533L0 93.2527L28.44 53.7727L84.84 85.8127L211.8 79.8127L291.24 40.0927L316.397 0" sodipodi:nodetypes="cccccccccccccccccccc"/><path id="shape27" transform="translate(354.175641047907, 320.23451588759)" fill="#524750" fill-rule="evenodd" stroke="#524750" stroke-width="0.96" stroke-linecap="square" stroke-linejoin="bevel" d="M30.0379 0L0 6.44881L7.80646 58.0393L20.0253 61.094L40.7294 39.3717L30.0379 0" sodipodi:nodetypes="cccccc"/><path id="shape28" transform="translate(258.63136820126, 346.199469245782)" fill="#524750" fill-rule="evenodd" stroke="#524750" stroke-width="0.96" stroke-linecap="square" stroke-linejoin="bevel" d="M0.509117 32.5835L38.8626 0L48.3661 17.31L0 35.9776L0.509117 32.5835" sodipodi:nodetypes="ccccc"/><path id="shape29" transform="translate(83.1557609285264, 335.508039501422)" fill="#524750" fill-rule="evenodd" stroke="#524750" stroke-width="0.96" stroke-linecap="square" stroke-linejoin="bevel" d="M0 23.2497L10.8612 0L29.6985 5.09117L43.9538 35.2988L15.9042 17.232L0 23.2497" sodipodi:nodetypes="cccccc"/><path id="shape30" transform="translate(66.9599958937328, 157.679990330403)" fill="#000000" fill-rule="evenodd" stroke="#000000" stroke-width="0.96" stroke-linecap="square" stroke-linejoin="bevel" d="M28.8 16.56L0 82.32L7.92 139.68L63.36 190.8L187.92 194.4L279.36 149.04L311.76 82.32L295.92 0L28.8 16.56" sodipodi:nodetypes="ccccccccc"/><path id="shape31" transform="translate(228.423778111025, 217.223206524601)" fill="#ffffff" fill-rule="evenodd" stroke="#ffffff" stroke-width="0.96" stroke-linecap="square" stroke-linejoin="bevel" d="M21.7223 7.80646L0 38.0141L22.4011 83.4952L58.0393 94.3563L97.411 63.4699L94.0169 16.9706L36.9958 0L21.7223 7.80646" sodipodi:nodetypes="cccccccc"/><path id="shape32" transform="translate(76.0281222836102, 222.653786687716)" fill="#ffffff" fill-rule="evenodd" stroke="#ffffff" stroke-width="0.96" stroke-linecap="square" stroke-linejoin="bevel" d="M16.6312 0L0 44.8023L20.7041 83.4952L46.8388 91.3016L59.0576 67.8823L49.8935 22.4011L16.6312 0" sodipodi:nodetypes="ccccccc"/><path id="shape33" transform="translate(102.077934886985, 263.213428112574)" fill="#000000" fill-rule="evenodd" stroke="#000000" stroke-width="0.96" stroke-linecap="square" stroke-linejoin="bevel" d="M2.20617 0L0 3.30926L3.0547 6.44881L4.15779 2.54558L2.20617 0" sodipodi:nodetypes="ccccc"/><path id="shape34" transform="translate(273.226060129752, 253.455354536512)" fill="#000000" fill-rule="evenodd" stroke="#000000" stroke-width="0.96" stroke-linecap="square" stroke-linejoin="bevel" d="M1.52735 0.254558L0 2.20617L1.95161 5.85484L5.9397 4.24264L5.00632 1.10309L3.22441 0" sodipodi:nodetypes="cccccc"/><path id="shape35" transform="translate(0, 28.7999974491503)" fill="#b4aed2" fill-rule="evenodd" stroke="#b4aed2" stroke-width="0.96" stroke-linecap="square" stroke-linejoin="bevel" d="M12.96 198L0 246.24L20.88 260.64L53.28 211.2L129.6 181.44L240 187.2L293.76 211.2L324 234L391.68 162.72L423.36 106.56L411.12 82.8L444.96 15.84L423.36 0L368.64 49.68L290.16 24.48L198 30.24L109.44 74.88L25.92 24.48L11.52 46.08L56.88 120.96L12.96 198" sodipodi:nodetypes="ccccccccccccccccccccc"/><path id="shape36" transform="translate(257.95255584459, 37.3352383459274)" fill="#8a81b8" fill-rule="evenodd" stroke="#8a81b8" stroke-width="0.96" stroke-linecap="square" stroke-linejoin="bevel" d="M0 186.676L0.678823 175.136L10.1823 163.257L42.4264 156.129L29.1894 137.122L46.1599 109.63L58.3787 95.3746L87.5681 85.5316L72.2946 67.5428L72.2946 40.3899L57.6999 29.5288L52.9482 21.0435L111.666 41.0688L139.837 14.9341L135.765 25.1164L114.382 59.7364L159.863 13.9159L171.063 0L167.33 47.1782L153.414 76.7069L165.633 96.7322L134.407 155.79L66.1852 226.048L34.2805 202.665L0 186.676" sodipodi:nodetypes="ccccccccccccccccccccccccc"/><path id="shape37" transform="translate(29.8681915463627, 63.809318303593)" fill="#8a81b8" fill-rule="evenodd" stroke="#8a81b8" stroke-width="0.96" stroke-linecap="square" stroke-linejoin="bevel" d="M89.2652 35.6382L85.1922 43.1052L90.9622 58.0393L59.397 80.7799L28.85 88.2469L3.73352 31.9047L24.0982 52.9482L3.0547 15.9523L0 0L22.7406 11.8794L33.9411 11.54L80.1011 39.0323L89.2652 35.6382" sodipodi:nodetypes="ccccccccccccc"/><path id="shape38" transform="translate(34.6199492685898, 190.409720977244)" fill="#8a81b8" fill-rule="evenodd" stroke="#8a81b8" stroke-width="0.96" stroke-linecap="square" stroke-linejoin="bevel" d="M20.0253 49.5903L94.6957 20.7041L180.567 24.4376L205.38 26.1347L205.38 15.2735L131.013 0L67.5428 10.8612L17.6494 37.3352L0 56.6817L11.54 61.4334L20.0253 49.5903" sodipodi:nodetypes="ccccccccccc"/><path id="shape39" transform="translate(11.709688477883, 52.9481565956449)" fill="#d0cbe1" fill-rule="evenodd" stroke="#d0cbe1" stroke-width="0.96" stroke-linecap="square" stroke-linejoin="bevel" d="M14.2553 0L0 21.7223L29.5288 72.2946L11.3703 26.3044L19.6859 33.9411L15.9523 8.31558L14.2553 0" sodipodi:nodetypes="ccccccc"/><path id="shape40" transform="translate(0, 227.280007165446)" fill="#d0cbe1" fill-rule="evenodd" stroke="#d0cbe1" stroke-width="0.96" stroke-linecap="square" stroke-linejoin="bevel" d="M13.44 0L12.48 30.24L51.36 0L12.48 44.64L7.92 54L0 47.04L13.44 0" sodipodi:nodetypes="ccccccc"/><path id="shape41" transform="translate(76.3200049660253, 186.9600121652)" fill="#d0cbe1" fill-rule="evenodd" stroke="#d0cbe1" stroke-width="0.96" stroke-linecap="square" stroke-linejoin="bevel" d="M0 27.12L22.8 11.04L84.48 0L129.84 6.24L132.24 11.76L89.28 2.64L25.44 13.68L0 27.12" sodipodi:nodetypes="cccccccc"/><path id="shape42" transform="translate(122.160009030179, 58.3200043110677)" fill="#d0cbe1" fill-rule="evenodd" stroke="#d0cbe1" stroke-width="0.96" stroke-linecap="square" stroke-linejoin="bevel" d="M0 38.64L37.44 26.64L76.08 0L0 38.64" sodipodi:nodetypes="cccc"/><path id="shape43" transform="translate(391.001765630027, 29.0196622928536)" fill="#d0cbe1" fill-rule="evenodd" stroke="#d0cbe1" stroke-width="0.96" stroke-linecap="square" stroke-linejoin="bevel" d="M8.48528 20.8738L31.5652 0L51.5905 12.3885L46.669 24.4376L39.7111 6.1094L35.9776 5.76999L0 45.9902L19.3464 16.6312L8.48528 20.8738" sodipodi:nodetypes="ccccccccc"/><path id="shape44" transform="translate(244.715510730062, 94.186621674885)" fill="#8a81b8" fill-rule="evenodd" stroke="#8a81b8" stroke-width="0.96" stroke-linecap="square" stroke-linejoin="bevel" d="M0 114.382L0.339411 103.011L32.7532 51.2511L70.2581 8.82469L83.1558 0L69.749 12.0491L31.5652 57.0211L2.885 103.181L0 114.382" sodipodi:nodetypes="ccccccccc"/><path id="shape45" transform="translate(139.498021244438, 86.5498671954541)" fill="#8a81b8" fill-rule="evenodd" stroke="#8a81b8" stroke-width="0.96" stroke-linecap="square" stroke-linejoin="bevel" d="M0 53.9664L21.0435 26.6438L50.9117 0L51.4208 1.01823L20.5344 29.8682L0 53.9664" sodipodi:nodetypes="cccccc"/><path id="shape46" transform="translate(209.247031866657, 56.0028552441173)" fill="#8a81b8" fill-rule="evenodd" stroke="#8a81b8" stroke-width="0.96" stroke-linecap="square" stroke-linejoin="bevel" d="M0 14.0856L24.6073 0L28.0014 0.509117L0.169706 16.6312L0 14.0856" sodipodi:nodetypes="ccccc"/><path id="shape47" transform="translate(306.120018924606, 103.200006379914)" fill="#d0cbe1" fill-rule="evenodd" stroke="#d0cbe1" stroke-width="0.96" stroke-linecap="square" stroke-linejoin="bevel" d="M11.04 2.16L0 13.62L12.24 2.82L13.2 0L11.04 2.16" sodipodi:nodetypes="ccccc"/><path id="shape48" transform="translate(140.640004239966, 88.0800026554053)" fill="#d0cbe1" fill-rule="evenodd" stroke="#d0cbe1" stroke-width="0.96" stroke-linecap="square" stroke-linejoin="bevel" d="M50.76 0L21.24 27.12L0 52.2" sodipodi:nodetypes="ccc"/><path id="shape49" transform="translate(208.920011065618, 57.0000030190514)" fill="#d0cbe1" fill-rule="evenodd" stroke="#d0cbe1" stroke-width="0.96" stroke-linecap="square" stroke-linejoin="bevel" d="M0 15.96L28.56 0" sodipodi:nodetypes="cc"/><path id="shape50" transform="translate(251.880016586267, 121.200007981005)" fill="#d0cbe1" fill-rule="evenodd" stroke="#d0cbe1" stroke-width="0.96" stroke-linecap="square" stroke-linejoin="bevel" d="M50.64 0L25.56 29.52L0 69.6" sodipodi:nodetypes="ccc"/><path id="shape51" transform="translate(354.479998169057, 140.639999273573)" fill="#423f54" fill-rule="evenodd" stroke="#423f54" stroke-width="0.96" stroke-linecap="square" stroke-linejoin="bevel" d="M0 2.64L12.24 10.32L25.2 9.84L27.84 6.48L20.64 8.64L7.44 4.32L1.92 0" sodipodi:nodetypes="ccccccc"/><path id="shape52" transform="translate(349.91999819261, 137.759999288449)" fill="#423f54" fill-rule="evenodd" stroke="#423f54" stroke-width="0.96" stroke-linecap="square" stroke-linejoin="bevel" d="M3.12 0L0 3.12" sodipodi:nodetypes="cc"/><path id="shape53" transform="translate(344.159998222362, 53.0399997260404)" fill="#423f54" fill-rule="evenodd" stroke="#423f54" stroke-width="0.96" stroke-linecap="square" stroke-linejoin="bevel" d="M0 48.72L15.12 36.24L25.44 24.72L52.32 0L28.08 26.64L2.4 49.92" sodipodi:nodetypes="cccccc"/><path id="shape54" transform="translate(405.426732196876, 89.4348630672892)" fill="#423f54" fill-rule="evenodd" stroke="#423f54" stroke-width="0.96" stroke-linecap="square" stroke-linejoin="bevel" d="M0 38.0141L6.78822 23.08L17.8191 0L7.46705 18.4979L0 38.0141" sodipodi:nodetypes="ccccc"/><path id="shape55" transform="translate(404.578228954892, 126.091285282502)" fill="#423f54" fill-rule="evenodd" stroke="#423f54" stroke-width="0.96" stroke-linecap="square" stroke-linejoin="bevel" d="M0 0L0 5.76999L2.20617 10.352" sodipodi:nodetypes="ccc"/><path id="shape56" transform="translate(112.005713976079, 310.731003470001)" fill="#d8afb5" fill-rule="evenodd" stroke="#d8afb5" stroke-width="0.96" stroke-linecap="square" stroke-linejoin="bevel" d="M79.9314 0.509117L103.011 4.41235L121.17 21.892L119.982 111.157L121.679 134.237L101.993 155.79L54.6452 162.917L10.6915 142.213L0 93.1684L23.08 36.6564L48.1964 7.46705L75.3493 0L79.9314 0.509117" sodipodi:nodetypes="ccccccccccccc"/><path id="shape57" transform="translate(153.840005237198, 309.84001054793)" fill="#aa8887" fill-rule="evenodd" stroke="#aa8887" stroke-width="0.96" stroke-linecap="square" stroke-linejoin="bevel" d="M6.12 7.92L0 15L36.84 11.88L69 27.24L74.76 53.4L78.96 90.24L79.8 22.44L61.32 5.04L33.24 0L6.12 7.92" sodipodi:nodetypes="cccccccccc"/><path id="shape58" transform="translate(123.840002802842, 373.200008446549)" fill="#e6ccce" fill-rule="evenodd" stroke="#e6ccce" stroke-width="0.96" stroke-linecap="square" stroke-linejoin="bevel" d="M5.04 17.76L13.44 6.24L15.36 19.44L24.24 2.88L31.2 0L33.6 12.24L36.24 47.28L34.08 82.56L18.72 59.04L10.32 74.64L0 56.16L0 43.68L5.04 17.76" sodipodi:nodetypes="ccccccccccccc"/><path id="shape59" transform="translate(170.723859370838, 309.373355500038)" fill="#5c4443" fill-rule="evenodd" stroke="#5c4443" stroke-width="0.96" stroke-linecap="square" stroke-linejoin="bevel" d="M14.0856 1.01823L16.4614 5.09117L6.27911 31.5652L1.86676 43.1052L0 64.3184L5.43058 43.4446L14.425 14.7644L20.3647 2.71529L22.9103 1.35765L15.7826 0L14.0856 1.01823" sodipodi:nodetypes="ccccccccccc"/>
</svg>
