<?xml version="1.0" standalone="no"?>
<!DOCTYPE svg PUBLIC "-//W3C//DTD SVG 20010904//EN" "http://www.w3.org/TR/2001/REC-SVG-20010904/DTD/svg10.dtd">
<!-- Created using Krita: https://krita.org -->
<svg xmlns="http://www.w3.org/2000/svg" 
    xmlns:xlink="http://www.w3.org/1999/xlink"
    xmlns:krita="http://krita.org/namespaces/svg/krita"
    xmlns:sodipodi="http://sodipodi.sourceforge.net/DTD/sodipodi-0.dtd"
    width="480pt"
    height="480pt"
    viewBox="0 0 480 480">
<defs/>
<path id="shape0" transform="translate(65.51999969279, 383.279998202877)" fill="#58afc2" fill-rule="evenodd" stroke="#58afc2" stroke-width="0.96" stroke-linecap="square" stroke-linejoin="bevel" d="M0 55.68L27.12 32.16L79.44 0L96.72 29.52L84.48 29.28L53.04 78.96L33.12 76.08L51.84 51.36L23.28 82.32L0 55.68" sodipodi:nodetypes="cccccccccc"/><path id="shape1" transform="translate(65.1600041275592, 408.960025905565)" fill="#8fd1e0" fill-rule="evenodd" stroke="#8fd1e0" stroke-width="0.96" stroke-linecap="square" stroke-linejoin="bevel" d="M37.68 0L10.56 30.6L22.2 55.44L0 29.64L37.68 0" sodipodi:nodetypes="ccccc"/><path id="shape2" transform="translate(110.520007000888, 429.000027174998)" fill="#8fd1e0" fill-rule="evenodd" stroke="#8fd1e0" stroke-width="0.96" stroke-linecap="square" stroke-linejoin="bevel" d="M0 32.16L29.28 0L8.64 34.44L0 32.16" sodipodi:nodetypes="cccc"/><path id="shape3" transform="translate(121.43999991639, 382.079999736942)" fill="#418594" fill-rule="evenodd" stroke="#418594" stroke-width="0.96" stroke-linecap="square" stroke-linejoin="bevel" d="M30.12 28.92L27 33.24L17.52 22.56L0 15.12L27.12 0L36 24.12L30.12 28.92" sodipodi:nodetypes="ccccccc"/><path id="shape4" transform="translate(88.9257474461309, 428.421850052972)" fill="#418594" fill-rule="evenodd" stroke="#418594" stroke-width="0.96" stroke-linecap="square" stroke-linejoin="bevel" d="M2.885 32.4138L17.9888 14.1704L35.0442 0L21.2981 14.425L0 37.2504L2.885 32.4138" sodipodi:nodetypes="cccccc"/><path id="shape5" transform="translate(105.839992455978, 144.719989684705)" fill="#d1c796" fill-rule="evenodd" stroke="#d1c796" stroke-width="0.96" stroke-linecap="square" stroke-linejoin="bevel" d="M111.6 0L156.24 8.64L209.52 64.8L231.84 149.76L224.64 206.64L176.4 289.44L134.16 313.2L88.56 306.72L48.24 271.44L0 210.96L2.16 181.44L9.36 128.16L7.92 95.28L54.72 22.32L111.6 0" sodipodi:nodetypes="ccccccccccccccc"/><path id="shape6" transform="translate(184.130612433069, 179.718265960018)" fill="#9b7f5a" fill-rule="evenodd" stroke="#9b7f5a" stroke-width="0.96" stroke-linecap="square" stroke-linejoin="bevel" d="M0 9.84293L8.40043 0L44.7174 9.58837L23.5042 36.911L0 9.84293" sodipodi:nodetypes="ccccc"/><path id="shape7" transform="translate(265.334758100556, 193.634127913485)" fill="#9b7f5a" fill-rule="evenodd" stroke="#9b7f5a" stroke-width="0.96" stroke-linecap="square" stroke-linejoin="bevel" d="M9.75807 0L0 15.6978L10.7763 39.8808L24.3528 38.4383L30.547 17.8191L9.75807 0" sodipodi:nodetypes="cccccc"/><path id="shape8" transform="translate(281.202225933601, 253.879619792799)" fill="#9b7f5a" fill-rule="evenodd" stroke="#9b7f5a" stroke-width="0.96" stroke-linecap="square" stroke-linejoin="bevel" d="M0 11.3703L6.27911 33.9411L34.6199 47.3479L34.7897 35.2988L23.4194 0L0 11.3703" sodipodi:nodetypes="cccccc"/><path id="shape9" transform="translate(279.33546402336, 317.349524740999)" fill="#9b7f5a" fill-rule="evenodd" stroke="#9b7f5a" stroke-width="0.96" stroke-linecap="square" stroke-linejoin="bevel" d="M0 6.78823L11.54 0L27.4923 24.6073L21.2132 30.2076L5.43058 32.2441L0 6.78823" sodipodi:nodetypes="cccccc"/><path id="shape10" transform="translate(157.317117344869, 323.28922172813)" fill="#9b7f5a" fill-rule="evenodd" stroke="#9b7f5a" stroke-width="0.96" stroke-linecap="square" stroke-linejoin="bevel" d="M0 35.1291L19.007 0L23.9285 51.4208L0.339411 42.2567L0 35.1291" sodipodi:nodetypes="ccccc"/><path id="shape11" transform="translate(110.817775217044, 321.252754189685)" fill="#9b7f5a" fill-rule="evenodd" stroke="#9b7f5a" stroke-width="0.96" stroke-linecap="square" stroke-linejoin="bevel" d="M0.169706 41.7476L0 13.9159L6.44881 0L16.122 46.669L0.169706 41.7476" sodipodi:nodetypes="ccccc"/><path id="shape12" transform="translate(121.50922979388, 186.506485395913)" fill="#9b7f5a" fill-rule="evenodd" stroke="#9b7f5a" stroke-width="0.96" stroke-linecap="square" stroke-linejoin="bevel" d="M25.965 0L35.4685 0L47.0085 50.2329L24.777 47.1782L2.885 55.4937L0 40.0505L25.965 0" sodipodi:nodetypes="ccccccc"/><path id="shape13" transform="translate(137.280004551279, 360.000011935172)" fill="#bbb286" fill-rule="evenodd" stroke="#bbb286" stroke-width="0.96" stroke-linecap="square" stroke-linejoin="bevel" d="M89.04 9.84L130.8 0L186 4.56L145.92 73.92L102.72 97.92L56.64 92.4L30.96 72.24L0 35.28L62.64 31.2L89.04 9.84" sodipodi:nodetypes="cccccccccc"/><path id="shape14" transform="translate(129.599999720461, 227.039999510289)" fill="#d1c796" fill-rule="evenodd" stroke="#d1c796" stroke-width="0.96" stroke-linecap="square" stroke-linejoin="bevel" d="M0 54.24L41.76 60.48L58.56 0L0 54.24" sodipodi:nodetypes="cccc"/><path id="shape15" transform="translate(147.64389812011, 146.965075600018)" fill="#e6deb6" fill-rule="evenodd" stroke="#e6deb6" stroke-width="0.96" stroke-linecap="square" stroke-linejoin="bevel" d="M63.8093 0L67.5428 3.73352L16.9706 30.2076L9.84293 39.7111L0 40.3899L12.5582 19.007L63.8093 0" sodipodi:nodetypes="ccccccc"/><path id="shape16" transform="translate(104.878074103548, 229.102589061149)" fill="#e6deb6" fill-rule="evenodd" stroke="#e6deb6" stroke-width="0.96" stroke-linecap="square" stroke-linejoin="bevel" d="M15.2735 0L19.3464 13.237L25.2861 10.8974L31.735 8.48528L30.0379 56.0029L27.4923 110.139L31.5652 133.389L21.2132 131.352L12.5582 91.9804L5.43058 105.217L5.76999 133.898L0 125.922L7.12764 62.4517L10.1823 42.2567L7.97616 10.8974L15.2735 0" sodipodi:nodetypes="cccccccccccccccc"/><path id="shape17" transform="translate(121.199999201804, 186.599998771094)" fill="#b99f7e" fill-rule="evenodd" stroke="#b99f7e" stroke-width="0.96" stroke-linecap="square" stroke-linejoin="bevel" d="M26.64 0L36.6 0.96L19.8 33.24L15.84 51L3.12 53.4L0 40.68L26.64 0" sodipodi:nodetypes="ccccccc"/><path id="shape18" transform="translate(110.640001306233, 322.68000380961)" fill="#b99f7e" fill-rule="evenodd" stroke="#b99f7e" stroke-width="0.96" stroke-linecap="square" stroke-linejoin="bevel" d="M0 11.04L6.72 0L15.48 38.4L0.6 41.64L0 11.04" sodipodi:nodetypes="ccccc"/><path id="shape19" transform="translate(201.360005050034, 223.920005615831)" fill="#35322a" fill-rule="evenodd" stroke="#35322a" stroke-width="0.96" stroke-linecap="square" stroke-linejoin="bevel" d="M19.92 7.44L0 54.24L7.44 114.72L30.48 136.56L62.4 94.32L57.84 26.64L38.64 0L19.92 7.44" sodipodi:nodetypes="cccccccc"/><path id="shape20" transform="translate(209.040005242646, 251.04000629599)" fill="#ffffff" fill-rule="evenodd" stroke="#ffffff" stroke-width="0.96" stroke-linecap="square" stroke-linejoin="bevel" d="M13.92 0L0 37.2L4.8 76.56L18.48 90L36.24 50.88L27.36 7.92L13.92 0" sodipodi:nodetypes="ccccccc"/><path id="shape21" transform="translate(229.920005766308, 297.360007457679)" fill="#35322a" fill-rule="evenodd" stroke="#35322a" stroke-width="0.96" stroke-linecap="square" stroke-linejoin="bevel" d="M0.24 0L0 6.48L1.68 6.24L0.24 0" sodipodi:nodetypes="cccc"/><path id="shape22" transform="translate(192.403751810465, 144.720009863828)" fill="#35322a" fill-rule="evenodd" stroke="#35322a" stroke-width="0.96" stroke-linecap="square" stroke-linejoin="bevel" d="M17.1827 2.92388L43.7416 24.1371L66.2276 75.2185L78.107 157.356L73.3553 196.728L47.5962 230.329L34.6624 243.906L24.8194 284.635L12.2612 305.679L0 306.867L2.54558 308.394L12.2612 307.588L24.8619 289.472L39.9163 247.2L71.5963 204.48L79.2763 196.08L78.7963 132L67.5163 60.72L43.9963 20.88L21.4363 0L15.4363 1.92L17.1827 2.92388" sodipodi:nodetypes="cccccccccccccccccccccc"/><path id="shape23" transform="translate(274.320007391635, 394.440010628304)" fill="#35322a" fill-rule="evenodd" stroke="#35322a" stroke-width="0.96" stroke-linecap="square" stroke-linejoin="bevel" d="M0 25.92L0.24 9.6L1.68 0.84L6.36 0L9.24 9.6L6.48 22.8L0 25.92" sodipodi:nodetypes="ccccccc"/><path id="shape24" transform="translate(285.600007695578, 390.000010508667)" fill="#35322a" fill-rule="evenodd" stroke="#35322a" stroke-width="0.96" stroke-linecap="square" stroke-linejoin="bevel" d="M0.48 26.16L0 10.56L1.92 0L7.2 0.6L8.88 13.2L4.8 25.8L0.48 26.16" sodipodi:nodetypes="ccccccc"/><path id="shape25" transform="translate(292.200007873417, 383.760010340528)" fill="#35322a" fill-rule="evenodd" stroke="#35322a" stroke-width="0.96" stroke-linecap="square" stroke-linejoin="bevel" d="M0 31.56L5.76 15.84L5.88 2.76L8.4 0L12.84 1.92L12.24 15.24L0.24 35.76L0 31.56" sodipodi:nodetypes="cccccccc"/><path id="shape26" transform="translate(325.080013904154, 314.880013467885)" fill="#d1c796" fill-rule="evenodd" stroke="#d1c796" stroke-width="7.2" stroke-linecap="square" stroke-linejoin="bevel" d="M1.08 0.12L20.16 0L19.08 35.28L3.84 32.88L0 1.08L1.08 0.12" sodipodi:nodetypes="cccccc"/><path id="shape27" transform="translate(217.680007457933, 12.0000004111319)" fill="#58afc2" fill-rule="evenodd" stroke="#58afc2" stroke-width="0.96" stroke-linecap="square" stroke-linejoin="bevel" d="M22.32 38.4L48.96 48L28.56 127.2L25.2 123.84L22.32 13.92L0 0L0.72 134.16L43.2 141.84L76.56 22.08L49.44 25.44L18.24 12.72L22.32 38.4" sodipodi:nodetypes="cccccccccccc"/><path id="shape28" transform="translate(235.0200043301, 24.60000045324)" fill="#58afc2" fill-rule="evenodd" stroke="#58afc2" stroke-width="0.96" stroke-linecap="square" stroke-linejoin="bevel" d="M0 0L3.48 0.3L8.82 5.64L3.54 8.64L0 0" sodipodi:nodetypes="ccccc"/><path id="shape29" transform="translate(236.040004348893, 31.08000057263)" fill="#58afc2" fill-rule="evenodd" stroke="#58afc2" stroke-width="0.96" stroke-linecap="square" stroke-linejoin="bevel" d="M2.4 0L3.96 3.78L11.58 4.44L0 1.14L0.78 3.9" sodipodi:nodetypes="ccccc"/><path id="shape30" transform="translate(237.180004369897, 30.4200005604699)" fill="#58afc2" fill-rule="evenodd" stroke="#58afc2" stroke-width="0.96" stroke-linecap="square" stroke-linejoin="bevel" d="M0.6 0L0 2.1L1.5 4.92L6.06 4.26L0.6 0" sodipodi:nodetypes="ccccc"/><path id="shape31" transform="translate(315.652473340676, 170.384453351634)" fill="#58afc2" fill-rule="evenodd" stroke="#58afc2" stroke-width="0.96" stroke-linecap="square" stroke-linejoin="bevel" d="M13.9159 87.5681L35.9776 31.9047L63.4699 0L67.8823 0L61.4334 17.31L73.9917 40.7294L58.0393 64.4881L79.7616 53.627L87.5681 84.8528L50.2329 110.309L85.871 104.199L83.8346 139.159L55.324 139.498L84.174 145.268L80.1011 174.118L43.4446 169.706L75.0099 187.694L68.9005 220.617L45.1417 207.041L66.5246 228.084L46.4993 269.153L56.0029 290.875L31.5652 271.529L0 200.253L19.007 170.045L21.3829 112.345L13.9159 87.5681" sodipodi:nodetypes="ccccccccccccccccccccccccccc"/><path id="shape32" transform="translate(240, 396.0929423533)" fill="#58afc2" fill-rule="evenodd" stroke="#58afc2" stroke-width="0.96" stroke-linecap="square" stroke-linejoin="bevel" d="M0 9.84293L46.8025 76.7069L67.5066 67.2034L27.4561 25.4558L76.3313 71.6158L101.787 49.2146L19.6496 0L14.8979 9.50352L5.05493 2.37588L6.41258 8.48528L0 9.84293" sodipodi:nodetypes="ccccccccccc"/><path id="shape33" transform="translate(268.320002671429, 33.9000003375129)" fill="#8fd1e0" fill-rule="evenodd" stroke="#8fd1e0" stroke-width="0.96" stroke-linecap="square" stroke-linejoin="bevel" d="M0 3.78L15.9 6.96L25.68 0L0 3.78" sodipodi:nodetypes="cccc"/><path id="shape34" transform="translate(246.120010874732, 64.8000028631669)" fill="#8fd1e0" fill-rule="evenodd" stroke="#8fd1e0" stroke-width="0.96" stroke-linecap="square" stroke-linejoin="bevel" d="M18.96 0L13.08 37.56L0 73.44L18.96 0" sodipodi:nodetypes="cccc"/><path id="shape35" transform="translate(217.440009607516, 11.6400005143096)" fill="#8fd1e0" fill-rule="evenodd" stroke="#8fd1e0" stroke-width="0.96" stroke-linecap="square" stroke-linejoin="bevel" d="M7.68 4.92L4.32 46.68L7.56 115.8L3.12 123.24L0.6 124.44L0 0L7.68 4.92" sodipodi:nodetypes="ccccccc"/><path id="shape36" transform="translate(258.00001680404, 71.1600046347886)" fill="#418594" fill-rule="evenodd" stroke="#418594" stroke-width="0.96" stroke-linecap="square" stroke-linejoin="bevel" d="M16.32 30.96L26.16 0L2.88 83.04L0 73.44L13.68 36.72L16.32 30.96" sodipodi:nodetypes="cccccc"/><path id="shape37" transform="translate(333.301861629956, 187.015606678316)" fill="#418594" fill-rule="evenodd" stroke="#418594" stroke-width="0.96" stroke-linecap="square" stroke-linejoin="bevel" d="M43.9538 0L0 86.8893L1.18794 92.4896L30.547 33.9411L50.0632 10.1823L43.9538 0" sodipodi:nodetypes="cccccc"/><path id="shape38" transform="translate(329.059220825094, 220.956733117211)" fill="#418594" fill-rule="evenodd" stroke="#418594" stroke-width="0.96" stroke-linecap="square" stroke-linejoin="bevel" d="M0 35.6382L12.7279 19.0433L30.3773 0L4.75176 54.6452L0 35.6382" sodipodi:nodetypes="ccccc"/><path id="shape39" transform="translate(334.829212319707, 268.983427028249)" fill="#418594" fill-rule="evenodd" stroke="#418594" stroke-width="0.96" stroke-linecap="square" stroke-linejoin="bevel" d="M5.26087 0L11.0309 31.5652L9.1641 54.6452L0 64.1487L1.01823 30.547L0 6.95793L5.26087 0" sodipodi:nodetypes="ccccccc"/><path id="shape40" transform="translate(319.216285460131, 358.418285428919)" fill="#418594" fill-rule="evenodd" stroke="#418594" stroke-width="0.96" stroke-linecap="square" stroke-linejoin="bevel" d="M0 4.92146L43.7841 83.3255L46.4993 74.1614L3.39411 0L0 4.92146" sodipodi:nodetypes="ccccc"/><path id="shape41" transform="translate(335.168615077951, 170.214744771233)" fill="#8fd1e0" fill-rule="evenodd" stroke="#8fd1e0" stroke-width="0.96" stroke-linecap="square" stroke-linejoin="bevel" d="M44.972 0L19.3464 34.7897L0 73.3128L16.122 31.5652L44.972 0" sodipodi:nodetypes="ccccc"/><path id="shape42" transform="translate(374.040001365686, 223.560000816257)" fill="#8fd1e0" fill-rule="evenodd" stroke="#8fd1e0" stroke-width="0.96" stroke-linecap="square" stroke-linejoin="bevel" d="M4.56 7.92L21.6 0L8.64 9.36L0 10.68L4.56 7.92" sodipodi:nodetypes="ccccc"/><path id="shape43" transform="translate(369.24000134816, 274.200001001152)" fill="#8fd1e0" fill-rule="evenodd" stroke="#8fd1e0" stroke-width="0.96" stroke-linecap="square" stroke-linejoin="bevel" d="M0 6L19.2 4.2L33 0L0 6" sodipodi:nodetypes="cccc"/><path id="shape44" transform="translate(361.800001320995, 341.160001245635)" fill="#8fd1e0" fill-rule="evenodd" stroke="#8fd1e0" stroke-width="0.96" stroke-linecap="square" stroke-linejoin="bevel" d="M0 0L25.92 17.64L29.16 16.44L0 0" sodipodi:nodetypes="cccc"/><path id="shape45" transform="translate(330.120001205326, 404.280001476097)" fill="#8fd1e0" fill-rule="evenodd" stroke="#8fd1e0" stroke-width="0.96" stroke-linecap="square" stroke-linejoin="bevel" d="M0 0L41.52 57.12L16.2 37.68L0 0" sodipodi:nodetypes="cccc"/><path id="shape46" transform="translate(300.718384802801, 427.318788337164)" fill="#8fd1e0" fill-rule="evenodd" stroke="#8fd1e0" stroke-width="0.96" stroke-linecap="square" stroke-linejoin="bevel" d="M10.5217 0L0 25.6256L15.6129 41.0688L41.9173 17.8191L10.5217 0" sodipodi:nodetypes="ccccc"/><path id="shape47" transform="translate(284.256938230639, 450.738165934673)" fill="#8fd1e0" fill-rule="evenodd" stroke="#8fd1e0" stroke-width="0.96" stroke-linecap="square" stroke-linejoin="bevel" d="M10.8612 0L0 20.0253L2.03647 21.892L23.4194 12.5582L10.8612 0" sodipodi:nodetypes="ccccc"/><path id="shape48" transform="translate(240, 395.820024764939)" fill="#418594" fill-rule="evenodd" stroke="#418594" stroke-width="0.96" stroke-linecap="square" stroke-linejoin="bevel" d="M0 10.8L15.96 33.36L16.2 21.84L25.74 14.28L34.92 11.58L34.8 8.52L19.92 0L14.94 9.12L5.16002 2.1L5.88002 9.06L0 10.8" sodipodi:nodetypes="ccccccccccc"/><path id="shape49" transform="translate(233.854358931308, 32.2440698091063)" fill="#58afc2" fill-rule="evenodd" stroke="#58afc2" stroke-width="0.96" stroke-linecap="square" stroke-linejoin="bevel" d="M0 0L10.8612 5.43058L12.0491 16.2917L1.01823 19.5161L0 0" sodipodi:nodetypes="ccccc"/><path id="shape50" transform="translate(328.040987182073, 252.861392085509)" fill="#418594" fill-rule="evenodd" stroke="#418594" stroke-width="0.96" stroke-linecap="square" stroke-linejoin="bevel" d="M6.1094 26.3892L0 3.81838L3.90323 0L6.1094 26.3892" sodipodi:nodetypes="cccc"/><path id="shape51" transform="translate(109.200007167515, 358.800023550405)" fill="#e973bd" fill-rule="evenodd" stroke="#e973bd" stroke-width="0.96" stroke-linecap="square" stroke-linejoin="bevel" d="M7.2 0L54.24 2.52L87.12 27.48L91.32 45.24L79.44 55.08L48.48 42.36L13.44 39.6L7.2 28.56L10.56 21.84L1.08 17.4L0 6.96L7.2 0" sodipodi:nodetypes="cccccccccccc"/><path id="shape52" transform="translate(117.240003981864, 379.920012903359)" fill="#bb5193" fill-rule="evenodd" stroke="#bb5193" stroke-width="0.96" stroke-linecap="square" stroke-linejoin="bevel" d="M1.8 0.6L42 0L65.64 11.04L76.08 19.92L73.92 21.96L53.52 7.2L39.72 1.68L0 2.76L1.8 0.6" sodipodi:nodetypes="ccccccccc"/><path id="shape53" transform="translate(173.040000396287, 380.040000870346)" fill="#bb5193" fill-rule="evenodd" stroke="#bb5193" stroke-width="0.96" stroke-linecap="square" stroke-linejoin="bevel" d="M15.6 0L23.88 5.4L27.72 25.08L15.36 34.92L0 27.96L19.32 29.28L24.48 19.44L15.6 0" sodipodi:nodetypes="cccccccc"/><path id="shape54" transform="translate(109.035869780124, 358.588004428641)" fill="#e68fc5" fill-rule="evenodd" stroke="#e68fc5" stroke-width="0.96" stroke-linecap="square" stroke-linejoin="bevel" d="M0 6.70337L6.87308 0L25.1164 0.59397L7.80646 1.6122L3.30926 8.90955L2.885 18.9222L0.0848528 16.5463L0 6.70337" sodipodi:nodetypes="cccccccc"/><path id="shape55" transform="translate(117.521149613939, 389.389570814703)" fill="#e68fc5" fill-rule="evenodd" stroke="#e68fc5" stroke-width="0.96" stroke-linecap="square" stroke-linejoin="bevel" d="M0 0L23.7588 0.59397L30.1227 3.90323L10.1823 6.78823L6.95793 9.67322L5.26087 9.67322L0 0" sodipodi:nodetypes="ccccccc"/><path id="shape56" transform="translate(116.520006695933, 381.420021918665)" fill="#bb5193" fill-rule="evenodd" stroke="#bb5193" stroke-width="0.96" stroke-linecap="square" stroke-linejoin="bevel" d="M0.66 2.4L0 6.36L4.92 2.52L23.58 0.18L1.5 0L0.66 2.4" sodipodi:nodetypes="cccccc"/><path id="shape57" transform="translate(254.982716906057, 341.447738046581)" fill="#bbb286" fill-rule="evenodd" stroke="#bbb286" stroke-width="0.96" stroke-linecap="square" stroke-linejoin="bevel" d="M0 20.9586L16.6312 0L17.6494 0.509117L1.35765 21.9769L0 20.9586" sodipodi:nodetypes="ccccc"/><path id="shape58" transform="translate(255.322107306867, 341.108298894518)" fill="#bbb286" fill-rule="evenodd" stroke="#bbb286" stroke-width="0.96" stroke-linecap="square" stroke-linejoin="bevel" d="M6.44881 22.1466L20.7889 1.27279L16.5463 0L0 23.5042L6.44881 22.1466" sodipodi:nodetypes="ccccc"/><path id="shape59" transform="translate(215.526142918376, 144.928603190782)" fill="#bbb286" fill-rule="evenodd" stroke="#bbb286" stroke-width="0.96" stroke-linecap="square" stroke-linejoin="bevel" d="M0 0L2.20617 0L2.71529 1.52735L9.67322 4.41235L26.4741 20.5344L49.2146 60.9243L52.6087 89.2652L60.2455 132.37L61.2637 168.857L61.2637 197.707L56.5968 195.84L56.1726 128.807L44.8871 60.4152L20.9586 19.601L0 0" sodipodi:nodetypes="ccccccccccccccc"/><path id="shape60" transform="translate(817.199970571215, 184.319993362318)" fill="#bbb286" fill-rule="evenodd" stroke="#bbb286" stroke-width="0.96" stroke-linecap="square" stroke-linejoin="bevel" d="M0 0L23.04 55.68" sodipodi:nodetypes="cc"/>
</svg>
