<?xml version="1.0" standalone="no"?>
<!DOCTYPE svg PUBLIC "-//W3C//DTD SVG 20010904//EN" "http://www.w3.org/TR/2001/REC-SVG-20010904/DTD/svg10.dtd">
<!-- Created using Krita: https://krita.org -->
<svg xmlns="http://www.w3.org/2000/svg" 
    xmlns:xlink="http://www.w3.org/1999/xlink"
    xmlns:krita="http://krita.org/namespaces/svg/krita"
    xmlns:sodipodi="http://sodipodi.sourceforge.net/DTD/sodipodi-0.dtd"
    width="474pt"
    height="434pt"
    viewBox="0 0 474 434">
<defs/>
<path id="shape0" transform="translate(47.7297097648912, 3.88908746232447)" fill="#81a950" fill-rule="evenodd" stroke="#81a950" stroke-width="1" stroke-linecap="square" stroke-linejoin="bevel" d="M59.7505 25.8094L94.0452 0L136.825 85.9135L199.758 153.089L265.872 194.101L229.81 259.862L272.943 312.188L273.65 320.319L305.824 348.25L309.359 357.442L337.997 370.878L341.886 380.777L374.06 393.858L363.806 415.779L313.602 422.496L297.338 426.385L261.63 413.304L243.245 412.95L202.586 392.091L124.097 368.403L73.5391 327.037L44.5477 284.257L8.13173 252.084L0 205.768L20.5061 113.844L47.3762 71.7713L59.7505 25.8094"/><path id="shape1" transform="translate(52.3259035751984, 3.53553402535124)" fill="#aece78" fill-rule="evenodd" stroke="#aece78" stroke-width="1" stroke-linecap="square" stroke-linejoin="bevel" d="M54.4472 25.9862L88.7419 0L114.375 51.7956L108.894 103.414L100.409 122.153L101.116 135.057L130.284 164.933L120.738 194.808L95.813 199.404L124.451 242.007L65.7609 267.817L38.5373 254.028L45.9619 219.557L15.3796 253.851L0 203.824L4.24264 164.756L13.435 185.969L37.2999 160.336L16.4402 112.784L42.2496 69.4732L54.4472 25.9862"/><path id="shape2" transform="translate(242.007300821126, 152.027961070977)" fill="#aece78" fill-rule="evenodd" stroke="#aece78" stroke-width="1" stroke-linecap="square" stroke-linejoin="bevel" d="M0 0L24.9255 38.5373L63.9932 59.397L72.3017 45.2548"/><path id="shape3" transform="translate(153.250003336718, 119.750002607322)" fill="#ffffff" fill-rule="evenodd" stroke="#ffffff" stroke-width="1" stroke-linecap="square" stroke-linejoin="bevel" d="M1 4L0 22.75L11 41.5L33 45.25L54.75 24.75L27.25 1.75L2.5 0"/><path id="shape4" transform="translate(172.445664334299, 121.268811617969)" fill="#000000" fill-rule="evenodd" stroke="#000000" stroke-width="1" stroke-linecap="square" stroke-linejoin="bevel" d="M2.82843 0.0883883L0 11.7557L9.72272 23.0694L21.2132 17.5009L23.0694 11.9324L8.48528 0"/><path id="shape5" transform="translate(181.284499463573, 125.157899190843)" fill="#ffffff" fill-rule="evenodd" stroke="#ffffff" stroke-width="1" stroke-linecap="square" stroke-linejoin="bevel" d="M3.8007 0L0 2.82843L5.21491 6.01041L6.18718 2.74004"/><path id="shape6" transform="translate(251.000016178661, 316.500020400583)" fill="#45582c" fill-rule="evenodd" stroke="#45582c" stroke-width="1" stroke-linecap="square" stroke-linejoin="bevel" d="M70 0L70 20.25L57.75 56.25L18.5 78.25L0 80.5L4.75 82.25L31.25 74.25L64.25 54.5L72.5 13.75L71.25 5"/><path id="shape7" transform="translate(314.25000452258, 368.875005308724)" fill="#45582c" fill-rule="evenodd" stroke="#45582c" stroke-width="1" stroke-linecap="square" stroke-linejoin="bevel" d="M0 1.25L11.75 18.75L31.75 21L31.375 18.25L13 16.875L0.75 0"/><path id="shape8" transform="translate(346.375004984912, 355.750005119834)" fill="#45582c" fill-rule="evenodd" stroke="#45582c" stroke-width="1" stroke-linecap="square" stroke-linejoin="bevel" d="M0 30.625L8.375 20.125L9.375 0L10.75 3.5L10 21.625L4.75 34.125"/><path id="shape9" transform="translate(327.000004706074, 380.500005476028)" fill="#45582c" fill-rule="evenodd" stroke="#45582c" stroke-width="1" stroke-linecap="square" stroke-linejoin="bevel" d="M23.875 5.75L32.875 19.75L48 23.875L58.75 16.75L61.125 0L62.625 2.625L60.625 17.875L54 31.5L39.75 47L37.125 45.5L42.25 41.25L19.125 41.375L0 31.5L1.375 29.5L19.625 39.5L43.75 40.375L56.125 24.125L55.875 21.375L50.375 25L32 21.625L22.875 7.875L18.625 9.75L16.25 7.625L23.5 4.375"/><path id="shape10" transform="translate(274.445814354529, 387.052567168593)" fill="#45582c" fill-rule="evenodd" stroke="#45582c" stroke-width="1" stroke-linecap="square" stroke-linejoin="bevel" d="M70.4455 3.62392L65.5842 11.1369L51.2652 21.5668L35.0902 18.6499L11.6673 12.7279L0.883883 5.03814L0 7.6014L11.2253 14.2305L49.5859 23.3345L41.3657 26.3397L33.7643 30.5824L36.6812 31.2895L53.2098 23.4229L66.9984 12.6395L73.8043 3.8007L74.8649 0L71.241 1.14905"/><path id="shape11" transform="translate(147.608538210381, 300.873930579723)" fill="#45582c" fill-rule="evenodd" stroke="#45582c" stroke-width="1" stroke-linecap="square" stroke-linejoin="bevel" d="M119.501 92.1007L111.9 91.04L98.4646 83.7922L47.9065 64.7003L1.94454 0L0 1.06066L47.9065 68.059L112.43 92.9845L121.976 93.3381"/><path id="shape12" transform="translate(147.25000791187, 209.000011229751)" fill="#45582c" fill-rule="evenodd" stroke="#45582c" stroke-width="1" stroke-linecap="square" stroke-linejoin="bevel" d="M5.75 0L38.75 24.25L2 93.25L0 91.5L36.5 24.25L5.75 0"/><path id="shape13" transform="translate(67.6250025625989, 256.500009719876)" fill="#45582c" fill-rule="evenodd" stroke="#45582c" stroke-width="1" stroke-linecap="square" stroke-linejoin="bevel" d="M5.75 15.9375L0 5.375L8.625 0L26.75 4.8125L50 23.9375L80.8125 41.8125L78.8125 44.0625L48.4375 25.125L24.375 6L8.9375 1.6875L2.0625 6L10.4375 18.6875L7 19.0625"/><path id="shape14" transform="translate(95.1250053542242, 290.625016358175)" fill="#45582c" fill-rule="evenodd" stroke="#45582c" stroke-width="1" stroke-linecap="square" stroke-linejoin="bevel" d="M0 2.125L4.75 3.25L13.875 0L41.375 2.375L45.625 7.25L14.75 1.375L6 5L42.75 55.125L36.125 49.5L1.375 4.75"/><path id="shape15" transform="translate(89.8025639946863, 138.416156708345)" fill="#81a950" fill-rule="evenodd" stroke="#81a950" stroke-width="1" stroke-linecap="square" stroke-linejoin="bevel" d="M0.176777 25.9862L26.163 40.1283L51.0885 9.36917L62.7557 0L62.7557 3.88909L50.3814 13.0815L28.8146 40.1283L30.2288 42.6032L60.2809 66.1145L61.5183 69.2965L28.2843 43.6638L24.9255 46.3155L7.95495 88.3884L6.71751 86.4438L25.9862 41.189L0 28.8146"/><path id="shape16" transform="translate(166.250011906518, 100.500007197625)" fill="#c8e29d" fill-rule="evenodd" stroke="#c8e29d" stroke-width="1" stroke-linecap="square" stroke-linejoin="bevel" d="M7.5 0L19.75 0L31.25 10L29.5 22.5L13.5 11.75L0 15.25L1.5 3L7.5 0"/><path id="shape17" transform="translate(80.2566174789249, 3.71231050012648)" fill="#c8e29d" fill-rule="evenodd" stroke="#c8e29d" stroke-width="1" stroke-linecap="square" stroke-linejoin="bevel" d="M60.8112 0L55.1543 30.2288L32.1734 70.5339L0 93.6916L15.2028 62.5789L26.5165 24.7487"/><path id="shape18" transform="translate(47.625002024075, 177.125007527859)" fill="#c8e29d" fill-rule="evenodd" stroke="#c8e29d" stroke-width="1" stroke-linecap="square" stroke-linejoin="bevel" d="M7.125 0L11.25 23.625L2.125 47.375L0 29.625"/><path id="shape19" transform="translate(112.500001505516, 134.125001794909)" fill="#c8e29d" fill-rule="evenodd" stroke="#c8e29d" stroke-width="1" stroke-linecap="square" stroke-linejoin="bevel" d="M0 41.25L3.375 43.75L27.875 13.625L40.25 2.875L39.5 0L13 25.625L0 41.25"/><path id="shape20" transform="translate(89.2500028358559, 179.000005687599)" fill="#c8e29d" fill-rule="evenodd" stroke="#c8e29d" stroke-width="1" stroke-linecap="square" stroke-linejoin="bevel" d="M21.5 0L0 53.75L7 47.5L24.75 1.75"/><path id="shape21" transform="translate(88.741899529129, 159.629353137059)" fill="#c8e29d" fill-rule="evenodd" stroke="#c8e29d" stroke-width="1" stroke-linecap="square" stroke-linejoin="bevel" d="M0.883883 3.71231L0 0L26.3397 13.2583L24.572 16.617"/><path id="shape22" transform="translate(120.250008244121, 177.250012151937)" fill="#c8e29d" fill-rule="evenodd" stroke="#c8e29d" stroke-width="1" stroke-linecap="square" stroke-linejoin="bevel" d="M1.625 0L0 2.25L29 25.5L33.5 25.5L33 24.625"/><path id="shape23" transform="translate(136.999999150785, 141.874999120567)" fill="#7ca34d" fill-rule="evenodd" stroke="#7ca34d" stroke-width="1" stroke-linecap="square" stroke-linejoin="bevel" d="M15 0L20.125 7.875L0 13L9.625 3"/>
</svg>
