<?xml version="1.0" standalone="no"?>
<!DOCTYPE svg PUBLIC "-//W3C//DTD SVG 20010904//EN" "http://www.w3.org/TR/2001/REC-SVG-20010904/DTD/svg10.dtd">
<!-- Created using Krita: https://krita.org -->
<svg xmlns="http://www.w3.org/2000/svg" 
    xmlns:xlink="http://www.w3.org/1999/xlink"
    xmlns:krita="http://krita.org/namespaces/svg/krita"
    xmlns:sodipodi="http://sodipodi.sourceforge.net/DTD/sodipodi-0.dtd"
    width="480pt"
    height="480pt"
    viewBox="0 0 480 480">
<defs/>
<path id="shape0" transform="translate(64.1487251479915, 405.596436782274)" fill="#f6dfb3" fill-rule="evenodd" stroke="#f6dfb3" stroke-width="0.96" stroke-linecap="square" stroke-linejoin="bevel" d="M0 42.5961L26.1347 20.7041L69.9187 0L127.279 26.6438L108.272 38.3535L67.0337 62.282L57.6999 48.0267L25.965 54.4755L22.4011 42.2567L0 42.5961" sodipodi:nodetypes="cccccccccc"/><path id="shape1" transform="translate(249.806675708581, 415.269657241098)" fill="#f6dfb3" fill-rule="evenodd" stroke="#f6dfb3" stroke-width="0.96" stroke-linecap="square" stroke-linejoin="bevel" d="M21.892 17.4797L0 52.6087L36.8261 50.5723L58.7181 60.9243L82.6466 47.857L127.279 50.4026L107.254 25.1164L72.2946 0L21.892 17.4797" sodipodi:nodetypes="ccccccccc"/><path id="shape2" transform="translate(121.080000446252, 403.920001488685)" fill="#a89775" fill-rule="evenodd" stroke="#a89775" stroke-width="0.96" stroke-linecap="square" stroke-linejoin="bevel" d="M0 5.4L32.88 51.12L71.64 28.08L13.92 0L0 5.4" sodipodi:nodetypes="ccccc"/><path id="shape3" transform="translate(254.558433777431, 405.25702657367)" fill="#a89775" fill-rule="evenodd" stroke="#a89775" stroke-width="0.96" stroke-linecap="square" stroke-linejoin="bevel" d="M14.5947 33.2623L56.0029 51.5905L74.6705 0L0 26.8135L14.5947 33.2623" sodipodi:nodetypes="ccccc"/><path id="shape4" transform="translate(321.507323870351, 460.665943861741)" fill="#a89775" fill-rule="evenodd" stroke="#a89775" stroke-width="0.96" stroke-linecap="square" stroke-linejoin="bevel" d="M0 8.73984L10.1823 0L35.6382 3.81838L11.0309 3.0547L0 8.73984" sodipodi:nodetypes="ccccc"/><path id="shape5" transform="translate(61.4334356954655, 65.8457819056371)" fill="#fcb92c" fill-rule="evenodd" stroke="#fcb92c" stroke-width="0.96" stroke-linecap="square" stroke-linejoin="bevel" d="M205.004 132.71L292.912 112.685L313.616 233.515L313.955 276.62L287.142 340.09L257.274 366.225L178.567 380.48L82.8163 370.976L20.0253 323.12L0 262.365L28.1711 185.658L5.76999 159.184L6.44881 88.2469L45.1417 42.4264L49.8935 11.54L71.9552 1.69706L88.9257 0L100.466 17.9888L205.004 132.71" sodipodi:nodetypes="ccccccccccccccccccc"/><path id="shape6" transform="translate(126.770105630966, 51.7602171585606)" fill="#d19921" fill-rule="evenodd" stroke="#d19921" stroke-width="0.96" stroke-linecap="square" stroke-linejoin="bevel" d="M0 18.8373L6.44881 4.07294L29.3591 0L41.9173 5.26087L26.1347 16.6312L7.12764 15.1038L0 18.8373" sodipodi:nodetypes="ccccccc"/><path id="shape7" transform="translate(222.360006656899, 275.279998818757)" fill="#d19921" fill-rule="evenodd" stroke="#d19921" stroke-width="0.96" stroke-linecap="square" stroke-linejoin="bevel" d="M135.72 0L152.76 20.16L154.44 66.12L139.92 112.08L123.96 134.4L96.84 157.32L19.32 171.6L0 170.52L66.96 142.56L120.36 85.56L135.12 34.2L135.72 0" sodipodi:nodetypes="cccccccccccc"/><path id="shape8" transform="translate(218.580841994986, 217.562608258985)" fill="#d19921" fill-rule="evenodd" stroke="#d19921" stroke-width="0.96" stroke-linecap="square" stroke-linejoin="bevel" d="M69.5793 0L80.1011 86.5499L37.3352 114.721L0 79.0828L69.5793 0" sodipodi:nodetypes="ccccc"/><path id="shape9" transform="translate(274.583710466514, 5.76999144367212)" fill="#443f35" fill-rule="evenodd" stroke="#443f35" stroke-width="0.96" stroke-linecap="square" stroke-linejoin="bevel" d="M0 35.8927L25.371 12.3885L49.2995 0L57.4454 10.8612L5.85484 42.681L0 35.8927" sodipodi:nodetypes="cccccc"/><path id="shape10" transform="translate(286.378251799903, 35.4684768155139)" fill="#443f35" fill-rule="evenodd" stroke="#443f35" stroke-width="0.96" stroke-linecap="square" stroke-linejoin="bevel" d="M0 13.3219L20.7889 3.39411L48.0267 0L47.0085 11.6248L2.71529 17.0554L0 13.3219" sodipodi:nodetypes="cccccc"/><path id="shape11" transform="translate(257.528294581542, 3.90322950601349)" fill="#443f35" fill-rule="evenodd" stroke="#443f35" stroke-width="0.96" stroke-linecap="square" stroke-linejoin="bevel" d="M0 36.6564L3.90323 24.4376L19.3464 0L29.4439 2.20617L12.7279 33.0926L12.3885 42.681L0 36.6564" sodipodi:nodetypes="ccccccc"/><path id="shape12" transform="translate(114.381596394701, 34.6199490571498)" fill="#fcb92c" fill-rule="evenodd" stroke="#fcb92c" stroke-width="0.96" stroke-linecap="square" stroke-linejoin="bevel" d="M16.2917 57.6999L58.7181 12.5582L125.618 0L179.209 10.8612L239.624 65.5064L242.679 130.334L207.041 171.403L140.516 188.373L22.0617 166.651L0 105.896L16.2917 57.6999" sodipodi:nodetypes="ccccccccccc"/><path id="shape13" transform="translate(240, 91.9804528871334)" fill="#ffffff" fill-rule="evenodd" stroke="#ffffff" stroke-width="0.96" stroke-linecap="square" stroke-linejoin="bevel" d="M0 23.08L37.299 0L77.6889 19.007L73.616 42.7658L26.0984 52.9482L0 23.08" sodipodi:nodetypes="cccccc"/><path id="shape14" transform="translate(118.793942843161, 98.7686781924569)" fill="#ffffff" fill-rule="evenodd" stroke="#ffffff" stroke-width="0.96" stroke-linecap="square" stroke-linejoin="bevel" d="M5.43058 13.237L36.317 0L62.4517 20.0253L57.6999 40.0505L14.9341 44.8023L0 24.777L5.43058 13.237" sodipodi:nodetypes="ccccccc"/><path id="shape15" transform="translate(152.820004831313, 120.420003807007)" fill="#000000" fill-rule="evenodd" stroke="#000000" stroke-width="0.96" stroke-linecap="square" stroke-linejoin="bevel" d="M0.48 0.06L0 3.78L3.36 4.26L3.9 0.84L1.98 0" sodipodi:nodetypes="ccccc"/><path id="shape16" transform="translate(273.92999998389, 117.479999993091)" fill="#000000" fill-rule="evenodd" stroke="#000000" stroke-width="0.96" stroke-linecap="square" stroke-linejoin="bevel" d="M0 0L0.09 2.97L3.03 3.6L2.97 0.12" sodipodi:nodetypes="cccc"/><path id="shape17" transform="translate(272.716940910773, 150.35918459673)" fill="#d19921" fill-rule="evenodd" stroke="#d19921" stroke-width="0.96" stroke-linecap="square" stroke-linejoin="bevel" d="M16.4614 44.8023L51.5905 35.6382L84.5134 0L85.3619 15.4432L49.3843 56.512L0 68.2217L1.52735 53.2876L16.4614 44.8023" sodipodi:nodetypes="cccccccc"/><path id="shape18" transform="translate(99.4475014965516, 130.673338143933)" fill="#f6dfb3" fill-rule="evenodd" stroke="#f6dfb3" stroke-width="0.96" stroke-linecap="square" stroke-linejoin="bevel" d="M34.6199 39.0323L76.3675 21.3829L113.363 0L147.644 18.6676L210.096 38.3535L187.355 83.8346L191.089 168.687L147.304 206.701L40.7294 201.95L0 144.929L45.8205 77.0464L29.1894 43.4446L34.6199 39.0323" sodipodi:nodetypes="ccccccccccccc"/><path id="shape19" transform="translate(187.524722548485, 163.341670093138)" fill="#66583e" fill-rule="evenodd" stroke="#66583e" stroke-width="0.96" stroke-linecap="square" stroke-linejoin="bevel" d="M0 0L6.87308 9.84293L6.44881 2.20617L0 0" sodipodi:nodetypes="cccc"/><path id="shape20" transform="translate(224.011433270589, 161.474908149216)" fill="#66583e" fill-rule="evenodd" stroke="#66583e" stroke-width="0.96" stroke-linecap="square" stroke-linejoin="bevel" d="M9.07925 0L0.848528 10.0975L0 6.70337L9.07925 0" sodipodi:nodetypes="cccc"/><path id="shape21" transform="translate(281.202222100517, 179.378846566232)" fill="#a89775" fill-rule="evenodd" stroke="#a89775" stroke-width="0.96" stroke-linecap="square" stroke-linejoin="bevel" d="M23.5891 0L0 30.7167L4.58205 54.4755L6.78823 55.4937L6.44881 33.432L23.5891 0" sodipodi:nodetypes="cccccc"/><path id="shape22" transform="translate(216.000007871139, 268.320009777703)" fill="#a89775" fill-rule="evenodd" stroke="#a89775" stroke-width="0.96" stroke-linecap="square" stroke-linejoin="bevel" d="M73.2 0L58.32 32.88L0 67.68L31.2 69.36L74.64 30.72L73.2 0" sodipodi:nodetypes="cccccc"/><path id="shape23" transform="translate(316.161582336787, 155.280648329662)" fill="#a27616" fill-rule="evenodd" stroke="#a27616" stroke-width="0.96" stroke-linecap="square" stroke-linejoin="bevel" d="M1.69706 0.509117L19.007 35.1291L14.7644 43.9538L13.7462 43.9538L9.67322 48.0267L7.46705 23.4194L0 0L1.69706 0.509117" sodipodi:nodetypes="cccccccc"/><path id="shape24" transform="translate(124.20000898292, 36.000002603745)" fill="#ffcd66" fill-rule="evenodd" stroke="#ffcd66" stroke-width="0.96" stroke-linecap="square" stroke-linejoin="bevel" d="M0 75.6L19.32 67.32L38.16 36.24L70.56 12L106.68 0L48.84 11.04L6 56.76L0 75.6" sodipodi:nodetypes="cccccccc"/><path id="shape25" transform="translate(113.702773091219, 125.412461663299)" fill="#ffcd66" fill-rule="evenodd" stroke="#ffcd66" stroke-width="0.96" stroke-linecap="square" stroke-linejoin="bevel" d="M16.8009 14.7644L40.5596 77.5555L30.547 77.7252L22.0617 76.1978L0 15.2735L5.43058 0L16.8009 14.7644" sodipodi:nodetypes="ccccccc"/><path id="shape26" transform="translate(309.543066644459, 115.399827477101)" fill="#d19921" fill-rule="evenodd" stroke="#d19921" stroke-width="0.96" stroke-linecap="square" stroke-linejoin="bevel" d="M0 31.2258L17.31 62.1123L26.1347 151.377L62.1123 187.355L108.612 173.439L124.564 124.6L77.0464 52.6087L59.7364 22.0617L57.6999 0L44.4629 15.2735L19.3464 8.48528L15.6129 27.8317L0 31.2258" sodipodi:nodetypes="ccccccccccccc"/><path id="shape27" transform="translate(356.381821727296, 169.705629393951)" fill="#a27616" fill-rule="evenodd" stroke="#a27616" stroke-width="0.96" stroke-linecap="square" stroke-linejoin="bevel" d="M15.9523 132.71L20.0253 74.6705L0 0L43.1052 90.6228L71.2764 95.3746L62.4517 119.473L15.9523 132.71" sodipodi:nodetypes="ccccccc"/><path id="shape28" transform="translate(369.1200104698, 138.480003927877)" fill="#e2b451" fill-rule="evenodd" stroke="#e2b451" stroke-width="0.96" stroke-linecap="square" stroke-linejoin="bevel" d="M0 0L33.12 68.16L65.28 101.52L0 0" sodipodi:nodetypes="cccc"/>
</svg>
