<?xml version="1.0" standalone="no"?>
<!DOCTYPE svg PUBLIC "-//W3C//DTD SVG 20010904//EN" "http://www.w3.org/TR/2001/REC-SVG-20010904/DTD/svg10.dtd">
<!-- Created using Krita: https://krita.org -->
<svg xmlns="http://www.w3.org/2000/svg" 
    xmlns:xlink="http://www.w3.org/1999/xlink"
    xmlns:krita="http://krita.org/namespaces/svg/krita"
    xmlns:sodipodi="http://sodipodi.sourceforge.net/DTD/sodipodi-0.dtd"
    width="480pt"
    height="480pt"
    viewBox="0 0 480 480">
<defs/>
<path id="shape0" transform="translate(17.2799998629295, 168.959998659755)" fill="#79bcc3" fill-rule="evenodd" stroke="#79bcc3" stroke-width="0.96" stroke-linecap="square" stroke-linejoin="bevel" d="M126.24 63.84L160.8 0.48L274.08 0L390.24 53.28L422.4 71.04L450.24 120.48L438.24 166.08L402.72 197.28L415.68 219.36L343.2 228L332.16 219.36L322.56 253.44L261.6 261.12L222.72 248.16L222.72 214.08L180 207.84L113.28 211.2L111.36 227.52L62.88 231.84L24 224.64L0 171.36L14.4 143.04L126.24 63.84" sodipodi:nodetypes="ccccccccccccccccccccccc"/><path id="shape1" transform="translate(191.280010335279, 173.520009375667)" fill="#5c898d" fill-rule="evenodd" stroke="#5c898d" stroke-width="0.96" stroke-linecap="square" stroke-linejoin="bevel" d="M22.32 6L0 42.96L12.24 55.2L27.36 50.88L84 60L136.08 72.72L189.6 105.84L237.84 118.08L223.68 156.72L201.36 196.32L218.64 217.92L242.64 215.76L229.44 192.72L265.2 160.8L276.96 116.16L248.4 66.48L183.84 29.76L71.04 0L22.32 6" sodipodi:nodetypes="ccccccccccccccccccc"/><path id="shape2" transform="translate(293.040015833595, 282.480015263015)" fill="#5c898d" fill-rule="evenodd" stroke="#5c898d" stroke-width="0.96" stroke-linecap="square" stroke-linejoin="bevel" d="M55.68 0L49.44 75.6L6 113.52L0 120.48L3.6 146.16L46.32 141.6L60 99.12L71.28 57.84L55.68 0" sodipodi:nodetypes="ccccccccc"/><path id="shape3" transform="translate(197.280010659472, 323.040017454561)" fill="#5c898d" fill-rule="evenodd" stroke="#5c898d" stroke-width="0.96" stroke-linecap="square" stroke-linejoin="bevel" d="M1.92 54L42.72 60.24L42.72 72.96L70.32 46.56L75.12 0L0 46.32L1.92 54" sodipodi:nodetypes="ccccccc"/><path id="shape4" transform="translate(59.0400031900609, 350.400018932882)" fill="#5c898d" fill-rule="evenodd" stroke="#5c898d" stroke-width="0.96" stroke-linecap="square" stroke-linejoin="bevel" d="M7.44 0L10.08 23.04L0 46.56L26.4 50.4L70.8 46.08L72 24.96L7.44 0" sodipodi:nodetypes="ccccccc"/><path id="shape5" transform="translate(192.955300961594, 342.635666351326)" fill="#486d71" fill-rule="evenodd" stroke="#486d71" stroke-width="0.96" stroke-linecap="square" stroke-linejoin="bevel" d="M2.37588 31.9047L78.2343 0L75.3493 27.662L47.0447 54.4755L47.0447 53.9664L47.0447 40.8991L0 36.1473L2.37588 31.9047" sodipodi:nodetypes="cccccccc"/><path id="shape6" transform="translate(269.153128402879, 392.359415427148)" fill="#486d71" fill-rule="evenodd" stroke="#486d71" stroke-width="0.96" stroke-linecap="square" stroke-linejoin="bevel" d="M0 0L20.7041 5.09117L41.7476 7.12764" sodipodi:nodetypes="ccc"/><path id="shape7" transform="translate(364.867103446526, 367.921804777706)" fill="#486d71" fill-rule="evenodd" stroke="#486d71" stroke-width="0.96" stroke-linecap="square" stroke-linejoin="bevel" d="M0 2.37588L20.7041 3.0547L36.6564 0" sodipodi:nodetypes="ccc"/><path id="shape8" transform="translate(397.789995571468, 307.846011931162)" fill="#486d71" fill-rule="evenodd" stroke="#486d71" stroke-width="0.96" stroke-linecap="square" stroke-linejoin="bevel" d="M1.35765 0L5.76999 11.2006L0 14.2553" sodipodi:nodetypes="ccc"/><path id="shape9" transform="translate(432.749355250531, 315.652470888623)" fill="#486d71" fill-rule="evenodd" stroke="#486d71" stroke-width="0.96" stroke-linecap="square" stroke-linejoin="bevel" d="M2.37588 0L7.80646 5.43058L4.75176 15.9523L0 16.2917L5.09117 10.8612L5.43058 5.43058" sodipodi:nodetypes="cccccc"/><path id="shape10" transform="translate(436.822290358771, 272.8866522521)" fill="#486d71" fill-rule="evenodd" stroke="#486d71" stroke-width="0.96" stroke-linecap="square" stroke-linejoin="bevel" d="M1.35765 0L5.43058 8.14587L0 11.8794" sodipodi:nodetypes="ccc"/><path id="shape11" transform="translate(327.871276213343, 305.809544377042)" fill="#486d71" fill-rule="evenodd" stroke="#486d71" stroke-width="0.96" stroke-linecap="square" stroke-linejoin="bevel" d="M0 0L5.09117 1.35765L6.78823 7.46705L1.69706 9.50352L5.43058 6.78823L5.43058 3.39411L0 0" sodipodi:nodetypes="ccccccc"/><path id="shape12" transform="translate(291.893682757221, 346.199484200425)" fill="#486d71" fill-rule="evenodd" stroke="#486d71" stroke-width="0.96" stroke-linecap="square" stroke-linejoin="bevel" d="M2.71529 0L10.1823 3.73352L7.46705 11.8794L0 12.5582L9.84293 6.44881L2.71529 0" sodipodi:nodetypes="cccccc"/><path id="shape13" transform="translate(331.944211321584, 347.557129236505)" fill="#486d71" fill-rule="evenodd" stroke="#486d71" stroke-width="0.96" stroke-linecap="square" stroke-linejoin="bevel" d="M2.37588 0L7.80646 9.50352L3.73352 14.5947L0 14.2553L4.75176 10.1823L2.37588 0" sodipodi:nodetypes="cccccc"/><path id="shape14" transform="translate(35.2987709380825, 346.538895459445)" fill="#486d71" fill-rule="evenodd" stroke="#486d71" stroke-width="0.96" stroke-linecap="square" stroke-linejoin="bevel" d="M4.75176 0L0 5.43058L8.48528 13.9159L10.5217 11.54L3.39411 5.76999L4.75176 0" sodipodi:nodetypes="cccccc"/><path id="shape15" transform="translate(58.7181478104642, 373.012973663007)" fill="#486d71" fill-rule="evenodd" stroke="#486d71" stroke-width="0.96" stroke-linecap="square" stroke-linejoin="bevel" d="M0 0L20.0253 7.12764L41.4082 5.76999" sodipodi:nodetypes="ccc"/><path id="shape16" transform="translate(20.8737921915535, 373.69179191708)" fill="#ffffff" fill-rule="evenodd" stroke="#ffffff" stroke-width="0.96" stroke-linecap="square" stroke-linejoin="bevel" d="M15.2735 0L23.08 11.8794L22.5708 20.7041L1.52735 24.9467L0 19.5161L15.2735 0" sodipodi:nodetypes="cccccc"/><path id="shape17" transform="translate(56.5119739820108, 382.177073295761)" fill="#ffffff" fill-rule="evenodd" stroke="#ffffff" stroke-width="0.96" stroke-linecap="square" stroke-linejoin="bevel" d="M12.2188 0L0 10.8612L1.35765 28.85L25.965 19.6859L19.5161 4.58205L12.2188 0" sodipodi:nodetypes="cccccc"/><path id="shape18" transform="translate(96.2230908342346, 384.722657709365)" fill="#ffffff" fill-rule="evenodd" stroke="#ffffff" stroke-width="0.96" stroke-linecap="square" stroke-linejoin="bevel" d="M9.50352 0L0 16.8009L15.2735 30.2076L27.662 13.7462L9.50352 0" sodipodi:nodetypes="ccccc"/><path id="shape19" transform="translate(223.841722769586, 397.111168522238)" fill="#ffffff" fill-rule="evenodd" stroke="#ffffff" stroke-width="0.96" stroke-linecap="square" stroke-linejoin="bevel" d="M18.1585 0L0 23.7588L27.3226 23.9285L26.1347 11.8794L18.1585 0" sodipodi:nodetypes="ccccc"/><path id="shape20" transform="translate(280.693108006744, 412.214969376289)" fill="#ffffff" fill-rule="evenodd" stroke="#ffffff" stroke-width="0.96" stroke-linecap="square" stroke-linejoin="bevel" d="M15.2735 0L0 16.2917L17.4797 31.0561L28.6803 14.0856L15.2735 0" sodipodi:nodetypes="ccccc"/><path id="shape21" transform="translate(324.137748665588, 403.559982370035)" fill="#ffffff" fill-rule="evenodd" stroke="#ffffff" stroke-width="0.96" stroke-linecap="square" stroke-linejoin="bevel" d="M10.8612 0L0 18.8373L23.7588 19.5161L23.08 11.8794L10.8612 0" sodipodi:nodetypes="ccccc"/><path id="shape22" transform="translate(347.387419643172, 380.819428275172)" fill="#ffffff" fill-rule="evenodd" stroke="#ffffff" stroke-width="0.96" stroke-linecap="square" stroke-linejoin="bevel" d="M3.73352 8.48528L6.78823 0L15.9523 13.0673L12.2188 16.8009L0 21.0435L3.73352 8.48528" sodipodi:nodetypes="cccccc"/><path id="shape23" transform="translate(387.098536495395, 378.782960744289)" fill="#ffffff" fill-rule="evenodd" stroke="#ffffff" stroke-width="0.96" stroke-linecap="square" stroke-linejoin="bevel" d="M0 16.2917L13.9159 0L26.4741 13.237L21.2132 26.1347L0 16.2917" sodipodi:nodetypes="ccccc"/><path id="shape24" transform="translate(420.530545127396, 371.146207503476)" fill="#ffffff" fill-rule="evenodd" stroke="#ffffff" stroke-width="0.96" stroke-linecap="square" stroke-linejoin="bevel" d="M5.43058 0L0 19.8556L14.5947 19.007L19.6859 13.237L6.78823 0.509117L6.78823 0.339411L5.43058 0" sodipodi:nodetypes="ccccccc"/><path id="shape25" transform="translate(29.7599997639341, 221.279998244736)" fill="#79bcc3" fill-rule="evenodd" stroke="#79bcc3" stroke-width="0.96" stroke-linecap="square" stroke-linejoin="bevel" d="M29.28 44.16L20.64 18.72L24.48 2.88L59.52 3.36L107.52 18.72L166.08 12.96L194.4 2.88L244.32 0L239.04 49.92L267.84 87.36L249.12 122.88L149.76 163.68L85.92 158.88L12.48 116.16L0 83.04L29.28 44.16" sodipodi:nodetypes="cccccccccccccccc"/><path id="shape26" transform="translate(61.9199995088306, 240)" fill="#272e34" fill-rule="evenodd" stroke="#272e34" stroke-width="0.96" stroke-linecap="square" stroke-linejoin="bevel" d="M0 0L7.68 20.64L27.84 7.2L0 0" sodipodi:nodetypes="cccc"/><path id="shape27" transform="translate(232.319998157163, 230.399998172393)" fill="#272e34" fill-rule="evenodd" stroke="#272e34" stroke-width="0.96" stroke-linecap="square" stroke-linejoin="bevel" d="M0 14.88L24.48 0.96L36.48 0L25.92 32.64L0 14.88" sodipodi:nodetypes="ccccc"/><path id="shape28" transform="translate(198.555592776578, 275.092834094729)" fill="#ffffff" fill-rule="evenodd" stroke="#ffffff" stroke-width="0.96" stroke-linecap="square" stroke-linejoin="bevel" d="M0 23.5891L15.1038 9.67322L37.3352 0L35.4685 20.195L26.8135 34.7897L13.4067 36.6564L0 23.5891" sodipodi:nodetypes="ccccccc"/><path id="shape29" transform="translate(71.276366637746, 282.390176393356)" fill="#ffffff" fill-rule="evenodd" stroke="#ffffff" stroke-width="0.96" stroke-linecap="square" stroke-linejoin="bevel" d="M0 0L1.52735 17.31L11.0309 28.5105L23.2497 29.5288L35.6382 18.3282L20.8738 5.43058L0 0" sodipodi:nodetypes="ccccccc"/><path id="shape30" transform="translate(207.380285788871, 280.353708775134)" fill="#ac3154" fill-rule="evenodd" stroke="#ac3154" stroke-width="0.96" stroke-linecap="square" stroke-linejoin="bevel" d="M0 10.0126L6.61852 3.90323L16.6312 0L17.1403 8.82469L11.7097 17.6494L3.0547 14.7644L0 10.0126" sodipodi:nodetypes="ccccccc"/><path id="shape31" transform="translate(81.9678216334079, 284.935760916132)" fill="#ac3154" fill-rule="evenodd" stroke="#ac3154" stroke-width="0.96" stroke-linecap="square" stroke-linejoin="bevel" d="M0 0L0.169706 6.27911L4.07294 15.1038L12.3885 16.9706L17.8191 9.50352L8.82469 1.69706L0 0" sodipodi:nodetypes="ccccccc"/><path id="shape32" transform="translate(213.150277373831, 283.578115837318)" fill="#ffffff" fill-rule="evenodd" stroke="#ffffff" stroke-width="0.96" stroke-linecap="square" stroke-linejoin="bevel" d="M0 3.22441L5.43058 0L2.54558 7.63675L0 3.22441" sodipodi:nodetypes="cccc"/><path id="shape33" transform="translate(88.756047027479, 288.329873613168)" fill="#ffffff" fill-rule="evenodd" stroke="#ffffff" stroke-width="0.96" stroke-linecap="square" stroke-linejoin="bevel" d="M0 0L6.1094 3.56382L0 8.82469L0 0" sodipodi:nodetypes="cccc"/><path id="shape34" transform="translate(59.5200008860046, 326.160004855163)" fill="#bc6c7e" fill-rule="evenodd" stroke="#bc6c7e" stroke-width="0.96" stroke-linecap="square" stroke-linejoin="bevel" d="M5.28 1.68L36.48 2.88L83.76 16.32L189.84 0L114 47.52L64.08 43.44L0 0.96L3.6 0.96L5.28 1.68" sodipodi:nodetypes="ccccccccc"/><path id="shape35" transform="translate(89.0400013254344, 328.560004890889)" fill="#de7f91" fill-rule="evenodd" stroke="#de7f91" stroke-width="0.96" stroke-linecap="square" stroke-linejoin="bevel" d="M6.24 0L0 5.76L13.92 21.6L48.96 35.52L97.68 30.72L132.96 1.68L54.24 13.2L6.24 0" sodipodi:nodetypes="cccccccc"/><path id="shape36" transform="translate(62.1600009253032, 327.600004876598)" fill="#ffffff" fill-rule="evenodd" stroke="#ffffff" stroke-width="0.96" stroke-linecap="square" stroke-linejoin="bevel" d="M0 0L5.76 11.76L15.36 0.96L0 0" sodipodi:nodetypes="cccc"/><path id="shape37" transform="translate(103.200001536218, 342.480005098099)" fill="#ffffff" fill-rule="evenodd" stroke="#ffffff" stroke-width="0.96" stroke-linecap="square" stroke-linejoin="bevel" d="M0 9.36L1.68 13.92L7.2 13.92L6.72 0L0 9.36" sodipodi:nodetypes="ccccc"/><path id="shape38" transform="translate(115.44000171842, 347.760005176696)" fill="#ffffff" fill-rule="evenodd" stroke="#ffffff" stroke-width="0.96" stroke-linecap="square" stroke-linejoin="bevel" d="M0 10.56L2.4 16.08L8.4 15.12L6.96 0L0 10.56" sodipodi:nodetypes="ccccc"/><path id="shape39" transform="translate(182.880002722321, 348.240005183842)" fill="#ffffff" fill-rule="evenodd" stroke="#ffffff" stroke-width="0.96" stroke-linecap="square" stroke-linejoin="bevel" d="M0.24 14.88L5.04 15.6L7.2 8.88L0 0L0.96 9.84L0.24 14.88" sodipodi:nodetypes="cccccc"/><path id="shape40" transform="translate(194.160002890233, 344.160005123107)" fill="#ffffff" fill-rule="evenodd" stroke="#ffffff" stroke-width="0.96" stroke-linecap="square" stroke-linejoin="bevel" d="M0.48 11.76L5.28 12.72L7.68 7.92L0 0L0.48 11.76" sodipodi:nodetypes="ccccc"/><path id="shape41" transform="translate(236.160003515438, 326.400004858735)" fill="#ffffff" fill-rule="evenodd" stroke="#ffffff" stroke-width="0.96" stroke-linecap="square" stroke-linejoin="bevel" d="M0 2.16L7.68 14.88L14.88 0L0 2.16" sodipodi:nodetypes="cccc"/><path id="shape42" transform="translate(75.3492971902818, 263.892245790289)" fill="#272e34" fill-rule="evenodd" stroke="#272e34" stroke-width="0.96" stroke-linecap="square" stroke-linejoin="bevel" d="M0 11.54L10.352 4.41235L19.8556 0L1.69706 12.2188L0 11.54" sodipodi:nodetypes="ccccc"/><path id="shape43" transform="translate(192.95529483187, 259.310193934123)" fill="#272e34" fill-rule="evenodd" stroke="#272e34" stroke-width="0.96" stroke-linecap="square" stroke-linejoin="bevel" d="M12.3885 0L7.80646 2.03647L0 32.4138L2.885 11.54L6.78822 3.39411L17.1403 0.678822L12.3885 0" sodipodi:nodetypes="ccccccc"/><path id="shape44" transform="translate(126.600395729618, 328.04097177661)" fill="#272e34" fill-rule="evenodd" stroke="#272e34" stroke-width="0.96" stroke-linecap="square" stroke-linejoin="bevel" d="M0 0L4.58205 3.56382" sodipodi:nodetypes="cc"/><path id="shape45" transform="translate(151.377416877773, 329.228911146727)" fill="#272e34" fill-rule="evenodd" stroke="#272e34" stroke-width="0.96" stroke-linecap="square" stroke-linejoin="bevel" d="M6.95793 0L0 3.73352" sodipodi:nodetypes="cc"/><path id="shape46" transform="translate(51.2510977276921, 223.672009288405)" fill="#5c898d" fill-rule="evenodd" stroke="#5c898d" stroke-width="0.96" stroke-linecap="square" stroke-linejoin="bevel" d="M1.18794 7.80646L0 12.8976L9.50351 14.425L12.7279 0.339411L4.58205 0L1.18794 7.80646" sodipodi:nodetypes="cccccc"/><path id="shape47" transform="translate(74.1613566457002, 224.181126153249)" fill="#5c898d" fill-rule="evenodd" stroke="#5c898d" stroke-width="0.96" stroke-linecap="square" stroke-linejoin="bevel" d="M0 1.18794L0 10.1823L13.4067 10.5217L17.9888 0.678822L15.6129 0L0 1.18794" sodipodi:nodetypes="cccccc"/><path id="shape48" transform="translate(97.5807324285529, 227.914649828777)" fill="#5c898d" fill-rule="evenodd" stroke="#5c898d" stroke-width="0.96" stroke-linecap="square" stroke-linejoin="bevel" d="M0 7.29734L7.12764 7.63675L16.2917 3.90323L6.61852 0L0 7.29734" sodipodi:nodetypes="ccccc"/><path id="shape49" transform="translate(102.162784212155, 240)" fill="#5c898d" fill-rule="evenodd" stroke="#5c898d" stroke-width="0.96" stroke-linecap="square" stroke-linejoin="bevel" d="M0 7.09139L6.27911 16.0858L17.9888 0L4.24264 0L0 7.09139" sodipodi:nodetypes="ccccc"/><path id="shape50" transform="translate(107.253952860601, 243.0184501525)" fill="#5c898d" fill-rule="evenodd" stroke="#5c898d" stroke-width="0.96" stroke-linecap="square" stroke-linejoin="bevel" d="M0 25.965L19.6859 26.8135L29.5288 0L12.5582 0.169706L0 25.965" sodipodi:nodetypes="ccccc"/><path id="shape51" transform="translate(139.328315345812, 228.593472315236)" fill="#5c898d" fill-rule="evenodd" stroke="#5c898d" stroke-width="0.96" stroke-linecap="square" stroke-linejoin="bevel" d="M2.54558 37.8444L37.3352 22.4011L24.0982 0L0 11.4065L2.54558 37.8444" sodipodi:nodetypes="ccccc"/><path id="shape52" transform="translate(176.49384647947, 223.672009288405)" fill="#5c898d" fill-rule="evenodd" stroke="#5c898d" stroke-width="0.96" stroke-linecap="square" stroke-linejoin="bevel" d="M3.73352 26.1347L10.1823 18.6676L8.65499 0L8.31558 11.2006L0 12.7279L3.73352 26.1347" sodipodi:nodetypes="cccccc"/><path id="shape53" transform="translate(156.000003994625, 222.000005684659)" fill="#5c898d" fill-rule="evenodd" stroke="#5c898d" stroke-width="0.96" stroke-linecap="square" stroke-linejoin="bevel" d="M118.32 0L102.72 8.88L113.28 7.92L102 42.72L76.08 23.28L70.8 42L116.64 89.28L116.88 94.32L96.24 105.12L87.36 120.72L84 112.56L18.24 152.64L3.12 154.56L0 157.44L1.2 161.28L23.28 163.92L124.56 120.96L142.56 86.4L113.76 49.2L118.32 0" sodipodi:nodetypes="cccccccccccccccccccc"/><path id="shape54" transform="translate(29.019663188577, 240)" fill="#aedbe0" fill-rule="evenodd" stroke="#aedbe0" stroke-width="0.96" stroke-linecap="square" stroke-linejoin="bevel" d="M21.5526 0L34.1108 29.4925L10.352 67.5066L12.8976 97.8839L0 64.4519L29.5288 25.0802L21.5526 0" sodipodi:nodetypes="ccccccc"/><path id="shape55" transform="translate(192.531028441481, 261.176952641198)" fill="#aedbe0" fill-rule="evenodd" stroke="#aedbe0" stroke-width="0.96" stroke-linecap="square" stroke-linejoin="bevel" d="M7.63675 0L2.80014 9.33381L0 28.0014L1.10309 11.54L7.63675 0" sodipodi:nodetypes="ccccc"/><path id="shape56" transform="translate(174.000002230591, 333.360004273505)" fill="#5c898d" fill-rule="evenodd" stroke="#5c898d" stroke-width="0.96" stroke-linecap="square" stroke-linejoin="bevel" d="M0 40.8L64.2 0L67.68 1.08L69.6 8.64L0 40.8" sodipodi:nodetypes="ccccc"/><path id="shape57" transform="translate(260.400001145283, 113.52000049928)" fill="#91b36c" fill-rule="evenodd" stroke="#91b36c" stroke-width="0.48" stroke-linecap="square" stroke-linejoin="bevel" d="M0 26.16L43.92 0L73.68 22.08L25.2 43.92L0 26.16" sodipodi:nodetypes="ccccc"/><path id="shape58" transform="translate(260.400003165408, 113.040001374108)" fill="#678546" fill-rule="evenodd" stroke="#678546" stroke-width="0.96" stroke-linecap="square" stroke-linejoin="bevel" d="M33.96 6.6L0 27.36L25.2 44.76L74.16 22.56L44.4 0L33.96 6.6" sodipodi:nodetypes="cccccc"/><path id="shape59" transform="translate(221.040000972171, 144.000000633336)" fill="#91b36c" fill-rule="evenodd" stroke="#91b36c" stroke-width="0.48" stroke-linecap="square" stroke-linejoin="bevel" d="M0.24 31.92L18.96 44.88L31.44 37.92L27.6 62.16L47.28 72.48L56.88 46.08L57.36 76.08L73.2 78.48L75.6 55.92L77.52 85.92L105.84 96L105.12 58.08L112.8 98.88L126 98.64L134.16 104.16L137.28 79.68L144.24 108L162.24 115.44L159.6 87.36L168.48 115.68L184.8 120.96L184.32 96L193.92 125.28L207.36 126.96L193.44 96L212.64 106.08L204.48 89.52L184.8 84L204 83.28L203.76 76.08L177.84 77.28L200.16 72.24L187.68 61.2L161.52 63.12L188.4 55.92L181.68 44.16L150.96 45.6L173.76 37.44L160.8 24.48L121.44 30.96L152.88 21.36L108.96 7.44L85.92 0L59.28 6L30.24 18.48L0 24.48L0.24 31.92" sodipodi:nodetypes="ccccccccccccccccccccccccccccccccccccccccccccccc"/><path id="shape60" transform="translate(19.2000000844448, 121.440000534114)" fill="#91b36c" fill-rule="evenodd" stroke="#91b36c" stroke-width="0.48" stroke-linecap="square" stroke-linejoin="bevel" d="M165.12 15.84L212.4 31.44L204 46.56L164.64 52.8L110.16 82.32L100.56 52.08L96.24 92.4L74.16 97.68L73.92 62.64L64.08 110.4L54 109.92L47.04 79.2L38.16 114.48L30.48 112.56L29.52 91.68L24.72 114.72L12.48 114.96L22.8 90L0 110.4L8.16 85.2L38.16 71.04L13.44 76.8L23.04 63.6L54.72 48.96L30.48 53.28L50.64 35.76L79.2 35.28L66.24 27.36L85.92 13.68L118.8 0L165.12 15.84" sodipodi:nodetypes="ccccccccccccccccccccccccccccccc"/><path id="shape61" transform="translate(267.456077610291, 158.844472489361)" fill="#678546" fill-rule="evenodd" stroke="#678546" stroke-width="0.96" stroke-linecap="square" stroke-linejoin="bevel" d="M10.5217 6.78823L42.087 14.9341L87.059 36.1473L125.412 66.3549L96.5625 36.317L53.4573 10.352L21.892 2.885L0 0L10.5217 6.78823" sodipodi:nodetypes="ccccccccc"/><path id="shape62" transform="translate(266.946960711287, 144.419493684237)" fill="#678546" fill-rule="evenodd" stroke="#678546" stroke-width="0.96" stroke-linecap="square" stroke-linejoin="bevel" d="M14.9341 4.58205L35.1291 0L70.7672 7.29734L77.5555 11.0309L96.7322 17.31L82.4769 19.6859L69.2399 20.8738L57.0211 8.65499L33.9411 5.9397L19.5161 16.6312L0 15.6129L14.9341 4.58205" sodipodi:nodetypes="cccccccccccc"/><path id="shape63" transform="translate(240, 162.068876949767)" fill="#678546" fill-rule="evenodd" stroke="#678546" stroke-width="0.96" stroke-linecap="square" stroke-linejoin="bevel" d="M0 14.425L3.35787 15.6129L46.1237 11.2006L43.7478 4.92146L30.8502 0L0 14.425" sodipodi:nodetypes="cccccc"/><path id="shape64" transform="translate(268.134896581122, 191.597657113979)" fill="#678546" fill-rule="evenodd" stroke="#678546" stroke-width="0.96" stroke-linecap="square" stroke-linejoin="bevel" d="M8.82469 0L0 16.8009L0 25.6256L8.82469 0" sodipodi:nodetypes="cccc"/><path id="shape65" transform="translate(290.875451101293, 203.98616815855)" fill="#678546" fill-rule="evenodd" stroke="#678546" stroke-width="0.96" stroke-linecap="square" stroke-linejoin="bevel" d="M3.0547 0L0 19.1767L3.56382 22.7406L3.0547 0" sodipodi:nodetypes="cccc"/><path id="shape66" transform="translate(319.895113959123, 204.325579420045)" fill="#678546" fill-rule="evenodd" stroke="#678546" stroke-width="0.96" stroke-linecap="square" stroke-linejoin="bevel" d="M5.26087 0L0 33.7714L7.63675 35.6744L5.26087 0" sodipodi:nodetypes="cccc"/><path id="shape67" transform="translate(343.993313525275, 224.69025510975)" fill="#678546" fill-rule="evenodd" stroke="#678546" stroke-width="0.96" stroke-linecap="square" stroke-linejoin="bevel" d="M0.339411 0L0 18.3282L4.92146 18.6676L0.339411 0" sodipodi:nodetypes="cccc"/><path id="shape68" transform="translate(352.987711954895, 226.726722678721)" fill="#678546" fill-rule="evenodd" stroke="#678546" stroke-width="0.96" stroke-linecap="square" stroke-linejoin="bevel" d="M4.92146 0L0 20.0253L3.56382 22.4011L4.92146 0" sodipodi:nodetypes="cccc"/><path id="shape69" transform="translate(377.679888174928, 235.127155725169)" fill="#678546" fill-rule="evenodd" stroke="#678546" stroke-width="0.96" stroke-linecap="square" stroke-linejoin="bevel" d="M3.98808 2.12132L2.03647 0L0 21.9769L5.76999 24.6073L3.98808 2.12132" sodipodi:nodetypes="ccccc"/><path id="shape70" transform="translate(403.220586072177, 244.715524038754)" fill="#678546" fill-rule="evenodd" stroke="#678546" stroke-width="0.96" stroke-linecap="square" stroke-linejoin="bevel" d="M2.12132 0L0 19.3464L3.13955 20.2798L2.12132 0" sodipodi:nodetypes="cccc"/><path id="shape71" transform="translate(412.130131850286, 242.085086713788)" fill="#678546" fill-rule="evenodd" stroke="#678546" stroke-width="0.96" stroke-linecap="square" stroke-linejoin="bevel" d="M3.81838 0.0848528L0 0L16.0372 28.6803L3.81838 0.0848528" sodipodi:nodetypes="cccc"/><path id="shape72" transform="translate(399.540029216056, 216.060015799222)" fill="#678546" fill-rule="evenodd" stroke="#678546" stroke-width="0.96" stroke-linecap="square" stroke-linejoin="bevel" d="M4.32 4.5L0 3.42L21.48 0L4.32 4.5" sodipodi:nodetypes="cccc"/><path id="shape73" transform="translate(382.200027948082, 199.740014605834)" fill="#678546" fill-rule="evenodd" stroke="#678546" stroke-width="0.96" stroke-linecap="square" stroke-linejoin="bevel" d="M1.14 4.26L27.18 0L4.62 6.42L0 6.48L1.14 4.26" sodipodi:nodetypes="ccccc"/><path id="shape74" transform="translate(339.41124623703, 163.341662251571)" fill="#678546" fill-rule="evenodd" stroke="#678546" stroke-width="0.96" stroke-linecap="square" stroke-linejoin="bevel" d="M1.18794 10.6066L0 12.5582L7.80646 10.7763L34.1957 2.37588L30.2925 0L1.18794 10.6066" sodipodi:nodetypes="cccccc"/><path id="shape75" transform="translate(409.260024491326, 226.980013583153)" fill="#678546" fill-rule="evenodd" stroke="#678546" stroke-width="0.96" stroke-linecap="square" stroke-linejoin="bevel" d="M0.72 0.3L15.9 0L16.26 0.36L0 1.68L0.72 0.3" sodipodi:nodetypes="ccccc"/><path id="shape76" transform="translate(69.3600019538524, 147.840004164613)" fill="#678546" fill-rule="evenodd" stroke="#678546" stroke-width="0.96" stroke-linecap="square" stroke-linejoin="bevel" d="M134.88 2.4L106.08 0L56.16 5.04L39.36 15.12L12.24 30.72L0 45.12L25.44 27.12L67.2 8.88L90 9.36L104.88 2.4L105.6 3.6L134.88 2.4" sodipodi:nodetypes="cccccccccccc"/><path id="shape77" transform="translate(85.2000024000609, 130.080003664318)" fill="#678546" fill-rule="evenodd" stroke="#678546" stroke-width="0.96" stroke-linecap="square" stroke-linejoin="bevel" d="M7.44 13.2L0 18.72L12 26.4L28.56 30L39.12 32.64L57.12 51.36L89.28 41.52L108.24 27.36L118.56 19.92L37.92 0L13.68 11.76L7.44 13.2" sodipodi:nodetypes="cccccccccccc"/><path id="shape78" transform="translate(43.6800012304538, 170.880004813643)" fill="#678546" fill-rule="evenodd" stroke="#678546" stroke-width="0.96" stroke-linecap="square" stroke-linejoin="bevel" d="M0 13.2L33.36 0.48L26.88 0L0 13.2" sodipodi:nodetypes="cccc"/><path id="shape79" transform="translate(18.2400005138159, 208.080005861557)" fill="#678546" fill-rule="evenodd" stroke="#678546" stroke-width="0.96" stroke-linecap="square" stroke-linejoin="bevel" d="M0 24L4.8 17.76L25.2 0L22.56 5.28L0 24" sodipodi:nodetypes="ccccc"/><path id="shape80" transform="translate(39.1200011019998, 212.880005996772)" fill="#678546" fill-rule="evenodd" stroke="#678546" stroke-width="0.96" stroke-linecap="square" stroke-linejoin="bevel" d="M8.88 0L0 22.32L4.08 23.52L8.88 0" sodipodi:nodetypes="cccc"/><path id="shape81" transform="translate(78.9600022242818, 181.680005117876)" fill="#678546" fill-rule="evenodd" stroke="#678546" stroke-width="0.96" stroke-linecap="square" stroke-linejoin="bevel" d="M13.92 5.04L13.92 0L0 49.92L5.04 50.64L13.92 5.04" sodipodi:nodetypes="ccccc"/><path id="shape82" transform="translate(104.538671264548, 172.760336602776)" fill="#678546" fill-rule="evenodd" stroke="#678546" stroke-width="0.96" stroke-linecap="square" stroke-linejoin="bevel" d="M14.2553 0L0 43.1052L12.8976 43.1052L14.2553 0" sodipodi:nodetypes="cccc"/><path id="shape83" transform="translate(124.054819309066, 175.984743671001)" fill="#678546" fill-rule="evenodd" stroke="#678546" stroke-width="0.96" stroke-linecap="square" stroke-linejoin="bevel" d="M0 12.5582L17.1403 0L7.97616 22.7406L0 12.5582" sodipodi:nodetypes="cccc"/><path id="shape84" transform="translate(85.1073708055932, 136.697880725634)" fill="#91b36c" fill-rule="evenodd" stroke="#91b36c" stroke-width="0.96" stroke-linecap="square" stroke-linejoin="bevel" d="M0 11.9642L14.7644 0L11.54 8.9944L4.32749 15.0189L0 11.9642" sodipodi:nodetypes="ccccc"/><path id="shape85" transform="translate(88.2469295068231, 149.171251993264)" fill="#91b36c" fill-rule="evenodd" stroke="#91b36c" stroke-width="0.96" stroke-linecap="square" stroke-linejoin="bevel" d="M0.933381 2.80014L8.57013 7.46705L14.0007 8.65499L9.33381 5.17602L0 0L0.933381 2.80014" sodipodi:nodetypes="cccccc"/><path id="shape86" transform="translate(94.8000004169464, 146.640000644947)" fill="#91b36c" fill-rule="evenodd" stroke="#91b36c" stroke-width="0.48" stroke-linecap="square" stroke-linejoin="bevel" d="M127.44 39.12L148.56 57.36L138.96 63.12L124.08 53.28L136.8 66.72L124.56 74.64L106.8 56.88L121.44 82.8L95.28 97.2L76.8 74.4L88.08 106.08L73.92 113.04L65.04 89.52L69.6 116.88L56.88 122.64L53.28 100.56L53.04 126L24.24 135.6L33.36 101.76L9.84 126L6.24 108.72L23.52 93.36L0.72 107.76L3.12 97.2L27.36 80.4L0 90L8.4 73.68L29.28 55.44L11.52 63.12L24.24 46.08L48 40.8L30.24 35.04L41.28 27.84L70.8 25.68L51.6 21.36L74.4 0L114.72 15.6L132.72 10.08L164.4 13.2L160.56 27.36L130.32 24.72L152.4 33.6L151.44 53.52L127.44 39.12" sodipodi:nodetypes="cccccccccccccccccccccccccccccccccccccccccccc"/><path id="shape87" transform="translate(129.240001330922, 158.640001633686)" fill="#678546" fill-rule="evenodd" stroke="#678546" stroke-width="0.48" stroke-linecap="square" stroke-linejoin="bevel" d="M77.52 2.04L42.84 13.32L18 38.28L0 65.16L0.84 78L11.52 62.76L38.76 30.12L77.76 7.32L92.52 0L80.4 2.52L77.52 2.04" sodipodi:nodetypes="ccccccccccc"/><path id="shape88" transform="translate(95.0400060920466, 225.480014453227)" fill="#678546" fill-rule="evenodd" stroke="#678546" stroke-width="0.48" stroke-linecap="square" stroke-linejoin="bevel" d="M0 10.92L3.48 8.04L26.88 0L24.6 2.76L0 10.92" sodipodi:nodetypes="ccccc"/><path id="shape89" transform="translate(95.5200061228145, 240)" fill="#678546" fill-rule="evenodd" stroke="#678546" stroke-width="0.48" stroke-linecap="square" stroke-linejoin="bevel" d="M0 14.28L1.08 11.4L20.52 0L18.96 3.12002L0 14.28" sodipodi:nodetypes="ccccc"/><path id="shape90" transform="translate(104.640005050262, 247.98001196831)" fill="#678546" fill-rule="evenodd" stroke="#678546" stroke-width="0.48" stroke-linecap="square" stroke-linejoin="bevel" d="M0 24.3L1.68 20.34L21.84 0L22.2 2.76L0 24.3" sodipodi:nodetypes="ccccc"/><path id="shape91" transform="translate(143.825517110125, 250.824913615061)" fill="#678546" fill-rule="evenodd" stroke="#678546" stroke-width="0.96" stroke-linecap="square" stroke-linejoin="bevel" d="M4.24264 0L0 23.5891L4.58205 21.892L4.24264 0" sodipodi:nodetypes="cccc"/><path id="shape92" transform="translate(160.456668351177, 240)" fill="#678546" fill-rule="evenodd" stroke="#678546" stroke-width="0.96" stroke-linecap="square" stroke-linejoin="bevel" d="M0 0L0.169706 18.1223L2.46073 24.3165L4.32749 23.5528L0 0" sodipodi:nodetypes="ccccc"/><path id="shape93" transform="translate(174.117971156328, 225.878186753482)" fill="#678546" fill-rule="evenodd" stroke="#678546" stroke-width="0.96" stroke-linecap="square" stroke-linejoin="bevel" d="M0 0L0.933381 7.89131L7.12764 27.662L8.23072 28.0014L8.82469 25.7953L0 0" sodipodi:nodetypes="cccccc"/><path id="shape94" transform="translate(203.040004127107, 205.740004181989)" fill="#678546" fill-rule="evenodd" stroke="#678546" stroke-width="0.96" stroke-linecap="square" stroke-linejoin="bevel" d="M0 0L13.38 23.82L9.78 25.86L0.18 7.44L0 0" sodipodi:nodetypes="ccccc"/><path id="shape95" transform="translate(221.640004505182, 203.100004128327)" fill="#678546" fill-rule="evenodd" stroke="#678546" stroke-width="0.96" stroke-linecap="square" stroke-linejoin="bevel" d="M0 0L10.32 10.38L8.04 11.88L0 0" sodipodi:nodetypes="cccc"/><path id="shape96" transform="translate(225.300004579577, 187.980003820989)" fill="#678546" fill-rule="evenodd" stroke="#678546" stroke-width="0.96" stroke-linecap="square" stroke-linejoin="bevel" d="M0 0L18.24 15.9L16.14 17.76L0 0" sodipodi:nodetypes="cccc"/><path id="shape97" transform="translate(228.169210242417, 172.548192275179)" fill="#678546" fill-rule="evenodd" stroke="#678546" stroke-width="0.96" stroke-linecap="square" stroke-linejoin="bevel" d="M0 0L7.29734 4.07293L16.5039 6.32153L0 0" sodipodi:nodetypes="cccc"/><path id="shape98" transform="translate(221.460009706407, 156.480006858388)" fill="#678546" fill-rule="evenodd" stroke="#678546" stroke-width="0.96" stroke-linecap="square" stroke-linejoin="bevel" d="M0 2.34L15.84 2.22L37.14 6.84L37.68 2.82L5.94 0L0.54 2.22L0 2.34" sodipodi:nodetypes="ccccccc"/><path id="shape99" transform="translate(146.460010509673, 146.10001048384)" fill="#678546" fill-rule="evenodd" stroke="#678546" stroke-width="0.96" stroke-linecap="square" stroke-linejoin="bevel" d="M0 21.84L14.46 6.18L25.74 0L30.6 3L48.42 10.2L33 8.22L8.34 22.56L6.36 23.52L0 21.84" sodipodi:nodetypes="ccccccccc"/><path id="shape100" transform="translate(125.92157848618, 182.09414247395)" fill="#678546" fill-rule="evenodd" stroke="#678546" stroke-width="0.96" stroke-linecap="square" stroke-linejoin="bevel" d="M0 0L15.8675 5.34573L8.31558 0.509117L0 0" sodipodi:nodetypes="cccc"/><path id="shape101" transform="translate(106.405430877136, 203.307346396824)" fill="#678546" fill-rule="evenodd" stroke="#678546" stroke-width="0.96" stroke-linecap="square" stroke-linejoin="bevel" d="M0 6.27911L2.96985 1.78191L15.5281 0L0 6.27911" sodipodi:nodetypes="cccc"/><path id="shape102" transform="translate(145.920011081738, 29.2800022236381)" fill="#e07d93" fill-rule="evenodd" stroke="#e07d93" stroke-width="0.48" stroke-linecap="square" stroke-linejoin="bevel" d="M0 28.32L1.92 18.96L13.92 11.28L32.88 20.64L22.32 7.92L60 0L85.44 14.4L113.52 44.88L56.88 54.72L0 28.32" sodipodi:nodetypes="cccccccccc"/><path id="shape103" transform="translate(243.840018518167, 29.7600022600912)" fill="#e07d93" fill-rule="evenodd" stroke="#e07d93" stroke-width="0.48" stroke-linecap="square" stroke-linejoin="bevel" d="M22.56 4.08L0 36.24L42.72 54.72L95.52 21.36L71.52 4.08L50.16 13.92L57.36 0L22.56 4.08" sodipodi:nodetypes="cccccccc"/><path id="shape104" transform="translate(197.760005117786, 31.2000008074176)" fill="#ffffff" fill-rule="evenodd" stroke="#ffffff" stroke-width="0.48" stroke-linecap="square" stroke-linejoin="bevel" d="M7.56 1.68L0 7.44L3.96 18.48L25.32 7.56L11.28 0L7.56 1.68" sodipodi:nodetypes="cccccc"/><path id="shape105" transform="translate(168.000004347633, 39.4800010216938)" fill="#ffffff" fill-rule="evenodd" stroke="#ffffff" stroke-width="0.48" stroke-linecap="square" stroke-linejoin="bevel" d="M3.6 1.68L19.8 0L12.24 17.52L0.36 10.92L0 4.8L9.24 8.52L3.6 1.68" sodipodi:nodetypes="ccccccc"/><path id="shape106" transform="translate(279.360002805378, 38.1600003832088)" fill="#ffffff" fill-rule="evenodd" stroke="#ffffff" stroke-width="0.48" stroke-linecap="square" stroke-linejoin="bevel" d="M16.32 0.6L2.04 0L0 10.32L9.84 13.2L20.76 7.08L19.92 3.24L14.52 5.88L16.32 0.6" sodipodi:nodetypes="cccccccc"/><path id="shape107" transform="translate(303.240003045184, 47.4000004759984)" fill="#ffffff" fill-rule="evenodd" stroke="#ffffff" stroke-width="0.48" stroke-linecap="square" stroke-linejoin="bevel" d="M4.44 0L0 3.96L8.28 12.12L14.4 5.64L4.44 0" sodipodi:nodetypes="ccccc"/><path id="shape108" transform="translate(261.840002629439, 45.8400004603326)" fill="#ffffff" fill-rule="evenodd" stroke="#ffffff" stroke-width="0.48" stroke-linecap="square" stroke-linejoin="bevel" d="M0 3L3.6 0L7.44 6L0 13.2L0 3" sodipodi:nodetypes="ccccc"/><path id="shape109" transform="translate(147.134773919783, 51.0813920990251)" fill="#ac6675" fill-rule="evenodd" stroke="#ac6675" stroke-width="0.48" stroke-linecap="square" stroke-linejoin="bevel" d="M0 0L25.2861 2.03647L33.6017 6.27911L35.9776 1.69706L76.8766 8.65499L61.6031 24.6073L3.39411 5.43058L0 0" sodipodi:nodetypes="cccccccc"/><path id="shape110" transform="translate(225.878182338214, 44.1234616137759)" fill="#ac6675" fill-rule="evenodd" stroke="#ac6675" stroke-width="0.48" stroke-linecap="square" stroke-linejoin="bevel" d="M5.9397 0L0 15.2735L12.0491 6.1094L5.9397 0" sodipodi:nodetypes="cccc"/><path id="shape111" transform="translate(259.819306656503, 38.3534704796667)" fill="#ac6675" fill-rule="evenodd" stroke="#ac6675" stroke-width="0.48" stroke-linecap="square" stroke-linejoin="bevel" d="M3.56382 0L5.9397 7.12764L0 11.0309L0 5.26087L3.56382 0" sodipodi:nodetypes="ccccc"/><path id="shape112" transform="translate(266.777237141753, 43.6143447490015)" fill="#ac6675" fill-rule="evenodd" stroke="#ac6675" stroke-width="0.48" stroke-linecap="square" stroke-linejoin="bevel" d="M0 3.90323L13.0673 0L12.3885 4.75176L23.2497 8.31558L0.848528 18.4979L3.22441 7.63675L0 3.90323" sodipodi:nodetypes="ccccccc"/><path id="shape113" transform="translate(173.640003328921, 52.7400010110993)" fill="#d7d7d7" fill-rule="evenodd" stroke="#d7d7d7" stroke-width="0.48" stroke-linecap="square" stroke-linejoin="bevel" d="M0 0.36L9.36 0L6.84 4.08L0 0.36" sodipodi:nodetypes="cccc"/><path id="shape114" transform="translate(262.500018845368, 45.9000032952472)" fill="#d7d7d7" fill-rule="evenodd" stroke="#d7d7d7" stroke-width="0.48" stroke-linecap="square" stroke-linejoin="bevel" d="M2.94 0L0 2.1L2.28 6.6L6 3.6L2.94 0" sodipodi:nodetypes="ccccc"/><path id="shape115" transform="translate(279.960001648996, 43.5600002565733)" fill="#d7d7d7" fill-rule="evenodd" stroke="#d7d7d7" stroke-width="0.48" stroke-linecap="square" stroke-linejoin="bevel" d="M0.3 0L9.72 7.86L0 4.74L0.3 0" sodipodi:nodetypes="cccc"/><path id="shape116" transform="translate(316.246446300816, 49.9783087929114)" fill="#ac6675" fill-rule="evenodd" stroke="#ac6675" stroke-width="0.48" stroke-linecap="square" stroke-linejoin="bevel" d="M0.339411 1.78191L22.1466 0L30.8016 6.95793L0 6.95793L1.4425 3.13955L0.339411 1.78191" sodipodi:nodetypes="cccccc"/><path id="shape117" transform="translate(282.899289500113, 51.6753651186469)" fill="#ac6675" fill-rule="evenodd" stroke="#ac6675" stroke-width="0.48" stroke-linecap="square" stroke-linejoin="bevel" d="M20.0253 0L24.6922 4.6669L0 8.31558L2.54558 2.37588L6.61852 0.339411L20.0253 0" sodipodi:nodetypes="cccccc"/><path id="shape118" transform="translate(303.094250176397, 51.5905106683229)" fill="#d7d7d7" fill-rule="evenodd" stroke="#d7d7d7" stroke-width="0.48" stroke-linecap="square" stroke-linejoin="bevel" d="M0 0L12.8128 0.0848528L15.9523 4.6669L1.35765 4.15779L2.46073 2.37588L0 0" sodipodi:nodetypes="cccccc"/><path id="shape119" transform="translate(254.640019338361, 51.1200038822534)" fill="#e07d93" fill-rule="evenodd" stroke="#e07d93" stroke-width="0.48" stroke-linecap="square" stroke-linejoin="bevel" d="M0 24.48L36 4.08L96 0L135.12 20.16L142.08 53.28L121.2 40.08L144 64.32L141.6 81.36L124.08 71.52L138.72 88.8L132 96.48L106.08 71.04L16.32 46.8L0 24.48" sodipodi:nodetypes="cccccccccccccc"/><path id="shape120" transform="translate(68.1600051763379, 51.6000039187065)" fill="#e07d93" fill-rule="evenodd" stroke="#e07d93" stroke-width="0.48" stroke-linecap="square" stroke-linejoin="bevel" d="M15.12 26.16L28.8 9.84L75.36 0L164.4 13.92L162 40.56L119.76 37.44L66.72 48.48L0 78.72L14.64 33.84L48.24 18.96L15.12 26.16" sodipodi:nodetypes="ccccccccccc"/><path id="shape121" transform="translate(123.119999286587, 51.4799997017017)" fill="#ffffff" fill-rule="evenodd" stroke="#ffffff" stroke-width="0.48" stroke-linecap="square" stroke-linejoin="bevel" d="M0 9.72L12.6 1.56L21 0L44.52 3.84L51.96 15L16.08 26.04L0 9.72" sodipodi:nodetypes="ccccccc"/><path id="shape122" transform="translate(97.1999994367794, 81.7199995264775)" fill="#ffffff" fill-rule="evenodd" stroke="#ffffff" stroke-width="0.48" stroke-linecap="square" stroke-linejoin="bevel" d="M2.04 9.24L17.76 0L37.56 5.64L36.6 18.6L16.2 27L0 10.8L2.04 9.24" sodipodi:nodetypes="ccccccc"/><path id="shape123" transform="translate(287.27999833537, 67.7999996071362)" fill="#ffffff" fill-rule="evenodd" stroke="#ffffff" stroke-width="0.48" stroke-linecap="square" stroke-linejoin="bevel" d="M0 0.72L22.32 0L29.52 12.48L8.4 15.48L0 0.72" sodipodi:nodetypes="ccccc"/><path id="shape124" transform="translate(323.759998123989, 51.1199997037877)" fill="#ffffff" fill-rule="evenodd" stroke="#ffffff" stroke-width="0.48" stroke-linecap="square" stroke-linejoin="bevel" d="M9.12 1.2L0 12.96L16.68 28.32L38.28 23.76L40.2 6.6L27.24 0L9.12 1.2" sodipodi:nodetypes="ccccccc"/><path id="shape125" transform="translate(356.58000449201, 101.820001282676)" fill="#ffffff" fill-rule="evenodd" stroke="#ffffff" stroke-width="0.48" stroke-linecap="square" stroke-linejoin="bevel" d="M0.24 9.36L0 3.3L5.34 0L14.88 0.18L22.02 20.16L10.08 23.22L0.24 9.36" sodipodi:nodetypes="ccccccc"/><path id="shape126" transform="translate(178.80000896957, 57.9600029075856)" fill="#ac6675" fill-rule="evenodd" stroke="#ac6675" stroke-width="0.48" stroke-linecap="square" stroke-linejoin="bevel" d="M6.12 0L53.4 7.44L51.72 35.04L0 26.4L9.48 13.92L6.12 0" sodipodi:nodetypes="cccccc"/><path id="shape127" transform="translate(68.6400034433519, 80.2800040272769)" fill="#ac6675" fill-rule="evenodd" stroke="#ac6675" stroke-width="0.48" stroke-linecap="square" stroke-linejoin="bevel" d="M0 49.56L69 19.08L90.96 7.8L110.28 3.48L114.24 0L85.92 7.32L65.4 16.92L65.76 20.28L45 28.68L41.4 25.68L0.6 44.16L0 49.56" sodipodi:nodetypes="cccccccccccc"/><path id="shape128" transform="translate(97.2000048760753, 52.5600026366925)" fill="#ac6675" fill-rule="evenodd" stroke="#ac6675" stroke-width="0.48" stroke-linecap="square" stroke-linejoin="bevel" d="M0 8.4L38.4 0L32.52 4.32L0 8.4" sodipodi:nodetypes="cccc"/><path id="shape129" transform="translate(132.48000664591, 51.0000025584345)" fill="#d7d7d7" fill-rule="evenodd" stroke="#d7d7d7" stroke-width="0.48" stroke-linecap="square" stroke-linejoin="bevel" d="M0 4.2L3.6 1.68L12.12 0L35.64 3.84L0 4.2" sodipodi:nodetypes="ccccc"/><path id="shape130" transform="translate(110.393510830955, 97.3261774966219)" fill="#d7d7d7" fill-rule="evenodd" stroke="#d7d7d7" stroke-width="0.48" stroke-linecap="square" stroke-linejoin="bevel" d="M2.63044 8.48528L23.3345 0L23.3345 3.0547L3.30926 11.2854L0 8.48528L2.63044 8.48528" sodipodi:nodetypes="cccccc"/><path id="shape131" transform="translate(268.200009892316, 54.4800020094458)" fill="#ac6675" fill-rule="evenodd" stroke="#ac6675" stroke-width="0.48" stroke-linecap="square" stroke-linejoin="bevel" d="M0 31.8L15.72 4.08L23.16 0L32.4 0.12L17.4 8.76L15 26.88L35.04 33.72L0 31.8" sodipodi:nodetypes="cccccccc"/><path id="shape132" transform="translate(373.680007865029, 91.8000019321603)" fill="#ac6675" fill-rule="evenodd" stroke="#ac6675" stroke-width="0.48" stroke-linecap="square" stroke-linejoin="bevel" d="M3.84 0.72L0 0L23.88 24.96L20.04 39.72L23.64 40.8L25.32 23.28L3.84 0.72" sodipodi:nodetypes="ccccccc"/><path id="shape133" transform="translate(364.080002827524, 57.6000004473341)" fill="#ac6675" fill-rule="evenodd" stroke="#ac6675" stroke-width="0.48" stroke-linecap="square" stroke-linejoin="bevel" d="M0 3.6L23.28 16.44L30.48 40.92L16.08 36.36L32.52 46.92L25.92 13.68L0.12 0L0 3.6" sodipodi:nodetypes="cccccccc"/><path id="shape134" transform="translate(333.240002588014, 51.6000004007368)" fill="#d7d7d7" fill-rule="evenodd" stroke="#d7d7d7" stroke-width="0.48" stroke-linecap="square" stroke-linejoin="bevel" d="M0 0.48L19.56 0L30.36 5.4L30.6 9.96L17.88 4.2L0 0.48" sodipodi:nodetypes="cccccc"/><path id="shape135" transform="translate(273.599998814983, 86.2799996263038)" fill="#ac6675" fill-rule="evenodd" stroke="#ac6675" stroke-width="0.48" stroke-linecap="square" stroke-linejoin="bevel" d="M0 0L23.4 0.24L53.52 7.68L73.32 17.04L83.4 25.2L89.04 34.44L26.16 9.72L0 0" sodipodi:nodetypes="cccccccc"/><path id="shape136" transform="translate(192.48001265079, 35.2800023187857)" fill="#dca256" fill-rule="evenodd" stroke="#dca256" stroke-width="0.48" stroke-linecap="square" stroke-linejoin="bevel" d="M0 22.08L11.76 68.4L8.4 124.08L47.52 141.12L86.64 134.64L90.48 113.76L80.64 68.88L93.84 15.12L85.44 17.28L85.68 4.56L72.72 17.28L68.88 2.4L54.72 13.68L47.52 0L38.64 22.32L25.2 6.48L19.92 27.84L0 22.08" sodipodi:nodetypes="cccccccccccccccccc"/><path id="shape137" transform="translate(192.720003018008, 50.2800007873881)" fill="#9e753f" fill-rule="evenodd" stroke="#9e753f" stroke-width="0.48" stroke-linecap="square" stroke-linejoin="bevel" d="M0 7.2L16.68 22.44L32.28 9.96L47.28 23.88L49.32 9.96L57.24 23.4L69.96 6.84L73.92 26.64L93.96 0L75.36 22.44L71.04 6.36L69.48 4.08L56.28 18.48L49.56 6.96L44.88 19.92L29.52 7.56L16.44 20.76L0 7.2" sodipodi:nodetypes="cccccccccccccccccc"/><path id="shape138" transform="translate(203.280001003007, 99.6000004914377)" fill="#b0854d" fill-rule="evenodd" stroke="#b0854d" stroke-width="0.48" stroke-linecap="square" stroke-linejoin="bevel" d="M0.96 2.04L39.36 0L70.56 0.84L70.2 4.2L80.04 49.92L78.96 52.44L56.28 33.96L22.32 20.04L0 17.28L0.96 2.04" sodipodi:nodetypes="cccccccccc"/><path id="shape139" transform="translate(203.392199024968, 109.03586806303)" fill="#87663b" fill-rule="evenodd" stroke="#87663b" stroke-width="0.48" stroke-linecap="square" stroke-linejoin="bevel" d="M0 0.848528L6.70337 6.78823L14.5098 0L18.7525 10.5217L15.4432 10.0975L14.0856 4.75176L6.44881 9.92778L0 0.848528" sodipodi:nodetypes="cccccccc"/><path id="shape140" transform="translate(227.405545843519, 105.811461069727)" fill="#87663b" fill-rule="evenodd" stroke="#87663b" stroke-width="0.48" stroke-linecap="square" stroke-linejoin="bevel" d="M0 14.5098L7.29734 4.83661L14.7644 16.122L21.4678 5.43058L29.6136 19.4313L34.026 0L42.5113 17.8191L48.451 7.46705L49.1298 11.3703L42.087 19.8556L34.2805 2.96985L30.6319 23.5891L28.9348 23.08L21.892 7.89131L13.7462 19.8556L7.5519 8.14587L3.13955 16.2069L0 14.5098" sodipodi:nodetypes="cccccccccccccccccc"/><path id="shape141" transform="translate(219.060005109805, 119.160002779532)" fill="#b0854d" fill-rule="evenodd" stroke="#b0854d" stroke-width="0.48" stroke-linecap="square" stroke-linejoin="bevel" d="M0 0L3.54 10.98L11.7 2.88L7.98 1.68L5.04 6.96L3.12 0.12L0 0" sodipodi:nodetypes="ccccccc"/><path id="shape142" transform="translate(201.610287219448, 137.885823540237)" fill="#b0854d" fill-rule="evenodd" stroke="#b0854d" stroke-width="0.48" stroke-linecap="square" stroke-linejoin="bevel" d="M0.339411 4.32749L0 8.06102L7.29734 16.4614L17.3948 7.72161L27.9166 28.3408L32.4986 10.0126L44.7174 21.1284L51.2511 7.04278L59.3121 28.5954L67.8823 3.13955L71.6158 17.31L80.4405 4.07294L79.6768 0.0848528L73.228 13.4916L69.749 2.12132L66.1003 0L59.397 26.0498L51.8451 4.32749L44.2083 19.4313L30.1227 7.5519L27.4075 24.5225L17.3948 3.81838L7.63675 13.4067L0.339411 4.32749" sodipodi:nodetypes="cccccccccccccccccccccccc"/><path id="shape143" transform="translate(192.480005473497, 49.8600014178541)" fill="#b0854d" fill-rule="evenodd" stroke="#b0854d" stroke-width="0.48" stroke-linecap="square" stroke-linejoin="bevel" d="M0 7.8L16.62 23.64L32.46 11.1L47.52 25.08L49.86 11.7L57.36 24.84L69.78 8.4L73.98 27.9L94.62 0.9L93.78 0L75.72 21.78L71.52 5.7L69.66 3.78L56.76 18L50.1 6.78L44.94 19.32L29.88 7.38L16.68 20.82L0.72 7.14L0 7.8" sodipodi:nodetypes="cccccccccccccccccccc"/><path id="shape144" transform="translate(231.05421279386, 35.2139178514329)" fill="#bf8c48" fill-rule="evenodd" stroke="#bf8c48" stroke-width="0.48" stroke-linecap="square" stroke-linejoin="bevel" d="M8.94579 0L11.4551 4.4972L2.46073 24.6922L0 21.8072L8.94579 0" sodipodi:nodetypes="ccccc"/><path id="shape145" transform="translate(247.176247472829, 37.6746494603282)" fill="#bf8c48" fill-rule="evenodd" stroke="#bf8c48" stroke-width="0.48" stroke-linecap="square" stroke-linejoin="bevel" d="M2.20617 9.07925L14.2553 0L13.5765 4.58205L0.339411 17.0554L0 11.2006L2.20617 9.07925" sodipodi:nodetypes="cccccc"/><path id="shape146" transform="translate(211.920008417213, 41.8800016634244)" fill="#bf8c48" fill-rule="evenodd" stroke="#bf8c48" stroke-width="0.48" stroke-linecap="square" stroke-linejoin="bevel" d="M6 0L5.16 16.44L0 20.88L6 0" sodipodi:nodetypes="cccc"/><path id="shape147" transform="translate(195.300014441922, 57.6600042638057)" fill="#bf8c48" fill-rule="evenodd" stroke="#bf8c48" stroke-width="0.48" stroke-linecap="square" stroke-linejoin="bevel" d="M0 0L15.84 4.92L6 3.96L0 0" sodipodi:nodetypes="cccc"/><path id="shape148" transform="translate(265.140011208569, 39.9000016867387)" fill="#bf8c48" fill-rule="evenodd" stroke="#bf8c48" stroke-width="0.48" stroke-linecap="square" stroke-linejoin="bevel" d="M0 12.3L12.84 0L13.26 2.04L0 12.3" sodipodi:nodetypes="cccc"/><path id="shape149" transform="translate(266.699998420412, 56.8799996631159)" fill="#bf8c48" fill-rule="evenodd" stroke="#bf8c48" stroke-width="0.48" stroke-linecap="square" stroke-linejoin="bevel" d="M0 7.5L13.74 0L1.92 13.68L0 7.5" sodipodi:nodetypes="cccc"/><path id="shape150" transform="translate(246.719998538748, 60.8999996393066)" fill="#bf8c48" fill-rule="evenodd" stroke="#bf8c48" stroke-width="0.48" stroke-linecap="square" stroke-linejoin="bevel" d="M0 1.62L8.64 0L2.7 6.48L0 1.62" sodipodi:nodetypes="cccc"/><path id="shape151" transform="translate(229.979998637894, 61.9799996329101)" fill="#bf8c48" fill-rule="evenodd" stroke="#bf8c48" stroke-width="0.48" stroke-linecap="square" stroke-linejoin="bevel" d="M0 0.96L10.02 0L7.32 6.84L0.54 1.2L0 0.96" sodipodi:nodetypes="ccccc"/><path id="shape152" transform="translate(201.525438599991, 63.6396121894709)" fill="#bf8c48" fill-rule="evenodd" stroke="#bf8c48" stroke-width="0.48" stroke-linecap="square" stroke-linejoin="bevel" d="M0 0L12.8976 1.6122L7.12764 6.95793L0 0" sodipodi:nodetypes="cccc"/><path id="shape153" transform="translate(198.720005917782, 82.6800024621689)" fill="#b0854d" fill-rule="evenodd" stroke="#b0854d" stroke-width="0.48" stroke-linecap="square" stroke-linejoin="bevel" d="M0.12 1.32L0 0L24.48 1.92L45.96 9.24L70.8 5.52L41.28 17.16L0.12 1.32" sodipodi:nodetypes="ccccccc"/><path id="shape154" transform="translate(81.3600061787977, 81.8400062152508)" fill="#e07d93" fill-rule="evenodd" stroke="#e07d93" stroke-width="0.48" stroke-linecap="square" stroke-linejoin="bevel" d="M161.76 14.4L189.84 4.08L256.56 17.28L306.24 56.88L292.56 70.08L279.12 52.56L286.32 71.28L273.36 75.84L262.8 61.2L263.04 80.16L221.76 77.28L198.96 36.48L161.04 18.96L140.16 19.2L105.6 51.84L87.6 81.84L69.12 82.32L69.12 69.84L61.2 80.64L30.24 71.76L37.92 49.2L18.96 67.68L0 55.2L51.6 17.28L101.28 0L140.4 4.08L161.76 14.4" sodipodi:nodetypes="ccccccccccccccccccccccccccc"/><path id="shape155" transform="translate(326.88001012982, 110.160003413794)" fill="#ffffff" fill-rule="evenodd" stroke="#ffffff" stroke-width="0.48" stroke-linecap="square" stroke-linejoin="bevel" d="M6.12 0L0 10.32L12.96 23.4L32.52 14.04L6.12 0" sodipodi:nodetypes="ccccc"/><path id="shape156" transform="translate(274.080008493579, 87.2400027035165)" fill="#ffffff" fill-rule="evenodd" stroke="#ffffff" stroke-width="0.48" stroke-linecap="square" stroke-linejoin="bevel" d="M5.04 0L0 7.08L26.64 21.84L39.6 6.72L5.04 0" sodipodi:nodetypes="ccccc"/><path id="shape157" transform="translate(290.520009003045, 120.600003737323)" fill="#ffffff" fill-rule="evenodd" stroke="#ffffff" stroke-width="0.48" stroke-linecap="square" stroke-linejoin="bevel" d="M0 14.4L13.08 3.48L29.16 0L36.12 25.56L16.56 30.96L0 14.4" sodipodi:nodetypes="cccccc"/><path id="shape158" transform="translate(163.44000506491, 81.4800025250175)" fill="#ffffff" fill-rule="evenodd" stroke="#ffffff" stroke-width="0.48" stroke-linecap="square" stroke-linejoin="bevel" d="M7.92 4.08L0 16.92L23.52 18.96L28.44 1.68L19.32 0L7.92 4.08" sodipodi:nodetypes="cccccc"/><path id="shape159" transform="translate(182.520005656188, 102.00000316092)" fill="#ffffff" fill-rule="evenodd" stroke="#ffffff" stroke-width="0.48" stroke-linecap="square" stroke-linejoin="bevel" d="M7.92 1.56L0 15.72L18.6 18.48L32.88 4.92L26.4 0L7.92 1.56" sodipodi:nodetypes="cccccc"/><path id="shape160" transform="translate(132.600004109196, 106.800003309669)" fill="#ffffff" fill-rule="evenodd" stroke="#ffffff" stroke-width="0.48" stroke-linecap="square" stroke-linejoin="bevel" d="M0 14.88L30.48 0L41.16 27.24L12 32.88L0 14.88" sodipodi:nodetypes="ccccc"/><path id="shape161" transform="translate(151.377422203619, 119.642469342546)" fill="#ac6675" fill-rule="evenodd" stroke="#ac6675" stroke-width="0.48" stroke-linecap="square" stroke-linejoin="bevel" d="M0 44.1235L26.9832 20.0253L42.087 0L50.2329 1.01823L35.4685 14.0856L17.6494 44.6326L0 44.1235" sodipodi:nodetypes="ccccccc"/><path id="shape162" transform="translate(212.47144910194, 95.7139754740368)" fill="#ac6675" fill-rule="evenodd" stroke="#ac6675" stroke-width="0.48" stroke-linecap="square" stroke-linejoin="bevel" d="M0 8.48528L9.50352 0.848528L29.6985 0L35.9776 5.76999L53.9664 13.9159L61.7728 19.6859L31.0561 5.60029L10.0126 5.60029L2.885 10.8612L0 8.48528" sodipodi:nodetypes="cccccccccc"/><path id="shape163" transform="translate(281.541640623098, 121.169820015004)" fill="#ac6675" fill-rule="evenodd" stroke="#ac6675" stroke-width="0.48" stroke-linecap="square" stroke-linejoin="bevel" d="M0 0L11.0309 11.8794L8.82469 13.7462L19.1767 24.2679L25.965 37.8444L21.3829 38.1838L0 0" sodipodi:nodetypes="ccccccc"/><path id="shape164" transform="translate(344.672135084696, 143.570963211055)" fill="#ac6675" fill-rule="evenodd" stroke="#ac6675" stroke-width="0.48" stroke-linecap="square" stroke-linejoin="bevel" d="M0 0L15.2735 12.3885L10.1823 14.2553L0 0" sodipodi:nodetypes="cccc"/><path id="shape165" transform="translate(362.491226263373, 136.273621109311)" fill="#ac6675" fill-rule="evenodd" stroke="#ac6675" stroke-width="0.48" stroke-linecap="square" stroke-linejoin="bevel" d="M0 0L17.4797 10.6915L11.3703 15.7826L0 0" sodipodi:nodetypes="cccc"/><path id="shape166" transform="translate(242.679051290554, 85.8710489181962)" fill="#ac6675" fill-rule="evenodd" stroke="#ac6675" stroke-width="0.48" stroke-linecap="square" stroke-linejoin="bevel" d="M0 10.5217L29.0197 0L34.7897 1.01823L3.22441 14.9341L0 10.5217" sodipodi:nodetypes="ccccc"/><path id="shape167" transform="translate(215.18673918631, 85.3619320273768)" fill="#ac6675" fill-rule="evenodd" stroke="#ac6675" stroke-width="0.48" stroke-linecap="square" stroke-linejoin="bevel" d="M0 0L7.63675 0.509117L27.4923 10.1823L7.29734 13.0673L0 0" sodipodi:nodetypes="ccccc"/><path id="shape168" transform="translate(81.3600054581378, 88.3200059250582)" fill="#ac6675" fill-rule="evenodd" stroke="#ac6675" stroke-width="0.48" stroke-linecap="square" stroke-linejoin="bevel" d="M6.72 52.32L32.64 29.28L57.84 10.8L81.84 0L50.88 10.56L0 48.72L6.72 52.32" sodipodi:nodetypes="ccccccc"/><path id="shape169" transform="translate(140.880009451112, 150.720010111241)" fill="#ac6675" fill-rule="evenodd" stroke="#ac6675" stroke-width="0.48" stroke-linecap="square" stroke-linejoin="bevel" d="M0.96 11.52L0 7.92L9.12 0L9.6 2.64L0.96 11.52" sodipodi:nodetypes="ccccc"/><path id="shape170" transform="translate(193.800005014294, 104.400002701199)" fill="#d7d7d7" fill-rule="evenodd" stroke="#d7d7d7" stroke-width="0.48" stroke-linecap="square" stroke-linejoin="bevel" d="M0 14.88L18.36 0L21.84 2.76L8.16 16.32L0 14.88" sodipodi:nodetypes="ccccc"/><path id="shape171" transform="translate(291.000002920749, 132.720001332103)" fill="#d7d7d7" fill-rule="evenodd" stroke="#d7d7d7" stroke-width="0.48" stroke-linecap="square" stroke-linejoin="bevel" d="M1.92 0L10.2 12.96L0 2.4L1.92 0" sodipodi:nodetypes="cccc"/>
</svg>
